<?xml version="1.0" standalone="no"?>
<!DOCTYPE svg PUBLIC "-//W3C//DTD SVG 1.1//EN" "http://www.w3.org/Graphics/SVG/1.1/DTD/svg11.dtd" >
<svg xmlns="http://www.w3.org/2000/svg">
<metadata></metadata>
<defs>
<font id="goudy_trajan_mediummedium" horiz-adv-x="1454" >
<font-face units-per-em="2048" ascent="1536" descent="-512" />
<missing-glyph horiz-adv-x="655" />
<glyph unicode="&#xfb01;" horiz-adv-x="1701" d="M109 8q0 11 41 19q65 14 86 51q18 59 22 146.5t4 320.5v516q0 58 -8.5 85.5t-40.5 39.5q-5 2 -28 4.5t-41.5 7t-18.5 12.5q0 17 59 17q27 0 86.5 -4t94.5 -4h196q99 0 161.5 3.5t89 7t38.5 3.5q6 0 8 -8t2.5 -23t1.5 -22q10 -58 10 -99t-20 -41q-12 0 -18 33 q-6 74 -199 74h-168q-17 0 -22 -8t-5 -33v-418q0 -18 23 -18h168q71 0 102 22q22 18 27 68q0 2 0.5 7.5t1 6.5t1.5 4.5t3 4.5t5.5 2t8.5 1q21 0 21 -26q0 -18 -4 -64q-1 -8 -2 -29l-4 -40q0 -36 4 -90q4 -40 4 -64q0 -17 -3.5 -25t-17.5 -8q-5 0 -9 1t-6.5 4t-4 5.5t-2 8 t-1 9t-1 10.5t-0.5 11q0 51 -15 68q-31 33 -108 33h-170q-12 0 -16.5 -4.5t-4.5 -16.5v-309q0 -41 9 -112.5t22 -92.5q22 -22 76 -30q45 -7 45 -17t-9.5 -12t-39.5 -2q-25 0 -99 4q-35 2 -90 2q-41 0 -131 -4q-33 -2 -86 -2q-28 0 -28 14zM1106 8q0 13 53 17q46 4 70 28 q20 23 25.5 65t5.5 136v803q0 102 -39 121q-6 3 -50 16q-47 8 -47 18q0 17 47 17q27 0 85.5 -5t89.5 -5q28 0 87.5 6t90.5 6q47 0 47 -19q0 -10 -45 -18q-1 0 -17 -3.5t-26 -8.5q-26 -16 -35.5 -46t-9.5 -85v-797q0 -91 4.5 -132t23.5 -65q17 -25 72 -32q53 -4 53 -17 q0 -14 -28 -14q-32 0 -103 3t-114 3q-31 0 -99.5 -3t-111.5 -3q-29 0 -29 14z" />
<glyph unicode="&#xfb02;" horiz-adv-x="1990" d="M109 8q0 11 41 19q65 14 86 51q18 59 22 146.5t4 320.5v516q0 58 -8.5 85.5t-40.5 39.5q-5 2 -28 4.5t-41.5 7t-18.5 12.5q0 17 59 17q27 0 86.5 -4t94.5 -4h196q99 0 161.5 3.5t89 7t38.5 3.5q6 0 8 -8t2.5 -23t1.5 -22q10 -58 10 -99t-20 -41q-12 0 -18 33 q-6 74 -199 74h-168q-17 0 -22 -8t-5 -33v-418q0 -18 23 -18h168q71 0 102 22q22 18 27 68q0 2 0.5 7.5t1 6.5t1.5 4.5t3 4.5t5.5 2t8.5 1q21 0 21 -26q0 -18 -4 -64q-1 -8 -2 -29l-4 -40q0 -36 4 -90q4 -40 4 -64q0 -17 -3.5 -25t-17.5 -8q-5 0 -9 1t-6.5 4t-4 5.5t-2 8 t-1 9t-1 10.5t-0.5 11q0 51 -15 68q-31 33 -108 33h-170q-12 0 -16.5 -4.5t-4.5 -16.5v-309q0 -41 9 -112.5t22 -92.5q22 -22 76 -30q45 -7 45 -17t-9.5 -12t-39.5 -2q-25 0 -99 4q-35 2 -90 2q-41 0 -131 -4q-33 -2 -86 -2q-28 0 -28 14zM1106 8q0 2 1 3.5t2.5 3t3.5 2.5 t5.5 2t6 1.5t7 1t8 1t8.5 1t9 1.5q53 5 68 22q22 27 28.5 80.5t6.5 159.5v764q0 75 -15 104t-67 41q-43 11 -43 16q0 15 39 15q26 0 83 -4t91 -4q29 0 89.5 5t92.5 5q31 0 31 -15q0 -7 -33 -16q-55 -14 -72.5 -44t-17.5 -95v-725q0 -43 0.5 -64t1.5 -54t4.5 -49.5t9 -36 t15 -28.5t22.5 -12q63 -16 180 -16q39 0 84.5 7.5t67.5 18.5q18 11 49 62l5 7.5t4.5 7t4 6t4.5 5.5t5 3.5t6 2.5t6 1q20 0 20 -21q0 -9 -14 -49q-13 -34 -23 -80q-5 -25 -14 -38t-29 -13q-73 0 -235 3t-262 3q-29 0 -98 -3t-115 -3q-31 0 -31 14z" />
<glyph unicode="&#xfb03;" horiz-adv-x="2699" d="M109 8q0 11 41 19q65 14 86 51q18 59 22 146.5t4 320.5v516q0 58 -8.5 85.5t-40.5 39.5q-5 2 -28 4.5t-41.5 7t-18.5 12.5q0 17 59 17q27 0 86.5 -4t94.5 -4h196q99 0 161.5 3.5t89 7t38.5 3.5q6 0 8 -8t2.5 -23t1.5 -22q10 -58 10 -99t-20 -41q-12 0 -18 33 q-6 74 -199 74h-168q-17 0 -22 -8t-5 -33v-418q0 -18 23 -18h168q71 0 102 22q22 18 27 68q0 2 0.5 7.5t1 6.5t1.5 4.5t3 4.5t5.5 2t8.5 1q21 0 21 -26q0 -18 -4 -64q-1 -8 -2 -29l-4 -40q0 -36 4 -90q4 -40 4 -64q0 -17 -3.5 -25t-17.5 -8q-5 0 -9 1t-6.5 4t-4 5.5t-2 8 t-1 9t-1 10.5t-0.5 11q0 51 -15 68q-31 33 -108 33h-170q-12 0 -16.5 -4.5t-4.5 -16.5v-309q0 -41 9 -112.5t22 -92.5q22 -22 76 -30q45 -7 45 -17t-9.5 -12t-39.5 -2q-25 0 -99 4q-35 2 -90 2q-41 0 -131 -4q-33 -2 -86 -2q-28 0 -28 14zM1106 8q0 11 41 19q65 14 86 51 q18 60 22.5 149t4.5 318v516q0 57 -9 85t-41 40q-5 2 -28 4.5t-41.5 7t-18.5 12.5q0 17 60 17q27 0 86 -4t94 -4h197q99 0 161 3.5t88.5 7t38.5 3.5q6 0 8.5 -8t3 -23.5t1.5 -21.5q10 -58 10 -99t-21 -41q-13 0 -18 33q-6 74 -199 74h-168q-17 0 -21.5 -8t-4.5 -33v-418 q0 -11 5 -14.5t17 -3.5h168q72 0 103 22q21 17 26 68q0 2 1 4q2 19 12 21l8 1q20 0 20 -26q0 -18 -4 -64q-1 -8 -2 -29l-4 -40q0 -36 4 -90q4 -40 4 -64q0 -12 -0.5 -17.5t-5.5 -10.5t-14 -5q-5 0 -9 1t-6.5 4t-4 5.5t-2.5 8.5t-1.5 8.5t-1 10.5t-0.5 11q0 52 -14 68 q-31 33 -109 33h-170q-12 0 -16 -4.5t-4 -16.5v-309q0 -42 8.5 -113.5t21.5 -91.5q22 -22 76 -30q45 -7 45 -17t-9.5 -12t-39.5 -2q-24 0 -98 4q-35 2 -90 2q-41 0 -131 -4q-33 -2 -86 -2q-29 0 -29 14zM2103 8q0 13 54 17q45 4 69 28q20 23 25.5 65t5.5 136v803 q0 102 -39 121q-7 4 -49 16q-47 8 -47 18q0 17 47 17q27 0 85 -5t89 -5q28 0 87.5 6t90.5 6q47 0 47 -19q0 -10 -45 -18q-1 0 -17 -3.5t-26 -8.5q-26 -16 -35.5 -46t-9.5 -85v-797q0 -89 5 -131t24 -66q17 -25 71 -32q54 -4 54 -17q0 -14 -29 -14q-32 0 -103 3t-114 3 q-31 0 -99.5 -3t-111.5 -3q-29 0 -29 14z" />
<glyph unicode="&#xfb04;" horiz-adv-x="2988" d="M109 8q0 11 41 19q65 14 86 51q18 59 22 146.5t4 320.5v516q0 58 -8.5 85.5t-40.5 39.5q-5 2 -28 4.5t-41.5 7t-18.5 12.5q0 17 59 17q27 0 86.5 -4t94.5 -4h196q99 0 161.5 3.5t89 7t38.5 3.5q6 0 8 -8t2.5 -23t1.5 -22q10 -58 10 -99t-20 -41q-12 0 -18 33 q-6 74 -199 74h-168q-17 0 -22 -8t-5 -33v-418q0 -18 23 -18h168q71 0 102 22q22 18 27 68q0 2 0.5 7.5t1 6.5t1.5 4.5t3 4.5t5.5 2t8.5 1q21 0 21 -26q0 -18 -4 -64q-1 -8 -2 -29l-4 -40q0 -36 4 -90q4 -40 4 -64q0 -17 -3.5 -25t-17.5 -8q-5 0 -9 1t-6.5 4t-4 5.5t-2 8 t-1 9t-1 10.5t-0.5 11q0 51 -15 68q-31 33 -108 33h-170q-12 0 -16.5 -4.5t-4.5 -16.5v-309q0 -41 9 -112.5t22 -92.5q22 -22 76 -30q45 -7 45 -17t-9.5 -12t-39.5 -2q-25 0 -99 4q-35 2 -90 2q-41 0 -131 -4q-33 -2 -86 -2q-28 0 -28 14zM1106 8q0 11 41 19q65 14 86 51 q18 60 22.5 149t4.5 318v516q0 57 -9 85t-41 40q-5 2 -28 4.5t-41.5 7t-18.5 12.5q0 17 60 17q27 0 86 -4t94 -4h197q99 0 161 3.5t88.5 7t38.5 3.5q6 0 8.5 -8t3 -23.5t1.5 -21.5q10 -58 10 -99t-21 -41q-13 0 -18 33q-6 74 -199 74h-168q-17 0 -21.5 -8t-4.5 -33v-418 q0 -11 5 -14.5t17 -3.5h168q72 0 103 22q21 17 26 68q0 2 1 4q2 19 12 21l8 1q20 0 20 -26q0 -18 -4 -64q-1 -8 -2 -29l-4 -40q0 -36 4 -90q4 -40 4 -64q0 -12 -0.5 -17.5t-5.5 -10.5t-14 -5q-5 0 -9 1t-6.5 4t-4 5.5t-2.5 8.5t-1.5 8.5t-1 10.5t-0.5 11q0 52 -14 68 q-31 33 -109 33h-170q-12 0 -16 -4.5t-4 -16.5v-309q0 -42 8.5 -113.5t21.5 -91.5q22 -22 76 -30q45 -7 45 -17t-9.5 -12t-39.5 -2q-24 0 -98 4q-35 2 -90 2q-41 0 -131 -4q-33 -2 -86 -2q-29 0 -29 14zM2103 8q0 2 1 3.5t2.5 3t3.5 2.5t5.5 2t6 1.5t7 1t8 1t8.5 1t9 1.5 q53 5 68 22q22 27 28.5 80.5t6.5 159.5v764q0 75 -15 104t-67 41q-43 11 -43 16q0 15 39 15q26 0 83 -4t91 -4q29 0 89.5 5t92.5 5q31 0 31 -15q0 -7 -33 -16q-55 -14 -72.5 -44t-17.5 -95v-725q0 -43 0.5 -64t1.5 -54t4.5 -49.5t9 -36t15 -28.5t22.5 -12q63 -16 181 -16 q39 0 84 7.5t67 18.5q18 11 49 62l5 7.5t4.5 7t4 6t4.5 5.5t5 3.5t6 2.5t6 1q11 0 16 -7t5 -14q0 -6 -15 -49q-10 -28 -22 -80q-5 -25 -14 -38t-29 -13q-73 0 -236 3t-262 3q-29 0 -98 -3t-115 -3q-31 0 -31 14z" />
<glyph horiz-adv-x="2048" />
<glyph horiz-adv-x="2048" />
<glyph unicode="&#xd;" horiz-adv-x="2048" />
<glyph unicode=" "  horiz-adv-x="655" />
<glyph unicode="&#x09;" horiz-adv-x="655" />
<glyph unicode="&#xa0;" horiz-adv-x="655" />
<glyph unicode="!" horiz-adv-x="466" d="M125 1411q0 39 108 39q109 0 109 -39q0 -14 -7.5 -82t-17 -156.5t-12.5 -136.5l-41 -573q-2 -19 -11 -38t-20 -19q-12 0 -21 18.5t-11 36.5l-41 579q-4 52 -13 138t-15.5 149.5t-6.5 83.5zM131 96q0 44 29.5 73.5t72.5 29.5q42 0 72.5 -29.5t30.5 -73.5t-29.5 -74 t-73.5 -30q-43 0 -72.5 30t-29.5 74z" />
<glyph unicode="&#x22;" horiz-adv-x="632" d="M102 1425q0 16 13.5 19.5t64.5 3.5q49 0 63.5 -3.5t14.5 -17.5q0 -4 -3.5 -28t-4.5 -33l-39 -279q-9 -65 -31 -65q-21 0 -30 65l-39 279q-1 6 -3 20t-4 25t-2 14zM375 1425q0 16 13.5 19.5t64.5 3.5q49 0 63 -3.5t14 -17.5q0 -4 -3.5 -28t-4.5 -33l-39 -279 q-9 -65 -30 -65q-22 0 -31 65l-39 279q-1 6 -3 20t-3.5 25t-1.5 14z" />
<glyph unicode="#" horiz-adv-x="1132" d="M61 449v129h248l47 301h-235v133h254l61 430h92l-61 -430h266l60 430h90l-60 -430h209v-133h-227l-43 -301h215v-129h-236l-65 -449h-90l65 449h-270l-70 -449h-90l70 449h-230zM401 578h271l43 301h-266z" />
<glyph unicode="$" horiz-adv-x="931" d="M111 178q0 13 1 38t1 34v20q4 76 22 76q8 0 11.5 -15t7.5 -40.5t10 -40.5q51 -121 207 -139l32 563l-73 49q-6 5 -39 27q-166 129 -166 323q0 137 86 221t235 95l5 75q2 11 4.5 15t11.5 4h57q15 0 15 -10q-7 -27 -7 -82q47 -4 108.5 -15.5t76.5 -11.5q23 0 39 5t20 5 q6 0 6 -6q0 -8 -5 -26t-5 -25q0 -10 2 -34t2 -48q0 -121 -24 -121q-9 0 -13 18t-12 50t-25 55q-54 72 -174 90l-28 -504q141 -86 193 -132q123 -117 126 -261q0 -63 -23.5 -127t-67.5 -120t-115.5 -94t-159.5 -44l-4 -84q-1 -12 -5.5 -16t-13.5 -4h-55q-15 0 -15 10 q0 9 7 72v20q-125 6 -224 47q-32 12 -32 88zM252 1126q0 -132 137 -229l27 -18l26 450q-80 -10 -135 -62.5t-55 -140.5zM457 106q103 8 167 74.5t64 173.5q0 43 -13.5 79.5t-40 67t-55 53.5t-69.5 50l-23 14z" />
<glyph unicode="%" horiz-adv-x="1900" d="M102 952q0 132 40 241t118 175t180 66q76 0 137.5 -28t101 -73t66 -105t37.5 -120.5t11 -122.5q0 -122 -39.5 -224t-125 -168.5t-204.5 -66.5q-147 0 -234.5 123.5t-87.5 302.5zM233 1059q0 -55 6 -114t22.5 -126t42 -118.5t68.5 -86t97 -34.5t99.5 49.5t69.5 118.5 t24 135q0 48 -4 96.5t-13.5 108t-28 109.5t-45 93t-67.5 67.5t-92 24.5q-45 0 -81 -34.5t-56.5 -86.5t-31 -105t-10.5 -97zM492 -12l798 1454h113l-799 -1454h-112zM1108 426q0 131 40.5 239t119 174t180.5 66q76 0 137.5 -28t100 -73t65 -104.5t37 -120t10.5 -122.5 q0 -72 -14 -138.5t-43.5 -125t-72 -102t-103.5 -68.5t-133 -25q-147 0 -235.5 124t-88.5 304zM1239 532q0 -56 6 -115t22.5 -126.5t42 -119t69 -86t98.5 -34.5q53 0 98.5 49t69.5 118t24 136q0 58 -5.5 117.5t-22 130.5t-43 125t-73 90.5t-106.5 36.5q-45 0 -81.5 -35 t-57 -87t-31 -104.5t-10.5 -95.5z" />
<glyph unicode="&#x26;" horiz-adv-x="1611" d="M82 498q0 179 149 325q14 14 44 36t52.5 38t22.5 18q0 7 -16 15q-121 76 -121 209q0 158 106 242.5t271 84.5q60 0 127 -21t122 -42t85 -21q6 0 18.5 3.5t18.5 3.5q8 0 8 -13q0 -14 -2 -42t-2 -42q0 -26 5 -77t5 -76q0 -35 -14 -35q-5 0 -11 16t-17 44.5t-26 49.5 q-60 86 -149.5 133.5t-188.5 47.5q-85 0 -138.5 -55.5t-53.5 -155.5q0 -108 71.5 -187t178.5 -79q55 0 55 -21q0 -27 -61 -27q-159 0 -248.5 -93t-89.5 -255q0 -213 132 -348t339 -135q87 0 162 19.5t137 60.5t97.5 111.5t35.5 164.5q0 160 -58 254q-72 19 -163 19 q-43 0 -81 -7t-72.5 -22t-54.5 -44t-20 -69q0 -61 25 -86q2 -2 13.5 -8.5t20.5 -13.5t9 -12q0 -17 -25 -17q-47 0 -77.5 50.5t-30.5 101.5q0 135 70 193.5t206 58.5q132 0 242 -11q19 -2 52.5 -7t61.5 -8t54 -3q24 0 38 0.5t39 4.5t39 11t25.5 22t11.5 36q0 11 -6.5 16.5 t-13.5 5.5q-4 14 -12.5 22.5t-16 11t-13 6t-5.5 9.5q0 21 35 21q40 0 67 -50.5t27 -95.5q0 -40 -11.5 -68.5t-30 -45t-49 -26t-60 -12.5t-70.5 -3q18 -50 18 -121q0 -114 -39 -207t-102.5 -154t-148.5 -102.5t-173.5 -59.5t-179.5 -18q-105 0 -198 18.5t-175.5 59.5 t-142.5 102t-94.5 150.5t-34.5 200.5z" />
<glyph unicode="'" horiz-adv-x="360" d="M102 1425q0 16 13.5 19.5t64.5 3.5q49 0 63.5 -3.5t14.5 -17.5q0 -4 -3.5 -28t-4.5 -33l-39 -279q-9 -65 -31 -65q-21 0 -30 65l-39 279q-1 6 -3 20t-4 25t-2 14z" />
<glyph unicode="(" horiz-adv-x="610" d="M61 690q0 206 79 389t208 328q1 1 24 27.5t32 34.5t28 26t33 24.5t27 6.5q16 0 16 -13q0 -3 -2.5 -8t-7.5 -10.5t-9.5 -9.5t-10 -9.5l-7.5 -7.5q-113 -115 -179.5 -319.5t-66.5 -433.5q0 -246 50.5 -426.5t168.5 -327.5q5 -7 21.5 -25t28.5 -33t12 -22q0 -9 -14 -12 l-29 12q-77 55 -148 138.5t-128 187t-91.5 230t-34.5 253.5z" />
<glyph unicode=")" horiz-adv-x="610" d="M102 -119q0 5 4.5 12t9.5 12t13 12t10 9q112 117 178 321t66 433q0 262 -56 445t-188 343l-12 12t-17.5 19.5t-7.5 13.5q0 13 17 13q10 0 26 -13q77 -54 148 -137t129 -186.5t92.5 -230t34.5 -252.5q0 -207 -78.5 -390t-206.5 -325q-30 -35 -48.5 -54.5t-49 -44 t-49.5 -24.5q-15 0 -15 12z" />
<glyph unicode="*" horiz-adv-x="843" d="M72 1194l75 135q209 -174 244 -188q-2 55 -13.5 129.5t-22.5 121.5l-11 48h162q-47 -195 -53 -299q45 28 104.5 74.5t96.5 78.5l36 33l76 -123q-250 -86 -287 -117q48 -24 121 -50.5t122 -40.5l48 -15l-86 -137q-190 182 -231 196q2 -56 15 -131.5t26 -122.5l12 -47h-160 q45 242 45 301q-45 -29 -102.5 -77.5t-92.5 -82.5l-34 -34l-78 129q246 85 285 112q-37 23 -111.5 49.5t-129.5 41.5z" />
<glyph unicode="+" horiz-adv-x="1060" d="M102 676v108h373v373h111v-373h372v-108h-372v-375h-111v375h-373z" />
<glyph unicode="," horiz-adv-x="423" d="M109 143q0 27 40.5 72t67.5 45q22 0 64.5 -46.5t42.5 -86.5q0 -63 -39 -142t-85 -130.5t-69 -51.5q-4 0 -8 4t-4 9q0 11 20.5 43t41 78.5t20.5 91.5q0 19 -14.5 37.5t-31.5 30.5t-31.5 24.5t-14.5 21.5z" />
<glyph unicode="-" horiz-adv-x="821" d="M123 672q0 4 4 8l61 82q14 14 50 20l352 49q8 1 25 5t31 6t24 2q28 0 28 -27t-7 -41t-27 -18l-355 -92l-45.5 -13t-68.5 -18.5t-41 -7.5q-5 0 -11 6q-20 31 -20 39z" />
<glyph unicode="." horiz-adv-x="450" d="M123 96q0 44 29.5 73.5t72.5 29.5q42 0 72.5 -29.5t30.5 -73.5t-29.5 -74t-73.5 -30q-43 0 -72.5 30t-29.5 74z" />
<glyph unicode="/" horiz-adv-x="841" d="M33 -121q0 3 8 27l659 1665q5 11 13 13.5t43 2.5q27 0 37 -2t10 -10q0 -11 -8 -27l-660 -1659q-4 -12 -8 -15t-12 -3h-68q-14 0 -14 8z" />
<glyph unicode="0" horiz-adv-x="1318" d="M123 657q0 165 30 301t81.5 229t122 157t150 93t167.5 29q87 0 163.5 -34.5t132 -93.5t100 -134t71.5 -158.5t41 -163.5t14 -153q0 -122 -19.5 -232t-62.5 -207.5t-105.5 -168.5t-153.5 -112.5t-202 -41.5q-95 0 -180 39.5t-148 107.5t-109 156.5t-69.5 187.5t-23.5 199z M326 840q0 -195 20.5 -339.5t65 -250.5t119.5 -159.5t180 -53.5q276 0 276 516q0 96 -3 176.5t-12.5 169.5t-25 158.5t-42 134.5t-62 108t-87 69t-114.5 26q-157 0 -236 -148t-79 -407z" />
<glyph unicode="1" horiz-adv-x="905" d="M123 1280q0 19 34 33t107.5 35.5t124.5 42.5q37 16 77 38.5t63 36t28 13.5q10 0 10 -19q0 -64 -6 -256.5t-6 -265.5v-576q0 -251 37 -292q21 -24 69 -35t84.5 -17t36.5 -18q0 -9 -12.5 -17t-26.5 -8q-31 0 -135 12.5t-135 12.5q-53 0 -150 -10t-161 -10q-31 0 -31 16 q0 15 21.5 20t59.5 8t58 9q25 8 43 25.5t29 49t17.5 60.5t9.5 79.5t3.5 83t0.5 93.5v686q0 63 -1 89t-7 53.5t-19.5 35.5t-38.5 8q-15 0 -79 -16t-81 -16q-24 0 -24 16z" />
<glyph unicode="2" horiz-adv-x="1191" d="M102 4q0 15 131 146l39 38q50 51 174 187l48 51q127 139 209.5 294.5t82.5 293.5q0 170 -83.5 272.5t-229.5 102.5q-60 0 -113.5 -25.5t-87 -64t-52.5 -80.5t-19 -78q0 -9 -4 -16t-9 -7q-10 0 -18 21.5t-8 38.5q0 18 3 62t3 63q0 15 -4.5 36t-5.5 33q0 10 10 10q4 0 9 -1 t9 -1q20 0 52 13.5t65 29.5t92 29.5t127 13.5q203 0 337 -122t134 -302q0 -44 -10.5 -91t-25 -87.5t-44 -90.5t-51 -84.5t-64.5 -87t-66.5 -80.5t-74.5 -81.5t-71 -74t-72 -72.5q-10 -10 -35.5 -34t-45 -43t-40.5 -41.5t-33 -40.5t-12 -28q0 -20 25 -20h383q71 0 109 9.5 t67 41.5q12 14 32 45t34.5 53.5t17.5 22.5q12 0 12 -10q0 -17 -31 -131q-6 -22 -9 -44.5t-4 -35.5t-3 -24t-7 -16t-16 -5q-62 0 -175.5 4t-172.5 4q-142 0 -245.5 -3.5t-155.5 -7t-68 -3.5q-39 0 -39 18z" />
<glyph unicode="3" horiz-adv-x="1050" d="M102 229q0 33 13 33q11 0 18 -13.5t11.5 -32t5.5 -21.5q35 -75 124 -116.5t183 -41.5q137 0 208.5 88.5t71.5 214.5q0 176 -93 287.5t-273 111.5h-47q-9 0 -17 6.5t-8 18.5q0 23 47.5 29.5t121.5 13.5t116 29q137 71 137 278q0 124 -83.5 202.5t-197.5 78.5 q-146 0 -237 -125q-15 -20 -22.5 -48.5t-12 -45.5t-12.5 -17q-7 0 -13 7t-6 16q0 26 4 79.5t4 77.5q0 9 -1 28t-1 28q0 12 15 12q4 0 13 -2t13 -2q21 0 64 15.5t107.5 31.5t136.5 16q104 0 196.5 -42t151.5 -122t59 -180q0 -67 -27 -124.5t-69.5 -95.5t-81 -61.5 t-76.5 -37.5q-2 0 -6 -3.5t-4 -6.5t3 -6t5 -3q41 -7 88.5 -36t92.5 -75.5t74.5 -119t29.5 -154.5q0 -88 -27.5 -161t-75 -122.5t-113 -83.5t-139.5 -49.5t-157 -15.5q-101 0 -285 49q-9 2 -14.5 12t-7.5 31.5t-2.5 38.5t-0.5 52q0 10 -2 41t-2 38z" />
<glyph unicode="4" horiz-adv-x="1241" d="M92 467q0 22 45 74l717 884q32 45 47 45q19 0 19 -26q0 -40 -2.5 -121t-2.5 -121v-639q0 -15 4 -18.5t23 -3.5h133q25 0 25 -13q0 -6 -4 -18l-15 -43q-7 -21 -15 -25t-36 -4h-88q-20 0 -23.5 -3t-3.5 -21v-201q0 -188 144 -188q10 0 29.5 -4.5t19.5 -12.5q0 -7 -8 -12 t-16 -6.5t-15 -1.5q-33 0 -123 6t-123 6q-39 0 -121.5 -5t-128.5 -5q-8 0 -20 4.5t-12 11.5q0 14 20 17t48 4.5t56 10.5t48 44.5t20 97.5v238q0 14 -4 17t-22 3h-566q-17 0 -25 1t-16 7.5t-8 20.5zM236 553q0 -12 16 -12h453q20 0 24 3.5t4 18.5v565q0 31 -8 31t-31 -31 l-442 -544q-16 -19 -16 -31z" />
<glyph unicode="5" horiz-adv-x="1116" d="M143 225q0 49 15 49t23.5 -19.5t17.5 -54t22 -55.5q27 -45 105 -76.5t196 -31.5q59 0 114.5 24t100.5 68.5t72 115.5t27 158q0 170 -115.5 267t-329.5 141q-70 14 -188 25q-21 4 -21 14q0 15 11 70l86 479q4 24 19 29.5t48 5.5h404q46 0 85 2.5t61.5 5t27.5 2.5 q18 0 18 -10q0 -15 -2.5 -30.5t-7 -36t-6.5 -30.5q-4 -20 -4 -61q0 -35 -15 -35q-4 0 -8.5 9.5t-8 22t-5.5 15.5q-16 27 -68.5 36t-142.5 9h-287q-30 0 -36.5 -6t-12.5 -39l-41 -233q-6 -24 -6 -39t14 -15q47 -3 129.5 -14.5t120.5 -21.5q212 -54 325 -180.5t113 -315.5 q0 -135 -45 -235.5t-122 -157t-167 -83t-194 -26.5q-24 0 -61 4.5t-90.5 12t-82.5 10.5q-56 6 -70 15t-14 40q0 28 -2 87t-2 89z" />
<glyph unicode="6" horiz-adv-x="1249" d="M123 582q0 178 44.5 328t116 250t163.5 170.5t184.5 102t181.5 31.5q59 0 95 -10t36 -24q0 -23 -29 -23q-13 0 -37 3t-51 3q-72 0 -142 -27.5t-133.5 -85.5t-112 -138.5t-77 -195t-28.5 -247.5q0 -682 350 -682q135 0 200.5 102.5t65.5 280.5q0 119 -30.5 220 t-95.5 167.5t-154 66.5t-138 -45q-12 -12 -26 -12q-17 0 -17 14q0 12 17 25q78 57 201 57q180 0 310 -127t130 -305q0 -235 -135.5 -374.5t-370.5 -139.5q-99 0 -184 35t-145.5 95t-103.5 139t-64 167t-21 179z" />
<glyph unicode="7" horiz-adv-x="1024" d="M41 1223q0 31 16.5 99t16.5 103q0 6 4.5 11.5t11.5 5.5q38 0 112.5 -4t112.5 -4h621q17 0 22 -3t5 -14q-3 -34 -111 -260q-151 -315 -250 -602t-166 -621q-27 0 -114.5 43t-106.5 62q33 128 73.5 233.5t106.5 245.5q58 127 169 330t212 366q15 24 31 58t16 51q0 7 -4 8.5 t-16 1.5h-524q-151 0 -187 -63q-5 -10 -10 -32t-10 -36t-13 -14q-6 0 -12 10.5t-6 24.5z" />
<glyph unicode="8" horiz-adv-x="1175" d="M123 369q0 76 23.5 138t69 108t94.5 78.5t116 64.5q-56 32 -96.5 63.5t-76.5 73.5t-54.5 95t-18.5 116q0 164 113 262t295 98q106 0 198 -38t151.5 -115t59.5 -176q0 -121 -71.5 -196.5t-210.5 -125.5q60 -31 102 -57.5t90 -68t77.5 -86.5t49 -108.5t19.5 -138.5 q0 -90 -39 -165t-103.5 -122.5t-144.5 -73.5t-166 -26q-97 0 -182 25t-151.5 72.5t-105 125.5t-38.5 177zM281 403q0 -159 95.5 -262.5t248.5 -103.5q114 0 196 75t82 187q0 44 -11 82.5t-26.5 69t-47.5 62t-59 53.5t-77.5 52t-85.5 48.5t-100 52.5q-101 -53 -158 -127.5 t-57 -188.5zM332 1180q0 -36 9.5 -69t23 -58t39.5 -50.5t47 -42.5t59 -39t63 -34.5t70 -34.5q104 50 159.5 104t55.5 134q0 122 -86.5 213.5t-218.5 91.5q-92 0 -156.5 -57t-64.5 -158z" />
<glyph unicode="9" horiz-adv-x="1247" d="M102 952q0 232 141.5 373t356.5 141q98 0 183 -38.5t147 -104t106 -152.5t66 -184.5t22 -198.5q0 -138 -29.5 -259t-80 -209.5t-116 -157.5t-139.5 -111.5t-148 -64t-144 -21.5q-68 0 -145 21t-128 52.5t-51 59.5q0 9 5.5 15t13.5 6q11 0 32.5 -13t47.5 -28t82 -28 t127 -13q37 0 76 7.5t85.5 29t88.5 54t82.5 87.5t69.5 125t47 171.5t18 221.5q0 187 -42 336.5t-123.5 237.5t-189.5 88q-133 0 -201.5 -103.5t-68.5 -269.5q0 -197 82.5 -330t212.5 -133q92 0 147 51q11 11 25 11q16 0 16 -19q0 -4 -3.5 -9t-6.5 -8l-4 -3q-75 -62 -197 -62 q-123 0 -228 52.5t-170 152.5t-65 227z" />
<glyph unicode=":" horiz-adv-x="450" d="M123 96q0 44 29.5 73.5t72.5 29.5q42 0 72.5 -29.5t30.5 -73.5t-29.5 -74t-73.5 -30q-43 0 -72.5 30t-29.5 74zM123 815q0 44 29.5 73.5t72.5 29.5q42 0 72.5 -29.5t30.5 -73.5t-29.5 -74t-73.5 -30q-43 0 -72.5 30t-29.5 74z" />
<glyph unicode=";" horiz-adv-x="436" d="M117 815q0 44 30 73.5t72 29.5q43 0 74 -29.5t31 -73.5t-30.5 -74t-74.5 -30q-42 0 -72 30t-30 74zM127 -180q0 9 19 34.5t38 66.5t19 87q0 25 -11.5 48t-25.5 36t-25.5 26t-11.5 21q0 25 42.5 67t68.5 42q19 0 51.5 -46t32.5 -79q0 -54 -37 -131t-80.5 -131t-65.5 -54 q-5 0 -9.5 4.5t-4.5 8.5z" />
<glyph unicode="&#x3c;" horiz-adv-x="1060" d="M102 678v119l856 379v-115l-731 -324l731 -323v-115z" />
<glyph unicode="=" horiz-adv-x="1060" d="M102 518v107h856v-107h-856zM102 868v107h856v-107h-856z" />
<glyph unicode="&#x3e;" horiz-adv-x="1060" d="M102 299v115l732 323l-732 324v115l856 -379v-119z" />
<glyph unicode="?" horiz-adv-x="710" d="M72 1315q0 60 70.5 105.5t168.5 45.5q74 0 141 -32.5t111.5 -97.5t44.5 -146q0 -50 -14 -96.5t-44 -92.5t-54.5 -76.5t-65.5 -76.5q-13 -14 -47.5 -51t-52 -58.5t-41.5 -54.5t-34.5 -64t-10.5 -63q0 -28 33.5 -54t33.5 -50q0 -19 -12 -31t-31 -12q-43 0 -65.5 49.5 t-22.5 128.5q0 51 24 110.5t58 116t68 114.5t58 123.5t24 125.5q0 102 -47.5 156.5t-122.5 54.5q-48 0 -72 -19t-35 -59q-8 -27 -33 -27q-12 0 -21 9.5t-9 21.5zM180 96q0 44 30.5 73.5t72.5 29.5q43 0 73.5 -29.5t30.5 -73.5t-30 -74t-74 -30q-42 0 -72.5 30t-30.5 74z" />
<glyph unicode="@" horiz-adv-x="1724" d="M113 594q0 169 71 329t188.5 278.5t279 190.5t333.5 72q157 0 278.5 -41t197 -115t113.5 -172.5t38 -217.5q0 -101 -40 -202t-107.5 -180.5t-165 -129.5t-203.5 -50q-28 0 -50.5 9t-38 21t-27.5 35t-18 40t-11.5 47.5t-7.5 45.5t-5 46q-87 -120 -175 -179t-157 -59 q-53 0 -86 54.5t-33 134.5q0 102 27 193t73.5 157t106 114.5t126 72.5t132.5 24q50 0 107 -20q20 26 63 52.5t72 26.5q25 0 25 -26q0 -5 -10 -17t-23.5 -27.5t-29.5 -47t-26 -68.5q-38 -134 -38 -364q0 -164 106 -164q105 0 186.5 127.5t81.5 326.5q0 101 -31 188.5 t-90.5 155.5t-155.5 107t-218 39q-123 0 -231.5 -40t-191 -112.5t-142 -171t-90.5 -218.5t-31 -251q0 -256 143 -410.5t367 -154.5q162 0 275 47.5t224 136.5q38 31 72 31q14 0 21.5 -8.5t7.5 -20.5q0 -30 -51.5 -73.5t-134.5 -85.5t-203.5 -71.5t-241.5 -29.5 q-108 0 -204 23.5t-178 73.5t-141.5 122.5t-93.5 176.5t-34 229zM647 600q0 -46 14 -80.5t44 -34.5q43 0 109.5 66.5t127.5 155.5l4 28q23 159 64 273q-67 32 -117 32q-60 0 -109 -42.5t-77.5 -109t-44 -141.5t-15.5 -147z" />
<glyph unicode="A" horiz-adv-x="1368" d="M-41 10q0 7 10.5 11.5t26.5 7.5t22 6q52 25 80 70.5t70 148.5l422 1046q74 181 82 194q7 8 12 9q15 0 31 -45l499 -1276q11 -30 32.5 -69.5t35.5 -53.5q14 -13 46.5 -23t56.5 -17.5t24 -14.5q0 -12 -31 -12q-30 0 -111 4t-112 4q-37 0 -109 -4t-108 -4q-37 0 -37 10 q0 12 19 17.5t41.5 8t41.5 18.5t19 46q0 72 -45 189l-76 196q-8 23 -16 29t-35 6h-434q-30 0 -36.5 -4t-14.5 -25l-97 -252q-30 -88 -30 -131q0 -49 30 -59q12 -4 38 -9.5t38 -10.5t12 -11q0 -16 -28 -16q-13 0 -67.5 3t-108.5 3q-27 0 -80.5 -3t-77.5 -3q-35 0 -35 16z M416 608q0 -7 5 -8.5t21 -1.5h365q41 0 41 10q0 5 -27 78l-155 406q-21 57 -33 57t-33 -57l-168 -433q-16 -43 -16 -51z" />
<glyph unicode="B" horiz-adv-x="1241" d="M109 4q0 11 31.5 17t69.5 18.5t50 36.5q13 29 20 137t7 211v823q0 95 -27 131q-11 14 -43 22.5t-57 14t-25 12.5q0 17 45 17q20 0 87 -5t104 -5q27 0 113 3t120 3q100 0 189.5 -40.5t147.5 -121t58 -182.5q0 -72 -15.5 -128.5t-43.5 -93t-54.5 -58t-62.5 -40.5 q-5 -3 -11 -5.5t-10 -4t-7.5 -3.5t-5 -3.5t-1.5 -3.5q0 -6 50 -21q57 -20 106.5 -50t95.5 -75.5t72.5 -111.5t26.5 -146q0 -94 -42 -166.5t-112.5 -114.5t-154.5 -63.5t-177 -21.5q-57 0 -146 7t-136 7q-29 0 -111 -3t-110 -3q-41 0 -41 10zM471 313q0 -79 6.5 -129.5 t17.5 -80t35.5 -43.5t48 -17.5t68.5 -3.5q57 0 108 13.5t97.5 43.5t74 86.5t27.5 134.5q0 92 -35 166t-95 121.5t-138 72.5t-166 25q-31 0 -40 -5t-9 -27v-357zM471 831q0 -33 23.5 -42t83.5 -9h51q104 0 156.5 53t52.5 191q0 72 -27 136.5t-69.5 108.5t-96 69.5 t-106.5 25.5q-46 0 -57 -10.5t-11 -63.5v-459z" />
<glyph unicode="C" horiz-adv-x="1476" d="M92 731q0 217 96 386t258.5 259t360.5 90q192 0 364 -39q120 -32 138 -32q9 0 17 5t13 5q9 0 9 -23q0 -15 -4.5 -49t-4.5 -47q0 -16 3.5 -60t3.5 -67q0 -53 -17 -53q-13 0 -18 11.5t-9 35.5t-12 39q-45 89 -171 145t-314 56q-125 0 -223.5 -47t-160 -129.5t-93 -190 t-31.5 -233.5q0 -224 77.5 -396t220.5 -267t329 -95q165 0 305 96q35 24 58 67t33.5 73t16.5 30q17 0 17 -39q0 -8 -6.5 -36t-8.5 -40q-2 -19 -11 -61.5t-11 -56.5q-6 -35 -82.5 -58.5t-173.5 -33t-203 -9.5q-127 0 -239.5 28.5t-209.5 89.5t-167 149.5t-110 215.5t-40 281z " />
<glyph unicode="D" horiz-adv-x="1644" d="M111 6q0 10 30 14t67.5 15t49.5 35q29 55 29 247v936q0 85 -29 120.5t-102 35.5q-25 0 -25 16q0 8 13 13.5t30 5.5q21 0 96.5 -5t102.5 -5q62 0 203 7t237 7q170 0 307.5 -51t229.5 -143t142 -221t50 -285q0 -360 -198.5 -562t-552.5 -202q-77 0 -211.5 8t-198.5 8 q-74 0 -150 -4t-88 -4q-32 0 -32 14zM471 473q0 -98 2 -159t12.5 -127.5t30.5 -82.5q29 -25 106.5 -42t157.5 -17q279 0 428.5 161t149.5 484q0 111 -29 214.5t-86 190.5t-135.5 151.5t-184 101t-225.5 36.5h-41q-114 0 -150 -14t-36 -74v-823z" />
<glyph unicode="E" horiz-adv-x="1130" d="M111 6q0 12 31 16t68.5 14.5t49.5 39.5q27 67 27 436v766q0 34 -8 58.5t-16.5 37t-28 21.5t-29 10.5t-33.5 5.5q-37 7 -37 16q0 8 14.5 12.5t24.5 4.5q26 0 84 -5t88 -5h43q92 0 278 7t298 7q12 0 12 -18q0 -6 -1 -18t-1 -15q0 -22 2 -72t2 -70q0 -24 -10 -24q-7 0 -11 6 t-7 17t-5 14q-24 54 -66.5 72t-138.5 18h-215q-31 0 -43 -8t-12 -35v-477q0 -24 5.5 -29.5t29.5 -5.5h244q74 0 94 26q14 17 20 46.5t9.5 49t13.5 19.5q12 0 12 -51q0 -18 -3 -61.5t-3 -59.5q0 -26 2 -83t3 -81q0 -28 -13 -28q-6 0 -9.5 12.5t-5.5 31t-4 25.5q-12 40 -37 52 t-84 12h-247q-18 0 -22.5 -7t-4.5 -26v-477q0 -34 14.5 -57.5t33 -35t51 -18t54 -7.5t56.5 -1q137 0 209 25q32 11 55.5 37t35.5 46.5t17 20.5q11 0 11 -16q-3 -22 -31 -105q-25 -67 -37 -82.5t-35 -15.5q-78 0 -255 3t-255 3q-97 0 -154 -4t-81 -4q-49 0 -49 14z" />
<glyph unicode="F" horiz-adv-x="1087" d="M111 6q0 9 19.5 14t44 9t49 19t32.5 40q22 72 26.5 170t4.5 383v610q0 67 -11 100t-53 50q-9 4 -33.5 7t-41.5 7t-17 12q0 17 57 17q5 0 85 -5t120 -5q350 0 461 8q13 1 44 4.5t48 3.5q4 0 11.5 -67.5t8.5 -108.5q0 -45 -16 -45q-3 0 -5 3.5t-3.5 9.5t-2.5 11t-2 12t-1 9 q-10 41 -61.5 60.5t-172.5 19.5h-192q-25 0 -32 -9.5t-7 -41.5v-494q0 -14 8 -18.5t27 -4.5h192q86 0 121 27q22 17 28.5 46t8 48t12.5 19q15 0 15 -31q0 -21 -6.5 -77t-6.5 -77q0 -40 5.5 -100.5t6.5 -83.5q0 -37 -16 -37q-14 0 -16.5 25.5t-5.5 60.5t-17 51 q-34 39 -129 39h-196q-15 0 -20 -0.5t-8 -5.5t-3 -16v-367q0 -61 9 -143t28 -105q16 -18 50.5 -26t60.5 -12.5t26 -14.5q0 -14 -47 -14q-29 0 -110.5 4t-106.5 4q-38 0 -132.5 -4t-113.5 -4q-24 0 -24 14z" />
<glyph unicode="G" horiz-adv-x="1613" d="M82 745q0 153 52.5 285.5t146.5 229t231.5 151.5t300.5 55q161 0 317 -34q26 -5 66 -16t69.5 -18t45.5 -7q24 0 37.5 6.5t19 13t10.5 6.5q11 0 11 -20q0 -11 -6.5 -51t-8.5 -80q-1 -15 -2 -43t-2 -47t-3 -39t-6 -30.5t-11 -10.5q-10 0 -16.5 12t-6.5 27q0 42 -38.5 88 t-103.5 83.5t-161 62t-201 24.5q-132 0 -236.5 -45t-170 -123.5t-99.5 -180t-34 -219.5q0 -233 68.5 -409t209.5 -278.5t340 -102.5q58 0 122 17.5t101 45.5q58 43 58 207v232q0 81 -29 110q-19 20 -50.5 27.5t-52 10.5t-20.5 13q0 17 39 17q12 0 93 -5t122 -5q62 0 126 6 t67 6q30 0 30 -21q0 -6 -17 -10.5t-40.5 -10.5t-32.5 -13q-23 -19 -31.5 -33.5t-14 -56.5t-5.5 -128q0 -30 1 -150t1 -161q0 -37 -2 -51q0 -40 -164.5 -77.5t-320.5 -37.5q-383 0 -591 190.5t-208 587.5z" />
<glyph unicode="H" horiz-adv-x="1787" d="M111 6q0 10 21.5 14t50.5 8t40 11q41 28 52.5 81t11.5 177v950q0 119 -49 146q-14 7 -41 12.5t-44.5 10t-17.5 11.5t12.5 12t26.5 5t92.5 -5t106.5 -5q30 0 107 7t98 7q45 0 45 -18q0 -8 -19.5 -13t-47 -10.5t-38.5 -11.5q-32 -20 -39.5 -52t-7.5 -104v-410 q0 -23 5.5 -28.5t29.5 -5.5h774q26 0 31.5 4.5t5.5 29.5v416q0 43 -1.5 64.5t-10.5 47t-27 36.5q-14 8 -43 13.5t-48.5 9.5t-19.5 11t12.5 12t26.5 5t92.5 -5t106.5 -5q30 0 107 7t98 7q45 0 45 -18q0 -8 -20.5 -12.5t-48.5 -10t-40 -12.5q-30 -20 -37.5 -53t-7.5 -103v-942 q0 -124 11.5 -177t52.5 -81q11 -7 40 -11t50.5 -8t21.5 -14q0 -14 -24 -14q-14 0 -107.5 4t-138.5 4q-60 0 -144.5 -4t-95.5 -4q-24 0 -24 14q0 10 21.5 14t50.5 8t40 11q40 28 51 80t11 178v367q0 22 -7 27t-32 5h-770q-24 0 -30.5 -5t-6.5 -27v-367q0 -127 10.5 -179 t50.5 -79q11 -7 40 -11t51 -8t22 -14q0 -14 -24 -14q-14 0 -107.5 4t-138.5 4q-60 0 -144.5 -4t-95.5 -4q-24 0 -24 14z" />
<glyph unicode="I" horiz-adv-x="755" d="M111 6q0 10 21.5 14t50.5 8t40 11q41 28 52.5 81t11.5 177v948q0 119 -49 146q-14 7 -41 11.5t-44.5 9.5t-17.5 15q0 19 41 19q14 0 92.5 -6t106.5 -6q30 0 107 7t98 7q45 0 45 -18q0 -8 -17.5 -13t-43 -10.5t-36.5 -11.5q-34 -21 -45.5 -56.5t-11.5 -99.5v-942 q0 -124 11.5 -177t52.5 -81q11 -7 40 -11t50.5 -8t21.5 -14q0 -14 -24 -14q-14 0 -108.5 4t-139.5 4q-60 0 -144.5 -4t-95.5 -4q-24 0 -24 14z" />
<glyph unicode="J" horiz-adv-x="755" d="M78 -358q0 19 31 22q33 4 58.5 15t44 36.5t32 48t21.5 69t12.5 78t6.5 97.5t2.5 105.5t0.5 122.5v876q0 124 -7.5 180t-29.5 80q-21 23 -54.5 31t-55 10t-21.5 14q0 17 51 17q30 0 108 -5t109 -5t104 5t105 5q31 0 31 -19q0 -5 -9 -8.5t-14 -3.5q-32 -5 -51.5 -10.5 t-40 -22t-27.5 -43.5q-10 -33 -12 -93.5t-2 -231.5v-924q0 -101 -35.5 -192t-88 -149t-110.5 -92t-106 -34q-53 0 -53 21z" />
<glyph unicode="K" horiz-adv-x="1585" d="M111 6q0 10 28.5 15t65.5 15.5t53 33.5q29 45 29 274v916q0 62 -10.5 90.5t-33.5 40.5t-79 22q-27 3 -27 17t58 14q19 0 72 -5t114 -5q24 0 95.5 6t96.5 6q39 0 39 -12q0 -10 -16.5 -15.5t-43 -15t-42.5 -25.5q-25 -25 -32 -60.5t-7 -162.5v-330q0 -37 8 -37q7 0 15.5 5 t22 16.5t25 23t33.5 33t39 37.5l320 301q5 5 25 24t34.5 33.5t31.5 34t26.5 37t9.5 31.5q0 19 -13.5 30t-29.5 13.5t-29.5 6t-13.5 9.5q0 17 39 17q22 0 69 -3t70 -3q85 0 159 4t83 4q26 0 26 -12q0 -7 -6.5 -11t-29 -10t-39.5 -12q-100 -37 -213 -142l-457 -421 q-19 -19 -19 -27t17 -25l575 -567q50 -48 118.5 -103.5t107.5 -72.5q7 -3 36 -5.5t51.5 -8t22.5 -15.5q0 -20 -96 -20q-33 0 -86 2t-86 2q-10 0 -40 -2t-42 -2q-7 0 -14.5 3t-15.5 9t-12.5 10.5t-12.5 13t-9 9.5l-628 627q-55 55 -62 55q-10 0 -10 -25v-491q0 -116 49 -154 q13 -9 41.5 -15.5t49 -12t20.5 -15.5q0 -12 -27 -12q-24 0 -84.5 4t-130.5 4q-38 0 -125 -4t-125 -4q-28 0 -28 14z" />
<glyph unicode="L" horiz-adv-x="1089" d="M111 6q0 10 27 14t61 10t45 21q27 36 35 98.5t8 188.5v901q0 95 -15.5 125.5t-85.5 46.5q-41 9 -41 19q0 14 33 14q16 0 92 -5t107 -5t112 6t97 6q26 0 26 -14q0 -8 -30 -17q-66 -19 -88.5 -56t-22.5 -112v-854v-58t1 -51.5t2.5 -49t5 -40t8.5 -36t12 -26.5t16.5 -21.5 t22.5 -10.5q71 -18 209 -18q45 0 98 9t78 22q18 10 37 37.5t32.5 50t20.5 22.5q14 0 14 -20q0 -6 -6 -25.5t-15 -48.5t-14 -45q-3 -12 -6.5 -29t-5.5 -26t-6 -19t-11 -14t-18 -4q-40 0 -248 4t-319 4q-36 0 -131 -4t-111 -4q-26 0 -26 14z" />
<glyph unicode="M" horiz-adv-x="1941" d="M92 6q0 6 21 10q27 6 48 18.5t35 33.5t23 39.5t15 49.5t8.5 49t5.5 52l117 1102q11 110 34 110q12 0 29 -26.5t49 -91.5l461 -953q34 -69 41 -69q10 0 45 71l463 979q1 3 5 12t6.5 13.5t6.5 13t7 13.5t7 12t7.5 11t7.5 7.5t8 5.5t8 2q26 0 37 -110l115 -1073 q19 -169 39 -205q13 -23 33 -37.5t36 -18.5t27.5 -8t11.5 -10q0 -16 -65 -16q-21 0 -87 4t-122 4q-31 0 -77 -3t-81 -3q-26 0 -34.5 2.5t-8.5 11.5q0 15 31 15q30 0 51 14t32 32.5t17 48t7 49t1 46.5q0 61 -10 156l-57 598q-3 28 -14 28q-10 0 -35 -53l-408 -864 q-31 -68 -45 -68q-17 0 -35 41l-262 549q-1 1 -61 129.5t-96.5 197t-47.5 68.5q-7 0 -12 -32l-55 -617q-10 -95 -10 -174q0 -51 14.5 -84t35.5 -46t41.5 -19t35 -9.5t14.5 -11.5q0 -12 -33 -12q-19 0 -85 5t-93 5t-87.5 -4t-78.5 -4q-21 0 -29 2t-8 12z" />
<glyph unicode="N" horiz-adv-x="1728" d="M102 4q0 8 14 11t35.5 8.5t34.5 15.5q33 25 46.5 87t13.5 126v1118q0 55 4 73.5t16 18.5q17 0 117 -106l909 -950q68 -74 86 -74q13 0 13 39v749q0 77 -8 155.5t-25 102.5q-14 19 -41.5 29.5t-47.5 14t-20 8.5q0 14 31 14q15 0 71 -5t85 -5q27 0 79 5t70 5q41 0 41 -12 q0 -8 -15 -12t-39 -9.5t-38 -13.5q-19 -12 -28 -97t-9 -167v-1080q0 -49 -2.5 -68.5t-13.5 -19.5q-9 0 -23 10.5t-25.5 22.5t-30 31.5t-26.5 27.5l-954 1002q-40 43 -51 43q-15 0 -15 -70v-786q0 -59 14.5 -117.5t43.5 -81.5q13 -10 40.5 -17t47.5 -11t20 -11q0 -6 -3 -9.5 t-10 -4.5t-13 -1.5t-19 -0.5q-31 0 -90 4t-78 4q-29 0 -94 -3t-80 -3q-33 0 -33 10z" />
<glyph unicode="O" horiz-adv-x="1617" d="M82 705q0 216 88.5 389t251.5 272.5t371 99.5q162 0 302 -59t236 -158t150.5 -230t54.5 -274q0 -127 -26.5 -241t-83.5 -212.5t-139.5 -170.5t-202 -113t-263.5 -41q-155 0 -291.5 54t-235 150t-155.5 234.5t-57 299.5zM285 782q0 -146 39 -280t110 -237.5t180.5 -165.5 t241.5 -62q115 0 208 48t152 129t90 184t31 218q0 113 -20.5 222t-65.5 210.5t-109.5 178t-158 122.5t-205.5 46q-104 0 -188.5 -36.5t-140 -97t-93.5 -141t-54.5 -165t-16.5 -173.5z" />
<glyph unicode="P" horiz-adv-x="1224" d="M111 6q0 13 30 17q37 4 57.5 10.5t40.5 23.5t28.5 49.5t14 85t5.5 132.5v933q0 53 -11.5 89t-48.5 57q-12 6 -33.5 10.5t-35 8t-13.5 8.5q0 14 29 14q18 0 92.5 -5t106.5 -5q46 0 129 7t157 7t143.5 -14t131.5 -45t108.5 -75.5t73.5 -109.5t27 -143q0 -91 -28.5 -173.5 t-79.5 -147t-129.5 -102.5t-172.5 -38q-36 0 -82.5 9.5t-46.5 25.5q0 14 17 14q11 0 36 -6t45 -6q117 0 180.5 90t63.5 244q0 193 -91 297t-298 104h-20q-43 0 -54.5 -29t-11.5 -120v-750q0 -212 4.5 -296.5t22.5 -104.5q24 -28 61.5 -38.5t61.5 -13.5t24 -14q0 -14 -41 -14 l-69 4q-69 4 -160 4q-48 0 -135.5 -4t-98.5 -4q-30 0 -30 14z" />
<glyph unicode="Q" horiz-adv-x="1617" d="M82 702q0 218 87.5 391.5t250 273t371.5 99.5q218 0 389.5 -98.5t263.5 -266.5t92 -374q0 -272 -188 -543q-4 -5 -14.5 -16.5t-17.5 -20.5t-7 -14q0 -9 14 -18l227 -117q121 -62 200.5 -100t196.5 -87.5t215.5 -74.5t178.5 -25q27 0 86 12.5t74 12.5q18 0 18 -8 q0 -11 -75.5 -39t-141.5 -45q-110 -27 -193 -27q-43 0 -94.5 10t-121 36.5t-118 45.5t-140.5 65l-130 65t-144.5 75t-129.5 68q-5 3 -24.5 15t-36.5 20t-27 8q-3 0 -9 -1t-8 -1q-149 -56 -288 -56q-177 0 -322 59t-239 160t-144.5 233.5t-50.5 282.5zM285 780 q0 -105 21.5 -208.5t68.5 -200.5t113 -171t161.5 -118.5t208.5 -44.5q94 0 174 34t135 91.5t94 133t57.5 158.5t18.5 169q0 108 -20 215t-64.5 208t-108 178t-158.5 124t-208 47q-105 0 -190 -36.5t-140.5 -97t-93 -141.5t-53.5 -165.5t-16 -174.5z" />
<glyph unicode="R" horiz-adv-x="1527" d="M111 6q0 10 23 14t53.5 8.5t41.5 10.5q58 34 58 180v1049q0 28 -3 49t-7 35.5t-14 24.5t-17 15.5t-23.5 10t-25.5 6t-31 4.5q-31 3 -31 14q0 17 43 17q6 0 76 -5t154 -5q39 0 113.5 6t111.5 6q95 0 176.5 -21.5t146.5 -63.5t102.5 -112t37.5 -159q0 -59 -17.5 -115.5 t-42.5 -98.5t-58.5 -80t-59.5 -60.5t-52 -39.5q-6 -6 -6 -14q0 -6 37 -55l266 -340q195 -247 303 -254q6 0 14.5 -0.5t13.5 -0.5t11 -0.5t9.5 -1.5t7 -3t5 -4.5t1.5 -6.5q0 -12 -25.5 -16t-81.5 -4q-52 0 -86 2t-81.5 11.5t-83 27.5t-76 52t-76.5 83l-191 256 q-16 21 -39.5 56.5t-38 55t-36 41t-47.5 31t-58 9.5h-112q-25 0 -25 -23v-274q0 -154 17.5 -216t64.5 -75q11 -3 33 -7t33.5 -8t11.5 -10q0 -16 -37 -16q-16 0 -82.5 4t-128.5 4q-33 0 -134 -4t-116 -4q-22 0 -22 14zM471 721q0 -19 6 -23t29 -4h172q112 0 174.5 85.5 t62.5 238.5q0 145 -89 243.5t-238 98.5h-56q-35 0 -48 -24.5t-13 -69.5v-545z" />
<glyph unicode="S" horiz-adv-x="970" d="M102 199q0 37 6.5 71.5t18.5 34.5q10 0 14 -17t8 -45.5t11 -45.5q33 -75 108.5 -116.5t188.5 -41.5q126 0 206 75t80 201q0 90 -50.5 151.5t-147.5 125.5l-219 145q-207 135 -207 377q0 163 111.5 257.5t301.5 94.5q68 0 150 -15t98 -15q22 0 38 6t22 6t6 -8t-5 -28 t-5 -28q0 -12 2 -39t2 -53q0 -135 -27 -135q-10 0 -14.5 21t-13 56.5t-27.5 61.5q-33 44 -101.5 74.5t-152.5 30.5q-98 0 -172 -60t-74 -170q0 -91 49.5 -155.5t147.5 -128.5l217 -142q104 -68 160.5 -149.5t56.5 -196.5q0 -76 -29.5 -151t-85 -138.5t-146 -103 t-200.5 -39.5q-150 0 -291 53q-21 7 -27 31.5t-6 69.5q0 13 -1 40t-1 38z" />
<glyph unicode="T" horiz-adv-x="1288" d="M41 1272q0 4 33 133q1 6 3.5 24t6.5 25.5t12 7.5q10 0 29 -7t31 -9q90 -12 172 -12h678q48 0 128.5 4t94.5 4q18 0 18 -15q0 -11 -9 -50t-11 -54l-4 -41q-4 -47 -15 -47q-7 0 -9.5 9.5t-4 22.5t-6.5 19q-40 47 -144 47h-272q-22 0 -27.5 -23t-5.5 -93v-785 q0 -274 21 -339.5t125 -69.5q30 0 30 -17q0 -14 -47 -14q-33 0 -88.5 4t-117.5 4q-36 0 -135 -4t-119 -4q-23 0 -23 12q0 13 32.5 19t70 17.5t47.5 37.5q20 56 20 311v852q0 62 -5.5 77t-33.5 15h-352q-34 0 -55.5 -14.5t-28 -31.5t-12.5 -31.5t-13 -14.5q-14 0 -14 31z" />
<glyph unicode="U" horiz-adv-x="1683" d="M90 1430q0 14 41 14q25 0 95.5 -5t109.5 -5q50 0 121.5 6t87.5 6q33 0 33 -16q0 -9 -18.5 -15t-42.5 -10t-30 -8q-20 -10 -29.5 -21t-18 -28t-11 -59t-3.5 -91t-1 -147v-504q0 -151 41.5 -262t135.5 -177.5t233 -66.5q107 0 197 30.5t159.5 90.5t109 158.5t39.5 226.5 v360q0 224 -11.5 334t-39.5 131q-25 18 -62 26.5t-60 13t-23 13.5q0 17 51 17q17 0 82.5 -4t105.5 -4q37 0 98 3t76 3q37 0 37 -17q0 -7 -8 -9t-26.5 -3.5t-32.5 -5.5q-25 -7 -42 -24t-26 -36.5t-13.5 -57.5t-5.5 -67.5t-1 -86.5v-537q0 -290 -160 -459.5t-449 -169.5 q-128 0 -235 33.5t-186 98t-123.5 166t-44.5 229.5v680q0 174 -19 198q-15 18 -48 28t-58 15.5t-25 14.5z" />
<glyph unicode="V" d="M-41 1430q0 12 41 12q21 0 89.5 -4t139.5 -4q24 0 83 4t81 4q27 0 27 -12q0 -7 -16.5 -12.5t-33 -17t-16.5 -34.5q0 -25 23.5 -100t42.5 -121l313 -772q16 -43 24.5 -58.5t16.5 -15.5q7 0 15 13.5t26 54.5l367 876q20 48 20 94q0 27 -9.5 43.5t-21 21.5t-21 10.5 t-9.5 12.5q0 15 26 15q23 0 72 -3t72 -3q25 0 73 5t72 5q39 0 39 -17q0 -10 -29 -10q-27 -2 -52 -18t-41.5 -34t-36 -51t-28 -52t-24.5 -54l-491 -1155q-17 -40 -29.5 -61.5t-18.5 -26t-12 -4.5q-17 0 -57 94l-494 1176q-37 90 -61 119q-25 30 -66 45t-68.5 20t-27.5 15z " />
<glyph unicode="W" horiz-adv-x="2203" d="M-20 1427q0 17 28 17q38 0 114.5 -5t115.5 -5q34 0 91.5 5t90.5 5q51 0 51 -12q0 -9 -26.5 -16.5t-53 -22t-26.5 -39.5q0 -52 57 -191l274 -725q30 -77 33 -80q1 -2 4 -2q10 0 35 72l319 907q4 10 9.5 25.5t8.5 24t8 20.5t8.5 18t8 12.5t9.5 9.5t10 3q8 0 15 -6.5 t13.5 -22t11.5 -31.5t15 -44.5t19 -51.5l319 -825q6 -15 13 -35.5t11 -30.5t8.5 -20.5t8 -14.5t6.5 -4q12 0 47 99l275 758q24 71 24 112q0 33 -12 47q-10 12 -33.5 18t-40 11t-16.5 16q0 19 33 19q30 0 82.5 -4t89.5 -4q22 0 75 5t80 5q31 0 31 -17q0 -4 -4 -5.5 t-13.5 -3.5t-13.5 -3q-74 -20 -110.5 -67.5t-71.5 -143.5l-420 -1171q-23 -70 -41 -70q-15 0 -57 107l-338 884q-36 97 -45 104q-2 1 -4 1q-10 0 -35 -73q-7 -18 -10 -28l-322 -913q-16 -48 -25 -65t-22 -17q-5 0 -9 2.5t-8.5 8.5t-8 12.5t-8 18.5t-8 22t-10 28t-11.5 31 l-432 1143q-28 74 -66 133q-19 27 -57 38t-66 14t-28 13z" />
<glyph unicode="X" horiz-adv-x="1323" d="M0 0q0 5 2.5 7.5t8.5 4.5t12 2t15.5 0.5t16.5 1.5q50 6 105 50t98 118l246 426q49 84 49 101q0 11 -27 61l-241 440q-65 119 -113 154q-33 24 -69.5 35t-55 14t-18.5 10q0 17 39 17q3 0 93 -4t138 -4q53 0 117 5t71 5q21 0 21 -17q0 -5 -19 -10.5t-38 -17t-19 -31.5 q0 -38 31 -98l188 -346q19 -35 25 -35q4 0 7 4t8.5 14.5t8.5 14.5l179 321q12 20 28.5 61t16.5 60q0 23 -13 35.5t-28 14t-28 5t-13 11.5q0 14 28 14q13 -1 71 -5.5t85 -4.5q34 0 99 5t87 5q31 0 31 -12q0 -7 -10.5 -11.5t-36 -11.5t-45.5 -16q-81 -32 -141 -136l-238 -413 q-4 -7 -14 -23t-15.5 -27.5t-5.5 -19.5q0 -3 25 -51l278 -508q73 -134 160 -174q12 -5 44 -9.5t55.5 -9.5t23.5 -14q0 -18 -59 -18q-22 0 -106.5 5t-123.5 5q-48 0 -125.5 -2t-81.5 -2q-24 0 -24 12q0 6 38 20t38 33q0 54 -48 148l-188 356q-18 31 -25 31q-2 0 -4.5 -1.5 t-4.5 -5t-4 -6t-4.5 -8t-4.5 -8.5l-215 -391q-14 -26 -29.5 -66t-15.5 -53q0 -17 13.5 -26t29.5 -10.5t29.5 -5t13.5 -9.5q0 -12 -25 -12q-19 0 -75 3t-78 3q-29 0 -99 -7t-102 -7q-43 0 -43 14z" />
<glyph unicode="Y" horiz-adv-x="1359" d="M-41 1423q0 21 61 21q23 0 77 -5t81 -5q42 0 100 5t89 5q53 0 53 -17q0 -5 -35 -15t-35 -26q0 -35 62 -135l266 -422q23 -35 33 -47t18 -12q14 0 39 41l233 371q33 52 56.5 110t23.5 86q0 18 -12.5 27t-25.5 12.5t-13 7.5q0 15 35 15q31 0 80 -3t59 -3q30 0 75 5t75 5 q16 0 31.5 -5.5t15.5 -13.5q0 -6 -15 -8.5t-38.5 -5t-36.5 -8.5q-75 -34 -137 -131l-349 -553q-43 -67 -43 -117v-379q0 -128 45 -164q22 -17 56 -26t54.5 -13t20.5 -12q0 -6 -2 -9.5t-9.5 -4.5t-14.5 -1.5t-23 -0.5q-31 0 -110 4t-109 4q-72 0 -137 -4t-86 -4q-45 0 -45 14 q0 10 43 17q70 7 101.5 53t31.5 139v385q0 5 -0.5 10t-1 9t-2 9t-2 7.5t-3 8t-3.5 7t-4.5 7.5t-4.5 7.5t-5 8.5t-5 8l-403 612q-50 74 -94 97q-16 8 -44.5 13.5t-47.5 9t-19 9.5z" />
<glyph unicode="Z" horiz-adv-x="1492" d="M72 8q0 5 2.5 11t8.5 14.5t10.5 15t15 19t16.5 20.5l895 1200q24 33 24 41q0 10 -28 10h-246q-194 0 -408 -12q-110 -7 -161 -61q-13 -14 -19 -42.5t-9 -49.5t-9 -21q-23 0 -23 90q0 24 10.5 77t10.5 81q0 14 1 20.5t8 11.5t22 5q59 0 174 -2t174 -2h360q111 0 241 3 t156 3q31 0 31 -19q0 -8 -16.5 -30.5t-38 -48t-25.5 -31.5q-144 -190 -219 -293l-594 -799q-57 -75 -57 -98q0 -15 20 -20t74 -5h272q495 0 549 41q16 12 38 44t39.5 56.5t27.5 24.5q12 0 12 -18q0 -12 -8 -31.5t-22.5 -47t-18.5 -36.5q-5 -11 -19.5 -52.5t-28.5 -66 t-30 -24.5q-1 0 -9 1t-21 2t-29.5 2t-39 2t-44.5 1q-63 0 -179.5 3t-177.5 3h-520q-22 0 -80 -1t-78 -1q-34 0 -34 10z" />
<glyph unicode="[" horiz-adv-x="505" d="M102 -70q0 3 2 37.5t2 73.5q7 572 7 760q0 179 -1 314.5t-2.5 203.5t-3.5 107.5t-3 54t-1 16.5q0 21 17 21q3 0 32.5 -2.5t57.5 -2.5q21 0 79.5 5.5t71.5 5.5q43 0 43 -17q0 -3 -2.5 -6t-8.5 -5t-11 -3t-16.5 -3.5t-18.5 -4.5q-30 -6 -44.5 -25t-21 -62.5t-6.5 -129.5 v-1032q0 -121 6 -181.5t19 -82t39 -25.5q7 -1 15.5 -3t14 -3t11.5 -2t9.5 -2t6.5 -3t4.5 -3.5t1.5 -4.5q0 -16 -45 -16q-10 0 -66.5 4t-80.5 4q-14 0 -46 -2t-44 -2q-17 0 -17 16z" />
<glyph unicode="\" horiz-adv-x="841" d="M41 1550q0 10 8 13l64 22q8 4 12 4q10 0 16 -18l656 -1657q4 -12 4 -18q0 -10 -10 -17l-56 -22l-12 -4q-9 0 -18 20l-662 1665q-2 4 -2 12z" />
<glyph unicode="]" horiz-adv-x="505" d="M102 -76q0 5 2.5 8t8.5 5t12 3t16.5 3t18.5 4q30 6 44 26t20.5 71.5t6.5 158.5v997q0 90 -2 140.5t-9.5 83.5t-18.5 45t-31 16q-10 2 -22 4t-18.5 3t-13 2.5t-9.5 4t-3 6.5q0 15 35 15q23 0 75 -3.5t83 -3.5q10 0 21.5 0.5t22 1.5t19 1.5t14.5 1.5h5q24 0 24 -19 q0 -11 -1 -26t-2.5 -51.5t-3 -101t-2.5 -203.5t-1 -331q0 -199 0.5 -352t2 -234t2.5 -137t2.5 -74.5t2 -32t0.5 -22.5q0 -20 -16 -20q-6 0 -35 2t-55 2q-21 0 -80 -5t-72 -5q-43 0 -43 16z" />
<glyph unicode="^" horiz-adv-x="1069" d="M102 598l373 836h117l375 -836h-117l-315 711l-318 -711h-115z" />
<glyph unicode="_" horiz-adv-x="989" d="M4 -293h981v-117h-981v117z" />
<glyph unicode="`" horiz-adv-x="462" d="M0 1602q0 14 49.5 71.5t71.5 57.5q48 0 195 -81t147 -98q0 -16 -21 -16q-1 0 -16.5 3.5t-36 8t-31.5 6.5q-235 48 -278 48q-8 0 -33 -7.5t-31 -7.5q-16 0 -16 15z" />
<glyph unicode="a" horiz-adv-x="1286" d="M0 10q0 7 5.5 10t22 6t29.5 7q54 17 125 184l400 957q27 65 37.5 83.5t23.5 18.5q5 0 9 -1.5t8 -5.5t7 -9t7 -14.5t7 -18t9 -24t12 -29.5l414 -1016q9 -26 27.5 -59.5t30.5 -43.5q14 -14 67 -28q40 -9 44 -17q1 -2 1 -4q0 -12 -35 -12q-29 0 -93 3t-101 3q-22 0 -83 -3 t-108 -3q-41 0 -41 10q0 18 43 21q30 2 47 13t17 42q0 63 -39 160l-68 166q-7 19 -12.5 22.5t-24.5 3.5h-376q-22 0 -27.5 -2.5t-11.5 -17.5l-86 -213q-27 -65 -27 -111q0 -43 21 -49q4 -2 26.5 -6.5t40 -10.5t17.5 -12q0 -16 -33 -16q-22 0 -72 3t-84 3q-17 0 -60.5 -3 t-76.5 -3q-39 0 -39 16zM418 518q0 -8 24 -8h310q24 0 24 12q0 10 -20 62l-138 342q-11 28 -18 28q-10 0 -20 -28l-152 -375q-10 -23 -10 -33z" />
<glyph unicode="b" horiz-adv-x="1130" d="M106 6q0 14 50 21q72 14 84 39q22 43 22 294v699q0 83 -20 108q-16 18 -70 27q-43 7 -43 16q0 17 47 17q25 0 80 -4t88 -4q32 0 99 3t106 3q90 0 170 -35t132 -104t52 -156q0 -60 -14 -108t-39.5 -79.5t-49.5 -50.5t-55 -35q-8 -4 -15.5 -6.5t-9 -3.5t-1.5 -4 q0 -4 37 -16q51 -17 95.5 -42.5t85.5 -64.5t65 -96t24 -125q0 -80 -37.5 -141.5t-100.5 -97.5t-138 -54t-158 -18q-39 0 -121 6t-127 6q-29 0 -93 -3t-101 -3q-44 0 -44 12zM440 266q0 -66 6 -108t15 -67t29.5 -36.5t40 -14.5t55.5 -3q49 0 92.5 11.5t83 37t63 73 t23.5 111.5q0 152 -107 239t-264 87q-23 0 -30 -4.5t-7 -22.5v-303zM440 707q0 -26 19.5 -33.5t66.5 -7.5h43q88 0 132 43.5t44 158.5q0 119 -79.5 203t-173.5 84q-34 0 -43 -8.5t-9 -52.5v-387z" />
<glyph unicode="c" horiz-adv-x="1337" d="M92 621q0 185 85.5 329t229.5 220.5t320 76.5q190 0 348 -41q12 -3 31.5 -8.5t33.5 -8.5t25 -3q3 0 12 4t17 4q14 0 14 -20q0 -10 -3 -36.5t-3 -45.5q0 -12 2 -47t2 -62q0 -47 -22 -47q-16 0 -23.5 12.5t-11 34t-8.5 29.5q-37 74 -146 121t-270 47q-107 0 -192 -40 t-137.5 -110t-79.5 -160.5t-27 -195.5q0 -189 66.5 -334.5t189.5 -226t284 -80.5q132 0 265 82q41 30 71 112q12 31 27 31q22 0 22 -29q0 -11 -2.5 -24.5t-7.5 -34t-8 -37.5l-14 -74q-8 -45 -132 -66.5t-278 -21.5q-141 0 -262.5 39.5t-215.5 117.5t-148 204.5t-54 288.5z " />
<glyph unicode="d" horiz-adv-x="1482" d="M111 8q0 9 26.5 13t58.5 12.5t42 27.5q24 47 24 209v793q0 71 -23.5 101t-82.5 30q-31 0 -31 16q0 7 14 12t33 5q26 0 84 -4t90 -4q56 0 182 6t203 6q303 0 476 -163t173 -433q0 -307 -176 -478t-491 -171q-54 0 -172 7t-187 7q-58 0 -122 -3t-87 -3q-20 0 -27 2t-7 12z M440 401q0 -280 37 -309q25 -20 91.5 -34.5t133.5 -14.5q240 0 369 136t129 407q0 117 -39.5 223t-110.5 187.5t-179.5 129.5t-237.5 48h-37q-95 0 -125.5 -12t-30.5 -62v-699z" />
<glyph unicode="e" horiz-adv-x="1036" d="M111 8q0 11 28 14.5t61 11.5t42 32q22 60 22 368v649q0 34 -7.5 57t-22.5 34t-28.5 15t-35.5 7q-39 4 -39 14q0 17 43 17q18 0 70.5 -4t105.5 -4q73 0 244 6t272 6q21 0 21 -19q0 -2 -1 -16t-1 -22q0 -19 2 -52.5t2 -56.5q0 -8 -1 -12.5t-5 -7.5t-13 -3t-13 4t-7.5 14.5 t-5.5 14.5q-25 45 -60 60.5t-112 15.5h-189q-22 0 -31.5 -6.5t-9.5 -28.5v-403q0 -19 4 -24t19 -5h213q58 0 78 23q8 9 13 26.5t6.5 32t7 26t16.5 11.5q18 0 18 -43q0 -16 -3 -56t-3 -59q0 -56 2 -92t2 -37q0 -24 -18 -24q-10 0 -14 10t-9 36q0 4 -0.5 7t-1.5 6 q-9 53 -98 53h-215q-17 0 -17 -26v-404q0 -23 7 -40.5t22 -27.5t29.5 -16.5t38 -9.5t38.5 -3.5t39 -0.5q126 0 183 20q44 15 73 70q10 18 25 18q8 0 12 -5t4 -9q0 -11 -4.5 -25t-13 -33.5t-12.5 -31.5q-24 -59 -35 -72.5t-33 -13.5q-147 0 -225 2q-152 4 -221 4 q-75 0 -137 -3t-70 -3q-51 0 -51 14z" />
<glyph unicode="f" horiz-adv-x="997" d="M111 8q0 11 41 19q65 14 86 51q18 59 22 146.5t4 320.5v516q0 58 -8.5 85.5t-40.5 39.5q-5 2 -28 4.5t-41.5 7t-18.5 12.5q0 17 59 17q27 0 86.5 -4t94.5 -4h196q99 0 161.5 3.5t89 7t38.5 3.5q6 0 8 -8t2.5 -23t1.5 -22q10 -58 10 -99t-20 -41q-12 0 -18 33 q-6 74 -199 74h-168q-17 0 -22 -8t-5 -33v-418q0 -18 23 -18h168q71 0 102 22q22 18 27 68q0 2 0.5 7.5t1 6.5t1.5 4.5t3 4.5t5.5 2t8.5 1q21 0 21 -26q0 -18 -4 -64q-1 -8 -2 -29l-4 -40q0 -36 4 -90q4 -40 4 -64q0 -17 -3.5 -25t-17.5 -8q-5 0 -9 1t-6.5 4t-4 5.5t-2 8 t-1 9t-1 10.5t-0.5 11q0 51 -15 68q-31 33 -108 33h-170q-12 0 -16.5 -4.5t-4.5 -16.5v-309q0 -41 9 -112.5t22 -92.5q22 -22 76 -30q45 -7 45 -17t-9.5 -12t-39.5 -2q-25 0 -99 4q-35 2 -90 2q-41 0 -131 -4q-33 -2 -86 -2q-28 0 -28 14z" />
<glyph unicode="g" d="M82 633q0 174 79.5 313t228 220t339.5 81q146 0 283 -30q12 -2 69 -17q67 -18 84 -18q27 0 43 16q6 6 17 6q18 0 18 -18q0 -7 -4 -35q-7 -34 -10 -78v-29q-1 -28 -2 -42t-4 -34.5t-8.5 -30t-14.5 -9.5q-12 0 -20.5 10.5t-8.5 24.5q0 77 -126.5 147t-305.5 70 q-113 0 -203.5 -38t-147 -104.5t-86.5 -152t-30 -183.5q0 -197 60 -346t182 -236t293 -87q49 0 104 15.5t88 39.5q48 33 48 172v197q0 67 -25 92q-18 18 -72 29q-37 4 -37 16q0 16 41 16q8 0 62 -4q123 -6 127 -6q19 0 135 8q12 2 33 2q37 0 37 -18q0 -9 -41 -17 q-35 -10 -43 -14h2q-20 -16 -27 -27.5t-11.5 -47t-4.5 -109.5v-117q0 -28 1 -79t1 -66q0 -31 -2 -43q-4 -35 -150.5 -68t-284.5 -33q-338 0 -522 162.5t-184 499.5z" />
<glyph unicode="h" horiz-adv-x="1609" d="M111 8q0 13 51 17q37 4 49 12q33 22 42 66t9 151v805q0 56 -8.5 81t-30.5 40q-8 6 -31.5 10t-42 8.5t-18.5 11.5q0 17 41 16q26 0 83 -3.5t91 -3.5q52 0 105.5 6t74.5 6q49 0 49 -19q0 -6 -18 -10t-43 -8.5t-35 -11.5q-26 -18 -32.5 -42.5t-6.5 -88.5v-346q0 -18 4 -22.5 t19 -4.5h680q17 0 20.5 4t3.5 23v352q0 55 -5 83t-25 40q-11 6 -37 9.5t-45 7.5t-19 13q0 17 41 16q26 0 83 -3.5t91 -3.5q29 0 89 6t92 6q47 0 47 -19q0 -7 -19.5 -11t-45.5 -8.5t-36 -10.5q-35 -22 -35 -131v-797q0 -104 10 -149.5t42 -67.5q7 -5 34 -7.5t48.5 -7 t21.5 -14.5q0 -14 -31 -14q-32 0 -102 3t-113 3q-29 0 -98 -3t-111 -3q-30 0 -30 14q0 9 21 12.5t47 7t34 9.5q33 22 42 66t9 151v309q0 18 -5 22.5t-21 4.5h-676q-16 0 -20.5 -4.5t-4.5 -22.5v-309q0 -111 10 -151.5t42 -65.5q9 -6 35.5 -9t46.5 -6.5t20 -13.5 q0 -14 -29 -14q-32 0 -103 3t-114 3q-29 0 -98 -3t-111 -3q-28 0 -28 14z" />
<glyph unicode="i" horiz-adv-x="704" d="M109 8q0 13 53 17q45 4 69 28q20 23 25.5 65t5.5 136v803q0 102 -39 121q-7 4 -49 16q-47 8 -47 18q0 17 47 17q27 0 85 -5t89 -5q28 0 87.5 6t90.5 6q47 0 47 -19q0 -10 -45 -18q-1 0 -17 -3.5t-26 -8.5q-26 -16 -35.5 -46t-9.5 -85v-797q0 -89 5 -131t24 -66 q17 -25 72 -32q53 -4 53 -17q0 -14 -29 -14q-32 0 -103 3t-114 3q-31 0 -99.5 -3t-111.5 -3q-28 0 -28 14z" />
<glyph unicode="j" horiz-adv-x="704" d="M78 -301q0 18 37 22q27 3 48.5 12.5t36.5 30.5t26 39.5t17.5 58t10.5 66t5.5 82.5t2 89.5t0.5 103.5v741q0 107 -6.5 153t-24.5 64q-29 31 -77 35q-34 3 -38 9q-1 2 -1 5q0 17 53 17q28 0 87 -4t95 -4q27 0 91.5 4t99.5 4q34 0 34 -17q0 -6 -10.5 -10t-15.5 -4 q-39 -5 -62.5 -17.5t-33.5 -43.5q-13 -44 -13 -277v-780q0 -87 -32 -165t-79.5 -127t-99.5 -77t-96 -28q-55 0 -55 18z" />
<glyph unicode="k" horiz-adv-x="1417" d="M111 8q0 10 43 17q64 9 86 38q22 33 22 230v776q0 69 -21 92.5t-81 34.5q-27 3 -27 16q0 15 57 15q24 0 77.5 -4t86.5 -4q27 0 82.5 5t85.5 5q43 0 43 -12q0 -10 -35 -19q-39 -14 -57 -31q-21 -21 -27 -51t-6 -137v-260q0 -35 13 -35q7 0 36 25l359 329q94 83 94 119 q0 30 -47 39q-29 4 -29 12q0 17 43 17q14 0 71 -3t87 -3q35 0 86 3t88 3q33 0 33 -13q0 -2 -0.5 -4t-2 -3.5t-3 -2t-5 -2t-7.5 -2t-10 -2l-12 -3t-15.5 -4t-18.5 -5.5q-68 -21 -180 -121l-402 -356q-12 -12 -12 -19t17 -24l499 -478q71 -66 138 -114q33 -23 73.5 -33.5 t62 -14.5t21.5 -14q0 -16 -37 -16q-3 0 -50.5 3t-92.5 3q-32 0 -75.5 -2t-55.5 -2q-28 0 -66 33l-567 546q-15 15 -22 15q-11 0 -11 -31v-387q0 -81 29 -115q5 -7 11 -11.5t13.5 -7.5t12 -4.5t15 -3.5t14.5 -3q47 -8 47 -21q0 -12 -31 -12q-26 0 -87.5 3t-103.5 3 q-26 0 -96.5 -3t-122.5 -3q-30 0 -30 14z" />
<glyph unicode="l" horiz-adv-x="993" d="M109 8q0 2 1 3.5t2.5 3t3.5 2.5t5.5 2t6 1.5t7 1t8 1t8.5 1t9 1.5q52 5 67 22q22 27 28.5 80.5t6.5 159.5v764q0 75 -15 104t-67 41q-43 11 -43 16q0 15 39 15q26 0 83 -4t91 -4q29 0 89.5 5t92.5 5q31 0 31 -15q0 -7 -33 -16q-55 -14 -72.5 -44t-17.5 -95v-725 q0 -41 0.5 -63.5t2 -54.5t5 -49.5t9 -36t15 -28t22.5 -12.5q63 -16 180 -16q39 0 84 7.5t67 18.5q18 11 49 62l5 7.5t4.5 7t4 6t4.5 5.5t5 3.5t6 2.5t6 1q11 0 16 -7t5 -14q0 -6 -15 -49q-10 -28 -22 -80q-5 -25 -14 -38t-29 -13q-72 0 -235 3t-263 3q-29 0 -98 -3t-115 -3 q-30 0 -30 14z" />
<glyph unicode="m" horiz-adv-x="1740" d="M92 8q0 5 11 8t26 5t34 16.5t32 40.5q5 9 9 21t6.5 21.5t5 26t3.5 24t3 26.5t3 24l105 932q9 96 39 96q14 0 30 -22t45 -80l404 -807q21 -43 29 -43q10 0 30 45l406 829q31 61 43 71q10 7 20 7q30 0 41 -96l101 -907q15 -128 32 -172q3 -9 9 -16.5t11.5 -12t14.5 -9 t13 -6t13.5 -4.5t10.5 -3q2 -1 6.5 -2t6 -1t4.5 -1t4.5 -2t3 -2.5t2 -3t0.5 -3.5q0 -14 -68 -14q-25 0 -69 3t-82 3q-20 0 -81 -3t-89 -3t-38 2.5t-10 11.5q0 12 37 15q24 2 41 14t25.5 27.5t13 39.5t5.5 39.5t1 38.5q0 33 -8 131l-49 490q-3 28 -8 28q-7 0 -21 -32 l-362 -754q-21 -41 -41 -41q-21 0 -39 41l-375 758q-15 31 -22 31q-6 0 -9 -39l-47 -500q-8 -94 -8 -148q0 -37 8 -62.5t24.5 -38t27.5 -17.5t30 -9q4 -1 10 -3t9.5 -3t7 -2.5t5 -3.5t1.5 -4q0 -7 -7.5 -9.5t-29.5 -2.5q-24 0 -75 4t-81 4q-19 0 -65.5 -3t-79.5 -3h-16 t-11.5 1.5t-9 4.5t-2.5 8z" />
<glyph unicode="n" horiz-adv-x="1556" d="M102 6q0 10 33 14q23 5 43 17q26 19 37.5 72t11.5 108v946q0 50 4 65t21 15q20 0 110 -90l826 -836q30 -30 37 -30q6 0 6 45v618q0 178 -29 217q-20 27 -65 35q-29 4 -29 10q0 15 35 15q19 0 63.5 -4t71.5 -4q20 0 63.5 4t67.5 4q45 0 45 -13q0 -2 -2 -4t-6.5 -3.5 t-9 -2.5t-12.5 -3t-13 -3q-33 -7 -43 -14q-29 -18 -29 -223v-914q0 -61 -8 -70q-6 -6 -14 -6q-24 0 -82 62l-852 862q-29 29 -35 29q-8 0 -8 -50v-663q0 -50 14 -101t43 -71q5 -4 12 -6t19 -4.5t16 -3.5q41 -7 41 -17q0 -9 -11 -11.5t-36 -2.5q-19 0 -66.5 3t-80.5 3 q-21 0 -70 -3t-82 -3q-37 0 -37 12z" />
<glyph unicode="o" d="M82 598q0 184 78.5 332t223 232.5t329.5 84.5q144 0 268.5 -50t209 -134.5t133 -196t48.5 -233.5q0 -108 -23.5 -205t-74 -181t-124 -145t-179.5 -96t-234 -35q-138 0 -258.5 46t-208 127.5t-138 199t-50.5 254.5zM274 666q0 -124 34 -237t96 -201t156.5 -140.5 t207.5 -52.5q99 0 179 40.5t130.5 109t77.5 155.5t27 184q0 95 -18 187t-56.5 178t-94 150.5t-137 103.5t-178.5 39q-89 0 -161.5 -31t-120.5 -81.5t-80.5 -118.5t-47 -139t-14.5 -146z" />
<glyph unicode="p" horiz-adv-x="1114" d="M111 8q0 10 32 15q30 3 47.5 8t33.5 19.5t23.5 41.5t12 71t4.5 111v793q0 45 -9 74.5t-38 46.5q-20 8 -41 12q-4 1 -9.5 1.5t-9 0.5t-7.5 1l-6 1.5t-3.5 2.5t-1.5 5q0 15 35 15q26 0 83 -4t91 -4q35 0 116.5 6t133.5 6q84 0 160 -20t138 -59t99 -104.5t37 -148.5 q0 -103 -42.5 -191t-128 -144t-197.5 -56q-39 0 -79 6.5t-40 24.5q0 14 16 14q11 0 36.5 -5t39.5 -5q98 0 152.5 76.5t54.5 203.5q0 338 -334 338h-16q-33 0 -42.5 -24.5t-9.5 -100.5v-635q0 -173 4.5 -246t18.5 -89q32 -37 90 -41q39 -4 39 -17q0 -9 -9 -11.5t-34 -2.5 q-23 0 -88 3t-113 3q-29 0 -96 -3t-109 -3q-20 0 -27 2.5t-7 11.5z" />
<glyph unicode="q" d="M82 598q0 185 78 332.5t222.5 232t330.5 84.5q145 0 269 -49t209 -134t133 -200.5t48 -245.5q0 -204 -125 -401q-16 -25 -35 -49.5t-28.5 -36.5t-9.5 -16q0 -2 0.5 -3.5t2.5 -4t8.5 -6.5t16.5 -9l354 -176q138 -68 278 -113t237 -45q44 0 91 10.5t50 10.5q16 0 16 -15 q0 -14 -35 -24q-38 -11 -155 -41q-98 -23 -170 -23q-58 0 -137 21.5t-178.5 64.5t-176 80t-190.5 95q-149 83 -166 83q-11 0 -41 -12q-121 -37 -225 -37q-158 0 -286.5 50t-212 136t-128.5 199.5t-45 241.5zM276 664q0 -89 19 -177t59.5 -170t97.5 -144.5t140 -100 t180 -37.5q80 0 148.5 28.5t116 76.5t81.5 111.5t50 133.5t16 143q0 92 -17.5 182.5t-56.5 176t-94 151t-137 105t-179 39.5q-90 0 -163 -31t-121 -81.5t-80 -119t-46 -139.5t-14 -147z" />
<glyph unicode="r" horiz-adv-x="1366" d="M111 8q0 15 57 19q53 5 68 26q26 35 26 135v887q0 40 -5.5 64t-22 35.5t-28.5 14.5t-42 7q-35 4 -35 14q0 17 47 17q28 0 82.5 -4t95.5 -4q29 0 105.5 5t115.5 5q84 0 157.5 -18.5t131.5 -54.5t91.5 -95.5t33.5 -136.5q0 -72 -32.5 -140t-69.5 -107t-78 -69 q-4 -3 -10.5 -7.5t-9 -6.5t-5 -5t-2.5 -7q0 -8 31 -50l234 -284q34 -41 58.5 -68.5t62.5 -65.5t73 -59t64 -22q61 -3 61 -17q0 -12 -24 -16t-76 -4q-59 0 -98 4t-89 17.5t-93 45t-81 82.5l-233 310q-39 53 -53.5 62t-65.5 9h-98q-15 0 -15 -18v-234q0 -156 21 -202 q17 -40 82 -47q39 -3 39 -17t-41 -14q-25 0 -85.5 3t-99.5 3q-32 0 -103.5 -3t-117.5 -3q-24 0 -24 14zM440 612q0 -14 4 -17t19 -3h151q94 0 146.5 72t52.5 198q0 123 -75.5 206t-200.5 83h-58q-19 0 -27.5 -8.5t-10 -19.5t-1.5 -36v-475z" />
<glyph unicode="s" horiz-adv-x="890" d="M102 170q0 33 7.5 62.5t23.5 29.5q13 0 17 -7.5t7 -28.5q1 -3 1 -5q4 -38 18 -67q58 -117 246 -117q107 0 174.5 63t67.5 168q0 75 -45 129t-125 105l-191 123q-84 56 -135 138t-51 181q0 140 101 221.5t271 81.5q66 0 154 -18q46 -8 62 -8q9 0 26 5t27 5q12 0 12 -8 q0 -7 -4 -22t-4 -25q0 -8 2 -33t2 -47q0 -117 -33 -117q-18 0 -24 37q-9 50 -29 82q-27 38 -87 63t-130 25q-83 0 -145 -50.5t-62 -142.5q0 -77 42 -130t126 -107l190 -121q93 -59 144 -128.5t51 -166.5q0 -64 -26.5 -128t-76 -118.5t-130.5 -88.5t-179 -34q-140 0 -258 45 q-22 8 -28.5 29.5t-6.5 58.5q0 1 -1 20.5t-1 45.5z" />
<glyph unicode="t" horiz-adv-x="1155" d="M41 1079q0 13 13.5 54.5t15.5 58.5q0 1 1 11t2 14.5t3.5 12t7.5 10.5t12 3q9 0 27.5 -6t62.5 -12t115 -6h594q65 0 120 3t75 3q24 0 24 -15q0 -7 -8 -43q-14 -63 -14 -88q0 -32 -21 -32q-7 0 -10.5 8t-6 19.5t-5.5 15.5q-25 38 -119 38h-240q-13 0 -16.5 -19.5 t-3.5 -76.5v-665q0 -231 16.5 -285.5t101.5 -58.5q35 0 35 -15q0 -14 -49 -14q-24 0 -83 3t-99 3q-30 0 -101.5 -3t-119.5 -3q-29 0 -29 12q0 3 1 5.5t4 4t6 2.5t8 2.5t9 2t11 2t12 2.5q18 3 26 5t22 6.5t22 12t12 17.5q17 47 17 262v723q0 50 -3.5 62.5t-21.5 12.5h-311 q-20 0 -33.5 -5t-21.5 -15t-11.5 -17t-7.5 -20q0 -1 -1 -3q-9 -18 -24 -19q-16 0 -16 30z" />
<glyph unicode="u" horiz-adv-x="1513" d="M90 1212q0 15 43 15q26 0 85 -4t95 -4q29 0 90 5t95 5q37 0 37 -17q0 -11 -56 -20l-31 -8h1q-19 -10 -27.5 -19.5t-14.5 -44t-7 -80t-1 -149.5v-426q0 -127 35.5 -220.5t116 -149.5t199.5 -56q92 0 169.5 26t137 77t93.5 133.5t34 189.5v305q0 194 -8.5 285.5 t-32.5 105.5q-31 23 -86 31q-45 7 -45 18q0 15 53 15q24 0 77.5 -3t86.5 -3q21 0 71 3t82 3q41 0 41 -17q0 -11 -34 -14q-19 0 -31 -4q-48 -12 -60 -62.5t-12 -166.5v-455q0 -247 -141.5 -391t-399.5 -144q-152 0 -269 49t-187 152t-70 248v575q0 150 -14 166q-19 21 -74 33 q-41 8 -41 18z" />
<glyph unicode="v" horiz-adv-x="1361" d="M0 1212q0 13 45 13q27 0 83.5 -3t100.5 -3q18 0 72.5 3t87.5 3q31 0 31 -13q0 -2 -1 -3.5t-3.5 -2.5t-5.5 -2t-7.5 -3t-7.5 -3q-1 0 -6 -2t-7 -3t-6 -3.5t-5.5 -5t-4 -6t-3.5 -8.5t-1 -11q0 -43 58 -188l274 -654q17 -47 29 -47q9 0 29 47l321 738q19 46 19 80 q0 20 -6.5 33t-11.5 16.5t-17 9.5q-21 8 -21 16q0 15 33 15q15 0 54 -3t69 -3q20 0 62 4t67 4q41 0 41 -15q0 -5 -33 -12q-22 -2 -42.5 -15.5t-33.5 -28t-30 -43.5t-23.5 -43t-21.5 -46l-430 -977q-15 -35 -28 -54t-19.5 -22.5t-14.5 -3.5t-16 6t-16 20.5t-13 25t-14 30.5 l-420 969q-47 108 -64 125q-38 40 -102 53q-41 7 -41 16z" />
<glyph unicode="w" horiz-adv-x="2025" d="M20 1210q0 17 35 17q30 0 95.5 -4t105.5 -4q23 0 75 4t83 4q53 0 53 -13q0 -10 -37 -18q-55 -13 -55 -47q0 -37 49 -162l242 -614q15 -41 24 -41q12 0 27 45l282 778q14 40 25.5 58t30.5 18q4 0 7.5 -1t7 -3.5t6 -5t5 -7.5t4.5 -8.5t5 -10.5t4.5 -11t4.5 -13t5 -14 l309 -776q19 -49 29 -49q9 0 28 51l244 651q23 64 23 94q0 28 -11 39q-11 12 -31.5 18.5t-34 10.5t-13.5 12q0 17 36 17q22 0 71 -3t79 -3q21 0 65 4t70 4q37 0 37 -15q0 -8 -15 -10.5t-44 -12.5t-54 -34q-24 -21 -39 -49.5t-36 -83.5l-367 -991q-22 -62 -45 -62 q-22 0 -45 62l-316 796q-14 35 -18 42.5t-10 7.5q-10 0 -27 -50l-284 -786q-26 -72 -52 -72q-12 0 -23 15t-26 53l-393 1005q-28 74 -55 111q-27 34 -95 43q-41 4 -41 14z" />
<glyph unicode="x" horiz-adv-x="1173" d="M0 2q0 2 0.5 3.5t2 3t2.5 2t3.5 1.5t4.5 1.5t5.5 1t5.5 0.5t6.5 0.5t6.5 0.5q6 0 14 2q39 5 91.5 45.5t84.5 96.5l222 370q36 59 36 72q0 12 -22 51l-213 375q-59 106 -96 129q-40 30 -99 39q-30 7 -30 14q0 15 41 15q30 0 86 -3t96 -3q54 0 113.5 4t72.5 4q27 0 27 -13 q0 -3 -1.5 -5t-4.5 -3.5t-6 -2.5t-8 -2.5t-7 -2.5q-39 -10 -39 -37q0 -40 45 -121l144 -258q10 -16 14 -16q8 0 16 16l158 273q10 16 23.5 50t13.5 52q0 14 -8 23.5t-15 12t-20 5.5q-29 4 -29 14q0 15 33 15q21 0 66.5 -4t70.5 -4t79 4t83 4q35 0 35 -13q0 -8 -18 -15.5 t-42.5 -13.5t-27.5 -7q-64 -24 -117 -113l-209 -350q-5 -8 -11.5 -19t-9.5 -15.5t-5 -10.5t-2 -11q0 -12 16 -41l248 -434q65 -110 137 -145q13 -6 45 -10q7 -1 19 -3t18.5 -3t14 -3t11 -5t3.5 -7q0 -16 -60 -16q-30 0 -95.5 4t-105.5 4q-29 0 -89 -2t-91 -2t-31 10 q0 8 17 13t34 13.5t17 24.5q0 47 -43 123l-166 301q-7 13 -12 13t-12 -13l-189 -329q-39 -67 -39 -101q0 -26 43 -31q33 -4 33 -12q0 -14 -29 -14q-18 0 -67.5 3t-89.5 3q-12 0 -65 -6t-91 -6q-43 0 -43 14z" />
<glyph unicode="y" horiz-adv-x="1280" d="M0 1208q0 19 63 19q18 0 68 -4t90 -4q12 0 62 4t84 4q53 0 53 -17q0 -1 -29 -12q-33 -8 -33 -22q0 -33 54 -113l231 -356q28 -45 39 -45q9 0 29 30l204 312q29 42 49.5 91.5t20.5 73.5q0 21 -24 31q-21 5 -21 10q0 15 39 15q17 0 56.5 -3t64.5 -3q19 0 61.5 4t69.5 4 q49 0 49 -17q0 -5 -17 -8.5t-38.5 -6.5t-28.5 -7q-68 -35 -117 -111l-305 -469q-37 -58 -37 -96v-319q0 -113 37 -138q31 -23 78 -30q41 -7 41 -17t-10 -12t-41 -2q-23 0 -85 3t-108 3q-51 0 -117.5 -3t-76.5 -3q-49 0 -49 14q0 3 4 5.5t10 4t12 2.5t12.5 2t8.5 1 q55 7 81.5 46.5t26.5 114.5v326q0 34 -24 68l-357 518q-45 65 -80 82q-10 5 -59 16q-41 7 -41 14z" />
<glyph unicode="z" horiz-adv-x="1341" d="M72 8q0 13 32 53l805 1043q13 16 13 22q0 9 -21 9h-211q-184 0 -356 -11q-92 -8 -137 -53q-11 -11 -21 -61q-4 -33 -18 -33q-27 0 -27 78q0 21 9.5 64.5t9.5 68.5q0 11 0.5 15.5t3.5 10t10 7.5t20 2q35 0 132.5 -2t172.5 -2h316q97 0 211 3t137 3q35 0 35 -19 q0 -3 -3.5 -9.5t-10.5 -15.5t-13 -16.5t-15 -18.5t-13 -16l-730 -944q-47 -57 -47 -82q0 -10 16 -14t58 -4h238q424 0 477 35q10 6 47 59q29 47 49 47q19 0 19 -18q0 -13 -25.5 -61.5t-34.5 -77.5q-27 -82 -59 -82q-12 0 -58 3t-127.5 6t-179.5 3h-528q-39 0 -84 -1t-55 -1 q-37 0 -37 10z" />
<glyph unicode="{" horiz-adv-x="679" d="M51 711q0 14 20 20.5t48.5 10.5t38.5 10q78 48 78 174v368q0 71 23 121t66 77t94.5 38.5t117.5 11.5q41 0 41 -20q0 -18 -50 -21q-82 -4 -109.5 -43.5t-27.5 -132.5v-342q0 -121 -42 -179t-118 -79q-8 -2 -24 -4t-24.5 -4.5t-8.5 -7.5q0 -4 8.5 -5.5t24 -3.5t24.5 -4 q79 -24 119.5 -82t40.5 -176v-346q0 -96 30 -132.5t107 -41.5q50 -3 50 -16q0 -12 -13.5 -18.5t-27.5 -6.5q-69 0 -119 10t-93.5 36t-66 76.5t-22.5 125.5v369q0 122 -74 174q-12 9 -41 13t-49.5 10t-20.5 20z" />
<glyph unicode="|" horiz-adv-x="505" d="M184 -102v1628h138v-1628h-138z" />
<glyph unicode="}" horiz-adv-x="679" d="M102 -98q0 13 50 16q81 4 109 41.5t28 132.5v346q0 121 41 178t116 80q9 2 24.5 4t24.5 3.5t9 5.5q0 5 -8 7.5t-23.5 4.5t-23.5 4q-80 22 -120 80t-40 178v342q0 92 -28 132t-109 44q-50 3 -50 21q0 20 39 20q67 0 118.5 -11.5t94.5 -38t66.5 -77t23.5 -121.5v-368 q0 -128 78 -174q10 -6 38.5 -10t48.5 -10.5t20 -20.5q0 -15 -20.5 -20.5t-50 -9.5t-42.5 -13q-72 -51 -72 -174v-369q0 -75 -22.5 -125.5t-66 -76.5t-94 -36t-120.5 -10q-12 0 -25.5 6.5t-13.5 18.5z" />
<glyph unicode="~" horiz-adv-x="1007" d="M102 629q0 126 54 189t147 63q52 0 112.5 -22.5t105.5 -49.5t99.5 -49.5t96.5 -22.5q83 0 86 142h102q0 -139 -52.5 -195.5t-143.5 -56.5q-54 0 -115 22.5t-106.5 49t-98.5 49t-92 22.5q-88 0 -94 -141h-101z" />
<glyph unicode="&#xa1;" horiz-adv-x="464" d="M125 23q0 9 6.5 73.5t15.5 154t13 142.5l41 580q3 57 32 57q28 0 31 -59l43 -576q3 -42 11.5 -131t16 -160.5t7.5 -80.5q0 -37 -109 -37q-108 0 -108 37zM129 1329q0 45 29.5 78t74.5 33q43 0 73 -32.5t30 -76.5t-29.5 -74t-73.5 -30t-74 30t-30 72z" />
<glyph unicode="&#xa2;" horiz-adv-x="1069" d="M102 723q0 224 145 369t357 145h33l18 154q5 36 17 36h57q16 0 16 -8q0 -26 -10 -97.5t-12 -90.5q66 -7 132 -25t89 -18q4 0 13 3t14 3q14 0 14 -25q0 -8 -3 -33t-3 -32q0 -14 2 -41.5t2 -44.5q0 -45 -20 -45q-9 0 -13.5 6.5t-8 20t-5.5 18.5q-20 47 -57 78t-74 43.5 t-90 21.5q-16 -150 -51 -451.5t-52 -451.5q34 -6 72 -6q112 0 201 61q17 12 35.5 43t31 55.5t17.5 24.5q18 0 18 -37l-10 -65q-2 -24 -3.5 -36.5t-6 -30t-13.5 -27.5t-22 -15q-96 -37 -293 -37h-35q-10 -84 -26 -239q-3 -19 -21 -19h-53q-15 0 -15 11q0 1 5 36l24 222 q-188 33 -302 165t-114 359zM262 764q0 -171 72 -299.5t194 -181.5l101 886q-6 0 -19.5 1t-19.5 1q-105 0 -181 -58t-111.5 -148.5t-35.5 -200.5z" />
<glyph unicode="&#xa3;" horiz-adv-x="1167" d="M41 16q0 15 18 25.5t47.5 20.5t64.5 25.5t70 49.5t64.5 84t47.5 137t18 201q0 41 -15 125h-204q-23 0 -31 2t-8 12q0 5 3.5 16t9.5 27t9 27q3 8 10.5 10t30.5 2h160q-41 157 -41 262q0 190 120.5 307t311.5 117q68 0 139.5 -15t87.5 -15q22 0 38 6t22 6t6 -8 q0 -5 -3 -46.5t-3 -101.5q0 -135 -27 -135q-11 0 -14.5 27t-18 71t-49.5 74q-85 72 -207 72q-101 0 -168 -63t-67 -173q0 -36 3.5 -73t12 -84.5t13 -71.5t18 -84t16.5 -72h244q35 0 35 -8q0 -10 -10 -39q-2 -6 -5.5 -15t-5 -12.5t-3.5 -8.5t-3.5 -6.5l-3.5 -3.5t-5.5 -2 t-7 -0.5t-9.5 -0.5h-205q10 -62 10 -100q0 -75 -21 -148.5t-51 -126t-60.5 -94.5t-51.5 -67.5t-21 -30.5q0 -15 15.5 -20t60.5 -5h180q302 0 404 64q22 14 38.5 32t23.5 31t16.5 22t21.5 9q14 0 14 -17q0 -9 -7.5 -27t-20.5 -45t-15 -32q-5 -11 -19 -53.5t-26.5 -66 t-27.5 -23.5l-36 2q-36 1 -93.5 3t-123 4t-136.5 3.5t-123 1.5h-281q-44 0 -89.5 -2t-55.5 -2q-31 0 -31 20z" />
<glyph unicode="&#xa4;" horiz-adv-x="1382" d="M14 608q0 2 1.5 5t3.5 8.5t4 11.5l12 41q4 12 9.5 14t27.5 2h104v43q0 20 4 60h-125q-37 0 -37 12q0 2 1.5 4.5t3.5 8t4 11.5l12 41q5 12 10 14.5t27 2.5h114q19 117 62.5 218t112 183.5t170 130t223.5 47.5q66 0 125.5 -13t93 -28t67.5 -28t56 -13q8 0 16 5.5t14 5.5 q9 0 9 -23q0 -15 -4.5 -49t-4.5 -47q0 -16 3.5 -60t3.5 -67q0 -53 -17 -53q-9 0 -15.5 14.5t-17 45.5t-22.5 54q-95 185 -346 185q-314 0 -336 -508h635q35 0 35 -8q0 -4 -6 -19l-13 -41q-4 -17 -10 -21.5t-20 -4.5h-621q0 -70 2 -103h567q35 0 35 -8q-1 -1 -1.5 -5 t-2.5 -12t-6 -18t-8 -21.5t-5.5 -15.5t-4.5 -8t-7.5 -5t-13.5 -1h-549q12 -127 40.5 -226.5t77 -176t122 -117.5t168.5 -41q69 0 128 29.5t122 87.5q32 29 54.5 69.5t32 65t15.5 24.5q16 0 16 -39q0 -16 -7 -51t-17 -79.5t-13 -63.5q-7 -46 -138 -78.5t-259 -32.5 q-216 0 -369.5 174.5t-181.5 454.5h-129q-37 0 -37 12z" />
<glyph unicode="&#xa5;" horiz-adv-x="1316" d="M31 1423q0 21 61 21q19 0 74 -5t106 -5q25 0 70 5t72 5q53 0 53 -17q0 -5 -35 -15t-35 -26q0 -32 43 -112l211 -371q13 -23 19.5 -31t13.5 -8t14.5 9t30.5 45l158 247q94 147 94 213q0 14 -12.5 23.5t-25.5 14.5t-13 9q0 15 35 15q8 0 52.5 -3t84.5 -3q25 0 64.5 5 t66.5 5q53 0 53 -19q0 -7 -39 -10q-48 -6 -85.5 -33.5t-74.5 -87.5l-307 -501q-43 -75 -43 -121v-64q0 -13 4 -15.5t25 -2.5h192q43 0 43 -8q0 -4 -6 -19l-16 -49q-4 -13 -9.5 -15.5t-23.5 -2.5h-182q-20 0 -23.5 -3.5t-3.5 -21.5v-59q0 -14 4 -17.5t23 -3.5h194q43 0 43 -8 q0 -3 -6 -18l-16 -50q-4 -13 -9.5 -15.5t-23.5 -2.5h-186q-17 0 -20 -3.5t-3 -19.5v-96q0 -77 27 -108q19 -23 53.5 -33t58 -14.5t23.5 -14.5q0 -16 -55 -16q-30 0 -95 4t-96 4t-92 -4t-90 -4q-57 0 -57 14q0 8 15 12.5t28 4.5q32 0 53 20.5t30 54.5t12 61t3 56v61 q0 15 -4 18t-21 3h-192q-39 0 -39 12q0 7 4 19l16 47q3 11 9 13.5t28 2.5h174q18 0 21.5 3.5t3.5 19.5v57q0 18 -4 21.5t-19 3.5h-194q-39 0 -39 12q0 8 4 20l16 45q3 11 9.5 14t27.5 3h176q16 0 19.5 2.5t3.5 15.5v64q0 36 -35 94l-317 549q-31 52 -70 74q-8 4 -34 10.5 t-47 13t-21 10.5z" />
<glyph unicode="&#xa6;" horiz-adv-x="389" d="M123 -90v668h143v-668h-143zM123 864v670h143v-670h-143z" />
<glyph unicode="&#xa7;" horiz-adv-x="1112" d="M129 604q0 108 61.5 181.5t155.5 115.5q-117 111 -117 252q0 150 99.5 229.5t269.5 79.5q66 0 141 -15t90 -15q21 0 34 6t20 6l6 -6q0 -9 -3 -28.5t-3 -27.5q0 -14 1 -49t1 -49q0 -115 -25 -115q-7 0 -12 27t-20.5 68t-45.5 67q-71 62 -200 62q-92 0 -153.5 -45 t-61.5 -142q0 -73 42.5 -121.5t137.5 -109.5q21 -14 80 -49.5t97 -59.5t91 -68t85 -84t55.5 -97.5t23.5 -118.5q0 -91 -54 -174t-149 -142q94 -94 94 -227q0 -67 -27.5 -131.5t-78.5 -117t-133 -84.5t-182 -32q-47 0 -87 5.5t-89 15t-85 14.5q-12 2 -19.5 12.5t-10 32.5 t-3.5 37t0 46t1 40q0 36 5.5 68.5t16.5 32.5q9 0 14 -15.5t9.5 -43t9.5 -42.5q21 -57 89.5 -94t168.5 -37q106 0 183 62t77 167q0 40 -17.5 77.5t-43 66t-69 61.5t-81 56t-94 58.5t-94.5 61.5q-103 70 -152 149t-49 183zM266 670q0 -62 28 -112.5t79.5 -90.5t105.5 -72 t125 -76t119 -83q117 98 117 192q0 30 -10 59.5t-23 53t-40 51t-47.5 45.5t-59.5 45.5t-62.5 43t-70.5 45t-70 44.5l-58 37q-59 -27 -96 -73.5t-37 -108.5z" />
<glyph unicode="&#xa8;" horiz-adv-x="550" d="M0 1632q0 41 28.5 69t69.5 28q40 0 69.5 -27t29.5 -66q0 -43 -28.5 -71.5t-72.5 -28.5q-41 0 -68.5 28t-27.5 68zM354 1632q0 41 29 69t70 28t69.5 -26.5t28.5 -66.5q0 -43 -27.5 -71.5t-70.5 -28.5q-42 0 -70.5 28t-28.5 68z" />
<glyph unicode="&#xa9;" horiz-adv-x="1789" d="M115 739q0 213 104 392t284 283t394 104q162 0 306 -60.5t247 -164.5t163 -248t60 -306q0 -158 -61 -301t-165 -246t-248 -164t-302 -61q-162 0 -307 60t-249.5 162.5t-165 245.5t-60.5 304zM231 741q0 -185 87.5 -343t241 -251.5t337.5 -93.5q185 0 337 93t237 250.5 t85 344.5q0 137 -51 263.5t-137.5 220t-209.5 149.5t-261 56q-140 0 -264 -54t-212 -146.5t-139 -219.5t-51 -269zM428 760q0 84 29.5 161.5t86 141.5t150 102.5t211.5 38.5q50 0 143 -20.5t142 -20.5q4 0 12 2t15 2q18 0 18 -22q0 -8 -3 -28t-3 -27q0 -6 2 -24.5t2 -29.5 q0 -63 -21 -63q-13 0 -17.5 8.5t-4.5 21.5t-2 17q-52 121 -295 121q-152 0 -238 -93.5t-86 -250.5q0 -177 110 -306t277 -129q111 0 193 54q14 9 26 27t19 34t15 28.5t16 12.5q7 0 12 -7t6.5 -14t1.5 -12q0 -11 -14 -69l-8 -47q-7 -31 -101 -50.5t-188 -19.5 q-107 0 -197 27.5t-160 82t-109.5 144.5t-39.5 207z" />
<glyph unicode="&#xaa;" horiz-adv-x="849" d="M47 492q0 2 1 5l3 9l4 12l13 39q4 12 9 14t27 2h664q35 0 35 -8q0 -9 -6 -24l-13 -35q-4 -17 -10 -22t-20 -5h-670q-37 0 -37 13zM47 750q0 16 23 16q37 2 65 65l266 627q10 27 25 27q19 0 33 -39l8 -19q127 -312 242 -589q18 -40 32 -54q7 -7 23 -13t27.5 -11t11.5 -12 q0 -15 -21 -15q-23 0 -57.5 1t-54.5 1q-35 0 -105 -2q-28 0 -28 15q0 10 14.5 13.5t28.5 9t14 20.5q0 29 -12 59l-45 113h-271l-26 -68q-33 -80 -33 -102q0 -16 14.5 -21t29.5 -8t15 -14q0 -17 -22 -17q-23 0 -52 1t-30 1q-13 0 -36.5 -1t-51.5 -1q-27 0 -27 17zM301 1047 h201l-82 206q-2 5 -4 11t-3 8.5t-2.5 5.5t-2.5 4t-2.5 1.5t-4.5 0.5q-2 0 -10 -16l-41 -101z" />
<glyph unicode="&#xab;" horiz-adv-x="980" d="M82 741q0 11 12.5 25t46.5 45l324 291q40 37 57 37q23 0 23 -23q0 -13 -35 -53l-201 -229q-55 -64 -55 -80q0 -22 45 -70l209 -221q39 -42 39 -53q0 -6 -17 -23l-10 -10q-24 -21 -33 -21q-11 0 -49 35l-323 305q-33 33 -33 45zM434 741q0 11 12 24.5t48 45.5l323 291 q40 37 57 37q23 0 23 -23q0 -13 -35 -53l-200 -229q-56 -66 -56 -80q0 -22 45 -70l209 -221q39 -42 39 -53q0 -7 -16 -23l-11 -10q-24 -21 -32 -21q-11 0 -49 35l-324 305q-33 33 -33 45z" />
<glyph unicode="&#xac;" horiz-adv-x="1073" d="M94 655v107h850v-443h-113v336h-737z" />
<glyph unicode="&#xad;" horiz-adv-x="772" d="M47 588q0 6 2 10l27 88q4 17 13.5 20t49.5 3h482q77 0 77 -29q0 -27 -84 -39q-9 -1 -211 -25t-239 -32q-17 -4 -37 -10.5t-32.5 -10.5t-16.5 -4q-12 0 -21.5 8.5t-9.5 20.5z" />
<glyph unicode="&#xae;" horiz-adv-x="1789" d="M115 739q0 213 104 392t284 283t394 104q162 0 306 -60.5t247 -164.5t163 -248t60 -306q0 -158 -61.5 -301t-165 -246t-248 -164t-303.5 -61q-216 0 -395 102t-282 279t-103 391zM231 741q0 -185 88 -343t242 -251.5t338 -93.5q138 0 261 55.5t209.5 148.5t136.5 219.5 t50 264.5q0 137 -51 263.5t-138 220t-210 149.5t-260 56q-188 0 -341 -92t-239 -249.5t-86 -347.5zM469 1167q0 23 29 23q10 0 57 -2t78 -2q30 0 85 4t81 4q58 0 110 -12t97 -37t71.5 -68.5t26.5 -101.5q0 -71 -36.5 -134t-96.5 -104q0 -2 6 -14l170 -207q3 -3 21 -24.5 t28 -33.5t30 -32t34.5 -31.5t33 -20.5t33.5 -9q41 0 41 -19q0 -22 -47 -22h-53q-143 0 -213 90l-166 215q-2 3 -9.5 13.5t-11 14.5t-11 12t-12.5 11.5t-13.5 6.5t-16.5 3h-106q-7 0 -7 -4v-168q0 -17 2 -42.5t9.5 -59.5t19.5 -43q4 -3 23 -8t34 -11t15 -12q0 -20 -33 -20 h-16q-70 4 -109 4q-20 0 -65 -2t-56 -2q-45 0 -45 16q0 12 13.5 18t29.5 10.5t29.5 26.5t13.5 62v624q0 31 -15.5 47.5t-33.5 18.5t-33.5 6.5t-15.5 15.5zM702 758q0 -4 27 -4h102q64 0 101 51.5t37 126.5q0 91 -53 140.5t-144 49.5h-39q-31 0 -31 -45v-319z" />
<glyph unicode="&#xaf;" horiz-adv-x="595" d="M29 1536q0 11 10 31q2 5 12.5 32t18 38.5t16.5 11.5q11 0 35 -6.5t39 -6.5h260q44 0 82 8.5t45 8.5q18 0 18 -17q0 -5 -6 -19t-18 -40t-19 -43q0 -1 -2 -4.5t-2.5 -4.5t-2.5 -3.5t-4 -3t-5 -0.5q-1 0 -13 5t-34.5 10t-48.5 5h-279q-27 0 -54.5 -7t-29.5 -7q-18 0 -18 12z " />
<glyph unicode="&#xb0;" horiz-adv-x="661" d="M90 1165q0 93 65 157t160 64q99 0 160.5 -62.5t61.5 -152.5q0 -95 -69 -159t-157 -64q-97 0 -159 63.5t-62 153.5zM170 1167q0 -60 42 -102.5t101 -42.5q60 0 101 43t41 106q0 58 -37 103t-107 45q-64 0 -102.5 -46.5t-38.5 -105.5z" />
<glyph unicode="&#xb1;" horiz-adv-x="1060" d="M102 94v107h856v-107h-856zM102 680v108h373v373h111v-373h372v-108h-372v-375h-111v375h-373z" />
<glyph unicode="&#xb2;" horiz-adv-x="772" d="M82 582q0 3 4 9.5t12.5 15t17 16.5t21.5 20.5t21 20.5q44 43 77 75.5t50 49t27.5 26.5t15 14.5l6.5 6.5q184 192 184 342q0 97 -50.5 156t-139.5 59t-138 -72q-12 -18 -20.5 -41t-13 -35t-11.5 -12q-10 0 -17 14t-7 29q0 11 1 34.5t1 37.5q0 7 -2 19t-2 19 q0 10 10.5 13.5t35 8t44.5 13.5q76 33 151 33q131 0 219.5 -75.5t88.5 -184.5q0 -52 -19 -103.5t-57 -102.5t-76 -91.5t-94 -93.5l-57 -53q-9 -9 -39 -35t-50 -46t-20 -28q0 -2 8 -2h244q89 0 115 33q2 3 13.5 22t21.5 32t16 13q16 0 16 -14q0 -15 -10 -45 q-12 -33 -15.5 -64.5t-6.5 -40t-19 -8.5h-37q-22 0 -88 2t-133 2q-99 0 -179 -5t-87 -5q-33 0 -33 21z" />
<glyph unicode="&#xb3;" horiz-adv-x="706" d="M82 715q0 28 16 28q9 0 14 -6t8.5 -19.5t4.5 -15.5q20 -46 77 -69t113 -23q84 0 128 49.5t44 120.5q0 100 -55 161t-158 67h-43q-22 0 -22 22q0 13 14 20t31 7q119 5 171 43.5t52 136.5q0 70 -51 115t-121 45q-85 0 -137 -64q-8 -10 -16 -30.5t-15 -33t-16 -12.5 q-2 0 -5.5 1.5t-7.5 6.5t-4 13q0 16 3.5 42t3.5 42q0 1 -1 14t-1 27t12 14q1 0 3 -0.5t6.5 -1t10.5 -0.5q24 0 87 19.5t110 19.5q107 0 188.5 -59.5t81.5 -151.5q0 -40 -16 -74.5t-42.5 -58t-51 -38.5t-49.5 -25q62 -17 119 -79.5t57 -152.5q0 -126 -88.5 -195t-221.5 -69 q-27 0 -52 2t-49 6t-38 6.5t-38.5 8.5t-31.5 8q-24 6 -24 133z" />
<glyph unicode="&#xb4;" horiz-adv-x="462" d="M0 1552q0 9 10 19q14 17 157 88.5t173 71.5q22 0 72.5 -58t50.5 -71q0 -15 -17 -15q-7 0 -31 7.5t-32 7.5q-17 0 -87.5 -9t-137.5 -22q-13 -3 -69 -19t-71 -16q-18 0 -18 16z" />
<glyph unicode="&#xb5;" horiz-adv-x="1941" d="M92 6q0 6 21 10q27 6 48 18.5t35 33.5t23 39.5t15 49.5t8.5 49t5.5 52l117 1102q11 110 34 110q12 0 29 -26.5t49 -91.5l461 -953q34 -69 41 -69q10 0 45 71l463 979q1 3 5 12t6.5 13.5t6.5 13t7 13.5t7 12t7.5 11t7.5 7.5t8 5.5t8 2q26 0 37 -110l115 -1073 q19 -169 39 -205q13 -23 33 -37.5t36 -18.5t27.5 -8t11.5 -10q0 -16 -65 -16q-21 0 -87 4t-122 4q-31 0 -77 -3t-81 -3q-26 0 -34.5 2.5t-8.5 11.5q0 15 31 15q30 0 51 14t32 32.5t17 48t7 49t1 46.5q0 61 -10 156l-57 598q-3 28 -14 28q-10 0 -35 -53l-408 -864 q-31 -68 -45 -68q-17 0 -35 41l-262 549q-1 1 -61 129.5t-96.5 197t-47.5 68.5q-7 0 -12 -32l-55 -617q-10 -95 -10 -174q0 -51 14.5 -84t35.5 -46t41.5 -19t35 -9.5t14.5 -11.5q0 -12 -33 -12q-19 0 -85 5t-93 5t-87.5 -4t-78.5 -4q-21 0 -29 2t-8 12z" />
<glyph unicode="&#xb6;" horiz-adv-x="1353" d="M102 1032q0 171 128.5 289.5t318.5 118.5q17 0 128 -3t134 -3q1 0 154 4t204 4q35 0 35 -17q0 -11 -24 -14q-19 -2 -33.5 -7.5t-26 -11t-20 -18.5t-14 -22.5t-9.5 -31.5t-6 -35.5t-3 -45t-1 -51v-60.5v-995q0 -104 2 -229t2 -152q0 -29 -60.5 -48t-105.5 -19 q-10 0 -10 10l5 38q4 38 8.5 140.5t4.5 259.5v1186q0 31 -16 43t-57 12q-22 0 -31.5 -1t-21.5 -5.5t-16.5 -15t-4.5 -29.5v-1182q0 -383 6 -463q0 -26 -60 -45.5t-106 -19.5q-16 0 -16 12q0 1 1.5 8t4.5 24.5t6 41.5q10 97 10 442v473h-37q-207 0 -340 114.5t-133 303.5z M438 1032q0 -33 0.5 -56t4 -65t9.5 -72t19 -65.5t31 -58t46.5 -38t63.5 -15.5v634q0 41 -6 59.5t-24 18.5q-33 0 -58 -13t-40.5 -39.5t-25 -55t-13.5 -72.5t-5.5 -77.5t-1.5 -84.5z" />
<glyph unicode="&#xb7;" horiz-adv-x="450" d="M123 750q0 44 29.5 73t72.5 29q42 0 72.5 -29.5t30.5 -72.5q0 -44 -29.5 -74.5t-73.5 -30.5q-43 0 -72.5 30.5t-29.5 74.5z" />
<glyph unicode="&#xb8;" horiz-adv-x="430" d="M0 -481q0 8 5 14.5t10.5 9t15.5 6.5q254 81 254 189q0 90 -142 90q-11 0 -16.5 5t-5.5 11q0 4 20.5 32.5t51 69t45.5 62.5h79l-96 -127q31 0 63 -5t67 -17t57 -37.5t22 -61.5q0 -41 -23.5 -77t-53.5 -59t-78.5 -45.5t-78 -32.5t-73.5 -23q-14 -5 -54 -14t-49 -9 q-20 0 -20 19z" />
<glyph unicode="&#xb9;" horiz-adv-x="602" d="M82 1335q0 19 30.5 28.5t92.5 25.5t112 45q11 6 20.5 12t13.5 8.5t8 4t8 1.5q14 0 14 -18q0 -50 -3 -156.5t-3 -167.5v-325q0 -146 20 -164q15 -15 47 -22t55 -11.5t23 -15.5q0 -9 -11 -16t-22 -7q-23 0 -88.5 7t-85.5 7q-27 0 -82 -6t-116 -6q-27 0 -27 19q0 10 17 15 t77 13q58 7 58 223v406q0 57 -5 80.5t-26 23.5q-7 0 -49 -11t-56 -11q-22 0 -22 18z" />
<glyph unicode="&#xba;" horiz-adv-x="860" d="M47 1092q0 168 104.5 275.5t268.5 107.5q166 0 278.5 -105t112.5 -258q0 -171 -97.5 -280t-277.5 -109q-163 0 -276 102.5t-113 266.5zM51 492q0 2 1 5l3 9l4 12l13 39q4 12 9.5 14t27.5 2h663q35 0 35 -8q0 -9 -6 -24l-13 -35q-4 -17 -10 -22t-20 -5h-670q-37 0 -37 13z M168 1130q0 -148 78.5 -252t206.5 -104q111 0 175 79.5t64 197.5q0 55 -10.5 107.5t-33.5 100.5t-55 84t-78 57t-101 21q-121 0 -183.5 -86.5t-62.5 -204.5z" />
<glyph unicode="&#xbb;" horiz-adv-x="972" d="M82 1081q0 7 18 25l11 10q21 21 30 21q11 0 37 -23l301 -278q62 -56 62 -84q0 -16 -15 -33.5t-61 -59.5l-299 -268q-40 -37 -57 -37q-23 0 -23 23q0 13 35 53l201 229q31 35 43 51.5t12 30.5q0 20 -45 68l-209 221q-6 6 -14.5 15t-12 13t-7.5 9t-5.5 8t-1.5 6zM432 1081 q0 6 19 25l10 10q21 21 31 21t36 -23l301 -278q62 -56 62 -84q0 -16 -15 -33.5t-61 -59.5l-299 -268q-40 -37 -57 -37q-23 0 -23 23q0 13 35 53l201 229q31 35 43 51.5t12 30.5q0 20 -45 68l-209 221q-6 6 -14.5 15t-12 13t-7.5 9t-5.5 8t-1.5 6z" />
<glyph unicode="&#xbc;" horiz-adv-x="1581" d="M82 1335q0 19 30.5 28.5t92.5 25.5t112 45q11 6 20.5 12t13.5 8.5t8 4t8 1.5q14 0 14 -18q0 -50 -3 -156.5t-3 -167.5v-325q0 -146 20 -164q15 -15 47 -22t55 -11.5t23 -15.5q0 -9 -11 -16t-22 -7q-23 0 -88.5 7t-85.5 7q-27 0 -82 -6t-116 -6q-27 0 -27 19q0 10 17 15 t77 13q58 7 58 223v406q0 57 -5 80.5t-26 23.5q-7 0 -49 -11t-56 -11q-22 0 -22 18zM387 -104q0 12 4 18l656 1657q6 18 14 18q2 0 14 -4l62 -22q10 -3 10 -13q0 -4 -4 -12l-662 -1665q-6 -20 -16 -20q-6 0 -12 4l-56 22q-10 7 -10 17zM803 285q0 6 31 47l380 432 q96 121 113 121q23 0 23 -25q0 -23 -2 -85t-2 -95v-330q0 -14 10 -14h55q14 0 34.5 3t27.5 3q13 0 16.5 -2t3.5 -10q0 -21 -8 -41.5t-17 -31.5t-14 -11q-3 0 -17.5 7t-27.5 7h-53q-10 0 -10 -4v-123q0 -43 19 -67.5t42 -28.5t42 -9.5t19 -15.5q0 -7 -6.5 -12t-13.5 -6.5 t-12 -1.5q-12 0 -59 4t-74 4h-37q-23 0 -71.5 -3t-74.5 -3q-9 0 -18.5 5t-9.5 13q0 13 19 16.5t41 4t41 20t19 62.5v135q0 10 -8 10h-379q-22 0 -22 25zM922 342q0 -6 16 -6h264q7 0 8.5 2t1.5 12v283q0 35 -6 35q-1 0 -20 -19l-246 -278q-18 -21 -18 -29z" />
<glyph unicode="&#xbd;" horiz-adv-x="1667" d="M82 1335q0 19 30.5 28.5t92.5 25.5t112 45q11 6 20.5 12t13.5 8.5t8 4t8 1.5q14 0 14 -18q0 -50 -3 -156.5t-3 -167.5v-325q0 -146 20 -164q15 -15 47 -22t55 -11.5t23 -15.5q0 -9 -11 -16t-22 -7q-23 0 -88.5 7t-85.5 7q-27 0 -82 -6t-116 -6q-27 0 -27 19q0 10 17 15 t77 13q58 7 58 223v406q0 57 -5 80.5t-26 23.5q-7 0 -49 -11t-56 -11q-22 0 -22 18zM387 -104q0 12 4 18l656 1657q6 18 14 18q2 0 14 -4l62 -22q10 -3 10 -13q0 -4 -4 -12l-662 -1665q-6 -20 -16 -20q-6 0 -12 4l-56 22q-10 7 -10 17zM977 10q0 3 4 9.5t12.5 15t17 16.5 t21.5 20.5t21 20.5q44 43 77 75.5t50 49t27.5 26.5t15 14.5l6.5 6.5q184 192 184 342q0 97 -50.5 156t-139.5 59q-90 0 -138 -71q-12 -18 -20.5 -41t-13 -35t-11.5 -12q-10 0 -17 14t-7 29q0 11 1 34t1 37q0 7 -2 19.5t-2 19.5q0 10 10.5 13.5t35 8t44.5 13.5q76 33 151 33 q131 0 219.5 -75.5t88.5 -184.5q0 -52 -19 -104t-57 -103t-76 -92t-94 -93l-57 -53q-9 -9 -39 -35t-50 -45.5t-20 -27.5q0 -2 8 -2h244q90 0 115 32q2 3 13.5 22.5t21.5 32.5t16 13q16 0 16 -14q0 -15 -10 -45q-12 -33 -15.5 -64.5t-6.5 -40t-19 -8.5h-37q-22 0 -88 2 t-133 2q-99 0 -179 -5t-87 -5q-33 0 -33 20z" />
<glyph unicode="&#xbe;" horiz-adv-x="1619" d="M82 715q0 28 16 28q9 0 14 -6t8.5 -19.5t4.5 -15.5q20 -46 77 -69t113 -23q84 0 128 49.5t44 120.5q0 100 -55 161t-158 67h-43q-22 0 -22 22q0 13 14 20t31 7q119 5 171 43.5t52 136.5q0 70 -51 115t-121 45q-85 0 -137 -64q-8 -10 -16 -30.5t-15 -33t-16 -12.5 q-2 0 -5.5 1.5t-7.5 6.5t-4 13q0 16 3.5 42t3.5 42q0 1 -1 14t-1 27t12 14q1 0 3 -0.5t6.5 -1t10.5 -0.5q24 0 87 19.5t110 19.5q107 0 188.5 -59.5t81.5 -151.5q0 -40 -16 -74.5t-42.5 -58t-51 -38.5t-49.5 -25q62 -17 119 -79.5t57 -152.5q0 -126 -88.5 -195t-221.5 -69 q-27 0 -52 2t-49 6t-38 6.5t-38.5 8.5t-31.5 8q-24 6 -24 133zM424 -104q0 12 4 18l655 1657q6 18 15 18q2 0 14 -4l62 -22q10 -3 10 -13q0 -4 -4 -12l-662 -1665q-6 -20 -16 -20q-7 0 -13 4l-55 22q-10 7 -10 17zM844 285q0 7 30 47l381 432q96 121 113 121q23 0 23 -25 q0 -23 -2.5 -85t-2.5 -95v-330q0 -14 11 -14h55q14 0 34 3t27 3q13 0 17 -2t4 -10q0 -21 -8 -41.5t-17 -31.5t-14 -11q-3 0 -17.5 7t-27.5 7h-53q-11 0 -11 -4v-123q0 -35 12.5 -57.5t31 -30.5t36.5 -12t30.5 -8t12.5 -13q0 -7 -6.5 -12t-13.5 -6.5t-12 -1.5q-12 0 -59.5 4 t-74.5 4h-36q-23 0 -71.5 -3t-74.5 -3q-9 0 -18.5 5t-9.5 13q0 13 18.5 16.5t41.5 4t41.5 20t18.5 62.5v135q0 10 -8 10h-379q-22 0 -22 25zM963 342q0 -6 16 -6h264q7 0 8.5 2t1.5 12v283q0 35 -6 35q-1 0 -20 -19l-246 -278q-18 -21 -18 -29z" />
<glyph unicode="&#xbf;" horiz-adv-x="694" d="M90 240q0 50 14 96.5t44 92.5t54.5 76.5t65.5 76.5q13 15 47 51t52.5 58t42 54.5t34.5 63.5t11 63q0 21 -17 37.5t-34 31.5t-17 32q0 47 37 47q45 0 69.5 -60t24.5 -118q0 -51 -24 -110.5t-58 -116t-67.5 -114.5t-57.5 -123.5t-24 -125.5q0 -105 47 -158t133 -53 q29 0 50 16.5t31 35.5t22.5 35.5t27.5 16.5q29 0 29 -28q0 -67 -72.5 -110.5t-167.5 -43.5q-115 0 -206 77.5t-91 199.5zM311 1333q0 44 30.5 74.5t74.5 30.5q42 0 72 -30.5t30 -74.5t-30 -73t-72 -29q-43 0 -74 29t-31 73z" />
<glyph unicode="&#xc0;" horiz-adv-x="1368" d="M-41 10q0 7 10.5 11.5t26.5 7.5t22 6q52 25 80 70.5t70 148.5l422 1046q74 181 82 194q7 8 12 9q15 0 31 -45l499 -1276q11 -30 32.5 -69.5t35.5 -53.5q14 -13 46.5 -23t56.5 -17.5t24 -14.5q0 -12 -31 -12q-30 0 -111 4t-112 4q-37 0 -109 -4t-108 -4q-37 0 -37 10 q0 12 19 17.5t41.5 8t41.5 18.5t19 46q0 72 -45 189l-76 196q-8 23 -16 29t-35 6h-434q-30 0 -36.5 -4t-14.5 -25l-97 -252q-30 -88 -30 -131q0 -49 30 -59q12 -4 38 -9.5t38 -10.5t12 -11q0 -16 -28 -16q-13 0 -67.5 3t-108.5 3q-27 0 -80.5 -3t-77.5 -3q-35 0 -35 16z M416 608q0 -7 5 -8.5t21 -1.5h365q41 0 41 10q0 5 -27 78l-155 406q-21 57 -33 57t-33 -57l-168 -433q-16 -43 -16 -51zM446 1602q0 14 49.5 71.5t71.5 57.5q48 0 195 -81t147 -98q0 -16 -20 -16q-1 0 -16.5 3.5t-36 8t-31.5 6.5q-235 48 -279 48q-8 0 -33 -7.5t-30 -7.5 q-17 0 -17 15z" />
<glyph unicode="&#xc1;" horiz-adv-x="1368" d="M-41 10q0 7 10.5 11.5t26.5 7.5t22 6q52 25 80 70.5t70 148.5l422 1046q74 181 82 194q7 8 12 9q15 0 31 -45l499 -1276q11 -30 32.5 -69.5t35.5 -53.5q14 -13 46.5 -23t56.5 -17.5t24 -14.5q0 -12 -31 -12q-30 0 -111 4t-112 4q-37 0 -109 -4t-108 -4q-37 0 -37 10 q0 12 19 17.5t41.5 8t41.5 18.5t19 46q0 72 -45 189l-76 196q-8 23 -16 29t-35 6h-434q-30 0 -36.5 -4t-14.5 -25l-97 -252q-30 -88 -30 -131q0 -49 30 -59q12 -4 38 -9.5t38 -10.5t12 -11q0 -16 -28 -16q-13 0 -67.5 3t-108.5 3q-27 0 -80.5 -3t-77.5 -3q-35 0 -35 16z M416 608q0 -7 5 -8.5t21 -1.5h365q41 0 41 10q0 5 -27 78l-155 406q-21 57 -33 57t-33 -57l-168 -433q-16 -43 -16 -51zM446 1552q0 8 11 19q14 17 156.5 88.5t172.5 71.5q22 0 72.5 -58t50.5 -71q0 -15 -16 -15q-7 0 -31.5 7.5t-32.5 7.5q-17 0 -87.5 -9t-137.5 -22 q-13 -3 -68.5 -19t-70.5 -16q-19 0 -19 16z" />
<glyph unicode="&#xc2;" horiz-adv-x="1368" d="M-41 10q0 7 10.5 11.5t26.5 7.5t22 6q52 25 80 70.5t70 148.5l422 1046q74 181 82 194q7 8 12 9q15 0 31 -45l499 -1276q11 -30 32.5 -69.5t35.5 -53.5q14 -13 46.5 -23t56.5 -17.5t24 -14.5q0 -12 -31 -12q-30 0 -111 4t-112 4q-37 0 -109 -4t-108 -4q-37 0 -37 10 q0 12 19 17.5t41.5 8t41.5 18.5t19 46q0 72 -45 189l-76 196q-8 23 -16 29t-35 6h-434q-30 0 -36.5 -4t-14.5 -25l-97 -252q-30 -88 -30 -131q0 -49 30 -59q12 -4 38 -9.5t38 -10.5t12 -11q0 -16 -28 -16q-13 0 -67.5 3t-108.5 3q-27 0 -80.5 -3t-77.5 -3q-35 0 -35 16z M416 608q0 -7 5 -8.5t21 -1.5h365q41 0 41 10q0 5 -27 78l-155 406q-21 57 -33 57t-33 -57l-168 -433q-16 -43 -16 -51zM434 1559q0 10 23 28l24 17q17 11 85 58t112 74.5t57 28.5q8 0 35 -20l12 -8q168 -109 191 -109q10 0 10 -8q0 -6 -41.5 -47t-52.5 -41 q-10 0 -101.5 58.5t-101.5 58.5q-12 0 -107.5 -55.5t-121.5 -55.5q-23 0 -23 21z" />
<glyph unicode="&#xc3;" horiz-adv-x="1368" d="M-41 10q0 7 10.5 11.5t26.5 7.5t22 6q52 25 80 70.5t70 148.5l422 1046q74 181 82 194q7 8 12 9q15 0 31 -45l499 -1276q11 -30 32.5 -69.5t35.5 -53.5q14 -13 46.5 -23t56.5 -17.5t24 -14.5q0 -12 -31 -12q-30 0 -111 4t-112 4q-37 0 -109 -4t-108 -4q-37 0 -37 10 q0 12 19 17.5t41.5 8t41.5 18.5t19 46q0 72 -45 189l-76 196q-8 23 -16 29t-35 6h-434q-30 0 -36.5 -4t-14.5 -25l-97 -252q-30 -88 -30 -131q0 -49 30 -59q12 -4 38 -9.5t38 -10.5t12 -11q0 -16 -28 -16q-13 0 -67.5 3t-108.5 3q-27 0 -80.5 -3t-77.5 -3q-35 0 -35 16z M416 608q0 -7 5 -8.5t21 -1.5h365q41 0 41 10q0 5 -27 78l-155 406q-21 57 -33 57t-33 -57l-168 -433q-16 -43 -16 -51zM422 1552q0 27 64 91.5t120 64.5q55 0 101.5 -18.5t82 -37t62.5 -18.5q22 0 40 10.5t26.5 22.5t17 22.5t14.5 10.5q19 0 19 -19q0 -41 -49 -92t-99 -51 q-59 0 -131 34t-112 34q-39 0 -68.5 -18t-46 -36t-25.5 -18q-16 0 -16 18z" />
<glyph unicode="&#xc4;" horiz-adv-x="1368" d="M-41 10q0 7 10.5 11.5t26.5 7.5t22 6q52 25 80 70.5t70 148.5l422 1046q74 181 82 194q7 8 12 9q15 0 31 -45l499 -1276q11 -30 32.5 -69.5t35.5 -53.5q14 -13 46.5 -23t56.5 -17.5t24 -14.5q0 -12 -31 -12q-30 0 -111 4t-112 4q-37 0 -109 -4t-108 -4q-37 0 -37 10 q0 12 19 17.5t41.5 8t41.5 18.5t19 46q0 72 -45 189l-76 196q-8 23 -16 29t-35 6h-434q-30 0 -36.5 -4t-14.5 -25l-97 -252q-30 -88 -30 -131q0 -49 30 -59q12 -4 38 -9.5t38 -10.5t12 -11q0 -16 -28 -16q-13 0 -67.5 3t-108.5 3q-27 0 -80.5 -3t-77.5 -3q-35 0 -35 16z M403 1632q0 41 29 69t70 28q40 0 69 -27t29 -66q0 -43 -28 -71.5t-72 -28.5q-41 0 -69 28t-28 68zM416 608q0 -7 5 -8.5t21 -1.5h365q41 0 41 10q0 5 -27 78l-155 406q-21 57 -33 57t-33 -57l-168 -433q-16 -43 -16 -51zM758 1632q0 41 28.5 69t69.5 28t69.5 -26.5 t28.5 -66.5q0 -43 -27.5 -71.5t-70.5 -28.5q-42 0 -70 28t-28 68z" />
<glyph unicode="&#xc5;" horiz-adv-x="1368" d="M-41 10q0 7 10.5 11.5t26.5 7.5t22 6q52 25 80 70.5t70 148.5l422 1046q74 181 82 194q7 8 12 9q15 0 31 -45l499 -1276q11 -30 32.5 -69.5t35.5 -53.5q14 -13 46.5 -23t56.5 -17.5t24 -14.5q0 -12 -31 -12q-30 0 -111 4t-112 4q-37 0 -109 -4t-108 -4q-37 0 -37 10 q0 12 19 17.5t41.5 8t41.5 18.5t19 46q0 72 -45 189l-76 196q-8 23 -16 29t-35 6h-434q-30 0 -36.5 -4t-14.5 -25l-97 -252q-30 -88 -30 -131q0 -49 30 -59q12 -4 38 -9.5t38 -10.5t12 -11q0 -16 -28 -16q-13 0 -67.5 3t-108.5 3q-27 0 -80.5 -3t-77.5 -3q-35 0 -35 16z M416 608q0 -7 5 -8.5t21 -1.5h365q41 0 41 10q0 5 -27 78l-155 406q-21 57 -33 57t-33 -57l-168 -433q-16 -43 -16 -51zM492 1657q0 66 56.5 107.5t133.5 41.5q75 0 135 -40.5t60 -104.5q0 -66 -59 -108t-136 -42q-73 0 -131.5 42t-58.5 104zM594 1661q0 -35 25.5 -60.5 t62.5 -25.5q39 0 65.5 25t26.5 63q0 36 -27 60t-65 24t-63 -24.5t-25 -61.5z" />
<glyph unicode="&#xc6;" horiz-adv-x="1777" d="M-61 10q0 3 2.5 6t7.5 4.5t8.5 3t9 2.5t6.5 1q56 19 95.5 52t76.5 91l773 1184q0 47 -78 55q-52 4 -52 18q0 15 68 15q36 0 94.5 -4t77.5 -4q92 0 282 7t302 7q12 0 12 -18q0 -6 -1 -18t-1 -15q0 -22 2 -72t2 -70q0 -24 -10 -24q-7 0 -11 6t-7 17t-5 14q-24 54 -66 72 t-138 18h-215q-31 0 -43.5 -8t-12.5 -35v-477q0 -24 5.5 -29.5t29.5 -5.5h244q74 0 94 26q14 17 20 46.5t9.5 49t13.5 19.5q12 0 12 -51q0 -18 -3 -61.5t-3 -59.5q0 -26 2 -83t2 -81q0 -28 -12 -28q-6 0 -9.5 12.5t-5.5 31t-4 25.5q-12 40 -37 52t-83 12h-248 q-18 0 -22.5 -7t-4.5 -26v-477q0 -34 14.5 -57.5t33 -35t51 -18t54 -7.5t56.5 -1q137 0 209 25q32 11 56 37t36 46.5t17 20.5q10 0 10 -16q-3 -22 -31 -105q-25 -67 -37 -82.5t-35 -15.5q-78 0 -266 3t-266 3q-48 0 -109.5 -3t-83.5 -3q-53 0 -53 14q0 10 28 15t61.5 16.5 t43.5 36.5q27 67 27 436h-395q-41 0 -53.5 -8.5t-36.5 -50.5l-93 -152q-5 -8 -30.5 -49.5t-38 -63.5t-26 -53.5t-13.5 -50.5q0 -23 15.5 -36.5t34.5 -16.5t34.5 -7.5t15.5 -13.5q0 -14 -31 -14q-86 4 -186 4q-27 0 -81 -2t-79 -2q-32 0 -32 14zM549 606q0 -8 26 -8h359v608 l-332 -510q-53 -81 -53 -90z" />
<glyph unicode="&#xc7;" horiz-adv-x="1476" d="M92 731q0 217 96 386t258.5 259t360.5 90q192 0 364 -39q120 -32 138 -32q9 0 17 5t13 5q9 0 9 -23q0 -15 -4.5 -49t-4.5 -47q0 -16 3.5 -60t3.5 -67q0 -53 -17 -53q-13 0 -18 11.5t-9 35.5t-12 39q-45 89 -171 145t-314 56q-125 0 -223.5 -47t-160 -129.5t-93 -190 t-31.5 -233.5q0 -221 82.5 -395t225 -268.5t319.5 -94.5q165 0 305 96q35 24 58 67t33.5 73t16.5 30q17 0 17 -39q0 -8 -6.5 -36t-8.5 -40q-2 -19 -11 -61.5t-11 -56.5q-8 -46 -124.5 -71t-270.5 -28l-66 -88q31 0 63 -5t67 -17t57 -37.5t22 -61.5q0 -41 -23.5 -77 t-53.5 -59t-78.5 -45.5t-78 -32.5t-73.5 -23q-14 -5 -54 -14t-49 -9q-20 0 -20 19q0 8 5 14.5t10.5 9t15.5 6.5q254 81 254 189q0 90 -142 90q-11 0 -16.5 5t-5.5 11q0 4 11.5 20t39 53t37.5 50q-125 2 -236 31.5t-206 90.5t-163.5 149.5t-107.5 214.5t-39 278z" />
<glyph unicode="&#xc8;" horiz-adv-x="1130" d="M111 6q0 12 31 15.5t68.5 14.5t49.5 40q27 67 27 436v766q0 34 -8 58.5t-16.5 37t-28 21.5t-29 10.5t-33.5 5.5q-37 7 -37 16q0 8 14.5 12.5t24.5 4.5q26 0 84 -5t88 -5h43q92 0 278 7t298 7q12 0 12 -18q0 -6 -1 -18t-1 -15q0 -22 2 -72t2 -70q0 -24 -10 -24q-7 0 -11 6 t-7 17t-5 14q-24 54 -66.5 72t-138.5 18h-215q-31 0 -43 -8t-12 -35v-477q0 -24 5.5 -29.5t29.5 -5.5h244q74 0 94 26q14 17 20 46.5t9.5 49t13.5 19.5q12 0 12 -51q0 -18 -3 -61.5t-3 -59.5q0 -26 2 -83t2 -81q0 -28 -12 -28q-6 0 -9.5 12.5t-5.5 31t-4 25.5q-12 40 -37 52 t-84 12h-247q-18 0 -22.5 -7t-4.5 -26v-477q0 -34 14.5 -57.5t33 -35t51 -18t54 -7.5t56.5 -1q137 0 209 25q32 11 55.5 37t35.5 46.5t17 20.5q11 0 11 -16q-3 -22 -31 -105q-25 -67 -37 -82.5t-35 -15.5q-78 0 -255 3t-255 3q-97 0 -154 -4t-81 -4q-49 0 -49 14zM334 1602 q0 14 49.5 71.5t71.5 57.5q48 0 195 -81t147 -98q0 -16 -21 -16q-1 0 -16.5 3.5t-36 8t-31.5 6.5q-235 48 -278 48q-8 0 -33 -7.5t-31 -7.5q-16 0 -16 15z" />
<glyph unicode="&#xc9;" horiz-adv-x="1130" d="M111 6q0 12 31 15.5t68.5 14.5t49.5 40q27 67 27 436v766q0 34 -8 58.5t-16.5 37t-28 21.5t-29 10.5t-33.5 5.5q-37 7 -37 16q0 8 14.5 12.5t24.5 4.5q26 0 84 -5t88 -5h43q92 0 278 7t298 7q12 0 12 -18q0 -6 -1 -18t-1 -15q0 -22 2 -72t2 -70q0 -24 -10 -24q-7 0 -11 6 t-7 17t-5 14q-24 54 -66.5 72t-138.5 18h-215q-31 0 -43 -8t-12 -35v-477q0 -24 5.5 -29.5t29.5 -5.5h244q74 0 94 26q14 17 20 46.5t9.5 49t13.5 19.5q12 0 12 -51q0 -18 -3 -61.5t-3 -59.5q0 -26 2 -83t2 -81q0 -28 -12 -28q-6 0 -9.5 12.5t-5.5 31t-4 25.5q-12 40 -37 52 t-84 12h-247q-18 0 -22.5 -7t-4.5 -26v-477q0 -34 14.5 -57.5t33 -35t51 -18t54 -7.5t56.5 -1q137 0 209 25q32 11 55.5 37t35.5 46.5t17 20.5q11 0 11 -16q-3 -22 -31 -105q-25 -67 -37 -82.5t-35 -15.5q-78 0 -255 3t-255 3q-97 0 -154 -4t-81 -4q-49 0 -49 14zM334 1552 q0 9 10 19q14 17 157 88.5t173 71.5q22 0 72.5 -58t50.5 -71q0 -15 -17 -15q-7 0 -31 7.5t-32 7.5q-17 0 -87.5 -9t-137.5 -22q-13 -3 -69 -19t-71 -16q-18 0 -18 16z" />
<glyph unicode="&#xca;" horiz-adv-x="1130" d="M111 6q0 12 31 15.5t68.5 14.5t49.5 40q27 67 27 436v766q0 34 -8 58.5t-16.5 37t-28 21.5t-29 10.5t-33.5 5.5q-37 7 -37 16q0 8 14.5 12.5t24.5 4.5q26 0 84 -5t88 -5h43q92 0 278 7t298 7q12 0 12 -18q0 -6 -1 -18t-1 -15q0 -22 2 -72t2 -70q0 -24 -10 -24q-7 0 -11 6 t-7 17t-5 14q-24 54 -66.5 72t-138.5 18h-215q-31 0 -43 -8t-12 -35v-477q0 -24 5.5 -29.5t29.5 -5.5h244q74 0 94 26q14 17 20 46.5t9.5 49t13.5 19.5q12 0 12 -51q0 -18 -3 -61.5t-3 -59.5q0 -26 2 -83t2 -81q0 -28 -12 -28q-6 0 -9.5 12.5t-5.5 31t-4 25.5q-12 40 -37 52 t-84 12h-247q-18 0 -22.5 -7t-4.5 -26v-477q0 -34 14.5 -57.5t33 -35t51 -18t54 -7.5t56.5 -1q137 0 209 25q32 11 55.5 37t35.5 46.5t17 20.5q11 0 11 -16q-3 -22 -31 -105q-25 -67 -37 -82.5t-35 -15.5q-78 0 -255 3t-255 3q-97 0 -154 -4t-81 -4q-49 0 -49 14zM322 1559 q0 10 22 28l25 17q17 11 85 58t112 74.5t57 28.5q7 0 34 -20l13 -8q168 -109 190 -109q10 0 10 -8q0 -6 -41.5 -47t-52.5 -41q-10 0 -101.5 58.5t-101.5 58.5q-12 0 -107.5 -55.5t-121.5 -55.5q-22 0 -22 21z" />
<glyph unicode="&#xcb;" horiz-adv-x="1130" d="M111 6q0 12 31 15.5t68.5 14.5t49.5 40q27 67 27 436v766q0 34 -8 58.5t-16.5 37t-28 21.5t-29 10.5t-33.5 5.5q-37 7 -37 16q0 8 14.5 12.5t24.5 4.5q26 0 84 -5t88 -5h43q92 0 278 7t298 7q12 0 12 -18q0 -6 -1 -18t-1 -15q0 -22 2 -72t2 -70q0 -24 -10 -24q-7 0 -11 6 t-7 17t-5 14q-24 54 -66.5 72t-138.5 18h-215q-31 0 -43 -8t-12 -35v-477q0 -24 5.5 -29.5t29.5 -5.5h244q74 0 94 26q14 17 20 46.5t9.5 49t13.5 19.5q12 0 12 -51q0 -18 -3 -61.5t-3 -59.5q0 -26 2 -83t2 -81q0 -28 -12 -28q-6 0 -9.5 12.5t-5.5 31t-4 25.5q-12 40 -37 52 t-84 12h-247q-18 0 -22.5 -7t-4.5 -26v-477q0 -34 14.5 -57.5t33 -35t51 -18t54 -7.5t56.5 -1q137 0 209 25q32 11 55.5 37t35.5 46.5t17 20.5q11 0 11 -16q-3 -22 -31 -105q-25 -67 -37 -82.5t-35 -15.5q-78 0 -255 3t-255 3q-97 0 -154 -4t-81 -4q-49 0 -49 14zM299 1632 q0 41 28.5 69t69.5 28q40 0 69.5 -27t29.5 -66q0 -43 -28.5 -71.5t-72.5 -28.5q-41 0 -68.5 28t-27.5 68zM653 1632q0 41 29 69t70 28t69.5 -26.5t28.5 -66.5q0 -43 -27.5 -71.5t-70.5 -28.5q-42 0 -70.5 28t-28.5 68z" />
<glyph unicode="&#xcc;" horiz-adv-x="755" d="M111 6q0 10 21.5 14t50.5 8t40 11q41 28 52.5 81t11.5 177v948q0 119 -49 146q-14 7 -41 11.5t-44.5 9.5t-17.5 15q0 19 41 19q14 0 92.5 -6t106.5 -6q30 0 107 7t98 7q45 0 45 -18q0 -8 -17.5 -13t-43 -10.5t-36.5 -11.5q-34 -21 -45.5 -56.5t-11.5 -99.5v-942 q0 -124 11.5 -177t52.5 -81q11 -7 40 -11t50.5 -8t21.5 -14q0 -14 -24 -14q-14 0 -108.5 4t-139.5 4q-60 0 -144.5 -4t-95.5 -4q-24 0 -24 14zM145 1602q0 14 49.5 71.5t71.5 57.5q48 0 195 -81t147 -98q0 -16 -20 -16q-1 0 -16.5 3.5t-36 8t-31.5 6.5q-235 48 -279 48 q-9 0 -33 -7.5t-30 -7.5q-17 0 -17 15z" />
<glyph unicode="&#xcd;" horiz-adv-x="755" d="M111 6q0 10 21.5 14t50.5 8t40 11q41 28 52.5 81t11.5 177v948q0 119 -49 146q-14 7 -41 11.5t-44.5 9.5t-17.5 15q0 19 41 19q14 0 92.5 -6t106.5 -6q30 0 107 7t98 7q45 0 45 -18q0 -8 -17.5 -13t-43 -10.5t-36.5 -11.5q-34 -21 -45.5 -56.5t-11.5 -99.5v-942 q0 -124 11.5 -177t52.5 -81q11 -7 40 -11t50.5 -8t21.5 -14q0 -14 -24 -14q-14 0 -108.5 4t-139.5 4q-60 0 -144.5 -4t-95.5 -4q-24 0 -24 14zM145 1552q0 8 11 19q14 17 156.5 88.5t172.5 71.5q22 0 72.5 -58t50.5 -71q0 -15 -16 -15q-7 0 -31.5 7.5t-32.5 7.5 q-17 0 -87.5 -9t-137.5 -22q-13 -3 -68.5 -19t-70.5 -16q-19 0 -19 16z" />
<glyph unicode="&#xce;" horiz-adv-x="755" d="M102 1559q0 10 23 28l25 17q18 12 85 58.5t111 74t57 28.5q8 0 35 -20l13 -8q168 -109 190 -109q10 0 10 -8q0 -6 -41.5 -47t-52.5 -41q-10 0 -101.5 58.5t-101.5 58.5q-12 0 -107.5 -55.5t-121.5 -55.5q-23 0 -23 21zM111 6q0 10 21.5 14t50.5 8t40 11q41 28 52.5 81 t11.5 177v948q0 119 -49 146q-14 7 -41 11.5t-44.5 9.5t-17.5 15q0 19 41 19q14 0 92.5 -6t106.5 -6q30 0 107 7t98 7q45 0 45 -18q0 -8 -17.5 -13t-43 -10.5t-36.5 -11.5q-34 -21 -45.5 -56.5t-11.5 -99.5v-942q0 -124 11.5 -177t52.5 -81q11 -7 40 -11t50.5 -8t21.5 -14 q0 -14 -24 -14q-14 0 -108.5 4t-139.5 4q-60 0 -144.5 -4t-95.5 -4q-24 0 -24 14z" />
<glyph unicode="&#xcf;" horiz-adv-x="755" d="M102 1632q0 41 29 69t70 28q40 0 69 -27t29 -66q0 -43 -28 -71.5t-72 -28.5q-41 0 -69 28t-28 68zM111 6q0 10 21.5 14t50.5 8t40 11q41 28 52.5 81t11.5 177v948q0 119 -49 146q-14 7 -41 11.5t-44.5 9.5t-17.5 15q0 19 41 19q14 0 92.5 -6t106.5 -6q30 0 107 7t98 7 q45 0 45 -18q0 -8 -17.5 -13t-43 -10.5t-36.5 -11.5q-34 -21 -45.5 -56.5t-11.5 -99.5v-942q0 -124 11.5 -177t52.5 -81q11 -7 40 -11t50.5 -8t21.5 -14q0 -14 -24 -14q-14 0 -108.5 4t-139.5 4q-60 0 -144.5 -4t-95.5 -4q-24 0 -24 14zM457 1632q0 41 28.5 69t69.5 28 t69.5 -26.5t28.5 -66.5q0 -43 -27.5 -71.5t-70.5 -28.5q-42 0 -70 28t-28 68z" />
<glyph unicode="&#xd0;" horiz-adv-x="1644" d="M115 709q0 7 6 28l14 41q3 12 9 14.5t28 2.5h80q24 0 29.5 8.5t5.5 36.5v413q0 83 -34.5 118.5t-109.5 35.5q-24 0 -24 16q0 7 18.5 13t36.5 6q22 0 97 -4t102 -4q62 0 203 7t237 7q170 0 307.5 -51t229.5 -143t142 -221t50 -285q0 -360 -198.5 -562t-552.5 -202 q-77 0 -211.5 8t-198.5 8h-51q-31 0 -87 -4.5t-79 -3.5q-35 0 -35 18q0 8 26 12t58.5 14.5t44.5 33.5q29 55 29 247v342q0 23 -6 30t-29 7h-100q-37 0 -37 13zM469 473q0 -98 2 -159t12.5 -127.5t30.5 -82.5q29 -25 107.5 -42t158.5 -17q279 0 428.5 161t149.5 484 q0 111 -29 214.5t-86 190.5t-135.5 151.5t-184 101t-225.5 36.5h-28q-49 0 -76 -1t-55 -5.5t-40.5 -14t-21 -26t-8.5 -41.5v-460q0 -26 5.5 -33.5t31.5 -7.5h334q34 0 34 -9q-1 -1 -1.5 -5t-2.5 -11.5t-6 -17.5q-5 -12 -9.5 -26t-6.5 -18.5t-7 -8t-16 -3.5h-319 q-25 0 -31 -8t-6 -39v-176z" />
<glyph unicode="&#xd1;" horiz-adv-x="1728" d="M102 4q0 8 14 11t35.5 8.5t34.5 15.5q33 25 46.5 87t13.5 126v1118q0 55 4 73.5t16 18.5q17 0 117 -106l909 -950q68 -74 86 -74q13 0 13 39v749q0 77 -8 155.5t-25 102.5q-14 19 -41.5 29.5t-47.5 14t-20 8.5q0 14 31 14q15 0 71 -5t85 -5q27 0 79 5t70 5q41 0 41 -12 q0 -8 -15 -12t-39 -9.5t-38 -13.5q-19 -12 -28 -97t-9 -167v-1080q0 -49 -2.5 -68.5t-13.5 -19.5q-9 0 -23 10.5t-25.5 22.5t-30 31.5t-26.5 27.5l-954 1002q-40 43 -51 43q-15 0 -15 -70v-786q0 -59 14.5 -117.5t43.5 -81.5q13 -10 40.5 -17t47.5 -11t20 -11q0 -6 -3 -9.5 t-10 -4.5t-13 -1.5t-19 -0.5q-31 0 -90 4t-78 4q-29 0 -94 -3t-80 -3q-33 0 -33 10zM614 1552q0 27 64.5 91.5t120.5 64.5q55 0 101.5 -18.5t81.5 -37t62 -18.5q29 0 49 16.5t31.5 33t18.5 16.5q18 0 18 -19q0 -41 -48.5 -92t-98.5 -51q-59 0 -131.5 34t-112.5 34 q-39 0 -68 -18t-45.5 -36t-25.5 -18q-17 0 -17 18z" />
<glyph unicode="&#xd2;" horiz-adv-x="1617" d="M82 705q0 216 88.5 389t251.5 272.5t371 99.5q162 0 302 -59t236 -158t150.5 -230t54.5 -274q0 -127 -26.5 -241t-83.5 -212.5t-139.5 -170.5t-202 -113t-263.5 -41q-155 0 -291.5 54t-235 150t-155.5 234.5t-57 299.5zM285 782q0 -146 39 -280t110 -237.5t180.5 -165.5 t241.5 -62q115 0 208 48t152 129t90 184t31 218q0 113 -20.5 222t-65.5 210.5t-109.5 178t-158 122.5t-205.5 46q-104 0 -188.5 -36.5t-140 -97t-93.5 -141t-54.5 -165t-16.5 -173.5zM578 1602q0 14 49 71.5t71 57.5q48 0 195 -81t147 -98q0 -16 -20 -16q-1 0 -16.5 3.5 t-36 8t-31.5 6.5q-235 48 -279 48q-9 0 -33 -7.5t-30 -7.5q-16 0 -16 15z" />
<glyph unicode="&#xd3;" horiz-adv-x="1617" d="M82 705q0 216 88.5 389t251.5 272.5t371 99.5q162 0 302 -59t236 -158t150.5 -230t54.5 -274q0 -127 -26.5 -241t-83.5 -212.5t-139.5 -170.5t-202 -113t-263.5 -41q-155 0 -291.5 54t-235 150t-155.5 234.5t-57 299.5zM285 782q0 -146 39 -280t110 -237.5t180.5 -165.5 t241.5 -62q115 0 208 48t152 129t90 184t31 218q0 113 -20.5 222t-65.5 210.5t-109.5 178t-158 122.5t-205.5 46q-104 0 -188.5 -36.5t-140 -97t-93.5 -141t-54.5 -165t-16.5 -173.5zM578 1552q0 9 10 19q14 17 157 88.5t173 71.5q22 0 72 -57.5t50 -71.5q0 -15 -16 -15 q-7 0 -31 7.5t-32 7.5q-17 0 -88 -9t-138 -22q-13 -3 -68.5 -19t-70.5 -16q-18 0 -18 16z" />
<glyph unicode="&#xd4;" horiz-adv-x="1617" d="M82 705q0 216 88.5 389t251.5 272.5t371 99.5q162 0 302 -59t236 -158t150.5 -230t54.5 -274q0 -127 -26.5 -241t-83.5 -212.5t-139.5 -170.5t-202 -113t-263.5 -41q-155 0 -291.5 54t-235 150t-155.5 234.5t-57 299.5zM285 782q0 -146 39 -280t110 -237.5t180.5 -165.5 t241.5 -62q115 0 208 48t152 129t90 184t31 218q0 113 -20.5 222t-65.5 210.5t-109.5 178t-158 122.5t-205.5 46q-104 0 -188.5 -36.5t-140 -97t-93.5 -141t-54.5 -165t-16.5 -173.5zM535 1559q0 10 22 28l25 17q17 11 85 58t112 74.5t57 28.5q7 0 34 -20l13 -8 q168 -109 190 -109q10 0 10 -8q0 -6 -41.5 -47t-52.5 -41q-10 0 -101.5 58.5t-101.5 58.5q-12 0 -107.5 -55.5t-121.5 -55.5q-22 0 -22 21z" />
<glyph unicode="&#xd5;" horiz-adv-x="1617" d="M82 705q0 216 88.5 389t251.5 272.5t371 99.5q162 0 302 -59t236 -158t150.5 -230t54.5 -274q0 -127 -26.5 -241t-83.5 -212.5t-139.5 -170.5t-202 -113t-263.5 -41q-155 0 -291.5 54t-235 150t-155.5 234.5t-57 299.5zM285 782q0 -146 39 -280t110 -237.5t180.5 -165.5 t241.5 -62q115 0 208 48t152 129t90 184t31 218q0 113 -20.5 222t-65.5 210.5t-109.5 178t-158 122.5t-205.5 46q-104 0 -188.5 -36.5t-140 -97t-93.5 -141t-54.5 -165t-16.5 -173.5zM535 1552q0 27 64 91.5t120 64.5q55 0 101.5 -18.5t82 -37t62.5 -18.5q22 0 40 10.5 t26.5 22.5t17 22.5t14.5 10.5q18 0 18 -19q0 -41 -48.5 -92t-98.5 -51q-59 0 -131.5 34t-112.5 34q-39 0 -68 -18t-45.5 -36t-25.5 -18q-16 0 -16 18z" />
<glyph unicode="&#xd6;" horiz-adv-x="1617" d="M82 705q0 216 88.5 389t251.5 272.5t371 99.5q162 0 302 -59t236 -158t150.5 -230t54.5 -274q0 -127 -26.5 -241t-83.5 -212.5t-139.5 -170.5t-202 -113t-263.5 -41q-155 0 -291.5 54t-235 150t-155.5 234.5t-57 299.5zM285 782q0 -146 39 -280t110 -237.5t180.5 -165.5 t241.5 -62q115 0 208 48t152 129t90 184t31 218q0 113 -20.5 222t-65.5 210.5t-109.5 178t-158 122.5t-205.5 46q-104 0 -188.5 -36.5t-140 -97t-93.5 -141t-54.5 -165t-16.5 -173.5zM532 1632q0 41 29 69t70 28q40 0 69 -27t29 -66q0 -43 -28 -71.5t-72 -28.5q-41 0 -69 28 t-28 68zM887 1632q0 41 28.5 69t69.5 28t69.5 -26.5t28.5 -66.5q0 -43 -27.5 -71.5t-70.5 -28.5q-42 0 -70 28t-28 68z" />
<glyph unicode="&#xd7;" horiz-adv-x="1009" d="M102 401q327 333 328 334l-328 338l76 74l326 -336l327 336l76 -74l-327 -338q65 -65 182.5 -186t144.5 -148l-73 -75l-328 336l-328 -336q-15 16 -42.5 42.5t-33.5 32.5z" />
<glyph unicode="&#xd8;" horiz-adv-x="1617" d="M82 705q0 216 88.5 389t251.5 272.5t371 99.5q274 0 481 -166l135 152q11 11 19 13.5t36 2.5q37 0 46.5 -1.5t9.5 -10.5t-17 -26l-168 -187q96 -101 148.5 -229.5t52.5 -268.5q0 -127 -26.5 -241t-83.5 -212.5t-139.5 -170.5t-202 -113t-263.5 -41q-281 0 -481 164 l-131 -145q-16 -19 -27 -19h-61q-19 0 -19 8q0 14 19 33l160 178q-95 98 -147 230.5t-52 288.5zM285 782q0 -266 114 -463l772 867q-150 209 -393 209q-104 0 -188.5 -36.5t-140 -97t-93.5 -141t-54.5 -165t-16.5 -173.5zM444 248q76 -100 180.5 -155.5t231.5 -55.5 q115 0 208 48t152 129t90 184t31 218q0 285 -118 496z" />
<glyph unicode="&#xd9;" horiz-adv-x="1683" d="M90 1430q0 14 41 14q25 0 95.5 -5t109.5 -5q50 0 121.5 6t87.5 6q33 0 33 -16q0 -9 -18.5 -15t-42.5 -10t-30 -8q-20 -10 -29.5 -21t-18 -28t-11 -59t-3.5 -91t-1 -147v-504q0 -151 41.5 -262t135.5 -177.5t233 -66.5q107 0 197 30.5t159.5 90.5t109 158.5t39.5 226.5 v360q0 224 -11.5 334t-39.5 131q-25 18 -62 26.5t-60 13t-23 13.5q0 17 51 17q17 0 82.5 -4t105.5 -4q37 0 98 3t76 3q37 0 37 -17q0 -7 -8 -9t-26.5 -3.5t-32.5 -5.5q-25 -7 -42 -24t-26 -36.5t-13.5 -57.5t-5.5 -67.5t-1 -86.5v-537q0 -290 -160 -459.5t-449 -169.5 q-128 0 -235 33.5t-186 98t-123.5 166t-44.5 229.5v680q0 174 -19 198q-15 18 -48 28t-58 15.5t-25 14.5zM633 1602q0 14 49.5 71.5t71.5 57.5q48 0 195 -81t147 -98q0 -16 -21 -16q-1 0 -16.5 3.5t-36 8t-31.5 6.5q-235 48 -278 48q-9 0 -34 -7.5t-30 -7.5q-16 0 -16 15z " />
<glyph unicode="&#xda;" horiz-adv-x="1683" d="M90 1430q0 14 41 14q25 0 95.5 -5t109.5 -5q50 0 121.5 6t87.5 6q33 0 33 -16q0 -9 -18.5 -15t-42.5 -10t-30 -8q-20 -10 -29.5 -21t-18 -28t-11 -59t-3.5 -91t-1 -147v-504q0 -151 41.5 -262t135.5 -177.5t233 -66.5q107 0 197 30.5t159.5 90.5t109 158.5t39.5 226.5 v360q0 224 -11.5 334t-39.5 131q-25 18 -62 26.5t-60 13t-23 13.5q0 17 51 17q17 0 82.5 -4t105.5 -4q37 0 98 3t76 3q37 0 37 -17q0 -7 -8 -9t-26.5 -3.5t-32.5 -5.5q-25 -7 -42 -24t-26 -36.5t-13.5 -57.5t-5.5 -67.5t-1 -86.5v-537q0 -290 -160 -459.5t-449 -169.5 q-128 0 -235 33.5t-186 98t-123.5 166t-44.5 229.5v680q0 174 -19 198q-15 18 -48 28t-58 15.5t-25 14.5zM633 1552q0 9 10 19q14 17 157 88.5t173 71.5q22 0 72.5 -58t50.5 -71q0 -15 -17 -15q-7 0 -31 7.5t-32 7.5q-17 0 -87.5 -9t-137.5 -22q-13 -3 -69 -19t-71 -16 q-18 0 -18 16z" />
<glyph unicode="&#xdb;" horiz-adv-x="1683" d="M90 1430q0 14 41 14q25 0 95.5 -5t109.5 -5q50 0 121.5 6t87.5 6q33 0 33 -16q0 -9 -18.5 -15t-42.5 -10t-30 -8q-20 -10 -29.5 -21t-18 -28t-11 -59t-3.5 -91t-1 -147v-504q0 -151 41.5 -262t135.5 -177.5t233 -66.5q107 0 197 30.5t159.5 90.5t109 158.5t39.5 226.5 v360q0 224 -11.5 334t-39.5 131q-25 18 -62 26.5t-60 13t-23 13.5q0 17 51 17q17 0 82.5 -4t105.5 -4q37 0 98 3t76 3q37 0 37 -17q0 -7 -8 -9t-26.5 -3.5t-32.5 -5.5q-25 -7 -42 -24t-26 -36.5t-13.5 -57.5t-5.5 -67.5t-1 -86.5v-537q0 -290 -160 -459.5t-449 -169.5 q-128 0 -235 33.5t-186 98t-123.5 166t-44.5 229.5v680q0 174 -19 198q-15 18 -48 28t-58 15.5t-25 14.5zM590 1559q0 10 22 28l25 17q17 11 85 58t112 74.5t57 28.5q8 0 35 -20l12 -8q168 -109 190 -109q11 0 11 -8q0 -6 -42 -47t-53 -41q-10 0 -101 58.5t-101 58.5 q-12 0 -108 -55.5t-122 -55.5q-22 0 -22 21z" />
<glyph unicode="&#xdc;" horiz-adv-x="1683" d="M90 1430q0 14 41 14q25 0 95.5 -5t109.5 -5q50 0 121.5 6t87.5 6q33 0 33 -16q0 -9 -18.5 -15t-42.5 -10t-30 -8q-20 -10 -29.5 -21t-18 -28t-11 -59t-3.5 -91t-1 -147v-504q0 -151 41.5 -262t135.5 -177.5t233 -66.5q107 0 197 30.5t159.5 90.5t109 158.5t39.5 226.5 v360q0 224 -11.5 334t-39.5 131q-25 18 -62 26.5t-60 13t-23 13.5q0 17 51 17q17 0 82.5 -4t105.5 -4q37 0 98 3t76 3q37 0 37 -17q0 -7 -8 -9t-26.5 -3.5t-32.5 -5.5q-25 -7 -42 -24t-26 -36.5t-13.5 -57.5t-5.5 -67.5t-1 -86.5v-537q0 -290 -160 -459.5t-449 -169.5 q-128 0 -235 33.5t-186 98t-123.5 166t-44.5 229.5v680q0 174 -19 198q-15 18 -48 28t-58 15.5t-25 14.5zM588 1632q0 41 28.5 69t69.5 28q40 0 69 -27t29 -66q0 -43 -28 -71.5t-72 -28.5q-41 0 -68.5 28t-27.5 68zM942 1632q0 41 28.5 69t69.5 28t70 -26.5t29 -66.5 q0 -43 -28 -71.5t-71 -28.5q-42 0 -70 28t-28 68z" />
<glyph unicode="&#xdd;" horiz-adv-x="1359" d="M-41 1423q0 21 61 21q23 0 77 -5t81 -5q42 0 100 5t89 5q53 0 53 -17q0 -5 -35 -15t-35 -26q0 -35 62 -135l266 -422q23 -35 33 -47t18 -12q14 0 39 41l233 371q33 52 56.5 110t23.5 86q0 18 -12.5 27t-25.5 12.5t-13 7.5q0 15 35 15q31 0 80 -3t59 -3q30 0 75 5t75 5 q16 0 31.5 -5.5t15.5 -13.5q0 -6 -15 -8.5t-38.5 -5t-36.5 -8.5q-75 -34 -137 -131l-349 -553q-43 -67 -43 -117v-379q0 -128 45 -164q22 -17 56 -26t54.5 -13t20.5 -12q0 -6 -2 -9.5t-9.5 -4.5t-14.5 -1.5t-23 -0.5q-31 0 -110 4t-109 4q-72 0 -137 -4t-86 -4q-45 0 -45 14 q0 10 43 17q70 7 101.5 53t31.5 139v385q0 5 -0.5 10t-1 9t-2 9t-2 7.5t-3 8t-3.5 7t-4.5 7.5t-4.5 7.5t-5 8.5t-5 8l-403 612q-50 74 -94 97q-16 8 -44.5 13.5t-47.5 9t-19 9.5zM522 1552q0 9 10 19q14 17 157 88.5t173 71.5q22 0 72.5 -58t50.5 -71q0 -15 -16 -15 q-7 0 -31.5 7.5t-32.5 7.5q-17 0 -87.5 -9t-137.5 -22q-13 -3 -68.5 -19t-70.5 -16q-19 0 -19 16z" />
<glyph unicode="&#xde;" horiz-adv-x="1218" d="M111 6q0 10 21.5 14t50.5 8t40 11q41 28 52.5 81t11.5 177v948q0 119 -49 146q-14 7 -41.5 13.5t-45.5 12t-18 13.5q0 16 43 16q14 0 92.5 -6t106.5 -6q30 0 107 7t98 7q45 0 45 -18q0 -8 -17.5 -13t-43 -10.5t-36.5 -11.5q-34 -21 -45.5 -56.5t-11.5 -99.5v-39 q0 -31 7.5 -38t33.5 -7q32 0 74.5 2t60.5 2q98 0 184 -23.5t155.5 -69.5t110 -122t40.5 -174q0 -122 -48 -226t-142.5 -169.5t-217.5 -65.5q-40 0 -85.5 8.5t-45.5 26.5q0 14 18 14q11 0 36 -6t46 -6q116 0 179 90t63 244q0 203 -93 303t-286 100h-22q-25 0 -39 -9.5 t-20.5 -39t-7.5 -56t-1 -89.5v-592q0 -124 11.5 -177t52.5 -81q11 -7 40 -11t50.5 -8t21.5 -14q0 -14 -24 -14q-14 0 -108.5 4t-139.5 4q-60 0 -144.5 -4t-95.5 -4q-24 0 -24 14z" />
<glyph unicode="&#xdf;" horiz-adv-x="1781" d="M102 170q0 33 7.5 62.5t23.5 29.5q13 0 17 -7.5t7 -28.5q1 -3 1 -5q4 -38 18 -67q58 -117 246 -117q107 0 174.5 63t67.5 168q0 75 -45 129t-125 105l-191 123q-84 56 -135 138t-51 181q0 140 101 221.5t271 81.5q66 0 154 -18q46 -8 62 -8q9 0 26 5t27 5q12 0 12 -8 q0 -7 -4 -22t-4 -25q0 -8 2 -33t2 -47q0 -117 -33 -117q-18 0 -24 37q-9 50 -29 82q-27 38 -87 63t-130 25q-83 0 -145 -50.5t-62 -142.5q0 -77 42 -130t126 -107l190 -121q93 -59 144 -128.5t51 -166.5q0 -64 -26.5 -128t-76 -118.5t-130.5 -88.5t-179 -34q-140 0 -258 45 q-22 8 -28.5 29.5t-6.5 58.5q0 1 -1 20.5t-1 45.5zM993 170q0 33 7.5 62.5t23.5 29.5q13 0 17 -7.5t7 -28.5q1 -3 1 -5q4 -38 18 -67q59 -117 246 -117q107 0 174 63t67 168q0 75 -45 129t-125 105l-190 123q-84 56 -135 138t-51 181q0 140 101 221.5t271 81.5q66 0 154 -18 q46 -8 61 -8q9 0 26.5 5t27.5 5q12 0 12 -8q0 -7 -4 -22t-4 -25q0 -8 2 -33t2 -47q0 -117 -33 -117q-19 0 -25 37q-9 53 -28 82q-27 38 -87 63t-130 25q-83 0 -145 -50.5t-62 -142.5q0 -77 42 -130t126 -107l190 -121q93 -59 144 -128.5t51 -166.5q0 -64 -26.5 -128 t-76 -118.5t-130.5 -88.5t-179 -34q-140 0 -258 45q-22 8 -28.5 29.5t-6.5 58.5q0 1 -1 20.5t-1 45.5z" />
<glyph unicode="&#xe0;" horiz-adv-x="1286" d="M0 10q0 7 5.5 10t22 6t29.5 7q54 17 125 184l400 957q27 65 37.5 83.5t23.5 18.5q5 0 9 -1.5t8 -5.5t7 -9t7 -14.5t7 -18t9 -24t12 -29.5l414 -1016q9 -26 27.5 -59.5t30.5 -43.5q14 -14 67 -28q40 -9 44 -17q1 -2 1 -4q0 -12 -35 -12q-29 0 -93 3t-101 3q-22 0 -83 -3 t-108 -3q-41 0 -41 10q0 18 43 21q30 2 47 13t17 42q0 63 -39 160l-68 166q-7 19 -12.5 22.5t-24.5 3.5h-376q-22 0 -27.5 -2.5t-11.5 -17.5l-86 -213q-27 -65 -27 -111q0 -43 21 -49q4 -2 26.5 -6.5t40 -10.5t17.5 -12q0 -16 -33 -16q-22 0 -72 3t-84 3q-17 0 -60.5 -3 t-76.5 -3q-39 0 -39 16zM418 518q0 -8 24 -8h310q24 0 24 12q0 10 -20 62l-138 342q-11 28 -18 28q-10 0 -20 -28l-152 -375q-10 -23 -10 -33zM432 1411q0 14 47 62.5t68 48.5q34 0 124.5 -44t149.5 -83q33 -20 33 -31q0 -12 -16 -12q-8 0 -40 7t-44 9q-202 41 -244 41 q-11 0 -31 -6t-26 -6q-21 0 -21 14z" />
<glyph unicode="&#xe1;" horiz-adv-x="1286" d="M0 10q0 7 5.5 10t22 6t29.5 7q54 17 125 184l400 957q27 65 37.5 83.5t23.5 18.5q5 0 9 -1.5t8 -5.5t7 -9t7 -14.5t7 -18t9 -24t12 -29.5l414 -1016q9 -26 27.5 -59.5t30.5 -43.5q14 -14 67 -28q40 -9 44 -17q1 -2 1 -4q0 -12 -35 -12q-29 0 -93 3t-101 3q-22 0 -83 -3 t-108 -3q-41 0 -41 10q0 18 43 21q30 2 47 13t17 42q0 63 -39 160l-68 166q-7 19 -12.5 22.5t-24.5 3.5h-376q-22 0 -27.5 -2.5t-11.5 -17.5l-86 -213q-27 -65 -27 -111q0 -43 21 -49q4 -2 26.5 -6.5t40 -10.5t17.5 -12q0 -16 -33 -16q-22 0 -72 3t-84 3q-17 0 -60.5 -3 t-76.5 -3q-39 0 -39 16zM418 518q0 -8 24 -8h310q24 0 24 12q0 10 -20 62l-138 342q-11 28 -18 28q-10 0 -20 -28l-152 -375q-10 -23 -10 -33zM453 1366q0 10 10 18q18 16 144 76t153 60q13 0 33 -17q30 -24 65 -67q16 -19 16 -27q0 -14 -22 -14q-3 0 -21.5 6t-31.5 6 q-45 0 -197 -27q-16 -3 -62 -16.5t-63 -13.5q-24 0 -24 16z" />
<glyph unicode="&#xe2;" horiz-adv-x="1286" d="M0 10q0 7 5.5 10t22 6t29.5 7q54 17 125 184l400 957q27 65 37.5 83.5t23.5 18.5q5 0 9 -1.5t8 -5.5t7 -9t7 -14.5t7 -18t9 -24t12 -29.5l414 -1016q9 -26 27.5 -59.5t30.5 -43.5q14 -14 67 -28q40 -9 44 -17q1 -2 1 -4q0 -12 -35 -12q-29 0 -93 3t-101 3q-22 0 -83 -3 t-108 -3q-41 0 -41 10q0 18 43 21q30 2 47 13t17 42q0 63 -39 160l-68 166q-7 19 -12.5 22.5t-24.5 3.5h-376q-22 0 -27.5 -2.5t-11.5 -17.5l-86 -213q-27 -65 -27 -111q0 -43 21 -49q4 -2 26.5 -6.5t40 -10.5t17.5 -12q0 -16 -33 -16q-22 0 -72 3t-84 3q-17 0 -60.5 -3 t-76.5 -3q-39 0 -39 16zM416 1352q0 16 24 30l211 136q24 16 37 16q10 0 35 -18q2 -1 47 -29.5t79.5 -48t45.5 -21.5q17 -6 18 -10q0 -8 -20 -25l-35 -30q-24 -21 -37 -21q-10 0 -86 47q-76 45 -90 45q-17 0 -74 -32q-104 -60 -133 -60q-22 0 -22 21zM418 518q0 -8 24 -8 h310q24 0 24 12q0 10 -20 62l-138 342q-11 28 -18 28q-10 0 -20 -28l-152 -375q-10 -23 -10 -33z" />
<glyph unicode="&#xe3;" horiz-adv-x="1286" d="M0 10q0 7 5.5 10t22 6t29.5 7q54 17 125 184l400 957q27 65 37.5 83.5t23.5 18.5q5 0 9 -1.5t8 -5.5t7 -9t7 -14.5t7 -18t9 -24t12 -29.5l414 -1016q9 -26 27.5 -59.5t30.5 -43.5q14 -14 67 -28q40 -9 44 -17q1 -2 1 -4q0 -12 -35 -12q-29 0 -93 3t-101 3q-22 0 -83 -3 t-108 -3q-41 0 -41 10q0 18 43 21q30 2 47 13t17 42q0 63 -39 160l-68 166q-7 19 -12.5 22.5t-24.5 3.5h-376q-22 0 -27.5 -2.5t-11.5 -17.5l-86 -213q-27 -65 -27 -111q0 -43 21 -49q4 -2 26.5 -6.5t40 -10.5t17.5 -12q0 -16 -33 -16q-22 0 -72 3t-84 3q-17 0 -60.5 -3 t-76.5 -3q-39 0 -39 16zM418 518q0 -8 24 -8h310q24 0 24 12q0 10 -20 62l-138 342q-11 28 -18 28q-10 0 -20 -28l-152 -375q-10 -23 -10 -33zM418 1370q0 23 58 77t110 54q69 0 145 -39q55 -24 68 -24q25 0 40 14t25 27.5t21 13.5q22 0 22 -20q0 -35 -44 -78t-89 -43 q-56 0 -127 30q-56 27 -88 27q-47 0 -90 -43q-16 -16 -33 -16q-18 0 -18 20z" />
<glyph unicode="&#xe4;" horiz-adv-x="1286" d="M0 10q0 7 5.5 10t22 6t29.5 7q54 17 125 184l400 957q27 65 37.5 83.5t23.5 18.5q5 0 9 -1.5t8 -5.5t7 -9t7 -14.5t7 -18t9 -24t12 -29.5l414 -1016q9 -26 27.5 -59.5t30.5 -43.5q14 -14 67 -28q40 -9 44 -17q1 -2 1 -4q0 -12 -35 -12q-29 0 -93 3t-101 3q-22 0 -83 -3 t-108 -3q-41 0 -41 10q0 18 43 21q30 2 47 13t17 42q0 63 -39 160l-68 166q-7 19 -12.5 22.5t-24.5 3.5h-376q-22 0 -27.5 -2.5t-11.5 -17.5l-86 -213q-27 -65 -27 -111q0 -43 21 -49q4 -2 26.5 -6.5t40 -10.5t17.5 -12q0 -16 -33 -16q-22 0 -72 3t-84 3q-17 0 -60.5 -3 t-76.5 -3q-39 0 -39 16zM395 1436q0 37 27.5 60.5t66.5 23.5q40 0 67.5 -23t27.5 -61q0 -37 -28 -60.5t-67 -23.5t-66.5 23.5t-27.5 60.5zM418 518q0 -8 24 -8h310q24 0 24 12q0 10 -20 62l-138 342q-11 28 -18 28q-10 0 -20 -28l-152 -375q-10 -23 -10 -33zM707 1436 q0 37 27.5 60.5t66.5 23.5q40 0 67 -23t27 -61q0 -37 -27.5 -60.5t-66.5 -23.5t-66.5 23.5t-27.5 60.5z" />
<glyph unicode="&#xe5;" horiz-adv-x="1286" d="M0 10q0 7 5.5 10t22 6t29.5 7q54 17 125 184l400 957q27 65 37.5 83.5t23.5 18.5q5 0 9 -1.5t8 -5.5t7 -9t7 -14.5t7 -18t9 -24t12 -29.5l414 -1016q9 -26 27.5 -59.5t30.5 -43.5q14 -14 67 -28q40 -9 44 -17q1 -2 1 -4q0 -12 -35 -12q-29 0 -93 3t-101 3q-22 0 -83 -3 t-108 -3q-41 0 -41 10q0 18 43 21q30 2 47 13t17 42q0 63 -39 160l-68 166q-7 19 -12.5 22.5t-24.5 3.5h-376q-22 0 -27.5 -2.5t-11.5 -17.5l-86 -213q-27 -65 -27 -111q0 -43 21 -49q4 -2 26.5 -6.5t40 -10.5t17.5 -12q0 -16 -33 -16q-22 0 -72 3t-84 3q-17 0 -60.5 -3 t-76.5 -3q-39 0 -39 16zM418 518q0 -8 24 -8h310q24 0 24 12q0 10 -20 62l-138 342q-11 28 -18 28q-10 0 -20 -28l-152 -375q-10 -23 -10 -33zM467 1436q0 58 52.5 93.5t123.5 35.5q69 0 122.5 -35t53.5 -92t-52.5 -92t-123.5 -35q-68 0 -122 35t-54 90zM573 1438 q0 -28 20.5 -49t49.5 -21q31 0 51.5 20.5t20.5 51.5q0 30 -21 49.5t-51 19.5q-31 0 -50.5 -20t-19.5 -51z" />
<glyph unicode="&#xe6;" horiz-adv-x="1585" d="M-61 8q0 8 30 15q48 15 81 41.5t69 80.5l667 988q11 17 11 24q0 13 -15 25q-19 12 -51 16q-45 3 -45 14q0 8 12.5 10.5t46.5 2.5q31 0 83 -3t69 -3q73 0 245 7t273 7q21 0 21 -19q0 -2 -1 -16t-1 -22q0 -19 2 -52.5t2 -56.5q0 -8 -1 -12.5t-5 -7.5t-13 -3t-13 4 t-7.5 14.5t-5.5 14.5q-25 45 -60 60.5t-112 15.5h-189q-22 0 -31.5 -6.5t-9.5 -28.5v-403q0 -19 4 -24t19 -5h213q58 0 78 23q8 9 13 26.5t6.5 32t7 26t16.5 11.5q18 0 18 -43q0 -16 -3 -56t-3 -59q0 -56 2 -92t2 -37q0 -24 -18 -24q-10 0 -14 10t-9 36q-1 8 -2 13 q-9 53 -98 53h-215q-17 0 -17 -26v-404q0 -23 7 -40.5t22 -27.5t29.5 -16.5t38 -9.5t38.5 -3.5t39 -0.5q126 0 183 20q44 15 73 70q10 18 25 18q8 0 12 -5t4 -9q0 -11 -4.5 -25t-13 -33.5t-12.5 -31.5q-24 -59 -35 -72.5t-33 -13.5q-68 0 -218.5 3t-238.5 3q-43 0 -105.5 -4 t-80.5 -4q-47 0 -47 12q0 9 24.5 13.5t54 14t38.5 29.5q22 53 22 336q0 24 -6 29.5t-35 5.5h-307q-36 0 -46.5 -7t-31.5 -42l-82 -129q-6 -10 -27 -42.5t-33.5 -53t-24 -46.5t-11.5 -42q0 -25 22.5 -36t45 -15t22.5 -13q0 -12 -29 -12q-7 0 -60 2t-104 2q-24 0 -70.5 -2 t-68.5 -2q-28 0 -28 12zM475 516q0 -8 23 -8h276q27 0 33 6t6 35v438q0 19 -6 19q-4 0 -14 -13l-271 -401q-47 -68 -47 -76z" />
<glyph unicode="&#xe7;" horiz-adv-x="1337" d="M92 621q0 185 85.5 329t229.5 220.5t320 76.5q190 0 348 -41q12 -3 31.5 -8.5t33.5 -8.5t25 -3q3 0 12 4t17 4q14 0 14 -20q0 -10 -3 -36.5t-3 -45.5q0 -12 2 -47t2 -62q0 -47 -22 -47q-16 0 -23.5 12.5t-11 34t-8.5 29.5q-39 73 -147.5 120.5t-268.5 47.5 q-107 0 -192 -40t-137.5 -110t-79.5 -160.5t-27 -195.5q0 -189 66.5 -334.5t189.5 -226t284 -80.5q66 0 137.5 22.5t127.5 59.5q40 27 71 112q12 31 27 31q22 0 22 -29q0 -11 -2.5 -24.5t-7.5 -34t-8 -37.5l-14 -74q-7 -37 -95.5 -59t-209.5 -27q-18 -1 -26 -3t-19 -11 t-27 -29l-23 -28q-8 -11 -8 -15q0 -3 2 -4t8.5 -1t10.5 -1q155 -15 155 -102q0 -42 -27.5 -77t-76.5 -60t-85.5 -38.5t-84.5 -27.5q-13 -4 -48.5 -11t-43.5 -7q-27 0 -27 16q0 18 29 27q221 67 221 157q0 76 -115 76q-28 0 -28 14q0 11 26 43l37 48q14 17 14 26q0 5 -20 8 q-134 8 -246 50.5t-198.5 120t-135.5 199.5t-49 278z" />
<glyph unicode="&#xe8;" horiz-adv-x="1036" d="M111 8q0 11 28 14.5t61 11.5t42 32q22 60 22 368v649q0 34 -7.5 57t-22.5 34t-28.5 15t-35.5 7q-39 4 -39 14q0 17 43 17q18 0 70.5 -4t105.5 -4q73 0 244 6t272 6q21 0 21 -19q0 -2 -1 -16t-1 -22q0 -19 2 -52.5t2 -56.5q0 -8 -1 -12.5t-5 -7.5t-13 -3t-13 4t-7.5 14.5 t-5.5 14.5q-25 45 -60 60.5t-112 15.5h-189q-22 0 -31.5 -6.5t-9.5 -28.5v-403q0 -19 4 -24t19 -5h213q58 0 78 23q8 9 13 26.5t6.5 32t7 26t16.5 11.5q18 0 18 -43q0 -16 -3 -56t-3 -59q0 -56 2 -92t2 -37q0 -24 -18 -24q-10 0 -14 10t-9 36q0 4 -0.5 7t-1.5 6 q-9 53 -98 53h-215q-17 0 -17 -26v-404q0 -23 7 -40.5t22 -27.5t29.5 -16.5t38 -9.5t38.5 -3.5t39 -0.5q126 0 183 20q44 15 73 70q10 18 25 18q8 0 12 -5t4 -9q0 -11 -4.5 -25t-13 -33.5t-12.5 -31.5q-24 -59 -35 -72.5t-33 -13.5q-147 0 -225 2q-152 4 -221 4 q-75 0 -137 -3t-70 -3q-51 0 -51 14zM309 1391q0 14 47 62t68 48q34 0 124.5 -44t149.5 -83q33 -20 33 -31q0 -12 -16 -12q-7 0 -39.5 7.5t-44.5 9.5q-202 41 -244 41q-11 0 -31 -6.5t-26 -6.5q-21 0 -21 15z" />
<glyph unicode="&#xe9;" horiz-adv-x="1036" d="M111 8q0 11 28 14.5t61 11.5t42 32q22 60 22 368v649q0 34 -7.5 57t-22.5 34t-28.5 15t-35.5 7q-39 4 -39 14q0 17 43 17q18 0 70.5 -4t105.5 -4q73 0 244 6t272 6q21 0 21 -19q0 -2 -1 -16t-1 -22q0 -19 2 -52.5t2 -56.5q0 -8 -1 -12.5t-5 -7.5t-13 -3t-13 4t-7.5 14.5 t-5.5 14.5q-25 45 -60 60.5t-112 15.5h-189q-22 0 -31.5 -6.5t-9.5 -28.5v-403q0 -19 4 -24t19 -5h213q58 0 78 23q8 9 13 26.5t6.5 32t7 26t16.5 11.5q18 0 18 -43q0 -16 -3 -56t-3 -59q0 -56 2 -92t2 -37q0 -24 -18 -24q-10 0 -14 10t-9 36q0 4 -0.5 7t-1.5 6 q-9 53 -98 53h-215q-17 0 -17 -26v-404q0 -23 7 -40.5t22 -27.5t29.5 -16.5t38 -9.5t38.5 -3.5t39 -0.5q126 0 183 20q44 15 73 70q10 18 25 18q8 0 12 -5t4 -9q0 -11 -4.5 -25t-13 -33.5t-12.5 -31.5q-24 -59 -35 -72.5t-33 -13.5q-147 0 -225 2q-152 4 -221 4 q-75 0 -137 -3t-70 -3q-51 0 -51 14zM371 1346q0 10 10 18q18 16 144 75.5t153 59.5q14 0 33 -16q28 -22 65 -68q17 -20 17 -26q0 -15 -23 -15q-3 0 -21.5 6t-31.5 6q-51 0 -197 -26q-17 -3 -62.5 -17t-62.5 -14q-24 0 -24 17z" />
<glyph unicode="&#xea;" horiz-adv-x="1036" d="M111 8q0 11 28 14.5t61 11.5t42 32q22 60 22 368v649q0 34 -7.5 57t-22.5 34t-28.5 15t-35.5 7q-39 4 -39 14q0 17 43 17q18 0 70.5 -4t105.5 -4q73 0 244 6t272 6q21 0 21 -19q0 -2 -1 -16t-1 -22q0 -19 2 -52.5t2 -56.5q0 -8 -1 -12.5t-5 -7.5t-13 -3t-13 4t-7.5 14.5 t-5.5 14.5q-25 45 -60 60.5t-112 15.5h-189q-22 0 -31.5 -6.5t-9.5 -28.5v-403q0 -19 4 -24t19 -5h213q58 0 78 23q8 9 13 26.5t6.5 32t7 26t16.5 11.5q18 0 18 -43q0 -16 -3 -56t-3 -59q0 -56 2 -92t2 -37q0 -24 -18 -24q-10 0 -14 10t-9 36q0 4 -0.5 7t-1.5 6 q-9 53 -98 53h-215q-17 0 -17 -26v-404q0 -23 7 -40.5t22 -27.5t29.5 -16.5t38 -9.5t38.5 -3.5t39 -0.5q126 0 183 20q44 15 73 70q10 18 25 18q8 0 12 -5t4 -9q0 -11 -4.5 -25t-13 -33.5t-12.5 -31.5q-24 -59 -35 -72.5t-33 -13.5q-147 0 -225 2q-152 4 -221 4 q-75 0 -137 -3t-70 -3q-51 0 -51 14zM311 1352q0 16 25 30l211 136q24 16 37 16q9 0 34 -18q1 -1 47 -29.5t80.5 -48t45.5 -21.5q17 -6 18 -10q0 -7 -21 -25l-34 -30q-24 -21 -37 -21q-10 0 -86 47q-76 45 -90 45q-17 0 -74 -32q-104 -60 -133 -60q-23 0 -23 21z" />
<glyph unicode="&#xeb;" horiz-adv-x="1036" d="M111 8q0 11 28 14.5t61 11.5t42 32q22 60 22 368v649q0 34 -7.5 57t-22.5 34t-28.5 15t-35.5 7q-39 4 -39 14q0 17 43 17q18 0 70.5 -4t105.5 -4q73 0 244 6t272 6q21 0 21 -19q0 -2 -1 -16t-1 -22q0 -19 2 -52.5t2 -56.5q0 -8 -1 -12.5t-5 -7.5t-13 -3t-13 4t-7.5 14.5 t-5.5 14.5q-25 45 -60 60.5t-112 15.5h-189q-22 0 -31.5 -6.5t-9.5 -28.5v-403q0 -19 4 -24t19 -5h213q58 0 78 23q8 9 13 26.5t6.5 32t7 26t16.5 11.5q18 0 18 -43q0 -16 -3 -56t-3 -59q0 -56 2 -92t2 -37q0 -24 -18 -24q-10 0 -14 10t-9 36q0 4 -0.5 7t-1.5 6 q-9 53 -98 53h-215q-17 0 -17 -26v-404q0 -23 7 -40.5t22 -27.5t29.5 -16.5t38 -9.5t38.5 -3.5t39 -0.5q126 0 183 20q44 15 73 70q10 18 25 18q8 0 12 -5t4 -9q0 -11 -4.5 -25t-13 -33.5t-12.5 -31.5q-24 -59 -35 -72.5t-33 -13.5q-147 0 -225 2q-152 4 -221 4 q-75 0 -137 -3t-70 -3q-51 0 -51 14zM291 1415q0 37 27.5 60.5t66.5 23.5q40 0 67 -23t27 -61q0 -37 -27.5 -60.5t-66.5 -23.5t-66.5 23.5t-27.5 60.5zM602 1415q0 37 27.5 60.5t66.5 23.5q40 0 67.5 -23t27.5 -61q0 -37 -28 -60.5t-67 -23.5t-66.5 23.5t-27.5 60.5z" />
<glyph unicode="&#xec;" horiz-adv-x="704" d="M111 8q0 13 53 17q45 4 69 28q20 23 25.5 65t5.5 136v803q0 102 -39 121q-7 4 -49 16q-47 8 -47 18q0 17 47 17q27 0 85 -5t89 -5q28 0 87.5 6t90.5 6q47 0 47 -19q0 -10 -45 -18q-1 0 -17 -3.5t-26 -8.5q-26 -16 -35.5 -46t-9.5 -85v-797q0 -89 5 -131t24 -66 q17 -25 72 -32q53 -4 53 -17q0 -14 -29 -14q-32 0 -103 3t-114 3q-31 0 -99.5 -3t-111.5 -3q-28 0 -28 14zM133 1391q0 14 47 62t68 48q34 0 124.5 -44t149.5 -83q33 -20 33 -31q0 -12 -16 -12q-7 0 -39.5 7.5t-44.5 9.5q-202 41 -244 41q-11 0 -31 -6.5t-26 -6.5 q-21 0 -21 15z" />
<glyph unicode="&#xed;" horiz-adv-x="704" d="M111 8q0 13 53 17q45 4 69 28q20 23 25.5 65t5.5 136v803q0 102 -39 121q-7 4 -49 16q-47 8 -47 18q0 17 47 17q27 0 85 -5t89 -5q28 0 87.5 6t90.5 6q47 0 47 -19q0 -10 -45 -18q-1 0 -17 -3.5t-26 -8.5q-26 -16 -35.5 -46t-9.5 -85v-797q0 -89 5 -131t24 -66 q17 -25 72 -32q53 -4 53 -17q0 -14 -29 -14q-32 0 -103 3t-114 3q-31 0 -99.5 -3t-111.5 -3q-28 0 -28 14zM147 1346q0 10 11 18q18 16 144 75.5t153 59.5q13 0 32 -16q31 -24 66 -68q16 -19 16 -26q0 -15 -22 -15q-3 0 -21.5 6t-31.5 6q-51 0 -197 -26q-17 -3 -62.5 -17 t-62.5 -14q-25 0 -25 17z" />
<glyph unicode="&#xee;" horiz-adv-x="708" d="M102 8q0 13 54 17q45 4 69 28q20 23 25.5 65t5.5 136v803q0 102 -39 121q-7 4 -49 16q-47 8 -47 18q0 17 47 17q27 0 85 -5t89 -5q28 0 87.5 6t90.5 6q47 0 47 -19q0 -10 -45 -18q-1 0 -17 -3.5t-26 -8.5q-26 -16 -35.5 -46t-9.5 -85v-797q0 -89 5 -131t24 -66 q17 -25 72 -32q53 -4 53 -17q0 -14 -29 -14q-32 0 -103 3t-114 3q-31 0 -99.5 -3t-111.5 -3q-29 0 -29 14zM106 1352q0 16 25 30l211 136q24 16 37 16q10 0 35 -18q2 -1 47 -29.5t79.5 -48t45.5 -21.5q17 -6 18 -10q0 -8 -20 -25l-35 -30q-24 -21 -37 -21q-10 0 -86 47 q-76 45 -90 45q-17 0 -74 -32q-104 -60 -133 -60q-23 0 -23 21z" />
<glyph unicode="&#xef;" horiz-adv-x="704" d="M102 1415q0 37 28 60.5t67 23.5q40 0 67 -23t27 -61q0 -37 -27.5 -60.5t-66.5 -23.5t-67 23.5t-28 60.5zM109 8q0 13 53 17q45 4 69 28q20 23 25.5 65t5.5 136v803q0 102 -39 121q-7 4 -49 16q-47 8 -47 18q0 17 47 17q27 0 85 -5t89 -5q28 0 87.5 6t90.5 6q47 0 47 -19 q0 -10 -45 -18q-1 0 -17 -3.5t-26 -8.5q-26 -16 -35.5 -46t-9.5 -85v-797q0 -89 5 -131t24 -66q17 -25 72 -32q53 -4 53 -17q0 -14 -29 -14q-32 0 -103 3t-114 3q-31 0 -99.5 -3t-111.5 -3q-28 0 -28 14zM414 1415q0 37 27.5 60.5t66.5 23.5q40 0 67 -23t27 -61 q0 -37 -27.5 -60.5t-66.5 -23.5t-66.5 23.5t-27.5 60.5z" />
<glyph unicode="&#xf0;" horiz-adv-x="1486" d="M115 10q0 9 26.5 13t58.5 12.5t42 27.5q24 47 24 209v289q0 19 -5 25t-25 6h-89q-32 0 -32 10q0 7 6 25l12 35q3 10 8 12t25 2h70q12 0 18 1.5t8.5 7.5t3 10.5t0.5 17.5v352q0 71 -23.5 101t-82.5 30q-31 0 -31 16q0 7 14 12t33 5q26 0 84 -4t90 -4q56 0 182 6t203 6 q303 0 476 -163t173 -433q0 -307 -176 -478t-491 -171q-54 0 -172 7t-187 7q-58 0 -121.5 -3t-86.5 -3q-20 0 -27.5 2t-7.5 12zM444 403q0 -280 37 -309q25 -20 92 -34.5t134 -14.5q240 0 368.5 136t128.5 407q0 117 -39.5 223t-110.5 187.5t-179.5 129.5t-237.5 48h-37 q-95 0 -125.5 -12t-30.5 -62v-391q0 -22 4.5 -28.5t26.5 -6.5h295q31 0 31 -8q-1 -1 -1.5 -4t-2.5 -10t-6 -15q-5 -11 -8.5 -22.5t-5 -15.5t-6 -6.5t-13.5 -2.5h-283q-22 0 -26.5 -6.5t-4.5 -34.5v-148z" />
<glyph unicode="&#xf1;" horiz-adv-x="1556" d="M102 6q0 10 33 14q23 5 43 17q26 19 37.5 72t11.5 108v946q0 50 4 65t21 15q20 0 110 -90l826 -836q30 -30 37 -30q6 0 6 45v618q0 178 -29 217q-20 27 -65 35q-29 4 -29 10q0 15 35 15q19 0 63.5 -4t71.5 -4q20 0 63.5 4t67.5 4q45 0 45 -13q0 -2 -2 -4t-6.5 -3.5 t-9 -2.5t-12.5 -3t-13 -3q-33 -7 -43 -14q-29 -18 -29 -223v-914q0 -61 -8 -70q-6 -6 -14 -6q-24 0 -82 62l-852 862q-29 29 -35 29q-8 0 -8 -50v-663q0 -50 14 -101t43 -71q5 -4 12 -6t19 -4.5t16 -3.5q41 -7 41 -17q0 -9 -11 -11.5t-36 -2.5q-19 0 -66.5 3t-80.5 3 q-21 0 -70 -3t-82 -3q-37 0 -37 12zM553 1350q0 23 58 77t110 54q69 0 145 -39q58 -25 68 -25q19 0 33 8.5t20.5 19.5t15 19.5t17.5 8.5q22 0 22 -21q0 -35 -44 -78t-89 -43q-54 0 -127 31q-56 27 -88 27q-47 0 -90 -43q-17 -17 -33 -17q-18 0 -18 21z" />
<glyph unicode="&#xf2;" d="M82 598q0 184 78.5 332t223 232.5t329.5 84.5q144 0 268.5 -50t209 -134.5t133 -196t48.5 -233.5q0 -108 -23.5 -205t-74 -181t-124 -145t-179.5 -96t-234 -35q-138 0 -258.5 46t-208 127.5t-138 199t-50.5 254.5zM274 666q0 -124 34 -237t96 -201t156.5 -140.5 t207.5 -52.5q99 0 179 40.5t130.5 109t77.5 155.5t27 184q0 95 -18 187t-56.5 178t-94 150.5t-137 103.5t-178.5 39q-89 0 -161.5 -31t-120.5 -81.5t-80.5 -118.5t-47 -139t-14.5 -146zM516 1391q0 14 47 62t68 48q34 0 124.5 -44t149.5 -83q33 -20 33 -31q0 -12 -16 -12 q-7 0 -39.5 7.5t-44.5 9.5q-202 41 -244 41q-11 0 -31 -6.5t-26 -6.5q-21 0 -21 15z" />
<glyph unicode="&#xf3;" d="M82 598q0 184 78.5 332t223 232.5t329.5 84.5q144 0 268.5 -50t209 -134.5t133 -196t48.5 -233.5q0 -108 -23.5 -205t-74 -181t-124 -145t-179.5 -96t-234 -35q-138 0 -258.5 46t-208 127.5t-138 199t-50.5 254.5zM274 666q0 -124 34 -237t96 -201t156.5 -140.5 t207.5 -52.5q99 0 179 40.5t130.5 109t77.5 155.5t27 184q0 95 -18 187t-56.5 178t-94 150.5t-137 103.5t-178.5 39q-89 0 -161.5 -31t-120.5 -81.5t-80.5 -118.5t-47 -139t-14.5 -146zM516 1346q0 10 10 18q18 16 144 75.5t153 59.5q14 0 33 -16q31 -24 66 -68 q16 -19 16 -26q0 -15 -23 -15q-3 0 -21.5 6t-31.5 6q-50 0 -196 -26q-17 -3 -62.5 -17t-62.5 -14q-25 0 -25 17z" />
<glyph unicode="&#xf4;" d="M82 598q0 184 78.5 332t223 232.5t329.5 84.5q144 0 268.5 -50t209 -134.5t133 -196t48.5 -233.5q0 -108 -23.5 -205t-74 -181t-124 -145t-179.5 -96t-234 -35q-138 0 -258.5 46t-208 127.5t-138 199t-50.5 254.5zM274 666q0 -124 34 -237t96 -201t156.5 -140.5 t207.5 -52.5q99 0 179 40.5t130.5 109t77.5 155.5t27 184q0 95 -18 187t-56.5 178t-94 150.5t-137 103.5t-178.5 39q-89 0 -161.5 -31t-120.5 -81.5t-80.5 -118.5t-47 -139t-14.5 -146zM477 1352q0 16 25 30l211 136q24 16 37 16q9 0 34 -18q2 -1 47 -29.5t79.5 -48 t45.5 -21.5q19 -4 19 -10q0 -7 -21 -25l-34 -30q-24 -21 -37 -21q-10 0 -86 47q-76 45 -90 45q-17 0 -74 -32q-104 -60 -133 -60q-23 0 -23 21z" />
<glyph unicode="&#xf5;" d="M82 598q0 184 78.5 332t223 232.5t329.5 84.5q144 0 268.5 -50t209 -134.5t133 -196t48.5 -233.5q0 -108 -23.5 -205t-74 -181t-124 -145t-179.5 -96t-234 -35q-138 0 -258.5 46t-208 127.5t-138 199t-50.5 254.5zM274 666q0 -124 34 -237t96 -201t156.5 -140.5 t207.5 -52.5q99 0 179 40.5t130.5 109t77.5 155.5t27 184q0 95 -18 187t-56.5 178t-94 150.5t-137 103.5t-178.5 39q-89 0 -161.5 -31t-120.5 -81.5t-80.5 -118.5t-47 -139t-14.5 -146zM481 1370q0 23 58 77t110 54q70 0 146 -39q55 -24 67 -24q25 0 40 14t25 27.5t21 13.5 q23 0 23 -20q0 -35 -44 -78t-89 -43q-56 0 -127 30q-56 27 -88 27q-48 0 -91 -43q-16 -16 -32 -16q-19 0 -19 20z" />
<glyph unicode="&#xf6;" d="M82 598q0 184 78.5 332t223 232.5t329.5 84.5q144 0 268.5 -50t209 -134.5t133 -196t48.5 -233.5q0 -108 -23.5 -205t-74 -181t-124 -145t-179.5 -96t-234 -35q-138 0 -258.5 46t-208 127.5t-138 199t-50.5 254.5zM274 666q0 -124 34 -237t96 -201t156.5 -140.5 t207.5 -52.5q99 0 179 40.5t130.5 109t77.5 155.5t27 184q0 95 -18 187t-56.5 178t-94 150.5t-137 103.5t-178.5 39q-89 0 -161.5 -31t-120.5 -81.5t-80.5 -118.5t-47 -139t-14.5 -146zM477 1436q0 37 27.5 60.5t66.5 23.5q40 0 67.5 -23t27.5 -61q0 -37 -28 -60.5 t-67 -23.5t-66.5 23.5t-27.5 60.5zM788 1436q0 37 28 60.5t67 23.5q40 0 67 -23t27 -61q0 -37 -27.5 -60.5t-66.5 -23.5t-67 23.5t-28 60.5z" />
<glyph unicode="&#xf7;" horiz-adv-x="1060" d="M102 680v106h856v-106h-856zM432 428q0 45 27.5 73.5t70.5 28.5t71 -28t28 -72q0 -43 -28 -72t-73 -30q-41 0 -68.5 28.5t-27.5 71.5zM432 1036q0 46 27.5 74.5t70.5 28.5t71 -28.5t28 -72.5t-27.5 -73t-73.5 -29q-41 0 -68.5 28.5t-27.5 71.5z" />
<glyph unicode="&#xf8;" d="M82 598q0 184 78.5 332t223 232.5t329.5 84.5q239 0 417 -135l111 119q6 7 9.5 9.5t14.5 4.5t33 2q54 0 54 -10q0 -12 -13 -25l-143 -157q84 -86 130 -194.5t46 -227.5q0 -108 -23.5 -205t-74 -181t-124 -145t-179.5 -96t-234 -35q-242 0 -415 131l-103 -112 q-13 -13 -18.5 -16t-16.5 -3h-59q-23 0 -23 11q0 6 21 30l133 146q-174 174 -174 440zM274 666q0 -215 95 -385l667 727q-131 174 -338 174q-89 0 -161.5 -31t-120.5 -81.5t-80.5 -118.5t-47 -139t-14.5 -146zM418 209q138 -174 350 -174q99 0 179 40.5t130.5 109 t77.5 155.5t27 184q0 232 -97 410z" />
<glyph unicode="&#xf9;" horiz-adv-x="1513" d="M90 1212q0 15 43 15q26 0 85 -4t95 -4q29 0 90 5t95 5q37 0 37 -17q0 -11 -56 -20l-31 -8h1q-19 -10 -27.5 -19.5t-14.5 -44t-7 -80t-1 -149.5v-426q0 -127 35.5 -220.5t116 -149.5t199.5 -56q92 0 169.5 26t137 77t93.5 133.5t34 189.5v305q0 194 -8.5 285.5 t-32.5 105.5q-31 23 -86 31q-45 7 -45 18q0 15 53 15q24 0 77.5 -3t86.5 -3q21 0 71 3t82 3q41 0 41 -17q0 -11 -34 -14q-19 0 -31 -4q-48 -12 -60 -62.5t-12 -166.5v-455q0 -247 -141.5 -391t-399.5 -144q-152 0 -269 49t-187 152t-70 248v575q0 150 -14 166q-19 21 -74 33 q-41 8 -41 18zM543 1391q0 14 46.5 62t67.5 48q34 0 125 -44t150 -83q33 -20 33 -31q0 -12 -17 -12q-7 0 -39.5 7.5t-44.5 9.5q-202 41 -243 41q-11 0 -31.5 -6.5t-26.5 -6.5q-20 0 -20 15z" />
<glyph unicode="&#xfa;" horiz-adv-x="1513" d="M90 1212q0 15 43 15q26 0 85 -4t95 -4q29 0 90 5t95 5q37 0 37 -17q0 -11 -56 -20l-31 -8h1q-19 -10 -27.5 -19.5t-14.5 -44t-7 -80t-1 -149.5v-426q0 -127 35.5 -220.5t116 -149.5t199.5 -56q92 0 169.5 26t137 77t93.5 133.5t34 189.5v305q0 194 -8.5 285.5 t-32.5 105.5q-31 23 -86 31q-45 7 -45 18q0 15 53 15q24 0 77.5 -3t86.5 -3q21 0 71 3t82 3q41 0 41 -17q0 -11 -34 -14q-19 0 -31 -4q-48 -12 -60 -62.5t-12 -166.5v-455q0 -247 -141.5 -391t-399.5 -144q-152 0 -269 49t-187 152t-70 248v575q0 150 -14 166q-19 21 -74 33 q-41 8 -41 18zM584 1346q0 10 10 18q18 16 144 75.5t153 59.5q14 0 33 -16q28 -22 65 -68q17 -20 17 -26q0 -15 -23 -15q-3 0 -21.5 6t-31.5 6q-51 0 -197 -26q-17 -3 -62.5 -17t-62.5 -14q-24 0 -24 17z" />
<glyph unicode="&#xfb;" horiz-adv-x="1513" d="M90 1212q0 15 43 15q26 0 85 -4t95 -4q29 0 90 5t95 5q37 0 37 -17q0 -11 -56 -20l-31 -8h1q-19 -10 -27.5 -19.5t-14.5 -44t-7 -80t-1 -149.5v-426q0 -127 35.5 -220.5t116 -149.5t199.5 -56q92 0 169.5 26t137 77t93.5 133.5t34 189.5v305q0 194 -8.5 285.5 t-32.5 105.5q-31 23 -86 31q-45 7 -45 18q0 15 53 15q24 0 77.5 -3t86.5 -3q21 0 71 3t82 3q41 0 41 -17q0 -11 -34 -14q-19 0 -31 -4q-48 -12 -60 -62.5t-12 -166.5v-455q0 -247 -141.5 -391t-399.5 -144q-152 0 -269 49t-187 152t-70 248v575q0 150 -14 166q-19 21 -74 33 q-41 8 -41 18zM532 1352q0 16 25 30l211 136q24 16 37 16q10 0 35 -18q2 -1 47 -29.5t79.5 -48t45.5 -21.5q17 -6 18 -10q0 -8 -20 -25l-35 -30q-24 -21 -37 -21q-10 0 -86 47q-76 45 -90 45q-17 0 -74 -32q-104 -60 -133 -60q-23 0 -23 21z" />
<glyph unicode="&#xfc;" horiz-adv-x="1513" d="M90 1212q0 15 43 15q26 0 85 -4t95 -4q29 0 90 5t95 5q37 0 37 -17q0 -11 -56 -20l-31 -8h1q-19 -10 -27.5 -19.5t-14.5 -44t-7 -80t-1 -149.5v-426q0 -127 35.5 -220.5t116 -149.5t199.5 -56q92 0 169.5 26t137 77t93.5 133.5t34 189.5v305q0 194 -8.5 285.5 t-32.5 105.5q-31 23 -86 31q-45 7 -45 18q0 15 53 15q24 0 77.5 -3t86.5 -3q21 0 71 3t82 3q41 0 41 -17q0 -11 -34 -14q-19 0 -31 -4q-48 -12 -60 -62.5t-12 -166.5v-455q0 -247 -141.5 -391t-399.5 -144q-152 0 -269 49t-187 152t-70 248v575q0 150 -14 166q-19 21 -74 33 q-41 8 -41 18zM508 1415q0 37 27.5 60.5t66.5 23.5q40 0 67 -23t27 -61q0 -37 -27.5 -60.5t-66.5 -23.5t-66.5 23.5t-27.5 60.5zM819 1415q0 37 27.5 60.5t66.5 23.5q40 0 67.5 -23t27.5 -61q0 -37 -28 -60.5t-67 -23.5t-66.5 23.5t-27.5 60.5z" />
<glyph unicode="&#xfd;" horiz-adv-x="1198" d="M-41 1208q0 19 64 19q18 0 67.5 -4t89.5 -4q12 0 62 4t84 4q53 0 53 -17q0 -1 -29 -12q-33 -8 -33 -22q0 -33 54 -113l231 -356q28 -45 39 -45q9 0 29 30l204 312q29 42 49.5 91.5t20.5 73.5q0 21 -24 31q-21 5 -21 10q0 15 39 15q17 0 56.5 -3t64.5 -3q19 0 61.5 4 t69.5 4q49 0 49 -17q0 -5 -17 -8.5t-38.5 -6.5t-28.5 -7q-68 -35 -117 -111l-305 -469q-37 -58 -37 -96v-319q0 -113 37 -138q31 -23 78 -30q41 -7 41 -17t-10 -12t-41 -2q-23 0 -85 3t-108 3q-51 0 -117.5 -3t-76.5 -3q-49 0 -49 14q0 3 4 5.5t10 4t12 2.5t12.5 2t8.5 1 q55 7 81.5 46.5t26.5 114.5v326q0 34 -24 68l-357 518q-45 65 -80 82q-10 5 -59 16q-41 7 -41 14zM489 1346q0 10 11 18q18 16 144 75.5t153 59.5q13 0 32 -16q31 -24 66 -68q16 -19 16 -26q0 -15 -22 -15q-3 0 -21.5 6t-31.5 6q-51 0 -197 -26q-17 -3 -62.5 -17t-62.5 -14 q-25 0 -25 17z" />
<glyph unicode="&#xfe;" horiz-adv-x="1107" d="M111 8q0 13 53 17q37 4 49 12q33 22 42 66t9 151v803q0 102 -39 121q-7 4 -49 16q-47 8 -47 18q0 17 47 17q27 0 85 -5t89 -5q29 0 88.5 6t91.5 6q45 0 45 -19q0 -14 -43 -18q-25 -3 -43 -12q-27 -17 -37 -47.5t-10 -83.5v-33q0 -25 5.5 -31t23.5 -6t56.5 2t60.5 2 q118 0 214.5 -33.5t160 -110t63.5 -186.5q0 -162 -101.5 -278.5t-265.5 -116.5q-36 0 -78 8.5t-42 24.5q0 14 22 14q11 0 34.5 -5t37.5 -5q98 0 151.5 76t53.5 205q0 340 -324 340h-20q-19 0 -29.5 -8.5t-15.5 -32.5t-6 -47.5t-1 -73.5v-502q0 -104 10 -149.5t44 -67.5 q7 -6 32.5 -9.5t46.5 -7.5t21 -12q0 -14 -29 -14q-32 0 -103 3t-114 3q-31 0 -99.5 -3t-111.5 -3q-28 0 -28 14z" />
<glyph unicode="&#xff;" horiz-adv-x="1280" d="M0 1208q0 19 63 19q18 0 68 -4t90 -4q12 0 62 4t84 4q53 0 53 -17q0 -1 -29 -12q-33 -8 -33 -22q0 -33 54 -113l231 -356q28 -45 39 -45q9 0 29 30l204 312q29 42 49.5 91.5t20.5 73.5q0 21 -24 31q-21 5 -21 10q0 15 39 15q17 0 56.5 -3t64.5 -3q19 0 61.5 4t69.5 4 q49 0 49 -17q0 -5 -17 -8.5t-38.5 -6.5t-28.5 -7q-68 -35 -117 -111l-305 -469q-37 -58 -37 -96v-319q0 -113 37 -138q31 -23 78 -30q41 -7 41 -17t-10 -12t-41 -2q-23 0 -85 3t-108 3q-51 0 -117.5 -3t-76.5 -3q-49 0 -49 14q0 3 4 5.5t10 4t12 2.5t12.5 2t8.5 1 q55 7 81.5 46.5t26.5 114.5v326q0 34 -24 68l-357 518q-45 65 -80 82q-10 5 -59 16q-41 7 -41 14zM428 1415q0 37 27.5 60.5t66.5 23.5q40 0 67 -23t27 -61q0 -37 -27.5 -60.5t-66.5 -23.5t-66.5 23.5t-27.5 60.5zM739 1415q0 37 28 60.5t67 23.5q40 0 67 -23t27 -61 q0 -37 -27.5 -60.5t-66.5 -23.5t-67 23.5t-28 60.5z" />
<glyph unicode="&#x152;" horiz-adv-x="1957" d="M82 705q0 214 88 387t251 273.5t372 100.5q68 0 192.5 -14.5t179.5 -17.5h56q92 0 275.5 7t295.5 7q12 0 12 -18q0 -6 -1 -18t-1 -15q0 -22 2 -72t2 -70q0 -24 -10 -24q-7 0 -11 6t-6.5 17t-4.5 14q-24 54 -66.5 72t-138.5 18h-215q-31 0 -43.5 -8t-12.5 -35v-477 q0 -24 5.5 -29.5t29.5 -5.5h244q74 0 94 26q14 17 20 46.5t9.5 49t13.5 19.5q12 0 12 -51q0 -18 -3 -61.5t-3 -59.5q0 -26 2 -83t2 -81q0 -28 -12 -28q-6 0 -9 12.5t-5 31t-4 25.5q-12 40 -37 52t-84 12h-248q-18 0 -22.5 -7t-4.5 -26v-477q0 -34 14.5 -57.5t33 -35t51 -18 t54 -7.5t56.5 -1q137 0 209 25q32 11 56 37t36 46.5t17 20.5q10 0 10 -16q-3 -22 -31 -105q-26 -67 -37.5 -82.5t-33.5 -15.5q-78 0 -255 3t-255 3q-87 0 -216 -16.5t-196 -16.5q-153 0 -287.5 55t-232 151t-153.5 234t-56 298zM276 786q0 -201 70.5 -370.5t204.5 -274 t305 -104.5q120 0 180 22q42 15 53.5 37t16.5 88q8 131 8 377v668q0 44 -7 67.5t-18 32.5t-36 21q-91 43 -230 43q-32 0 -129 -9q-108 -13 -191.5 -72t-131 -145t-71.5 -183t-24 -198z" />
<glyph unicode="&#x153;" horiz-adv-x="1744" d="M82 598q0 184 78.5 332t223 232.5t329.5 84.5q55 0 168.5 -14t177.5 -14q73 0 244 6t272 6q20 0 20 -19q0 -2 -1 -16t-1 -22q0 -19 2 -52.5t2 -56.5q0 -9 -0.5 -12.5t-4.5 -7t-13 -3.5t-13.5 3.5t-8 15t-5.5 14.5q-25 45 -60 60.5t-112 15.5h-188q-22 0 -31.5 -6.5 t-9.5 -28.5v-403q0 -19 4 -24t19 -5h212q58 0 78 23q8 9 13 26.5t6.5 32t7 26t16.5 11.5q19 0 19 -43q0 -16 -3 -56t-3 -59q0 -56 2 -92t2 -37q0 -24 -19 -24q-9 0 -13 8t-8 34q-2 11 -3 17q-9 53 -99 53h-215q-10 0 -13 -5.5t-3 -20.5v-404q0 -23 7 -40.5t22 -27.5 t29.5 -16.5t38 -9.5t38.5 -3.5t39 -0.5q125 0 182 20q46 16 74 70q10 18 25 18q8 0 12 -5t4 -9q0 -11 -5 -25t-13.5 -33.5t-12.5 -31.5q-25 -60 -35 -73t-32 -13q-148 0 -226 2q-152 4 -221 4q-71 0 -171 -14.5t-169 -14.5q-138 0 -258.5 46t-208 127.5t-138 199 t-50.5 254.5zM274 666q0 -124 34 -237t96 -201t156.5 -140.5t207.5 -52.5q121 0 170 43q25 22 30 85t5 271v631q0 50 -83.5 83.5t-191.5 33.5q-89 0 -161.5 -31t-120.5 -81.5t-80.5 -118.5t-47 -139t-14.5 -146z" />
<glyph unicode="&#x178;" horiz-adv-x="1359" d="M-41 1423q0 21 61 21q23 0 77 -5t81 -5q42 0 100 5t89 5q53 0 53 -17q0 -5 -35 -15t-35 -26q0 -35 62 -135l266 -422q23 -35 33 -47t18 -12q14 0 39 41l233 371q33 52 56.5 110t23.5 86q0 18 -12.5 27t-25.5 12.5t-13 7.5q0 15 35 15q31 0 80 -3t59 -3q30 0 75 5t75 5 q16 0 31.5 -5.5t15.5 -13.5q0 -6 -15 -8.5t-38.5 -5t-36.5 -8.5q-75 -34 -137 -131l-349 -553q-43 -67 -43 -117v-379q0 -128 45 -164q22 -17 56 -26t54.5 -13t20.5 -12q0 -6 -2 -9.5t-9.5 -4.5t-14.5 -1.5t-23 -0.5q-31 0 -110 4t-109 4q-72 0 -137 -4t-86 -4q-45 0 -45 14 q0 10 43 17q70 7 101.5 53t31.5 139v385q0 5 -0.5 10t-1 9t-2 9t-2 7.5t-3 8t-3.5 7t-4.5 7.5t-4.5 7.5t-5 8.5t-5 8l-403 612q-50 74 -94 97q-16 8 -44.5 13.5t-47.5 9t-19 9.5zM451 1632q0 41 28.5 69t69.5 28q40 0 69 -27t29 -66q0 -43 -28 -71.5t-72 -28.5 q-41 0 -68.5 28t-27.5 68zM805 1632q0 41 28.5 69t69.5 28t69.5 -26.5t28.5 -66.5q0 -43 -27.5 -71.5t-70.5 -28.5q-42 0 -70 28t-28 68z" />
<glyph unicode="&#x2c6;" horiz-adv-x="548" d="M0 1559q0 10 23 28l24 17q17 11 85 58t112 74.5t57 28.5q8 0 35 -20l12 -8q168 -109 191 -109q10 0 10 -8q0 -6 -41.5 -47t-52.5 -41q-10 0 -101.5 58.5t-101.5 58.5q-12 0 -107.5 -55.5t-121.5 -55.5q-23 0 -23 21z" />
<glyph unicode="&#x2dc;" horiz-adv-x="567" d="M10 1552q0 27 64.5 91.5t120.5 64.5q55 0 101.5 -18.5t81.5 -37t62 -18.5q29 0 49 16.5t31.5 33t18.5 16.5q18 0 18 -19q0 -41 -48.5 -92t-98.5 -51q-59 0 -131.5 34t-112.5 34q-39 0 -68 -18t-45.5 -36t-25.5 -18q-17 0 -17 18z" />
<glyph unicode="&#x2000;" horiz-adv-x="903" />
<glyph unicode="&#x2001;" horiz-adv-x="1806" />
<glyph unicode="&#x2002;" horiz-adv-x="903" />
<glyph unicode="&#x2003;" horiz-adv-x="1806" />
<glyph unicode="&#x2004;" horiz-adv-x="602" />
<glyph unicode="&#x2005;" horiz-adv-x="451" />
<glyph unicode="&#x2006;" horiz-adv-x="301" />
<glyph unicode="&#x2007;" horiz-adv-x="301" />
<glyph unicode="&#x2008;" horiz-adv-x="225" />
<glyph unicode="&#x2009;" horiz-adv-x="361" />
<glyph unicode="&#x200a;" horiz-adv-x="100" />
<glyph unicode="&#x2010;" horiz-adv-x="821" d="M123 672q0 4 4 8l61 82q14 14 50 20l352 49q8 1 25 5t31 6t24 2q28 0 28 -27t-7 -41t-27 -18l-355 -92l-45.5 -13t-68.5 -18.5t-41 -7.5q-5 0 -11 6q-20 31 -20 39z" />
<glyph unicode="&#x2011;" horiz-adv-x="821" d="M123 672q0 4 4 8l61 82q14 14 50 20l352 49q8 1 25 5t31 6t24 2q28 0 28 -27t-7 -41t-27 -18l-355 -92l-45.5 -13t-68.5 -18.5t-41 -7.5q-5 0 -11 6q-20 31 -20 39z" />
<glyph unicode="&#x2012;" horiz-adv-x="821" d="M123 672q0 4 4 8l61 82q14 14 50 20l352 49q8 1 25 5t31 6t24 2q28 0 28 -27t-7 -41t-27 -18l-355 -92l-45.5 -13t-68.5 -18.5t-41 -7.5q-5 0 -11 6q-20 31 -20 39z" />
<glyph unicode="&#x2013;" horiz-adv-x="921" d="M41 713q0 3 6 24l14 41q3 12 9 14.5t28 2.5h750q35 0 35 -9q0 -8 -4 -20l-15 -39q-4 -17 -10 -22t-20 -5h-756q-37 0 -37 13z" />
<glyph unicode="&#x2014;" horiz-adv-x="1843" d="M41 713q0 3 6 24l14 41q3 12 9 14.5t28 2.5h1669q35 0 35 -9q0 -8 -4 -20l-14 -39q-4 -17 -10.5 -22t-20.5 -5h-1675q-37 0 -37 13z" />
<glyph unicode="&#x2018;" horiz-adv-x="352" d="M82 1145q0 52 34 129.5t75.5 133.5t62.5 56q4 0 8 -4t4 -8q0 -11 -16 -39.5t-32.5 -69t-16.5 -81.5q0 -33 16.5 -61t32.5 -46t16 -27q0 -22 -44 -66t-68 -44q-19 0 -45.5 46t-26.5 81z" />
<glyph unicode="&#x2019;" horiz-adv-x="352" d="M84 1032q0 10 17 38.5t34 69.5t17 83q0 33 -16.5 60.5t-33 45t-16.5 27.5q0 21 43.5 64.5t67.5 43.5q19 0 46 -46t27 -81q0 -52 -34 -127.5t-75 -130t-63 -61.5q-5 0 -9.5 4t-4.5 10z" />
<glyph unicode="&#x201a;" horiz-adv-x="339" d="M84 -186q0 10 17 38t34 68.5t17 81.5q0 33 -16.5 60.5t-33 45.5t-16.5 27q0 22 43.5 66.5t67.5 44.5q19 0 46 -46t27 -81q0 -53 -34 -128.5t-75 -130t-63 -61.5q-5 0 -9.5 4.5t-4.5 10.5z" />
<glyph unicode="&#x201c;" horiz-adv-x="598" d="M74 1145q0 52 34 129.5t75.5 133.5t62.5 56q4 0 8 -4t4 -8q0 -11 -16 -39.5t-32.5 -69t-16.5 -81.5q0 -33 16.5 -61t32.5 -46t16 -27q0 -22 -44.5 -66t-68.5 -44q-19 0 -45 46t-26 81zM340 1145q0 51 34.5 129t76 134t61.5 56q5 0 9.5 -4t4.5 -8q0 -11 -17 -39.5 t-33.5 -69t-16.5 -81.5q0 -33 16.5 -61t32.5 -46t16 -27q0 -22 -43 -66t-67 -44q-19 0 -46.5 46t-27.5 81z" />
<glyph unicode="&#x201d;" horiz-adv-x="600" d="M76 1032q0 10 16.5 38.5t33.5 69.5t17 83q0 33 -16.5 60.5t-32.5 45t-16 27.5q0 21 42.5 64.5t67.5 43.5q19 0 46.5 -46t27.5 -81q0 -52 -34 -127t-75 -130t-63 -62q-5 0 -9.5 4t-4.5 10zM344 1032q0 10 16.5 38.5t33 69.5t16.5 83q0 33 -16.5 60.5t-33 45t-16.5 27.5 q0 26 44 67t69 41q19 0 45 -46t26 -81q0 -53 -34 -128.5t-75 -130.5t-63 -60q-12 0 -12 14z" />
<glyph unicode="&#x201e;" horiz-adv-x="598" d="M76 -186q0 10 16.5 38t33.5 68.5t17 81.5q0 33 -16.5 60.5t-32.5 45.5t-16 27q0 34 38 72.5t72 38.5q19 0 46.5 -46t27.5 -81q0 -52 -34 -127.5t-75 -130.5t-63 -62q-5 0 -9.5 4.5t-4.5 10.5zM344 135q0 34 39.5 72.5t73.5 38.5q19 0 45 -46t26 -81q0 -54 -34 -130 t-75 -130.5t-63 -59.5q-5 0 -8.5 4.5t-3.5 10.5q0 10 16.5 38t33 68.5t16.5 81.5q0 33 -16.5 60.5t-33 45.5t-16.5 27z" />
<glyph unicode="&#x2022;" horiz-adv-x="593" d="M158 743q0 6 18 27l100 98q13 13 21 13q4 0 20 -13l105 -106q14 -14 14 -19q0 -11 -14 -22l-98 -98q-21 -21 -25 -21q-10 0 -31 21l-92 92q-18 15 -18 28z" />
<glyph unicode="&#x2026;" horiz-adv-x="1347" d="M121 94q0 45 30 77t74 32t73.5 -30.5t29.5 -74.5q0 -45 -30 -77.5t-75 -32.5q-44 0 -73 31t-29 75zM571 94q0 42 27.5 75.5t75.5 33.5q44 0 73 -28.5t29 -72.5q0 -48 -28 -81t-76 -33q-47 0 -74 32t-27 74zM1020 94q0 45 30 77t74 32t73.5 -30.5t29.5 -74.5 q0 -45 -30 -77.5t-75 -32.5q-44 0 -73 31t-29 75z" />
<glyph unicode="&#x202f;" horiz-adv-x="361" />
<glyph unicode="&#x2039;" horiz-adv-x="628" d="M82 741q0 11 12.5 25t46.5 45l324 291q40 37 57 37q23 0 23 -23q0 -13 -35 -53l-201 -229q-55 -64 -55 -80q0 -22 45 -70l209 -221q39 -42 39 -53q0 -6 -17 -23l-10 -10q-24 -21 -33 -21q-11 0 -49 35l-323 305q-33 33 -33 45z" />
<glyph unicode="&#x203a;" horiz-adv-x="622" d="M82 1081q0 7 18 25l11 10q21 21 30 21q11 0 37 -23l301 -278q62 -56 62 -84q0 -16 -15 -33.5t-61 -59.5l-299 -268q-40 -37 -57 -37q-23 0 -23 23q0 13 35 53l201 229q31 35 43 51.5t12 30.5q0 20 -45 68l-209 221q-6 6 -14.5 15t-12 13t-7.5 9t-5.5 8t-1.5 6z" />
<glyph unicode="&#x205f;" horiz-adv-x="451" />
<glyph unicode="&#x20ac;" horiz-adv-x="1382" d="M14 608q0 2 1.5 5t3.5 8.5t4 11.5l12 41q4 12 9.5 14t27.5 2h104v43q0 20 4 60h-125q-37 0 -37 12q0 2 1.5 4.5t3.5 8t4 11.5l12 41q5 12 10 14.5t27 2.5h114q19 117 62.5 218t112 183.5t170 130t223.5 47.5q66 0 125.5 -13t93 -28t67.5 -28t56 -13q8 0 16 5.5t14 5.5 q9 0 9 -23q0 -15 -4.5 -49t-4.5 -47q0 -16 3.5 -60t3.5 -67q0 -53 -17 -53q-9 0 -15.5 14.5t-17 45.5t-22.5 54q-95 185 -346 185q-314 0 -336 -508h635q35 0 35 -8q0 -4 -6 -19l-13 -41q-4 -17 -10 -21.5t-20 -4.5h-621q0 -70 2 -103h567q35 0 35 -8q-1 -1 -1.5 -5 t-2.5 -12t-6 -18t-8 -21.5t-5.5 -15.5t-4.5 -8t-7.5 -5t-13.5 -1h-549q12 -127 40.5 -226.5t77 -176t122 -117.5t168.5 -41q69 0 128 29.5t122 87.5q32 29 54.5 69.5t32 65t15.5 24.5q16 0 16 -39q0 -16 -7 -51t-17 -79.5t-13 -63.5q-7 -46 -138 -78.5t-259 -32.5 q-216 0 -369.5 174.5t-181.5 454.5h-129q-37 0 -37 12z" />
<glyph unicode="&#x2122;" horiz-adv-x="1671" d="M41 1346q0 14 13.5 58t23.5 44q1 0 27.5 -3.5t65.5 -7t73 -3.5h274q22 0 76 2t76 2q18 0 18 -19q0 -28 -10 -65t-21 -37q-10 0 -14 18q-2 8 -10 14t-21 9.5t-26.5 5.5t-31 2.5t-29 0.5t-27 -0.5t-19.5 -0.5h-43q-6 -2 -6 -8v-176q0 -38 -1 -115.5t-1 -116.5v-43 q0 -139 14 -155q8 -11 28 -17t36 -9.5t16 -10.5q0 -19 -45 -19h-12q-54 4 -88 4q-19 0 -58.5 -2t-60.5 -2q-31 0 -31 15q0 3 1 5.5t3.5 4.5t5 3t7 2t6.5 1.5t8 1t8 0.5q11 2 19 7t12.5 16t7.5 21t4 29t1 31t-0.5 37.5t-0.5 38.5v434q-1 8 -3.5 13.5t-8 7.5t-8.5 2.5t-10.5 0 t-8.5 -0.5h-155q-17 0 -28 -12t-17.5 -23.5t-12.5 -11.5q-16 0 -16 27zM659 711q0 9 19 14q20 8 32.5 18.5t19 27.5t9 29t6.5 40q10 72 26 219t26 219l20 147q4 27 21 27q13 0 26 -22q47 -84 128 -240t112 -213l16 -31q3 -5 7.5 -14t7 -15t6 -12t6 -9t4.5 -3t6 4l8 16 q45 81 118 230t117 230t60 81q9 0 18 -33t17 -90.5t14 -109t12.5 -114.5t8.5 -81l20 -174q9 -92 31 -107q8 -12 28.5 -16t20.5 -16q0 -19 -51 -19h-8q-81 6 -96 6q-11 0 -38 -2t-46 -2q-35 0 -35 17q0 13 24 16q17 3 27 9t15 19t6.5 19.5t3.5 26.5v24q0 11 -3 33.5t-4 32.5 l-28 270q0 19 -4 19q-14 -20 -41 -76l-148 -287q-4 -8 -12.5 -26t-15 -30.5t-14 -26.5t-15 -21.5t-14.5 -7.5t-14 6.5t-14.5 19t-13 23.5t-13 27.5t-11.5 23.5l-158 299q-4 7 -16.5 31.5t-19.5 36.5t-11 12q-3 0 -10 -88l-21 -217q-4 -54 -4 -86q0 -33 11.5 -49.5 t42.5 -20.5q2 0 5 -1q19 -3 19 -13q0 -17 -31 -17q-12 0 -43.5 3t-52.5 3q-13 0 -41 -3t-43 -3q-35 0 -35 17z" />
<glyph unicode="&#xe000;" horiz-adv-x="1228" d="M0 0v1229h1229v-1229h-1229z" />
</font>
</defs>
</svg>
