<?xml version="1.0" standalone="no"?>
<!DOCTYPE svg PUBLIC "-//W3C//DTD SVG 1.1//EN" "http://www.w3.org/Graphics/SVG/1.1/DTD/svg11.dtd" >
<svg xmlns="http://www.w3.org/2000/svg">
<metadata></metadata>
<defs>
<font id="goudy_trajan_boldbold" horiz-adv-x="1486" >
<font-face units-per-em="2048" ascent="1638" descent="-410" />
<missing-glyph horiz-adv-x="716" />
<glyph unicode="&#xfb01;" horiz-adv-x="1691" d="M90 1208q0 17 84 17q25 0 81.5 -3t92.5 -3h166q128 0 205 3.5t103 7t32 3.5q16 0 16 -45q0 -25 6.5 -70.5t6.5 -56.5q0 -41 -19 -41q-8 0 -12.5 4t-5.5 9.5t-4 19t-6 24.5q-18 62 -170 62h-183q-18 0 -21 -5t-3 -32v-408q0 -14 3.5 -18t16.5 -4h131q89 0 131 33 q17 15 21 57q1 11 2.5 17t6.5 11t13 5q23 0 23 -35q0 -18 -4 -58t-4 -59q0 -18 6 -117q2 -18 2 -53q0 -41 -23 -41q-24 0 -24 39q0 72 -15 90q-16 16 -45 23.5t-98 7.5h-123q-13 0 -16.5 -4.5t-3.5 -20.5v-295q0 -99 5.5 -150t22.5 -63q5 -5 12.5 -8.5t12.5 -5t17 -4.5 l16 -4q4 0 12 -2t12 -2q27 -5 27 -19q0 -20 -53 -20q-25 0 -99 4q-35 2 -94 2q-64 0 -162 -4q-25 -2 -57 -2q-31 0 -31 16q0 11 45 19q23 4 35 10q28 9 33 37q14 54 20.5 132.5t7.5 141.5t1 193v516q0 57 -10 82.5t-48 36.5q-17 6 -42.5 8.5t-38.5 6.5t-13 15zM1065 12 q0 11 26.5 17t58.5 11t40 13q39 36 39 166v836q0 57 -7.5 83.5t-27.5 35.5q-13 6 -40 12t-43.5 11t-16.5 13q0 17 47 17q17 0 86.5 -4t109.5 -4q39 0 112.5 6t90.5 6q49 0 49 -17q0 -12 -18.5 -16.5t-46 -9t-41.5 -14.5q-23 -17 -30 -47.5t-7 -77.5v-789q0 -64 2.5 -98.5 t9 -62t23 -39.5t38 -18.5t60.5 -10.5q31 -3 31 -19q0 -18 -33 -18q-5 0 -82 3t-160 3q-102 0 -166 -4t-65 -4q-39 0 -39 20z" />
<glyph unicode="&#xfb02;" horiz-adv-x="1982" d="M90 1208q0 17 84 17q25 0 81.5 -3t92.5 -3h166q128 0 205 3.5t103 7t32 3.5q16 0 16 -45q0 -25 6.5 -70.5t6.5 -56.5q0 -41 -19 -41q-8 0 -12.5 4t-5.5 9.5t-4 19t-6 24.5q-18 62 -170 62h-183q-18 0 -21 -5t-3 -32v-408q0 -14 3.5 -18t16.5 -4h131q89 0 131 33 q17 15 21 57q1 11 2.5 17t6.5 11t13 5q23 0 23 -35q0 -18 -4 -58t-4 -59q0 -18 6 -117q2 -18 2 -53q0 -41 -23 -41q-24 0 -24 39q0 72 -15 90q-16 16 -45 23.5t-98 7.5h-123q-13 0 -16.5 -4.5t-3.5 -20.5v-295q0 -99 5.5 -150t22.5 -63q5 -5 12.5 -8.5t12.5 -5t17 -4.5 l16 -4q4 0 12 -2t12 -2q27 -5 27 -19q0 -20 -53 -20q-25 0 -99 4q-35 2 -94 2q-64 0 -162 -4q-25 -2 -57 -2q-31 0 -31 16q0 11 45 19q23 4 35 10q28 9 33 37q14 54 20.5 132.5t7.5 141.5t1 193v516q0 57 -10 82.5t-48 36.5q-17 6 -42.5 8.5t-38.5 6.5t-13 15zM1073 12 q0 13 24.5 16.5t57.5 11t47 28.5q19 29 23 67.5t4 165.5v741q0 64 -4.5 84.5t-22.5 38.5q-9 9 -34.5 15t-44.5 11t-19 15q0 21 41 21q13 0 81.5 -4t106.5 -4q35 0 109 5t96 5q43 0 43 -19q0 -11 -15.5 -16t-41.5 -9t-39 -11q-26 -14 -32.5 -40t-6.5 -96v-800 q0 -63 14.5 -100.5t38.5 -43.5q45 -12 166 -12q101 0 150.5 21t68.5 81q13 41 31 41q24 0 24 -28q0 -11 -16 -59t-20 -64q-15 -65 -21 -72q-8 -10 -35 -10q-9 0 -76 2t-184.5 4t-249.5 2q-32 0 -82.5 -1.5t-90.5 -3t-44 -1.5q-12 0 -18 0.5t-14 2t-11.5 5.5t-3.5 10z" />
<glyph unicode="&#xfb03;" horiz-adv-x="2678" d="M90 1208q0 17 84 17q25 0 81.5 -3t92.5 -3h166q128 0 205 3.5t103 7t32 3.5q16 0 16 -45q0 -25 6.5 -70.5t6.5 -56.5q0 -41 -19 -41q-8 0 -12.5 4t-5.5 9.5t-4 19t-6 24.5q-18 62 -170 62h-183q-18 0 -21 -5t-3 -32v-408q0 -14 3.5 -18t16.5 -4h131q89 0 131 33 q17 15 21 57q1 11 2.5 17t6.5 11t13 5q23 0 23 -35q0 -18 -4 -58t-4 -59q0 -18 6 -117q2 -18 2 -53q0 -41 -23 -41q-24 0 -24 39q0 72 -15 90q-16 16 -45 23.5t-98 7.5h-123q-13 0 -16.5 -4.5t-3.5 -20.5v-295q0 -99 5.5 -150t22.5 -63q5 -5 12.5 -8.5t12.5 -5t17 -4.5 l16 -4q4 0 12 -2t12 -2q27 -5 27 -19q0 -20 -53 -20q-25 0 -99 4q-35 2 -94 2q-64 0 -162 -4q-25 -2 -57 -2q-31 0 -31 16q0 11 45 19q23 4 35 10q28 9 33 37q14 54 20.5 132.5t7.5 141.5t1 193v516q0 57 -10 82.5t-48 36.5q-17 6 -42.5 8.5t-38.5 6.5t-13 15zM1077 1208 q0 17 84 17q25 0 81.5 -3t92.5 -3h166q128 0 205 3.5t103 7t32 3.5q17 0 17 -45q0 -25 6 -70.5t6 -56.5q0 -41 -19 -41q-8 0 -12.5 4t-5.5 9.5t-4 19t-6 24.5q-18 62 -170 62h-183q-18 0 -21 -5t-3 -32v-408q0 -14 4 -18t16 -4h131q90 0 132 33q16 14 20 57q4 33 23 33 q11 0 16 -7t5.5 -12t0.5 -16q0 -18 -4 -58t-4 -59q0 -18 6 -117q2 -18 2 -53q0 -41 -22 -41q-25 0 -25 39q0 73 -14 90q-16 16 -45.5 23.5t-98.5 7.5h-123q-13 0 -16.5 -4.5t-3.5 -20.5v-295q0 -192 29 -213q10 -10 57 -22q4 0 12 -2t12 -2q27 -5 27 -19q0 -20 -53 -20 q-24 0 -98 4q-35 2 -95 2q-63 0 -161 -4q-25 -2 -58 -2q-31 0 -31 16q0 11 46 19q21 3 34 10q28 9 33 37q14 54 20.5 132.5t7.5 141.5t1 193v516q0 57 -10 82.5t-48 36.5q-17 6 -42.5 8.5t-38.5 6.5t-13 15zM2052 12q0 11 26.5 17t58.5 11t40 13q39 36 39 166v836 q0 57 -7.5 83.5t-27.5 35.5q-13 6 -40 12t-43.5 11t-16.5 13q0 17 47 17q17 0 86.5 -4t109.5 -4q39 0 112.5 6t90.5 6q49 0 49 -17q0 -12 -18.5 -16.5t-46 -9t-41.5 -14.5q-23 -17 -30 -47.5t-7 -77.5v-789q0 -64 2.5 -98.5t9 -62t23 -39.5t38 -18.5t60.5 -10.5 q31 -3 31 -19q0 -18 -33 -18q-6 0 -82 3t-160 3q-102 0 -166 -4t-65 -4q-39 0 -39 20z" />
<glyph unicode="&#xfb04;" horiz-adv-x="2969" d="M90 1208q0 17 84 17q25 0 81.5 -3t92.5 -3h166q128 0 205 3.5t103 7t32 3.5q16 0 16 -45q0 -25 6.5 -70.5t6.5 -56.5q0 -41 -19 -41q-8 0 -12.5 4t-5.5 9.5t-4 19t-6 24.5q-18 62 -170 62h-183q-18 0 -21 -5t-3 -32v-408q0 -14 3.5 -18t16.5 -4h131q89 0 131 33 q17 15 21 57q1 11 2.5 17t6.5 11t13 5q23 0 23 -35q0 -18 -4 -58t-4 -59q0 -18 6 -117q2 -18 2 -53q0 -41 -23 -41q-24 0 -24 39q0 72 -15 90q-16 16 -45 23.5t-98 7.5h-123q-13 0 -16.5 -4.5t-3.5 -20.5v-295q0 -99 5.5 -150t22.5 -63q5 -5 12.5 -8.5t12.5 -5t17 -4.5 l16 -4q4 0 12 -2t12 -2q27 -5 27 -19q0 -20 -53 -20q-25 0 -99 4q-35 2 -94 2q-64 0 -162 -4q-25 -2 -57 -2q-31 0 -31 16q0 11 45 19q23 4 35 10q28 9 33 37q14 54 20.5 132.5t7.5 141.5t1 193v516q0 57 -10 82.5t-48 36.5q-17 6 -42.5 8.5t-38.5 6.5t-13 15zM1077 1208 q0 17 84 17q25 0 81.5 -3t92.5 -3h166q128 0 205 3.5t103 7t32 3.5q17 0 17 -45q0 -25 6 -70.5t6 -56.5q0 -41 -19 -41q-8 0 -12.5 4t-5.5 9.5t-4 19t-6 24.5q-18 62 -170 62h-183q-18 0 -21 -5t-3 -32v-408q0 -14 4 -18t16 -4h131q90 0 132 33q16 14 20 57q4 33 23 33 q11 0 16 -7t5.5 -12t0.5 -16q0 -18 -4 -58t-4 -59q0 -18 6 -117q2 -18 2 -53q0 -41 -22 -41q-25 0 -25 39q0 73 -14 90q-16 16 -45.5 23.5t-98.5 7.5h-123q-13 0 -16.5 -4.5t-3.5 -20.5v-295q0 -192 29 -213q10 -10 57 -22q4 0 12 -2t12 -2q27 -5 27 -19q0 -20 -53 -20 q-24 0 -98 4q-35 2 -95 2q-63 0 -161 -4q-25 -2 -58 -2q-31 0 -31 16q0 11 46 19q21 3 34 10q28 9 33 37q14 54 20.5 132.5t7.5 141.5t1 193v516q0 57 -10 82.5t-48 36.5q-17 6 -42.5 8.5t-38.5 6.5t-13 15zM2060 12q0 13 24.5 16.5t57.5 11t47 28.5q19 29 23 67.5t4 165.5 v741q0 64 -4.5 84.5t-22.5 38.5q-9 9 -34.5 15t-44.5 11t-19 15q0 21 41 21q13 0 81.5 -4t106.5 -4q35 0 109 5t96 5q43 0 43 -19q0 -11 -15.5 -16t-41.5 -9t-39 -11q-26 -14 -32.5 -40t-6.5 -96v-800q0 -63 14.5 -100.5t38.5 -43.5q45 -12 166 -12q101 0 150.5 21t68.5 81 q13 41 31 41q25 0 25 -28q0 -11 -16.5 -58.5t-20.5 -64.5q-15 -65 -21 -72q-8 -10 -35 -10q-9 0 -76 2t-184.5 4t-249.5 2q-32 0 -82.5 -1.5t-90.5 -3t-44 -1.5q-12 0 -18 0.5t-14 2t-11.5 5.5t-3.5 10z" />
<glyph horiz-adv-x="2048" />
<glyph horiz-adv-x="2048" />
<glyph unicode="&#xd;" horiz-adv-x="2048" />
<glyph unicode=" "  horiz-adv-x="716" />
<glyph unicode="&#x09;" horiz-adv-x="716" />
<glyph unicode="&#xa0;" horiz-adv-x="716" />
<glyph unicode="!" horiz-adv-x="495" d="M125 1386q-4 46 32 63t91 17t91 -17t32 -63l-84 -921q-1 -24 -13.5 -41.5t-25.5 -17.5q-12 0 -25 19t-14 40zM139 98q0 44 32.5 76.5t76.5 32.5t76 -32.5t32 -76.5t-32 -76t-76 -32t-76.5 32t-32.5 76z" />
<glyph unicode="&#x22;" horiz-adv-x="684" d="M102 1458q46 -4 91 -4l90 4l-56 -368q-9 -74 -34 -74q-24 0 -33 74zM401 1458q46 -4 91 -4l90 4l-58 -368q-9 -74 -32 -74q-25 0 -35 69z" />
<glyph unicode="#" horiz-adv-x="1097" d="M61 438v154h248l45 287h-235v157h256l61 406h117l-64 -406h228l59 406h115l-60 -406h205v-157h-225l-43 -287h215v-154h-235l-64 -438h-113l60 438h-230l-65 -438h-115l68 438h-228zM424 592h231l41 287h-225z" />
<glyph unicode="$" horiz-adv-x="964" d="M123 137v121q0 33 7.5 72t23.5 39q11 0 14 -15t5.5 -43t10.5 -47q50 -122 187 -143l32 538l-96 68q-184 131 -184 346q0 140 87.5 223t240.5 95l4 67q1 8 2.5 12t4 5.5t7.5 1.5h76q10 0 10 -9q0 -1 -2 -33t-2 -38v-6q44 -3 103 -15t67 -12q21 0 38 6t27 6q7 0 7 -8 q0 -7 -4.5 -26.5t-4.5 -26.5t1 -27t1 -53q0 -34 -0.5 -50.5t-3 -46t-9 -43.5t-17.5 -14q-13 0 -17.5 18.5t-5 44t-15.5 60t-46 60.5q-54 43 -127 55l-31 -477l82 -54q43 -29 73.5 -52t65.5 -57.5t56.5 -68.5t36 -80.5t14.5 -97.5q0 -196 -156 -309q-91 -67 -221 -78l-4 -70 q-1 -12 -6 -15t-17 -3h-65q-13 0 -13 8q0 3 2.5 31.5t2.5 34.5v12q-19 1 -35.5 3t-33.5 5.5t-27.5 6t-29 8t-26 8t-29 10.5t-28.5 10q-11 4 -17 7t-11 12t-5 24zM285 1124q0 -76 30 -121t105 -98l24 414q-67 -14 -113 -62.5t-46 -132.5zM469 117q97 8 152 66t55 165 q0 35 -8.5 64.5t-21.5 51.5t-37.5 46t-46 40t-58.5 42l-4 2z" />
<glyph unicode="%" horiz-adv-x="2019" d="M102 963q0 126 31 223.5t83.5 154t115.5 85t133 28.5q80 0 147 -43t108.5 -109.5t64 -142.5t22.5 -147q0 -95 -22 -177t-65 -146t-112 -101t-157 -37q-97 0 -178.5 60t-126 154t-44.5 198zM283 1069q0 -228 48 -341.5t158 -113.5q74 0 106 67t32 224q0 79 -4 143.5 t-16 130.5t-31.5 110.5t-53.5 73t-80 28.5q-38 0 -66 -14t-46 -39.5t-28.5 -67t-14.5 -89t-4 -112.5zM629 -96q0 12 4 18l655 1655q6 18 17 18q4 0 12 -4l80 -28q8 -3 8 -15q0 -6 -2 -10l-662 -1665q-6 -20 -16 -20q-6 0 -8 2l-78 32q-10 7 -10 17zM1212 391q0 126 31 223.5 t83.5 154.5t115.5 85.5t133 28.5q80 0 147 -43t108.5 -110t64 -143t22.5 -147q0 -128 -37.5 -229.5t-119.5 -166t-199 -64.5q-97 0 -178.5 59.5t-126 153.5t-44.5 198zM1393 498q0 -228 48 -341.5t158 -113.5q74 0 106 67t32 224q0 79 -4 143t-16 130.5t-31.5 111 t-53.5 72.5t-80 28q-92 0 -125.5 -78t-33.5 -243z" />
<glyph unicode="&#x26;" horiz-adv-x="1634" d="M82 498q0 119 69.5 228.5t178.5 172.5q20 7 20 16q0 7 -16 15q-125 79 -125 207q0 66 21.5 121t59.5 93.5t90 65t112.5 39t128.5 12.5q60 0 124 -21.5t112.5 -43t70.5 -21.5q6 0 18.5 3.5t18.5 3.5q8 0 8 -13q0 -14 -2 -42t-2 -42q0 -26 5 -77t5 -76q0 -43 -16 -43 q-9 0 -12.5 4t-6.5 20t-6 25q-7 21 -39 69q-54 79 -136.5 125.5t-168.5 46.5q-77 0 -125.5 -55t-48.5 -162q0 -108 64.5 -179.5t172.5 -71.5q56 0 56 -21q0 -16 -21.5 -22.5t-42.5 -6.5q-157 0 -237 -90t-80 -254q0 -218 111.5 -346.5t314.5 -128.5q87 0 154 18t118.5 57 t79 107.5t27.5 163.5q0 168 -50 248q-42 19 -114 19q-230 0 -230 -146q0 -48 25 -70q1 -1 13 -7t21 -14.5t9 -18.5q0 -21 -31 -21q-47 0 -78.5 51.5t-31.5 104.5q0 140 70.5 199t207.5 59q132 0 242 -11q20 -2 51.5 -7t58 -8t52.5 -3q24 0 38 0.5t39.5 4t40 10.5t26 21 t11.5 34q0 23 -13.5 34t-29.5 11q-26 0 -26 24q0 25 39 25q40 0 68 -52.5t28 -97.5q0 -90 -55.5 -126.5t-161.5 -36.5q14 -39 14 -113q0 -120 -49 -221q-55 -112 -150 -185.5t-204.5 -104t-239.5 -30.5q-105 0 -198 18.5t-175.5 59.5t-142.5 102t-94.5 150.5t-34.5 200.5z " />
<glyph unicode="'" horiz-adv-x="385" d="M102 1458q46 -4 91 -4l90 4l-56 -368q-9 -74 -34 -74q-24 0 -33 74z" />
<glyph unicode="(" horiz-adv-x="602" d="M61 700q0 108 22 211.5t57.5 186t84 158t98 130.5t103.5 101q11 11 43 30t47 19q25 0 25 -18q0 -5 -2.5 -10.5t-7 -11.5t-9 -11.5t-11.5 -12t-11.5 -10.5t-11.5 -10t-9 -8q-96 -95 -155.5 -280t-59.5 -439q0 -268 51 -445.5t164 -308.5q3 -4 20 -20t29.5 -30t12.5 -21 q0 -21 -25 -21q-18 0 -43 17q-65 41 -133.5 114t-132.5 174t-105 237.5t-41 278.5z" />
<glyph unicode=")" horiz-adv-x="602" d="M61 -102q0 7 4 14.5t13 17t14.5 15t17.5 15.5t13 11q96 95 155.5 280t59.5 439q0 268 -51 445.5t-164 308.5q-3 4 -20 20t-29.5 30.5t-12.5 21.5q0 20 25 20q19 0 43 -16q65 -41 133.5 -114t132.5 -174.5t105 -238t41 -278.5q0 -108 -22 -211.5t-57.5 -186t-84 -158 t-98 -130.5t-103.5 -101q-11 -11 -43 -30t-47 -19q-25 0 -25 19z" />
<glyph unicode="*" horiz-adv-x="743" d="M61 1217l74 139q164 -132 197 -142q-3 55 -12.5 113.5t-17.5 89.5l-9 31h164q-33 -134 -39 -236q43 29 90 64.5t72 56.5l26 21l76 -125q-194 -57 -229 -88q53 -25 108.5 -46.5t84.5 -30.5l30 -9l-84 -144q-135 150 -176 164q4 -56 14.5 -116t18.5 -91l8 -32h-158 q33 180 33 237q-42 -29 -86.5 -68t-67.5 -63l-24 -24l-80 126q190 68 229 95q-39 20 -99.5 39.5t-101.5 29.5z" />
<glyph unicode="+" horiz-adv-x="1101" d="M102 692v117h387v389h123v-389h387v-117h-387v-389h-123v389h-387z" />
<glyph unicode="," horiz-adv-x="434" d="M102 -188q0 15 15 34.5t32.5 38t32.5 56t15 84.5q0 26 -21.5 51t-43 44t-21.5 30q0 30 41 74t71 44q26 0 67.5 -43.5t41.5 -93.5q0 -55 -23.5 -117.5t-56.5 -110.5t-68.5 -80t-58.5 -32q-8 0 -15.5 6t-7.5 15z" />
<glyph unicode="-" horiz-adv-x="948" d="M123 659q0 4 10 37l33 86q5 12 10 14.5t27 2.5h573q28 0 38.5 -4.5t10.5 -20.5q0 -50 -34 -53l-439 -49q-3 0 -89.5 -16.5t-115.5 -16.5q-24 0 -24 20z" />
<glyph unicode="." horiz-adv-x="462" d="M123 98q0 44 32 76.5t76 32.5t76.5 -32.5t32.5 -76.5t-32.5 -76t-76.5 -32t-76 32t-32 76z" />
<glyph unicode="/" horiz-adv-x="858" d="M39 -100q0 7 6 22l655 1655q11 17 17 18h92q10 0 10 -8q0 -6 -8 -26l-657 -1655q-6 -13 -10 -16t-15 -3h-78q-12 0 -12 13z" />
<glyph unicode="0" horiz-adv-x="1277" d="M102 649q0 169 31 307.5t83.5 232t123.5 157t150 92t165 28.5q97 0 182.5 -47t146.5 -123.5t105 -173.5t65.5 -198t21.5 -195q0 -124 -21 -236t-65.5 -208.5t-107.5 -167t-152.5 -110.5t-196.5 -40q-112 0 -212.5 58t-169.5 153t-109 218.5t-40 252.5zM356 829 q0 -392 79.5 -588t258.5 -196q123 0 175.5 116t52.5 392q0 135 -6.5 245.5t-26.5 223.5t-52 190t-87 125.5t-129 48.5q-78 0 -130.5 -36t-81.5 -110.5t-41 -172.5t-12 -238z" />
<glyph unicode="1" horiz-adv-x="929" d="M80 0q0 19 25 26t65.5 8.5t56.5 6.5q69 23 95 122t26 261v686q0 62 -1 86.5t-6.5 50.5t-17.5 32.5t-34 6.5q-15 0 -88 -15.5t-90 -15.5q-29 0 -29 21q0 22 40.5 37.5t122 37t136.5 44.5q195 84 203 84q10 0 10 -19q0 -68 -6 -260t-6 -260v-578q0 -242 36 -284 q9 -10 25 -17.5t40 -12.5t40.5 -8t46 -6.5t37.5 -4.5q41 -5 41 -23q0 -31 -45 -31q-31 0 -168 12.5t-168 12.5q-57 0 -179.5 -10t-181.5 -10q-10 0 -18 5.5t-8 14.5z" />
<glyph unicode="2" horiz-adv-x="1167" d="M82 10q0 16 111 126l10.5 10.5l10 10l11.5 11.5l213 217q133 137 218 302t85 321q0 189 -73.5 277.5t-204.5 88.5q-61 0 -111.5 -30.5t-79 -75t-44 -87.5t-15.5 -75q0 -12 -6 -21.5t-12 -9.5q-11 0 -21 22t-10 46q0 19 4 78t4 77q0 14 -5 35t-5 35q0 12 14 12 q28 0 63 13.5t65.5 29.5t86 29.5t119.5 13.5q220 0 350.5 -112t130.5 -299q0 -91 -32.5 -184t-79.5 -167.5t-119 -159t-132 -143.5t-138.5 -136t-120.5 -122q-11 -15 -11 -26q0 -21 25 -21h387q57 0 95.5 9.5t66.5 39.5q14 16 76 162q18 41 34 41q19 0 19 -12 q0 -13 -17.5 -90t-31.5 -129q-7 -27 -10.5 -62.5t-4.5 -38.5q-3 -24 -24 -24q-7 0 -25 1t-26 1q-51 0 -143.5 3t-143.5 3q-212 0 -341 -5t-153 -5q-59 0 -59 20z" />
<glyph unicode="3" horiz-adv-x="1019" d="M92 250q0 43 14 43q15 0 24 -20t14 -46t6 -28q35 -71 120.5 -111.5t171.5 -40.5q118 0 183 86t65 217q0 58 -7.5 106t-28 95.5t-53 82.5t-85 61t-121.5 36q-29 4 -82 4q-9 0 -17.5 6.5t-8.5 20.5t24.5 26.5t44.5 14.5q12 1 48.5 3.5t60 5t53.5 9.5t49 19q62 38 86.5 96.5 t24.5 165.5q0 128 -72 205t-178 77q-148 0 -233 -127q-6 -9 -12.5 -30t-11 -43t-5.5 -25l-2 -8q-2 -8 -4 -13t-6 -10.5t-9 -5.5q-7 0 -13.5 8t-6.5 19q0 26 5 96t5 94q0 9 -1 28t-1 28q0 12 14 12q5 0 15 -2t14 -2q22 0 65.5 15.5t108 31.5t139.5 16q167 0 283.5 -98.5 t116.5 -249.5q0 -67 -25.5 -124t-66 -94t-78 -60t-74.5 -37q-2 0 -6 -3.5t-4 -6.5t3 -6t5 -3q42 -9 88 -38.5t89 -75.5t70.5 -115t27.5 -147q0 -113 -42 -199.5t-116.5 -138t-168 -77.5t-204.5 -26q-95 0 -266 49q-17 4 -21 33q-2 20 -2 66q0 19 -3 67t-3 68z" />
<glyph unicode="4" horiz-adv-x="1214" d="M41 473q0 17 45 68l743 891q8 11 26 29t26 18q22 0 22 -31q0 -40 -2 -123t-2 -123v-614q0 -12 1 -18.5t7 -13.5t19 -7h127q24 0 24 -12q0 -3 -4 -15l-18 -57q-7 -21 -15 -25t-36 -4h-78q-20 0 -23.5 -3t-3.5 -21v-199q0 -180 162 -180q9 0 30 -6.5t21 -14.5 q0 -11 -14 -17.5t-25 -6.5q-33 0 -138 6t-138 6q-46 0 -149.5 -5t-149.5 -5q-8 0 -19.5 7t-11.5 15q0 14 45 23q1 0 26.5 2.5t35.5 4.5t31.5 11.5t32 23.5t19.5 40.5t9 62.5v226q0 16 -5.5 23t-21.5 7h-580q-18 0 -18 37zM193 559q0 -10 16 -10h428q19 0 24 7.5t5 25.5v503 q0 31 -9 31q-4 0 -34 -37l-412 -489q-18 -18 -18 -31z" />
<glyph unicode="5" horiz-adv-x="1030" d="M82 240q0 57 16 57q20 0 29 -22.5t17.5 -61t21.5 -59.5q29 -49 94 -78t197 -29q51 0 101.5 21.5t96 63.5t73.5 115t28 165q0 122 -113 225.5t-262 140.5q-44 11 -81.5 16.5t-83.5 9t-77 7.5q-2 0 -6.5 0.5t-6 1t-4 2t-3 4t-0.5 6.5q0 7 1 15t2.5 17.5t2.5 14.5 q49 277 72 394q3 16 9.5 61.5t10.5 69.5q3 17 14.5 26t22 10t31.5 1h403q42 0 95 5t69 5q31 0 31 -12q0 -19 -8.5 -55t-10.5 -48q-2 -20 -2 -80q0 -12 -4.5 -30.5t-13.5 -18.5q-4 0 -9.5 17t-9.5 35.5t-4 19.5q-8 24 -49 37t-73.5 14.5t-86.5 1.5h-266q-33 0 -45 -7.5 t-18 -37.5l-33 -197q-4 -32 -4 -36q0 -21 12 -21q34 0 111 -12.5t118 -24.5q218 -64 329.5 -194.5t111.5 -315.5q0 -113 -29 -201.5t-79 -146t-120.5 -95.5t-147.5 -53.5t-167 -15.5q-19 0 -92 6.5t-123 14.5q-57 8 -70.5 16t-13.5 39q0 28 -2 97.5t-2 99.5z" />
<glyph unicode="6" horiz-adv-x="1222" d="M92 565q0 142 29 269.5t79 225t118 176.5t146 129.5t161.5 77.5t167.5 27q52 0 84 -8t40.5 -16.5t8.5 -18.5q0 -28 -39 -28q-20 0 -41 2t-43 2q-105 0 -193.5 -57t-145.5 -150t-88.5 -209t-31.5 -237q0 -206 22 -346.5t65 -217t97.5 -108t130.5 -31.5q113 0 177.5 100.5 t64.5 280.5q0 118 -25 215.5t-80.5 162t-133.5 64.5q-35 0 -60 -7t-35 -14t-28 -22q-14 -14 -33 -14q-21 0 -21 16q0 15 21 31q79 58 201 58q179 0 306.5 -129t127.5 -308q0 -232 -145 -373t-375 -141q-127 0 -229 46.5t-166.5 127.5t-99 189.5t-34.5 234.5z" />
<glyph unicode="7" horiz-adv-x="993" d="M41 1202q0 28 16.5 108t16.5 115q0 6 6.5 11.5t13.5 5.5q38 0 110.5 -4t110.5 -4h611q17 0 21.5 -3.5t4.5 -17.5q0 -30 -108 -258q-160 -409 -219 -577q-78 -223 -127 -435l-43 -219q-98 25 -164 56q-23 10 -62.5 37t-46.5 34q36 137 69 219.5t111 239.5q151 307 398 704 q45 74 45 101q0 10 -19 10h-507q-144 0 -177 -61q-5 -10 -9.5 -37.5t-10.5 -47.5t-16 -20q-6 0 -15.5 12.5t-9.5 30.5z" />
<glyph unicode="8" horiz-adv-x="1116" d="M92 381q0 75 21.5 135.5t62 105t85.5 75.5t106 61q-105 66 -162.5 145t-57.5 199q0 168 117 266t295 98q104 0 196 -38t153 -116t61 -179q0 -62 -20 -112t-59 -86t-82.5 -61t-102.5 -49q56 -31 97 -58.5t85.5 -69.5t72.5 -88.5t46 -112t18 -142.5q0 -88 -39.5 -162.5 t-104 -123t-145 -75t-164.5 -26.5q-211 0 -345 110t-134 304zM289 406q0 -164 86.5 -261.5t224.5 -97.5q109 0 170 73t61 179q0 34 -6.5 65t-15 56t-27 50.5t-32 43t-42 40t-44.5 34.5t-51.5 32.5t-51.5 29.5t-55.5 30t-54.5 29q-162 -105 -162 -303zM338 1180 q0 -40 9.5 -74t32 -63t43.5 -50.5t61 -46t65.5 -39t75.5 -39.5q85 43 130.5 95t45.5 131q0 76 -29 140.5t-92 107t-148 42.5q-84 0 -139 -50t-55 -154z" />
<glyph unicode="9" horiz-adv-x="1218" d="M82 952q0 151 74 270.5t191.5 181.5t252.5 62q102 0 188.5 -40t148 -108.5t105 -160.5t64 -197t20.5 -217q0 -143 -40 -270.5t-106.5 -218.5t-151 -157.5t-174.5 -99t-175 -32.5q-78 0 -157.5 21.5t-129 53t-49.5 58.5q0 11 6 18t15 7q14 0 53 -19.5t102.5 -39 t137.5 -19.5q34 0 67 5.5t76 23.5t80 46.5t73.5 79.5t62.5 117.5t42 165t16 217.5q0 148 -19 270t-57.5 216t-101.5 146t-145 52q-108 0 -173 -99.5t-65 -262.5q0 -203 79.5 -331t187.5 -128q94 0 141 47q15 15 29 15q20 0 20 -21q0 -4 -4 -10t-8 -10l-4 -4 q-78 -64 -197 -64q-124 0 -231.5 52t-175.5 153.5t-68 230.5z" />
<glyph unicode=":" horiz-adv-x="462" d="M123 98q0 44 32 76.5t76 32.5t76.5 -32.5t32.5 -76.5t-32.5 -76t-76.5 -32t-76 32t-32 76zM123 811q0 44 32 76.5t76 32.5t76.5 -32.5t32.5 -76.5t-32.5 -76.5t-76.5 -32.5t-76 32.5t-32 76.5z" />
<glyph unicode=";" horiz-adv-x="434" d="M102 -188q0 15 15 34.5t32.5 38t32.5 56t15 84.5q0 26 -21.5 51t-43 44t-21.5 30q0 30 41 74t71 44q26 0 67.5 -43.5t41.5 -93.5q0 -55 -23.5 -117.5t-56.5 -110.5t-68.5 -80t-58.5 -32q-8 0 -15.5 6t-7.5 15zM113 811q0 44 32 76.5t76 32.5t76.5 -32.5t32.5 -76.5 t-32.5 -76.5t-76.5 -32.5t-76 32.5t-32 76.5z" />
<glyph unicode="&#x3c;" horiz-adv-x="1101" d="M102 690v135l897 381v-127l-751 -321l751 -322v-127z" />
<glyph unicode="=" horiz-adv-x="1101" d="M102 520v117h897v-117h-897zM102 883v116h897v-116h-897z" />
<glyph unicode="&#x3e;" horiz-adv-x="1101" d="M102 309v127l752 322l-752 321v127l897 -381v-135z" />
<glyph unicode="?" horiz-adv-x="729" d="M82 1298q0 62 64.5 115t177.5 53q56 0 112.5 -19.5t104 -54.5t77 -91.5t29.5 -124.5q0 -52 -15 -100t-47.5 -95.5t-55.5 -76t-66 -75.5q-16 -17 -58 -56.5t-69 -67t-50.5 -67.5t-23.5 -75q0 -15 11 -28t25 -21t25 -22.5t11 -32.5q0 -26 -12.5 -45t-34.5 -19 q-27 0 -48.5 20t-33.5 51t-18.5 64t-6.5 64q0 63 35 140t76.5 139t76.5 142t35 148q0 108 -43 159.5t-114 51.5q-30 0 -49 -17t-25.5 -37t-18.5 -37t-30 -17q-41 0 -41 32zM186 98q0 44 32.5 76.5t76.5 32.5t76 -32.5t32 -76.5t-32 -76t-76 -32t-76.5 32t-32.5 76z" />
<glyph unicode="@" horiz-adv-x="1724" d="M102 596q0 168 72 327.5t192 278.5t284 191.5t339 72.5q161 0 284 -42t198.5 -117.5t113 -174.5t37.5 -219q0 -135 -69.5 -264t-195 -213t-272.5 -84q-38 0 -66.5 13t-45.5 31.5t-28.5 47t-16 52.5t-8.5 55q-153 -193 -316 -193q-62 0 -97.5 56t-35.5 141q0 126 42 234 t110 177.5t152 108.5t171 39q53 0 105 -18q26 36 67 59t80 23q35 0 35 -37q0 -8 -15.5 -22.5t-39.5 -51t-39 -90.5q-45 -163 -45 -363q0 -67 24 -114t62 -47q92 0 165.5 129.5t73.5 324.5q0 98 -27 182.5t-79.5 152t-139.5 106t-198 38.5q-143 0 -266.5 -61.5t-207.5 -166.5 t-131.5 -247t-47.5 -301q0 -249 133.5 -405t339.5 -156q149 0 260.5 49.5t214.5 137.5q44 40 82 40q69 0 69 -30q0 -23 -41 -64q-217 -213 -608 -213q-138 0 -257.5 39t-212.5 114t-146.5 197t-53.5 277zM645 606q0 -110 68 -110q41 0 91 45t114 127q13 180 79 333 q-59 35 -110 35q-68 0 -124.5 -66t-87 -164t-30.5 -200z" />
<glyph unicode="A" horiz-adv-x="1384" d="M-61 16q0 6 4.5 10t12 6t14 2.5t14.5 1.5t10 1q55 10 84 40t53 89l533 1292q18 45 32 45q16 0 35 -51l520 -1270q31 -78 64 -116q11 -13 44.5 -19t60 -12.5t26.5 -22.5q0 -18 -45 -18q-29 0 -87 3t-87 3q-45 0 -153.5 -3t-153.5 -3q-35 0 -35 16q0 13 17.5 19.5t38.5 9 t38.5 16.5t17.5 41q0 41 -8 76t-33 98l-51 129q-28 71 -38.5 87t-32.5 16h-404q-25 0 -32 -5.5t-15 -27.5l-70 -174q-51 -130 -51 -197q0 -17 12.5 -28.5t23 -15t30.5 -7.5q4 -1 16 -2.5t22.5 -3.5t21.5 -5t17.5 -7.5t6.5 -10.5q0 -12 -6.5 -17.5t-12 -6t-18.5 -0.5 q-29 0 -90 3t-90 3q-33 0 -107.5 -3t-107.5 -3q-41 0 -41 22zM438 606q0 -8 29 -8h315q25 0 31 2t6 12q0 4 -18 58l-154 385q-9 24 -18 24q-8 0 -23 -41l-139 -356q-5 -13 -12.5 -32t-12 -30t-4.5 -14z" />
<glyph unicode="B" horiz-adv-x="1247" d="M74 14q0 10 17 14t45 6t38 5q52 11 66 45q26 56 26 354v791q0 110 -16 133q-14 18 -39 29q-16 7 -48.5 9t-53.5 5t-21 14t19 17t36 6q13 0 94 -4t128 -4q20 0 123 3t139 3q75 0 148.5 -24.5t132.5 -69t95.5 -113.5t36.5 -150q0 -62 -12 -111t-28 -79t-42.5 -55t-45 -35.5 t-46.5 -24.5q-9 -4 -17.5 -7.5t-13 -5.5t-8 -3.5t-5 -2.5t-1.5 -3q0 -1 56 -21q288 -104 288 -379q0 -102 -44.5 -176.5t-121 -115t-164 -59.5t-188.5 -19q-65 0 -174.5 7t-155.5 7q-27 0 -102 -4t-102 -4q-39 0 -39 22zM500 324q0 -113 4.5 -159.5t21.5 -70.5 q23 -32 44.5 -38.5t78.5 -6.5q35 0 70.5 6.5t77 25t72.5 47.5t52 80t21 116q0 169 -107.5 272.5t-285.5 103.5q-33 0 -41 -4.5t-8 -23.5v-348zM500 825q0 -25 6.5 -32t32.5 -7h96q36 0 61 3.5t54.5 16.5t47.5 36.5t30 67t12 104.5q0 78 -28.5 145t-71 108t-89 64t-86.5 23 q-43 0 -54 -10.5t-11 -63.5v-455z" />
<glyph unicode="C" d="M82 731q0 153 56.5 289.5t153.5 234t231 154.5t284 57q126 0 225 -11t145.5 -24.5t83 -24.5t50.5 -11q11 0 22 5t19 5q10 0 10 -23q-1 -11 -6.5 -52t-5.5 -56q0 -14 3 -61t3 -72q0 -76 -25 -76q-18 0 -23 17t-8 47.5t-14 48.5q-119 208 -479 208q-108 0 -197 -47.5 t-147.5 -128.5t-90.5 -187t-32 -224q0 -185 44.5 -330.5t124 -237t185.5 -139t232 -47.5q159 0 307 98q26 18 53.5 65.5t34.5 76.5q3 12 4.5 30.5t5.5 25.5t15 7q24 0 24 -55q0 -33 -27 -152q-7 -27 -14 -69q-3 -20 -17.5 -33.5t-31.5 -18.5q-184 -53 -426 -53 q-110 0 -215.5 24.5t-208 82t-178.5 143t-123 218t-47 296.5z" />
<glyph unicode="D" horiz-adv-x="1632" d="M72 16q0 3 2.5 5.5t7.5 4.5t10.5 4t13.5 3t13.5 2t14 2t11.5 2q1 0 14 2t19 3t18.5 4.5t20 7t15.5 9.5t12 13q19 31 23.5 75t4.5 169v929q0 91 -38 120.5t-121 29.5q-27 0 -27 18q0 5 5.5 10t19 9t32.5 4q17 0 114 -4t126 -4q51 0 187 7t253 7q216 0 379 -80.5 t255.5 -240t92.5 -379.5q0 -372 -202 -568t-560 -196q-83 0 -210 8t-187 8q-65 0 -166 -4t-112 -4q-41 0 -41 24zM506 360q0 -117 11.5 -179t45.5 -89q29 -23 79.5 -31t143.5 -8q83 0 158 21t144 69.5t119 120.5t80 181.5t30 244.5q0 190 -78 347t-223 250t-328 93l-104 -6 q-78 0 -78 -80v-934z" />
<glyph unicode="E" horiz-adv-x="1155" d="M102 14q0 13 32.5 17.5t70.5 14.5t49 36q27 66 27 430v766q0 44 -17.5 72t-42 39t-49 16t-42 9.5t-17.5 12.5q0 17 45 17q28 0 114 -5t113 -5q118 0 322 4q33 1 84 3.5t98 2.5q19 0 54 2t54 2q15 0 15 -23q0 -5 -1 -16t-1 -14q0 -25 3 -78t3 -78q0 -37 -12 -37 q-11 0 -16.5 10.5t-8.5 28t-4 21.5q-23 62 -82 79q-41 11 -129 11h-186q-64 0 -64 -49v-469q0 -22 5.5 -26.5t29.5 -4.5h217q72 0 98 20q16 12 24 45t14 58.5t16 25.5q16 0 16 -65q0 -19 -3 -60t-3 -59q0 -26 2 -81t2 -81q0 -37 -17 -37q-12 0 -16 21.5t-12 54t-27 51.5 q-17 17 -90 17h-235q-14 0 -17.5 -6t-3.5 -21v-477q0 -21 1 -31.5t6.5 -24t17.5 -24.5q39 -37 188 -37q136 0 197 23q30 12 51 35t29.5 43.5t17 36.5t16.5 16q15 0 16 -27q0 -21 -42 -123q-6 -14 -12 -34.5t-10 -33.5t-7 -16q-18 -18 -59 -18q-82 0 -265.5 3t-265.5 3 q-34 0 -111.5 -4t-111.5 -4q-17 0 -24 0.5t-20 2t-18.5 6.5t-5.5 13z" />
<glyph unicode="F" horiz-adv-x="1083" d="M92 1423q0 19 90 19q12 0 83 -4t114 -4q386 0 485 8q16 1 46 4.5t46 3.5q6 0 9 -12.5t4 -39.5t2 -36l9 -88q0 -70 -17 -70q-5 0 -8.5 12t-6.5 29.5t-6 24.5q-30 76 -199 76h-208q-25 0 -30 -10.5t-5 -47.5v-483q0 -11 5.5 -14t24.5 -3h150q108 0 154 39q16 15 21 42 t7.5 46t14.5 19q20 0 19 -41q0 -18 -4.5 -67t-4.5 -70q0 -45 5 -115.5t4 -83.5q0 -45 -19 -45q-12 0 -16.5 15.5t-4.5 27.5q0 86 -18 107q-17 19 -51 27.5t-117 8.5h-140q-21 0 -25.5 -2.5t-4.5 -15.5v-361q0 -123 5.5 -180t26.5 -73q19 -16 91 -31l12 -3q12 -2 16 -6t4 -12 q0 -22 -53 -22q-29 0 -111.5 4t-109.5 4q-46 0 -144 -4t-104 -4q-29 0 -29 18q0 7 15.5 12t38.5 9.5t32 9.5q19 8 29 17.5t14 27.5q16 64 23.5 157t8.5 167.5t1 228.5v608q0 91 -24 115q-25 24 -63.5 33t-62.5 12.5t-24 15.5z" />
<glyph unicode="G" horiz-adv-x="1632" d="M82 745q0 205 90.5 369.5t253.5 258t369 93.5q124 0 242 -18t192.5 -36.5t93.5 -18.5q24 0 38 7t20 14t12 7q12 0 12 -24q0 -2 -2 -14t-5.5 -38.5t-6.5 -60.5q-2 -27 -4.5 -81t-6.5 -83q-1 -6 -2.5 -14.5t-2 -13t-2 -10.5t-2.5 -9t-3 -6t-5 -4.5t-7 -1.5q-19 0 -19 51 q0 15 -12 55t-33 64q-44 50 -171 101.5t-296 51.5q-148 0 -261.5 -73.5t-172.5 -198.5t-59 -281q0 -397 149.5 -591.5t421.5 -194.5q48 0 109.5 19.5t93.5 41.5q36 25 45.5 71.5t9.5 141.5v138q0 94 -4.5 132.5t-23.5 55.5q-23 23 -55 30.5t-51 9t-19 11.5q0 23 39 23 q2 0 89 -5t144 -5q34 0 130 7l97 7q33 0 33 -25q0 -10 -18 -14t-43.5 -8.5t-38.5 -13.5q-31 -22 -38 -62.5t-7 -157.5v-321q0 -47 -19 -58q-51 -31 -194.5 -63.5t-319.5 -32.5q-180 0 -322 46.5t-245 140t-158 243t-55 348.5z" />
<glyph unicode="H" horiz-adv-x="1751" d="M78 12q-1 16 30.5 18t72.5 11.5t57 38.5q26 51 26 201v921q0 73 -4.5 104t-17.5 54q-17 28 -48.5 36.5t-54 11.5t-22.5 19q0 17 43 17q24 0 98.5 -5t120.5 -5q49 0 136.5 7t92.5 7q43 0 43 -21q0 -10 -8 -14t-21 -5t-36.5 -8t-46.5 -20q-24 -14 -32.5 -54.5t-8.5 -121.5 v-377q0 -20 4.5 -24t29.5 -4h685q26 0 31 3.5t5 24.5v414q0 101 -34 135q-17 16 -46.5 23t-49 11t-19.5 15q0 13 12 16t49 3q20 0 106 -5t97 -5q28 0 122 6t122 6q24 0 24 -19q0 -10 -20 -15.5t-50.5 -15t-47.5 -26.5q-31 -31 -31 -199v-645q0 -370 24 -430q13 -32 53 -45.5 t72.5 -18t32.5 -16.5q0 -8 -4.5 -13t-17 -6.5t-20 -2t-28.5 -0.5q-17 0 -104 3t-111 3q-89 0 -163.5 -5t-92.5 -5q-43 0 -43 20q0 12 19.5 17.5t44.5 8t50.5 16.5t35.5 40q7 19 12.5 92.5t5.5 124.5v357q0 13 -4.5 18.5t-10.5 6.5t-24 1h-679q-14 0 -18.5 -0.5t-10.5 -2.5 t-7 -7.5t-1 -15.5v-430q0 -60 8 -99t16 -51.5t21 -24.5q17 -16 50 -21.5t56 -9.5t23 -18q0 -20 -49 -20q-20 0 -90 4t-148 4q-87 0 -176 -5t-90 -5q-41 0 -41 22z" />
<glyph unicode="I" horiz-adv-x="765" d="M80 12q0 12 25.5 17t61.5 10.5t52 17.5q47 36 47 199v987q0 66 -9.5 97t-35.5 44q-20 11 -48.5 17.5t-44 10.5t-15.5 13q0 19 45 19q1 0 96 -5t127 -5q29 0 124.5 7t108.5 7q50 0 50 -23q0 -7 -21.5 -12.5t-52.5 -12t-45 -14.5q-45 -27 -45 -149v-930q0 -63 1.5 -100 t8 -70t15.5 -48.5t28.5 -29t43 -18.5t62.5 -10q12 -1 19.5 -7t7.5 -12q0 -20 -31 -20q-4 0 -53 2t-113 4t-106 2q-60 0 -122 -2.5t-101 -5t-43 -2.5q-37 0 -37 22z" />
<glyph unicode="J" horiz-adv-x="735" d="M68 -356q0 22 36 22q40 2 68.5 19.5t46 60t27.5 79.5t14 114t5 125.5t1 149.5v22v876v48q0 35 0.5 63t-2 50.5t-5 40t-9 30.5t-15.5 22.5t-23.5 16.5t-33 11t-43.5 7q-39 4 -39 22q0 19 51 19q27 0 107.5 -4t130.5 -4q46 0 125 6t108 6q11 0 25 -5.5t14 -15.5 q0 -11 -21.5 -15.5t-54 -12t-51.5 -23.5q-11 -10 -17.5 -27.5t-9 -56.5t-3 -65t-0.5 -95v-1005q0 -98 -26 -183t-66.5 -142.5t-91 -99t-99 -60.5t-90.5 -19q-59 0 -59 23z" />
<glyph unicode="K" horiz-adv-x="1615" d="M80 12q0 14 26 17.5t63.5 10.5t57.5 28q39 42 39 161v1026q0 117 -57 138q-16 6 -42.5 10t-42 8t-15.5 12q0 19 51 19q36 0 118.5 -4t118.5 -4q31 0 113 5t113 5q9 0 24 -5.5t15 -13.5q0 -9 -14.5 -14.5t-36 -8t-23.5 -3.5q-26 -5 -42.5 -16.5t-25.5 -25t-13.5 -42.5 t-5.5 -53.5t-1 -73.5v-297q0 -62 10 -62q16 0 45 29l383 348q34 30 55.5 51.5t41.5 51.5t20 53q0 35 -66 35q-28 0 -28 22q0 10 17.5 15.5t31.5 5.5q28 0 84 -3t84 -3q34 0 110.5 4t110.5 4q31 0 31 -17q0 -9 -14.5 -15.5t-36.5 -12t-25 -6.5q-5 -2 -34 -13.5t-39 -16.5 t-33 -17t-42.5 -27t-40.5 -35l-438 -405q-16 -16 -16 -25q0 -6 8 -18l602 -601q152 -152 215 -178q10 -4 37.5 -9t28.5 -5t10.5 -1t15 -2t13.5 -3.5t12 -6.5t4 -10q0 -10 -41 -17t-62 -7q-37 0 -84 3t-84 3q-16 0 -62 -3t-62 -3q-28 0 -56 33l-661 675q-29 29 -35 29 q-10 0 -10 -33v-493q0 -112 49 -148q40 -28 74 -28q9 0 25 -5.5t16 -13.5q0 -18 -39 -18q-36 0 -116 4t-116 4q-51 0 -143 -5t-127 -5q-43 0 -43 22z" />
<glyph unicode="L" horiz-adv-x="1101" d="M88 12q0 13 29.5 17.5t67 14t51.5 32.5q22 36 26 78.5t4 199.5v875q0 73 -5.5 97.5t-27.5 49.5q-10 11 -38 17.5t-50 12t-22 15.5q0 23 41 23q3 0 91 -5t122 -5t134 6t103 6q12 0 26.5 -4.5t14.5 -16.5q0 -11 -25.5 -16.5t-59 -14.5t-48.5 -28q-14 -19 -18 -47.5 t-4 -93.5v-826q0 -88 4 -170q2 -46 17 -82.5t42 -42.5q53 -12 193 -12q49 0 103.5 9.5t80.5 19.5q26 11 46 46t32 64t22 29q21 0 21 -35q0 -1 -41 -141q-16 -50 -16 -68q-1 -17 -10 -22.5t-31 -5.5q-7 0 -113.5 3t-249 6t-238.5 3q-42 0 -131 -4t-90 -4h-8.5h-8.5h-8 t-7.5 0.5t-6.5 1.5t-6 2.5t-4 3.5t-3 5t-1 7z" />
<glyph unicode="M" horiz-adv-x="1984" d="M72 14q0 6 16 10l40 10t38 17q20 14 34 32.5t22 34t14 44.5t8 45t6 55l135 1172q6 41 25 41q23 0 43 -41l487 -963q26 -51 38.5 -70.5t22.5 -19.5q11 0 24 19.5t40 74.5l471 981q5 11 14.5 19t18.5 8q24 0 30 -49l150 -1160q1 -4 5.5 -46.5t8 -58t11.5 -46t22 -48 t33 -28.5q16 -9 38.5 -13t34 -7.5t11.5 -14.5q0 -18 -76 -18q-6 0 -79.5 3t-153.5 3q-37 0 -78.5 -3t-85.5 -3q-27 0 -39.5 0.5t-27 2t-20 5t-5.5 10.5q0 9 17.5 16.5t43.5 8.5q33 3 54.5 20t30 47.5t11 54.5t2.5 62q0 73 -10 152l-61 534q-2 17 -11 17q-7 0 -16 -21 l-410 -858q-26 -53 -43 -53t-43 53l-438 866q-6 15 -12 15q-9 0 -12 -31l-62 -543q-12 -114 -12 -174q0 -102 37 -123q21 -13 54 -20t54 -11.5t21 -11.5q0 -12 -9.5 -16t-33.5 -4q-7 0 -92 4t-111 4t-99.5 -4t-80.5 -4q-19 0 -25.5 0.5t-13 5.5t-6.5 16z" />
<glyph unicode="N" horiz-adv-x="1744" d="M59 10q0 14 24.5 18t62 10.5t57.5 22.5q43 37 43 195v1102q0 88 7 101q7 9 17 9q28 0 95 -67l964 -969q26 -29 39 -29q10 0 10 41v750q0 88 -6 123t-26 55q-19 19 -50 26t-51 10t-20 15q0 21 43 21q6 0 67 -5t92 -5q30 0 96.5 5t75.5 5q58 0 58 -17q0 -12 -21 -17.5 t-53 -12t-49 -17.5q-20 -13 -27.5 -63.5t-7.5 -186.5v-1050q0 -64 -3.5 -88.5t-14.5 -24.5q-6 0 -13 4t-21 16.5t-24 22.5l-34 34l-9 9l-952 957q-32 32 -45 32q-9 0 -11.5 -15t-2.5 -66v-711q0 -147 55 -191q19 -15 52.5 -21t56 -10t22.5 -14q0 -14 -9.5 -18t-41.5 -4 q-16 0 -89 4t-102 4q-31 0 -119 -4t-94 -4q-41 0 -41 18z" />
<glyph unicode="O" horiz-adv-x="1658" d="M82 705q0 168 55 310.5t153.5 241t237.5 154t303 55.5q128 0 244.5 -39t206.5 -108t157.5 -159.5t102.5 -197.5t35 -217q0 -126 -27 -239t-86 -212.5t-145.5 -171.5t-213 -113.5t-280.5 -41.5q-146 0 -281.5 54.5t-237.5 150t-163 235t-61 298.5zM338 782 q0 -207 66.5 -374.5t190 -265t282.5 -97.5q107 0 194.5 54t141 141.5t82 192t28.5 212.5q0 142 -34 273.5t-97.5 236.5t-165.5 168t-227 63q-101 0 -182.5 -40t-132 -103t-85 -145t-48 -160.5t-13.5 -155.5z" />
<glyph unicode="P" horiz-adv-x="1249" d="M80 12q0 13 29 17.5t69 13.5t58 31q14 18 21 63.5t8 82t1 108.5v26v901q0 27 -1.5 42.5t-6.5 36t-17 35.5t-32 26q-17 10 -39.5 13t-34.5 4.5t-12 8.5q0 21 24 21q14 0 85.5 -4t111.5 -4q37 0 120 8t193 8q74 0 143 -11.5t137 -40.5t118 -72t81 -112t31 -155 q0 -148 -68 -257t-192 -167q-80 -39 -168 -39q-51 0 -94 12q-33 9 -33 29q0 22 29 22q5 0 24 -6t44 -6q215 0 215 326q0 202 -90.5 295.5t-278.5 93.5q-36 0 -45.5 -27t-9.5 -110v-781q0 -337 32 -372q16 -18 47.5 -29t48.5 -12.5t29 -1.5q11 0 22 -5.5t11 -13.5 q0 -20 -55 -20q-13 0 -109 5t-131 5q-37 0 -145 -5t-115 -5q-15 0 -21 0.5t-16 2t-14 6.5t-4 13z" />
<glyph unicode="Q" horiz-adv-x="1658" d="M82 702q0 216 90 389t261 274t394 101q132 0 250.5 -39t208.5 -108.5t156.5 -161.5t100.5 -201t34 -223q0 -358 -240 -598q-4 -4 -4 -10q0 -12 15 -21q267 -195 559 -295t534 -100q33 0 105 17.5t82 17.5q28 0 28 -12q0 -9 -75 -42.5t-203.5 -66.5t-241.5 -33 q-267 0 -478.5 91t-506.5 327q-9 6 -18 6q-11 0 -29 -6q-131 -41 -246 -41q-152 0 -280.5 42.5t-218.5 114.5t-153.5 166.5t-93.5 199t-30 212.5zM338 772q0 -101 20 -201.5t64 -195.5t106 -167.5t154 -116.5t201 -44q87 0 161 36.5t124.5 96.5t86 138.5t52 162.5t16.5 168 q0 136 -33.5 265t-96.5 235.5t-164 171.5t-224 65q-89 0 -162.5 -27.5t-123 -76.5t-86 -109t-56.5 -131t-29.5 -137t-9.5 -133z" />
<glyph unicode="R" horiz-adv-x="1505" d="M80 12q0 12 25.5 17t61.5 10.5t52 17.5q47 36 47 199v1008q0 57 -7.5 80.5t-29.5 35.5q-25 15 -56 22.5t-46.5 12t-15.5 12.5q0 17 39 17q6 0 41 -2.5t87.5 -5t100.5 -2.5q53 0 143.5 7t130.5 7q128 0 233 -41t170.5 -124.5t65.5 -195.5q0 -74 -25 -141.5t-55.5 -108.5 t-72.5 -77t-61 -47.5t-36 -20.5q-6 -3 -6 -8q0 -2 15 -25l301 -364q63 -75 100.5 -116.5t93 -85t99.5 -50.5q14 -2 29.5 -1t28.5 -3t13 -16q0 -27 -76 -27h-141q-59 0 -114 11.5t-116 46t-98 89.5l-210 310q-37 54 -58.5 82.5t-54 54.5t-62.5 26h-98q-18 0 -18 -16v-272 q0 -188 24 -238q14 -34 56 -47q8 -2 31.5 -5t37 -8t13.5 -16q0 -22 -44 -22q-5 0 -101.5 4t-129.5 4q-60 0 -123 -2.5t-103 -5t-44 -2.5q-37 0 -37 22zM500 721q0 -21 53 -21h125q40 0 74.5 14.5t67.5 47.5t52 98t19 156q0 48 -10.5 94.5t-33 90.5t-55 77.5t-80.5 53.5 t-106 20h-49q-34 0 -45.5 -20.5t-11.5 -69.5v-541z" />
<glyph unicode="S" horiz-adv-x="1005" d="M102 207q0 35 8.5 79t26.5 44q13 0 16 -16.5t6.5 -47.5t12.5 -53q30 -73 94.5 -118.5t192.5 -45.5q121 0 190.5 65t69.5 193q0 27 -5.5 51t-12 41.5t-24 38.5t-28 32.5t-38.5 33.5t-40.5 31t-48.5 34l-219 156q-104 74 -151.5 159t-47.5 218q0 70 27.5 135t78 117t128 83 t170.5 31q64 0 160 -16t100 -16q24 0 42.5 7t25.5 7q12 0 12 -10q0 -7 -5 -29.5t-5 -30.5q0 -14 1 -43t1 -45q0 -170 -33 -170q-15 0 -20 20.5t-5.5 49t-17.5 67t-51 66.5q-82 66 -207 66q-38 0 -75.5 -13t-71.5 -38.5t-55 -70t-21 -100.5q0 -31 4 -56t17.5 -48t23.5 -37.5 t37.5 -37t44 -34.5t57.5 -41l166 -114q57 -38 101 -77t84.5 -90.5t62.5 -114.5t22 -134q0 -218 -174 -344q-99 -74 -299 -74q-34 0 -64 2.5t-50.5 5.5t-48 10t-40.5 11t-43.5 14.5t-44.5 14.5q-18 5 -26.5 15t-8.5 34q0 9 -1 64.5t-1 68.5z" />
<glyph unicode="T" horiz-adv-x="1359" d="M51 1247q0 39 33 152q4 14 6.5 33.5t6.5 25.5t14 6t30.5 -8t36.5 -10q90 -12 225 -12h592q21 0 57.5 1t74.5 2t73 2t58 2t24 1q27 0 27 -21q0 -3 -3 -17l-7.5 -35t-6.5 -36q-3 -16 -5.5 -53.5t-8 -58.5t-16.5 -21t-13.5 16t-4 36.5t-7.5 27.5q-38 45 -147 45h-261 q-21 0 -26.5 -20t-5.5 -95v-708q0 -229 5 -314t23 -110q16 -23 58 -33t75 -14.5t33 -16.5q0 -7 -4 -11.5t-14 -6t-17.5 -2t-23.5 -0.5q-17 0 -113 3t-117 3q-36 0 -153 -5t-119 -5q-51 0 -51 18q0 20 25 23.5t62.5 8.5t57.5 26q23 25 31 83t8 168v908v31.5t-1.5 24 t-3.5 20.5t-6.5 13t-11 9t-16.5 2h-342q-22 0 -41 -14.5t-27.5 -28t-19.5 -35.5q-3 -6 -5 -18.5t-6 -19.5t-15 -7q-17 0 -17 45z" />
<glyph unicode="U" horiz-adv-x="1687" d="M82 1425q0 11 7 15t30 4q19 0 105 -5t136 -5q48 0 104.5 2.5t96 5t45.5 2.5q41 0 41 -21q0 -8 -22 -12.5t-52 -8t-41 -9.5q-2 -1 -7 -3q-26 -12 -36 -32q-24 -48 -24 -244v-31l4 -534q1 -75 10 -140t33.5 -132t63.5 -114.5t104.5 -77.5t150.5 -30q78 0 149 17t135 55.5 t110.5 94.5t74 140t27.5 187v442q0 178 -10.5 265.5t-34.5 105.5q-26 20 -65 30.5t-63 16.5t-24 16q0 11 10.5 14t35.5 3q3 0 80.5 -4t123.5 -4q47 0 110 5l62 5q54 0 54 -19q0 -10 -13 -12t-42 -6t-54 -16q-42 -20 -51.5 -70t-9.5 -173v-32v-518q0 -299 -157.5 -465 t-447.5 -166q-275 0 -435 138t-160 391v620q0 224 -21 250q-15 17 -48.5 28t-59 17t-25.5 14z" />
<glyph unicode="V" horiz-adv-x="1509" d="M-41 1423q0 19 57 19q39 0 126 -4t126 -4q30 0 93.5 4t91.5 4q41 0 41 -17q0 -9 -11.5 -13.5t-25.5 -6t-25.5 -11.5t-11.5 -30q0 -52 55 -186l313 -779q16 -32 27 -32t23 24l358 850q25 65 25 109q0 27 -16.5 40t-33 18.5t-16.5 14.5q0 19 31 19q24 0 72 -4t71 -4 q25 0 88 5t88 5q45 0 45 -21q0 -2 -4 -6q-6 -3 -50.5 -8t-70.5 -23q-52 -36 -116 -182l-521 -1218q-18 -37 -32 -37q-9 0 -17.5 14t-11.5 23l-526 1241q-15 34 -27 56.5t-31.5 49t-44 43t-55.5 23.5q-3 1 -26.5 3.5t-40.5 7.5t-17 13z" />
<glyph unicode="W" horiz-adv-x="2238" d="M-20 1425q0 21 40 21q43 0 126.5 -6t127.5 -6q33 0 112 6t110 6q34 0 34 -19q0 -7 -8 -12t-35 -11.5t-45 -17.5t-18 -32q0 -14 19.5 -77t43.5 -124l232 -604q33 -88 49 -88q12 0 21 14.5t24 56.5l293 840q1 4 4.5 13t5 14t5 13.5t6 13.5t6 11.5t7 10l7.5 7.5t8.5 5.5 t9.5 1.5q8 0 14.5 -4.5t12.5 -16t9.5 -20t10.5 -28.5t11 -29l333 -836q17 -44 27 -59.5t21 -15.5q18 0 45 75l260 699q24 68 24 110q0 38 -18 52q-6 4 -14.5 6.5t-15 3t-17.5 1.5t-15 1q-32 4 -32 18q0 23 34 23q41 0 90.5 -4t90.5 -4q18 0 92 6t106 6q25 0 25 -21 q0 -7 -18.5 -9t-53.5 -9.5t-65 -26.5q-10 -6 -28.5 -26.5t-27.5 -34.5q-27 -52 -69 -174l-385 -1075q-34 -92 -42 -102q-7 -9 -16 -9q-24 0 -67 109l-328 817q-27 69 -36.5 88.5t-16.5 19.5q-8 0 -14.5 -14t-30.5 -82l-273 -801q-32 -93 -43 -115t-30 -22q-14 0 -28 26.5 t-42 100.5l-403 1063q-58 149 -82 186q-33 55 -70 60q-12 2 -51.5 5t-46.5 5q-12 6 -12 20z" />
<glyph unicode="X" horiz-adv-x="1406" d="M0 4q0 9 6 13t13.5 4.5t22 2t24.5 3.5q73 22 84 28q64 36 120 131l258 435q31 57 31 71q0 13 -24 60l-304 544q-20 35 -51.5 62.5t-54.5 36.5q-19 6 -47.5 8t-43 5t-14.5 15q0 19 35 19q5 0 58.5 -2t122.5 -4t112 -2q47 0 86 2.5t60.5 5t25.5 2.5q25 0 25 -21 q0 -11 -37 -24q-29 -12 -29 -35q0 -30 33 -90l170 -303q24 -47 35 -47q12 0 35 45l157 272q39 66 39 115q0 34 -20 43q-9 3 -26.5 6t-27.5 7t-10 13q0 8 10 13.5t23 5.5q1 0 67 -5t95 -5q23 0 99 4t102 4q38 0 38 -21q0 -8 -20.5 -11.5t-50.5 -7.5t-45 -13 q-28 -18 -42.5 -29t-44.5 -47.5t-63 -91.5l-223 -387q-21 -38 -21 -48q0 -4 1 -8t4 -10t6 -11t10 -16t12 -20l279 -498q68 -123 149 -168q16 -9 56.5 -13.5t71 -10t30.5 -17.5q0 -24 -72 -24q-14 0 -162.5 5t-160.5 5q-33 0 -105 -2t-73 -2q-29 0 -29 18q0 11 47 27 q31 12 31 39q0 45 -47 131l-172 305q-18 35 -31 35q-11 0 -27 -29l-188 -340q-39 -65 -39 -108q0 -35 33 -43q6 -1 16 -2.5t16.5 -3l13 -3t10 -4.5t3.5 -8q0 -16 -31 -16q-17 0 -85 3t-89 3q-28 0 -108.5 -7t-112.5 -7q-45 0 -45 18z" />
<glyph unicode="Y" horiz-adv-x="1443" d="M-41 1427q0 25 72 25q27 0 119 -9t120 -9q34 0 87 4t87 4q64 0 64 -25q0 -7 -37 -16t-37 -19q0 -37 47 -110l283 -447q24 -37 39 -37q8 0 28 23l224 358q82 132 82 199q0 16 -11.5 25t-24.5 11t-24.5 5t-11.5 8q0 23 51 23q18 0 73 -3t73 -3q33 0 87 5t87 5q49 0 49 -21 q0 -7 -21 -10.5t-52.5 -8t-47.5 -11.5q-23 -10 -53.5 -42t-55.5 -71l-362 -590q-21 -32 -27 -55t-6 -60v-313q0 -153 25 -182q13 -17 50 -33t60 -16q49 0 49 -19q0 -22 -67 -22q-31 0 -110 5t-111 5q-33 0 -134.5 -5t-134.5 -5q-47 0 -47 20q0 13 31.5 22t71.5 17.5t53 20.5 q31 29 31 153v361q0 44 -25 84l-397 612q-31 47 -52.5 70t-43.5 32q-6 3 -45 11t-72 17.5t-33 16.5z" />
<glyph unicode="Z" horiz-adv-x="1437" d="M41 18q0 27 22 58l916 1231q6 8 6 16t-24 8h-222q-101 0 -387 -12q-104 -4 -157 -62q-16 -17 -21 -34t-5.5 -38.5t-4.5 -35.5q-5 -10 -10 -10q-29 0 -29 88q0 31 9 86.5t11 77.5q0 4 0.5 12t0.5 11t1.5 8.5t3.5 7t6 4t10 3.5t15 1q53 0 160 -2t160 -2h485q51 0 149.5 3 t149.5 3q35 0 35 -23q0 -22 -141 -211l-752 -1007q-43 -58 -43 -76q0 -21 57 -21h312q458 0 510 43q17 14 42 48t44.5 58.5t31.5 24.5q15 0 15 -20q0 -13 -10.5 -37t-28.5 -55l-17 -31q-9 -22 -26.5 -65.5t-20.5 -49.5q-12 -32 -37 -32q-2 0 -6 1t-6 1q-29 6 -139 6 q-212 6 -395 6q-144 0 -370.5 -3t-250.5 -3q-49 0 -49 24z" />
<glyph unicode="[" horiz-adv-x="544" d="M82 -61q0 3 2 36t2 72q6 564 6 748q0 232 -2.5 386.5t-5 220t-2.5 81.5q0 33 27 33q3 0 40.5 -2.5t57.5 -2.5q21 0 78.5 6.5t87.5 6.5q49 0 49 -23q0 -4 -3 -7t-10 -6t-13.5 -5t-18.5 -5t-19 -5q-41 -12 -53 -53.5t-12 -166.5v-1013q0 -166 10.5 -220.5t40.5 -62.5 q10 -2 23.5 -5t21 -4.5t15 -4t11 -5.5t3.5 -8q0 -20 -56 -20q-23 0 -75.5 3t-79.5 3q-15 0 -37.5 -0.5t-39 -1t-17.5 -0.5q-31 0 -31 25z" />
<glyph unicode="\" horiz-adv-x="858" d="M41 1548q0 12 8 15l80 28q8 4 12 4q11 0 17 -18l655 -1655q4 -6 4 -18q0 -10 -10 -17l-78 -32q-2 -2 -8 -2q-10 0 -16 20l-662 1665q-2 4 -2 10z" />
<glyph unicode="]" horiz-adv-x="544" d="M123 -72q0 10 7 14.5t27 8t29 6.5q41 12 53.5 53t12.5 166v1012q0 89 -1.5 139.5t-7 83.5t-14.5 45.5t-24 16.5q-13 3 -36 6.5t-31.5 7t-8.5 10.5q0 21 55 21q23 0 75 -3.5t79 -3.5q15 0 37.5 0.5t39 1t17.5 0.5q31 0 31 -24q0 -3 -2 -36.5t-2 -72.5q-6 -561 -6 -745 q0 -232 2.5 -386.5t5 -220t2.5 -81.5q0 -33 -27 -33q-3 0 -40.5 1t-57.5 1q-21 0 -78.5 -5t-87.5 -5q-49 0 -49 22z" />
<glyph unicode="^" horiz-adv-x="1073" d="M102 578l367 856h133l369 -856h-131l-303 710l-306 -710h-129z" />
<glyph unicode="_" horiz-adv-x="1024" d="M0 -262h1024v-148h-1024v148z" />
<glyph unicode="`" horiz-adv-x="475" d="M0 1636q0 35 59 97q41 41 60 41q21 0 74 -27l182 -92q100 -51 100 -84q0 -15 -12 -15q-11 0 -27 4.5t-49.5 14.5t-73.5 18q-131 29 -231 29q-6 0 -31 -2t-28 -2q-10 0 -13.5 0.5t-6.5 4.5t-3 13z" />
<glyph unicode="a" horiz-adv-x="1331" d="M0 14q0 8 7 12t26.5 7t23.5 4q43 13 66.5 38.5t44.5 71.5l465 1090q17 41 35 41t37 -45l454 -1073q20 -51 53 -99q11 -14 41.5 -19t54 -9t23.5 -19q0 -20 -47 -20q-10 0 -88 3t-129 3q-40 0 -109 -3t-96 -3q-37 0 -37 18q0 11 16 17t35.5 8t35.5 13t16 32q0 32 -8 61 t-31 86l-51 125q-20 50 -27.5 60t-22.5 10h-352q-18 0 -23 -4.5t-12 -20.5l-63 -151q-43 -104 -43 -160q0 -20 20.5 -32t45 -15t45 -9.5t20.5 -17.5q0 -20 -39 -20q-13 0 -82 3t-108 3q-31 0 -92.5 -3t-63.5 -3q-41 0 -41 20zM453 518q0 -6 16 -6h274q27 0 27 6q0 9 -16 49 l-123 312q-4 11 -7.5 16t-5 5.5t-4.5 0.5q-4 0 -14 -24l-135 -324q-12 -32 -12 -35z" />
<glyph unicode="b" horiz-adv-x="1126" d="M74 14q0 9 15.5 13t42 6t34.5 4q46 10 61 66t15 159v780q0 70 -6.5 97.5t-36.5 38.5q-16 6 -46 8t-48.5 5t-18.5 13q0 11 18.5 16t36.5 5q27 0 91 -3t104 -3q37 0 99.5 3t105.5 3q163 0 278 -83t115 -222q0 -51 -10.5 -92.5t-25.5 -68t-38.5 -47.5t-41.5 -31.5t-42 -21.5 q-4 -2 -11 -4.5t-10 -4.5t-3 -5q0 -6 34 -18q33 -11 62.5 -25t67.5 -41t64.5 -60.5t45 -85t18.5 -112.5q0 -86 -40 -149.5t-108.5 -98.5t-146.5 -51t-167 -16q-41 0 -110 6t-122 6q-75 0 -150 -3t-87 -3q-39 0 -39 20zM459 274q0 -90 4.5 -130t17.5 -60q21 -26 39.5 -32.5 t63.5 -6.5q30 0 61 5.5t66.5 21t62 39.5t44.5 66.5t18 96.5q0 143 -94 231.5t-246 88.5q-25 0 -31 -4.5t-6 -18.5v-297zM459 702q0 -21 4 -26.5t22 -5.5h86q39 0 64.5 5.5t53.5 23t42 58t14 103.5q0 65 -24 121.5t-60.5 91.5t-75.5 54.5t-73 19.5t-43.5 -9.5t-9.5 -52.5 v-383z" />
<glyph unicode="c" horiz-adv-x="1341" d="M82 621q0 173 85 317t233 226.5t325 82.5q243 0 393 -49q36 -12 47 -12q6 0 18 4t19 4q15 0 15 -20q0 -8 -5.5 -45t-5.5 -50q0 -17 3 -53.5t3 -58.5q0 -66 -28 -66q-20 0 -27 16t-9.5 42t-8.5 38q-95 177 -414 177q-123 0 -216 -69.5t-140 -181t-47 -245.5 q0 -155 38.5 -277.5t107.5 -200t160.5 -117.5t200.5 -40q148 0 267 82q35 24 52 68t24.5 74t23.5 30q29 0 28 -45q0 -34 -20 -113q-16 -62 -16 -84q-4 -26 -47 -39q-170 -45 -375 -45q-97 0 -190 21t-184 70t-158.5 122t-109.5 185.5t-42 251.5z" />
<glyph unicode="d" horiz-adv-x="1460" d="M68 14q0 13 31.5 18.5t69.5 13.5t48 24q16 27 20.5 65t4.5 137v789q0 77 -31.5 101t-101.5 24q-29 0 -29 18q0 21 55 21q33 0 102 -3t109 -3q58 0 184.5 6t200.5 6q292 0 467.5 -157.5t175.5 -438.5q0 -316 -178.5 -482.5t-495.5 -166.5q-53 0 -167 7t-181 7 q-36 0 -115.5 -3t-127.5 -3q-24 0 -32.5 4t-8.5 16zM459 307q0 -96 10 -149.5t39 -75.5q26 -20 68.5 -26.5t121.5 -6.5q71 0 136 18t124.5 59t103 101.5t69.5 152.5t26 206q0 161 -67.5 293.5t-192.5 211t-283 78.5q-40 0 -59 -0.5t-42 -4t-32 -11t-15.5 -21t-6.5 -34.5 v-791z" />
<glyph unicode="e" horiz-adv-x="1050" d="M84 14q0 13 28.5 17.5t62.5 12t42 26.5q25 55 25 364v649q0 26 -8 45.5t-18 30t-28 18.5t-28.5 11t-28.5 6q-39 7 -39 16q0 17 47 17q30 0 96 -4t103 -4q129 0 256 3t202.5 6t80.5 3q18 0 18 -21q0 -6 -1 -19t-1 -20q0 -23 2 -67t1 -53q0 -33 -17 -33q-6 0 -9.5 2.5 t-6.5 7.5t-4.5 10.5t-4 15.5t-4.5 17q-14 44 -51 59t-109 15h-194q-22 0 -29.5 -8t-7.5 -31v-397q0 -18 4 -21.5t20 -3.5h189q56 0 82 18q14 9 25.5 58t25.5 49q20 0 20 -41q0 -7 -1.5 -49t-2.5 -66q0 -39 1 -84.5t2 -52.5q0 -35 -21 -35q-14 0 -19.5 19.5t-12 48 t-19.5 41.5q-14 14 -76 14h-193q-18 0 -21 -5t-3 -26v-393q0 -49 18 -65q33 -33 160 -33q120 0 172 20q52 23 78 82q1 1 3 6.5t3 7.5t3 5.5t4 5t5 3t6 1.5q19 0 19 -25q0 -18 -23.5 -76.5t-27.5 -74.5q-8 -27 -20.5 -35t-47.5 -8q-28 0 -178 3t-287 3q-23 0 -85.5 -3 t-110.5 -3q-66 0 -66 20z" />
<glyph unicode="f" horiz-adv-x="987" d="M90 1208q0 17 84 17q25 0 81.5 -3t92.5 -3h166q128 0 205 3.5t103 7t32 3.5q16 0 16 -45q0 -25 6.5 -70.5t6.5 -56.5q0 -41 -19 -41q-8 0 -12.5 4t-5.5 9.5t-4 19t-6 24.5q-18 62 -170 62h-183q-18 0 -21 -5t-3 -32v-408q0 -14 3.5 -18t16.5 -4h131q89 0 131 33 q17 15 21 57q1 11 2.5 17t6.5 11t13 5q23 0 23 -35q0 -18 -4 -58t-4 -59q0 -18 6 -117q2 -18 2 -53q0 -41 -23 -41q-24 0 -24 39q0 72 -15 90q-16 16 -45 23.5t-98 7.5h-123q-13 0 -16.5 -4.5t-3.5 -20.5v-295q0 -99 5.5 -150t22.5 -63q5 -5 12.5 -8.5t12.5 -5t17 -4.5 l16 -4q4 0 12 -2t12 -2q27 -5 27 -19q0 -20 -53 -20q-25 0 -99 4q-35 2 -94 2q-64 0 -162 -4q-25 -2 -57 -2q-31 0 -31 16q0 11 45 19q23 4 35 10q28 9 33 37q14 54 20.5 132.5t7.5 141.5t1 193v516q0 57 -10 82.5t-48 36.5q-17 6 -42.5 8.5t-38.5 6.5t-13 15z" />
<glyph unicode="g" horiz-adv-x="1464" d="M82 633q0 265 177 439.5t452 174.5q162 0 385 -49q61 -14 78 -14q23 0 37.5 12t23.5 12q18 0 18 -22q0 -3 -9 -49t-9 -74q0 -96 -6 -131t-25 -35q-14 0 -18.5 23t-13 60.5t-29.5 61.5q-36 42 -147.5 87t-256.5 45q-192 0 -309 -133.5t-117 -333.5q0 -334 130 -499 t364 -165q41 0 93.5 16t80.5 35q30 20 38.5 60.5t8.5 117.5v117q0 90 -6.5 121t-32.5 49q-18 12 -43.5 16.5t-39 7t-13.5 13.5q0 16 41 16q17 0 90 -4t115 -4q57 0 124 6t74 6q35 0 35 -20q0 -11 -15.5 -15.5t-39.5 -8.5t-35 -11q-25 -17 -32 -53.5t-7 -130.5v-273 q0 -39 -20 -51q-48 -27 -172.5 -54.5t-280.5 -27.5q-324 0 -506 164.5t-182 497.5z" />
<glyph unicode="h" horiz-adv-x="1564" d="M78 12q0 12 28 16t63.5 12t47.5 30q25 45 25 170v780q0 60 -4.5 86.5t-16.5 44.5q-15 22 -42.5 30.5t-46.5 12.5t-19 16q0 17 43 16q14 0 72.5 -3.5t119.5 -3.5q62 0 128 6t73 6q45 0 45 -21q0 -10 -17.5 -14t-43.5 -9t-41 -18q-21 -19 -27 -49t-6 -98v-309 q0 -18 4 -25.5t20 -7.5h600q16 0 21.5 7.5t5.5 25.5v340q0 83 -29 112q-14 13 -40.5 20t-45 12t-18.5 13q0 12 13 15.5t48 3.5q24 0 84 -5t92 -5q58 0 127 4t80 3q35 0 35 -18q0 -8 -15 -11.5t-38 -9.5t-37 -16q-25 -20 -32 -54t-7 -124v-547q0 -205 7.5 -286.5t29.5 -96.5 q21 -15 54 -23.5t53 -13t20 -14.5q0 -14 -15.5 -17t-52.5 -3q-9 0 -69 4t-133 4q-78 0 -138.5 -4t-76.5 -4q-45 0 -45 18q0 13 21 17.5t52 10.5t47 21q15 15 22 81t7 122v297q0 27 -29 27h-596q-17 0 -21.5 -5.5t-4.5 -21.5v-356q0 -52 6 -84.5t12.5 -43t18.5 -20.5 q14 -13 43 -18t49 -9t20 -18q0 -18 -49 -18q-11 0 -76 4t-131 4q-79 0 -149.5 -4t-81.5 -4q-23 0 -33 3.5t-10 16.5z" />
<glyph unicode="i" horiz-adv-x="704" d="M78 12q0 11 26.5 17t58.5 11t40 13q39 36 39 166v836q0 57 -7.5 83.5t-27.5 35.5q-13 6 -40 12t-44 11t-17 13q0 17 48 17q17 0 86.5 -4t109.5 -4q39 0 112.5 6t90.5 6q49 0 49 -17q0 -12 -18.5 -16.5t-46 -9t-41.5 -14.5q-23 -17 -30 -47.5t-7 -77.5v-789 q0 -64 2.5 -98.5t9 -62t23 -39.5t38 -18.5t60.5 -10.5q31 -3 31 -19q0 -18 -33 -18q-6 0 -82 3t-160 3q-102 0 -166 -4t-65 -4q-39 0 -39 20z" />
<glyph unicode="j" horiz-adv-x="673" d="M68 -299q0 6 2.5 9.5t7.5 5.5t8.5 3t10.5 1.5t9 0.5q27 3 47.5 14.5t35 29t24.5 49.5t15.5 65t8.5 88t4 106t1 130v788q0 95 -6.5 130.5t-34.5 49.5q-12 6 -41 10t-48.5 9.5t-19.5 17.5q0 17 51 17q17 0 90.5 -3t118.5 -3q44 0 115.5 5t89.5 5q39 0 39 -17q0 -15 -43 -22 q-51 -10 -70 -27q-9 -7 -14 -21.5t-7 -48.5t-2.5 -55t-0.5 -80v-849q0 -104 -34.5 -189.5t-86.5 -135.5t-107.5 -76.5t-103.5 -26.5q-59 0 -59 20z" />
<glyph unicode="k" horiz-adv-x="1433" d="M80 12q0 11 24 15t57.5 11t49.5 23q31 31 31 136v868q0 97 -45 115q-13 5 -37.5 8.5t-39 7t-14.5 12.5q0 17 50 18q11 0 79 -3.5t113 -3.5q52 0 128 4t87 4q39 0 39 -17q0 -12 -18.5 -16.5t-44 -7.5t-35.5 -10q-30 -20 -37.5 -53.5t-7.5 -114.5v-258q0 -26 1 -32.5 t7 -6.5q11 0 31 20l336 295q30 26 47.5 43t35 42t17.5 44q0 16 -13 24t-28 9t-28 4.5t-13 11.5q0 21 39 22q7 0 61 -3.5t113 -3.5q39 0 102.5 3t73.5 4q33 0 33 -16q0 -3 -1 -5t-3.5 -4l-5 -4t-7.5 -4t-9.5 -3.5t-12.5 -4t-14 -4t-16.5 -4.5t-18.5 -6q-82 -30 -144 -86 l-376 -333q-23 -20 -23 -27q0 -6 19 -25l516 -497q134 -134 186 -152q12 -4 42.5 -8t49.5 -9.5t19 -15.5q0 -24 -56 -24q-9 0 -62 3t-102 3q-21 0 -70 -3t-63 -3q-20 0 -53 29l-580 573q-16 16 -22 16q-8 0 -8 -26v-410q0 -47 9 -73.5t34 -49.5q18 -15 44.5 -20.5t42 -8.5 t15.5 -14q0 -16 -41 -16q-30 0 -102.5 3t-112.5 3q-43 0 -126 -3t-97 -3q-45 0 -45 18z" />
<glyph unicode="l" horiz-adv-x="995" d="M86 12q0 13 24.5 16.5t57.5 11t47 28.5q19 29 23 67.5t4 165.5v741q0 64 -4.5 84.5t-22.5 38.5q-9 9 -34.5 15t-44.5 11t-19 15q0 21 41 21q13 0 81.5 -4t106.5 -4q35 0 109 5t96 5q43 0 43 -19q0 -11 -15.5 -16t-41.5 -9t-39 -11q-26 -14 -32.5 -40t-6.5 -96v-800 q0 -63 14.5 -100.5t38.5 -43.5q45 -12 166 -12q101 0 150.5 21t68.5 81q13 41 31 41q24 0 24 -28q0 -11 -16.5 -58.5t-20.5 -64.5q-15 -65 -20 -72q-8 -10 -35 -10q-9 0 -76 2t-184.5 4t-249.5 2q-32 0 -82.5 -1.5t-90.5 -3t-44 -1.5q-12 0 -18 0.5t-14 2t-11.5 5.5t-3.5 10 z" />
<glyph unicode="m" horiz-adv-x="1769" d="M72 8q0 10 12.5 14t35 9.5t38.5 15.5q31 20 45 60.5t22 117.5l119 992q3 36 27 36q26 0 45 -36l426 -814q23 -43 32.5 -57t18.5 -14t18.5 14.5t30.5 56.5l412 832q12 25 32 25q29 0 35 -43l133 -981q15 -111 26.5 -143.5t39.5 -47.5q12 -6 33 -9t33 -7.5t12 -16.5 q0 -18 -74 -18q-2 0 -62.5 3t-111.5 3q-41 0 -97 -3t-77 -3q-49 0 -67.5 3t-18.5 15q0 11 11 15t37 7q6 1 9 1q52 7 67 42.5t15 112.5q0 35 -10 127l-49 420q-5 31 -10 31q-7 0 -25 -39l-340 -688q-21 -47 -43 -47q-21 0 -45 47l-369 704q-12 23 -16 23q-5 0 -8 -23 l-54 -456q-10 -78 -10 -135q0 -80 29 -103q14 -12 44.5 -17t51.5 -9t21 -15q0 -6 -2 -9.5t-8.5 -4.5t-12.5 -1.5t-20 -0.5q-19 0 -81 3t-98 3q-26 0 -84 -3t-73 -3q-45 0 -45 14z" />
<glyph unicode="n" horiz-adv-x="1558" d="M59 10q0 12 22.5 17t55 10.5t47.5 17.5q37 27 37 164v934q0 58 4 76t23 18q31 0 88 -57l844 -821q21 -21 26 -21q4 0 5 5.5t1 31.5v629q0 74 -4.5 102t-21.5 45q-16 16 -43 22.5t-45.5 10.5t-18.5 14q0 19 45 19q17 0 69.5 -4t78.5 -4q33 0 80.5 4t60.5 4q57 0 57 -17 q0 -11 -21.5 -16.5t-50 -11t-38.5 -13.5q-29 -23 -29 -211v-888q0 -62 -3.5 -80.5t-16.5 -18.5q-11 0 -25 10.5t-47 41.5l-856 831q-25 25 -35 25q-8 0 -8 -64v-600q0 -122 47 -160q15 -13 45 -18t51 -9t21 -14q0 -13 -10 -16.5t-41 -3.5q-12 0 -72 3t-98 3q-39 0 -107 -3 t-76 -3q-12 0 -17.5 0.5t-12 1.5t-9 4.5t-2.5 9.5z" />
<glyph unicode="o" d="M82 598q0 191 83.5 339t233.5 229t344 81q142 0 267 -51.5t210.5 -137t135 -196.5t49.5 -229q0 -107 -24 -203.5t-76.5 -181t-129 -145.5t-188.5 -96.5t-248 -35.5q-130 0 -249.5 46.5t-209.5 127.5t-144 199t-54 254zM317 666q0 -175 58 -317t165 -224t244 -82 q92 0 167 45t121 118.5t70.5 162t24.5 180.5q0 119 -29 229t-83.5 199.5t-142.5 143t-197 53.5q-87 0 -157.5 -34t-114 -87t-73 -122t-41.5 -135t-12 -130z" />
<glyph unicode="p" horiz-adv-x="1132" d="M82 12q0 13 27 16.5t62 11t50 28.5q16 23 20.5 72.5t4.5 142.5v782q0 27 -1 40t-5 29.5t-13.5 27.5t-25.5 20q-12 6 -33 7.5t-34 4t-13 12.5q0 21 31 21q10 0 76 -4t116 -4q23 0 113.5 7t136.5 7q66 0 128 -10t123 -34.5t105.5 -61.5t72.5 -96t28 -134 q0 -123 -61.5 -215.5t-172.5 -144.5q-75 -33 -149 -33q-18 0 -41 2t-50.5 11t-27.5 24q0 22 31 22q8 0 27.5 -5t31.5 -5q184 0 184 272q0 170 -78 249t-239 79q-28 0 -35.5 -22.5t-7.5 -92.5v-661q0 -274 29 -311q18 -20 53.5 -26.5t60.5 -10t25 -19.5q0 -18 -56 -18 q-12 0 -93.5 4t-125.5 4q-40 0 -122 -4t-97 -4q-55 0 -55 20z" />
<glyph unicode="q" d="M82 598q0 184 79.5 330.5t231.5 232.5t350 86q145 0 270.5 -51.5t210 -138t133 -199.5t48.5 -235q0 -311 -205 -498q-33 -29 -33 -37q0 -4 13 -14q208 -148 484 -244t472 -96q44 0 102 16.5t64 16.5q25 0 25 -17q0 -10 -9.5 -17t-36.5 -18q-71 -32 -186.5 -58t-224.5 -26 q-223 0 -418.5 82.5t-443.5 266.5q-26 20 -37 20q-13 0 -37 -8q-82 -21 -164 -21q-134 0 -248.5 36t-194 97.5t-136 142t-83 170t-26.5 181.5zM319 655q0 -86 17 -170.5t55 -164.5t92 -140.5t133.5 -97.5t174.5 -37q75 0 138.5 30.5t107 81t74 116.5t44.5 136.5t14 141.5 q0 115 -29 224t-82.5 199t-141 145t-193.5 55q-92 0 -165 -34t-117 -87.5t-72.5 -124.5t-39 -137.5t-10.5 -135.5z" />
<glyph unicode="r" horiz-adv-x="1335" d="M80 12q0 12 25.5 17t57 10t40.5 14q39 36 39 166v852q0 50 -6 68t-23 30q-19 13 -46.5 18t-42.5 8.5t-15 14.5q0 10 7 14t29 3q5 0 75.5 -4t127.5 -4q60 0 136.5 6t105.5 6q114 0 207 -35t151 -106.5t58 -167.5q0 -190 -179 -310q-7 -4 -15 -9t-12 -8t-8.5 -6t-6 -5.5 t-1.5 -5.5q0 -7 31 -43l242 -281q151 -177 221 -203q18 -7 44.5 -9.5t40 -6t13.5 -15.5q0 -16 -25.5 -20t-82.5 -4q-152 0 -238.5 24t-140.5 101l-223 317q-43 62 -58 73t-51 11h-84q-9 0 -11.5 -4t-2.5 -16v-223q0 -159 22 -201q12 -23 43 -33t54.5 -14.5t23.5 -16.5 q0 -20 -43 -20q-20 0 -93.5 3t-115.5 3q-64 0 -142.5 -4t-90.5 -4q-37 0 -37 20zM459 633q0 -24 3 -29.5t17 -5.5h131q34 0 63.5 12t57.5 39.5t44 82t16 130.5q0 40 -9 79t-28.5 76t-47 65.5t-69 45.5t-90.5 17h-43q-28 0 -36.5 -11t-8.5 -47v-454z" />
<glyph unicode="s" horiz-adv-x="919" d="M102 178q0 29 9.5 67t27.5 38q16 0 21 -15t7.5 -43t8.5 -43q52 -137 246 -137q102 0 161.5 54.5t59.5 160.5q0 31 -9.5 58t-19.5 44t-39.5 42.5t-44 36t-57.5 40.5l-192 133q-92 64 -134.5 139.5t-42.5 190.5q0 125 97 214t262 89q55 0 136 -13t93 -13q22 0 41 6t25 6 q10 0 10 -10q0 -5 -4 -27t-4 -43q0 -2 1 -19t1 -38q0 -146 -35 -146q-19 0 -24 27.5t-17 71.5t-47 73q-68 56 -176 56q-72 0 -131.5 -48t-59.5 -139q0 -38 8.5 -66t33 -54t47.5 -43t73 -50l144 -96q54 -36 90.5 -66t74 -72t56 -92.5t18.5 -109.5q0 -79 -37.5 -156.5 t-117.5 -136.5q-107 -78 -265 -78q-76 0 -129 10.5t-129 38.5q-18 7 -26.5 16t-8.5 30v51q0 14 -1 36t-1 25z" />
<glyph unicode="t" horiz-adv-x="1214" d="M51 1059q0 20 13.5 75.5t15.5 65.5q5 28 10 36.5t19 8.5q3 0 25.5 -6.5t81 -13t149.5 -6.5h520q44 0 143.5 3t106.5 3q10 0 15 -1t9 -5t4 -13q0 -13 -6.5 -38t-7.5 -38q-2 -14 -3.5 -31.5t-2.5 -27t-2.5 -20.5t-3.5 -16t-4.5 -10t-6.5 -7t-10 -2q-12 0 -15 8.5t-3 26.5 q0 26 -8 34q-31 37 -123 37h-230q-14 0 -18 -16.5t-4 -79.5v-600q0 -180 8.5 -257.5t30.5 -111.5q8 -14 42 -18t62.5 -8t28.5 -17t-14.5 -16.5t-45.5 -3.5q-19 0 -95 3t-124 3q-38 0 -119.5 -4t-99.5 -4q-51 0 -51 16t12.5 20t40.5 7q57 5 76 24q33 35 33 211v768 q0 26 -0.5 37.5t-3 24.5t-8.5 17.5t-17 4.5h-301q-43 0 -68 -55q-3 -7 -6 -22.5t-8.5 -22t-17.5 -6.5q-19 0 -19 43z" />
<glyph unicode="u" horiz-adv-x="1511" d="M82 1210q0 10 8 13t31 4q17 0 86 -4t115 -4q55 0 127.5 4t80.5 4q24 0 33.5 -3.5t9.5 -15.5q0 -9 -17.5 -14t-43 -9.5t-35.5 -8.5q-18 -8 -26 -20.5t-13.5 -59.5t-5.5 -144v-485q0 -63 8 -118.5t29.5 -111.5t55 -96t89.5 -65t129 -25q85 0 159.5 24t136 72t97 130.5 t35.5 189.5v373q0 154 -7 223.5t-27 89.5q-15 16 -50 24.5t-60.5 14.5t-25.5 18q0 10 10.5 12.5t35.5 2.5q9 0 70.5 -3t107.5 -3q41 0 91 4t60 4q54 0 54 -17q0 -10 -15.5 -13.5t-42.5 -7t-43 -11.5q-34 -17 -41.5 -58.5t-7.5 -146.5v-465q0 -255 -139.5 -396t-397.5 -141 q-243 0 -385.5 118t-142.5 333v524q0 193 -16 211q-12 14 -42 23t-52.5 15.5t-22.5 14.5z" />
<glyph unicode="v" horiz-adv-x="1406" d="M0 1208q0 17 57 17q13 0 78 -3t121 -3q36 0 98 3t84 3q43 0 43 -15q0 -12 -30 -16q-10 -3 -16.5 -5.5t-12.5 -10.5t-6 -21q0 -43 49 -158l272 -653q12 -29 19 -29q8 0 20 29l287 655q43 95 43 142q0 35 -35 49q-3 1 -10.5 4t-9.5 5t-2 7q0 17 34 17q8 0 48 -3t75 -3 q24 0 75 4t81 4q45 0 45 -19q0 -8 -19.5 -10.5t-48.5 -7t-45 -16.5q-45 -32 -100 -152l-453 -1026q-18 -43 -36 -43q-17 0 -33 37l-461 1050q-60 131 -133 146q-8 1 -21 2.5t-22 2.5t-17.5 3t-13 5.5t-4.5 8.5z" />
<glyph unicode="w" horiz-adv-x="2011" d="M0 1210q0 19 43 18q35 0 107.5 -4.5t113.5 -4.5q29 0 93.5 5t101.5 4.5t37 -18.5q0 -14 -39 -20q-56 -10 -56 -41q0 -12 17.5 -65.5t38.5 -104.5l205 -512q27 -68 33 -72q2 -2 5 -2q11 0 31 60l256 710q17 47 28 63.5t25 16.5t27.5 -18t34.5 -68l293 -708q24 -62 35 -62 q9 0 32 62l230 591q24 60 24 97q0 28 -16 39q-7 5 -29.5 7.5t-39.5 7t-17 17.5q0 17 37 17q14 0 64.5 -3t92.5 -3q28 0 89 5t85 4q29 0 29 -16q0 -11 -16.5 -14t-48.5 -8.5t-58 -20.5q-21 -13 -41 -46t-30.5 -60t-34.5 -92l-338 -910q-23 -62 -34.5 -82t-25.5 -20 q-12 0 -26 22t-37 78l-287 693q-22 51 -28.5 64t-12.5 13q-9 0 -32 -67l-238 -678q-25 -71 -40 -98t-30 -27q-13 0 -28.5 26t-40.5 91l-353 899q-76 196 -127 207q-16 3 -46 3.5t-44 5t-14 19.5z" />
<glyph unicode="x" horiz-adv-x="1284" d="M20 6q0 11 17.5 15t52.5 10t64 20q53 30 102 111l227 368q27 46 27 58q0 10 -23 51l-266 461q-19 33 -45 55t-45 27q-9 3 -34.5 4.5t-41.5 6t-16 15.5q0 17 35 16q34 0 102 -2.5t107 -2.5q45 0 109 4t89 4q29 0 29 -17q0 -3 -1 -5t-3 -4t-4 -3l-6 -3t-7 -3t-8 -3t-8 -3 q-20 -12 -20 -29q0 -29 28 -76l148 -258q2 -4 4.5 -8t3.5 -6.5t3 -5.5t3 -5t2 -3.5l2 -3t2 -2l2 -1t2 -0.5q5 0 25 33l139 232q33 53 33 98q0 20 -11.5 29.5t-25.5 10.5t-25.5 5t-11.5 14q0 17 35 17q9 0 61.5 -4t81.5 -4q32 0 85 3t89 2q41 0 41 -18q0 -9 -13 -11.5t-37 -5 t-40 -7.5q-68 -24 -143 -148l-197 -327q-16 -24 -16 -37q0 -7 20 -45l252 -432q64 -107 127 -142q14 -7 51 -11t64 -9t27 -17q0 -22 -68 -22q-15 0 -91 4t-132 4q-62 0 -138 -2t-79 -2q-31 0 -31 18q0 10 45 25q23 11 23 31q0 47 -41 112l-150 252q-15 27 -22 27 q-9 0 -27 -33l-156 -270q-32 -58 -32 -92q0 -28 24 -35q3 -1 18.5 -3.5t26 -6.5t10.5 -11q0 -16 -32 -16q-16 0 -75 3t-89 3q-34 0 -100.5 -6t-81.5 -6q-46 0 -46 18z" />
<glyph unicode="y" horiz-adv-x="1308" d="M-20 1210q0 25 69 25q33 0 102 -8t107 -8q22 0 72.5 3t81.5 3q61 0 61 -21q0 -8 -31.5 -15t-31.5 -22q0 -25 39 -86l247 -376q20 -33 27 -33t20 20l197 301q72 113 72 168q0 14 -9.5 21t-21.5 7.5t-21.5 4.5t-9.5 12q0 19 51 19q15 0 58 -3t67 -3t79 4t75 4q49 0 49 -15 t-49 -18q-90 -8 -156 -111l-315 -499q-18 -29 -22.5 -44t-4.5 -51v-264q0 -130 21 -153q22 -24 58.5 -32.5t60.5 -11.5t24 -16q0 -18 -49 -18q-15 0 -83 3t-136 3q-78 0 -149 -4t-80 -4q-48 0 -48 18q0 11 25.5 17t60 12.5t48.5 17.5q30 22 30 136v303q0 41 -18 69l-350 518 q-28 42 -49.5 63.5t-49.5 29.5q-25 7 -58.5 12t-46.5 9t-13 13z" />
<glyph unicode="z" horiz-adv-x="1280" d="M39 18q0 19 22 50l791 1026q14 19 14 26q0 6 -28 6h-299q-176 0 -248 -11t-107 -50q-16 -20 -20 -55q0 -45 -21 -45q-30 0 -30 75q0 23 8 72t8 76q0 20 6.5 27.5t32.5 7.5q30 0 121.5 -2t161.5 -2h423q72 0 166 3t97 3q37 0 37 -23q0 -7 -2 -13t-8.5 -15.5t-12 -16.5 t-20 -24.5t-25.5 -32.5l-717 -932q-37 -46 -37 -62t45 -16h273q393 0 442 37q14 11 37 40.5t41.5 51t30.5 21.5q18 0 18 -21q0 -15 -15 -43t-38 -72t-37 -86q-3 -10 -5 -14.5t-9 -10t-19 -5.5q-1 0 -49.5 3t-162.5 6t-273 3q-95 0 -303.5 -3t-239.5 -3q-49 0 -49 24z" />
<glyph unicode="{" horiz-adv-x="669" d="M41 713q0 17 18.5 24.5t47 9.5t36.5 5q82 38 82 176v368q0 248 299 248q43 0 43 -24t-49 -27q-71 -4 -88.5 -37t-17.5 -129v-342q0 -114 -44.5 -174t-150.5 -86q-1 0 -14 -2t-22 -5t-9 -7t9.5 -6t22.5 -3t15 -2q105 -24 149 -85t44 -175v-346q0 -97 20 -129.5t86 -36.5 q18 -1 26.5 -2.5t15.5 -6t7 -13.5q0 -13 -14 -21t-29 -8q-53 0 -94.5 6t-81 22t-65.5 43.5t-42 72.5t-16 106v369q0 135 -78 176q-9 5 -37 7t-48.5 9t-20.5 25z" />
<glyph unicode="|" horiz-adv-x="499" d="M164 -102v1628h172v-1628h-172z" />
<glyph unicode="}" horiz-adv-x="669" d="M102 -94q0 9 7.5 13.5t16 6t26.5 2.5q66 4 86 36.5t20 129.5v346q0 114 44 175t149 85q2 1 15 2t22.5 3t9.5 6t-9 7t-22 5t-14 2q-106 26 -150.5 86t-44.5 174v342q0 96 -17.5 129t-88.5 37q-50 3 -50 27t43 24q299 0 299 -248v-368q0 -138 82 -176q8 -3 36.5 -5 t47.5 -9.5t19 -24.5q0 -18 -20.5 -25t-49 -9t-37.5 -7q-78 -41 -78 -176v-369q0 -61 -16 -106t-42 -72.5t-65.5 -43.5t-81 -22t-94.5 -6q-15 0 -29 8t-14 21z" />
<glyph unicode="~" horiz-adv-x="1071" d="M102 623q0 139 59.5 207.5t162.5 68.5q47 0 96.5 -16.5t91.5 -39.5t82.5 -46t85 -39.5t84.5 -16.5q45 0 69.5 41.5t26.5 116.5h109q0 -82 -16.5 -138t-47 -85.5t-67 -42t-84.5 -12.5q-59 0 -123.5 25t-111.5 54.5t-104 54.5t-102 25q-96 0 -102 -157h-109z" />
<glyph unicode="&#xa1;" horiz-adv-x="491" d="M125 47l84 922q1 24 13.5 41.5t25.5 17.5q12 0 25 -19t14 -40l84 -922q4 -46 -32 -63t-91 -17t-91 17t-32 63zM139 1335q0 44 32.5 76.5t76.5 32.5t76 -32.5t32 -76.5t-32 -76t-76 -32t-76.5 32t-32.5 76z" />
<glyph unicode="&#xa2;" horiz-adv-x="1085" d="M102 723q0 142 67.5 260.5t184.5 186t256 67.5h37l23 180q1 10 2 12.5t3 4.5t7 2h78q10 0 10 -9q0 -27 -4 -47l-18 -149q73 -8 132 -25.5t74 -17.5q5 0 14 3t15 3q18 0 18 -25q0 -9 -4 -42l-4 -33q0 -14 1 -43t1 -47q0 -62 -26 -62q-16 0 -21 41q-5 24 -16 41 q-54 97 -193 127l-106 -887q36 -4 59 -4q109 0 197 57q21 15 45 51.5t27 65.5q4 35 18 35q25 0 25 -47q0 -48 -21 -113q-3 -10 -6 -25.5t-5 -24t-10.5 -18.5t-23.5 -16q-127 -37 -297 -37h-18l-29 -254q-1 -12 -6 -15t-17 -3h-63q-12 0 -12 8q0 19 4 39l26 234 q-67 12 -126.5 37t-114.5 68t-95 100.5t-64 140t-24 180.5zM301 768q0 -179 66 -299.5t172 -173.5l100 866q-4 0 -14 1t-15 1q-95 0 -166.5 -55.5t-107 -144.5t-35.5 -195z" />
<glyph unicode="&#xa3;" horiz-adv-x="1187" d="M41 16q0 17 16 27t53 24.5t64 30.5q34 21 57.5 40.5t50.5 55.5t43 82t26.5 118t10.5 165q0 46 -14 125h-203q-36 0 -36 10q0 4 10 37l14 43q5 12 10 14.5t27 2.5h154q-39 164 -39 251q0 207 122 316.5t320 109.5q65 0 150.5 -16t89.5 -16q23 0 42 7t31 7q7 0 7 -10 q0 -6 -4.5 -42t-4.5 -106v-5q0 -165 -32 -165q-15 0 -20 20.5t-6 49t-18 67t-51 66.5q-82 66 -206 66q-94 0 -159 -59t-65 -167q0 -43 7.5 -98t13 -83.5t23.5 -105.5t20 -87h225q35 0 35 -7q0 -8 -6 -24l-17 -49q-4 -17 -10 -22t-20 -5h-185q11 -68 11 -100 q0 -75 -21 -147.5t-51 -124t-59.5 -92t-50.5 -65.5t-21 -30q0 -17 22.5 -21t94.5 -4h126q179 0 287 26.5t146 55.5q18 14 35 32.5t27.5 27t23.5 8.5q10 0 10 -17q0 -9 -7.5 -27t-20.5 -45t-15 -32q-9 -20 -23.5 -60.5t-21.5 -58.5q-8 -24 -29 -24q-5 0 -46 4t-93 4 q-65 0 -196 3t-197 3h-281q-44 0 -89.5 -2t-55.5 -2q-31 0 -31 20z" />
<glyph unicode="&#xa4;" horiz-adv-x="1286" d="M20 588l11 37l14 43q4 12 9.5 14t27.5 2h86q0 54 6 107h-117q-37 0 -37 10l11 37l14 43q4 12 9.5 14t27.5 2h106q22 120 71.5 222t122 180t172.5 122.5t216 44.5q73 0 137 -14.5t98.5 -31.5t65.5 -31.5t47 -14.5q10 0 22 5t19 5q10 0 10 -22q-1 -11 -6.5 -52.5 t-5.5 -56.5q0 -13 3 -60t3 -73q0 -76 -24 -76q-11 0 -17.5 19.5t-17 58t-25.5 68.5q-40 83 -123.5 139.5t-218.5 56.5q-64 0 -113.5 -18t-82.5 -53.5t-55.5 -78.5t-34.5 -102t-17.5 -113.5t-7.5 -123.5h633q35 0 35 -6q-1 -9 -7 -25l-16 -49q-4 -17 -10.5 -21.5t-20.5 -4.5 h-614q0 -72 2 -107h557q35 0 35 -6q0 -9 -6 -25l-17 -49q-4 -17 -10 -21.5t-20 -4.5h-533q11 -122 38.5 -217t73.5 -167t115.5 -110.5t159.5 -38.5q98 0 196.5 81.5t137.5 178.5q5 11 7 24t2 21t3.5 13.5t12.5 5.5q24 0 24 -56q0 -36 -26 -151q-9 -35 -15 -70 q-5 -38 -49 -51q-9 -3 -65.5 -20.5t-89.5 -26t-93 -18t-116 -9.5q-119 0 -222 48t-176 131.5t-120 194.5t-60 237h-115q-37 0 -37 10z" />
<glyph unicode="&#xa5;" horiz-adv-x="1449" d="M41 1417q0 25 72 25q27 0 99 -4t99 -4q34 0 95.5 4t95.5 4q63 0 63 -25q0 -7 -36.5 -16t-36.5 -19q0 -45 47 -110l198 -326q27 -41 45 -41q12 0 29 23l170 241q32 43 62 102.5t30 96.5q0 16 -11.5 25t-24.5 11t-24.5 5t-11.5 8q0 23 52 23q19 0 77 -3t76 -3q33 0 77 3 t77 3q49 0 49 -21q0 -7 -16 -9.5t-42 -6t-42 -10.5q-21 -9 -60 -50t-59 -67l-328 -483q-13 -18 -23 -54.5t-10 -60.5v-64h246q35 0 35 -6q0 -8 -6 -24l-17 -49q-4 -17 -10 -22t-20 -5h-228v-107h246q35 0 35 -6q0 -8 -6 -24l-17 -49q-4 -17 -10 -22t-20 -5h-228v-113 q0 -73 25 -102q13 -17 50.5 -33t60.5 -16q49 0 49 -19q0 -22 -68 -22q-32 0 -111 5t-110 5q-33 0 -113.5 -5t-113.5 -5q-70 0 -70 20q0 5 5.5 9t16 7t20 5t23 4.5t19.5 3.5q50 9 67 48.5t17 135.5v72h-234q-36 0 -36 10q0 4 10 37l14 43q4 12 9.5 14t27.5 2h209v107h-234 q-36 0 -36 10q0 4 10 37l14 43q4 12 9.5 14t27.5 2h209v72q0 44 -25 84l-325 510q-31 47 -52.5 70t-43.5 32q-6 3 -34.5 8.5t-51.5 12.5t-23 14z" />
<glyph unicode="&#xa6;" horiz-adv-x="430" d="M123 -84v668h184v-668h-184zM123 870v670h184v-670h-184z" />
<glyph unicode="&#xa7;" horiz-adv-x="1083" d="M102 602q0 94 59.5 171.5t151.5 121.5q-104 113 -104 266q0 143 101.5 223t275.5 80q59 0 137 -16t82 -16q20 0 34 7t25 7q8 0 8 -14q0 -7 -3 -24.5t-3 -23.5q0 -12 1 -50t1 -50q0 -133 -28 -133q-9 0 -15 19.5t-10 46.5t-19.5 60.5t-41.5 55.5q-68 60 -187 60 q-36 0 -68.5 -8.5t-63 -27.5t-48.5 -56t-18 -87q0 -54 21.5 -94t54 -67t98.5 -68l149 -90q53 -33 99.5 -71t91.5 -88t71.5 -111.5t26.5 -124.5q0 -81 -53.5 -165t-151.5 -140q80 -100 80 -224q0 -185 -158 -301q-111 -82 -268 -82q-45 0 -85 5.5t-58.5 10.5t-62.5 19.5 t-58 18.5q-31 10 -31 45q0 7 -1 56.5t-1 61.5q0 31 8 71t23 40q12 0 15.5 -14.5t6.5 -42.5t11 -47q12 -30 29 -54t46 -46.5t75.5 -35t107.5 -12.5q108 0 171.5 59t63.5 175q0 67 -40.5 117t-135.5 114l-195 129q-121 80 -169 160t-48 184zM262 676q0 -45 13 -80t43.5 -66 t59.5 -52t81 -54l141 -90q11 -8 36 -23.5t44.5 -29t36.5 -27.5q45 39 71.5 77t26.5 85q0 81 -51.5 140t-165.5 134l-195 129q-15 9 -30 21q-111 -67 -111 -164z" />
<glyph unicode="&#xa8;" horiz-adv-x="585" d="M0 1667q0 46 34 78.5t81 32.5t80.5 -32.5t33.5 -78.5t-33.5 -78.5t-80.5 -32.5t-81 32.5t-34 78.5zM356 1667q0 46 34 78.5t81 32.5t81 -32.5t34 -78.5t-34 -78.5t-81 -32.5t-81 32.5t-34 78.5z" />
<glyph unicode="&#xa9;" horiz-adv-x="1847" d="M113 766q0 165 63.5 313.5t172 256.5t259 171.5t318.5 63.5q228 0 413.5 -104.5t290.5 -289t105 -411.5q0 -164 -63.5 -312t-171.5 -255.5t-258 -170.5t-316 -63q-172 0 -323.5 61t-258.5 167t-169 254.5t-62 318.5zM244 768q0 -143 53.5 -273.5t144.5 -225.5t218 -151.5 t266 -56.5q144 0 270.5 55t215.5 150t140.5 225.5t51.5 276.5q0 188 -89 350.5t-246 259.5t-343 97q-193 0 -349.5 -92.5t-244.5 -254.5t-88 -360zM438 782q0 70 25 141t85.5 141t147.5 112q46 24 117 38.5t141 14.5q139 0 256 -35q18 -9 31 -6l8 2q16 4 27 4q16 0 16 -25 q-1 -5 -3 -18.5t-3.5 -25t-1.5 -17.5q0 -4 1.5 -22t2 -35t-1 -35.5t-7.5 -29.5t-17 -11q-17 0 -23 13.5t-3 27t-1 20.5q-30 47 -72 74q-81 51 -219 51q-142 0 -240 -92.5t-98 -247.5q0 -109 50.5 -208.5t138 -160.5t188.5 -61q53 0 117 14.5t102 38.5q12 8 31.5 40.5 t26.5 52.5q0 1 1.5 6t2 6t2 5.5t3 5.5t4 3.5t6 3t7.5 0.5q13 0 19 -15t6 -28q0 -22 -17 -92q-2 -7 -5.5 -22t-4.5 -17q-1 -11 -7 -18t-10 -8.5t-14 -4.5q-157 -43 -276 -43q-82 0 -157 15t-145.5 50t-122.5 87t-83 132t-31 179z" />
<glyph unicode="&#xaa;" horiz-adv-x="839" d="M31 518q0 4 10 37l14 43q4 12 9.5 14t27.5 2h672q35 0 35 -6q0 -8 -6 -24l-17 -49q-4 -17 -10.5 -22t-20.5 -5h-677q-37 0 -37 10zM41 752q0 3 2 6t4 4.5t6.5 3t7 2l7.5 1.5t6 1q19 3 36 20.5t25 38.5l262 635q8 19 25 19t27 -23l253 -622q3 -6 9 -16.5t11 -18.5t9 -12 q6 -6 31 -13q4 -2 12 -5t12.5 -5t8.5 -7t4 -11q0 -17 -29 -17h-45q-7 0 -21.5 1t-21.5 1q-11 0 -36.5 -1t-39.5 -1h-76q-22 0 -22 17q0 13 24 20q11 2 20 8t9 15q0 23 -20 81l-23 64q-10 28 -15.5 36.5t-13.5 8.5h-190q-15 0 -20 -4t-11 -21l-26 -71q-25 -64 -25 -94 q0 -13 25 -17q12 0 29.5 -6.5t17.5 -15.5q0 -21 -27 -21q-35 0 -61 1t-27 1t-31.5 -1t-72.5 -1q-29 0 -29 19zM307 1053q0 -6 21 -6h127q16 0 16 8q0 6 -6 18l-66 166q-6 14 -10 14t-10 -14l-66 -168q-6 -12 -6 -18z" />
<glyph unicode="&#xab;" horiz-adv-x="972" d="M41 737q0 10 14 26t66 64l280 256q56 50 76 50q33 0 33 -31q0 -18 -33 -51l-176 -203q-72 -84 -72 -100q0 -21 45 -70l203 -219q33 -33 33 -45q0 -17 -12 -29l-15 -12q-29 -27 -41 -27q-17 0 -86 66l-245 235q-70 67 -70 90zM401 737q0 10 14 26t66 64l281 256 q56 50 76 50q32 0 32 -31q0 -19 -32 -51l-176 -203q-72 -84 -72 -100q0 -21 45 -70l203 -219q32 -32 32 -45q0 -17 -12 -29l-14 -12q-29 -27 -41 -27q-17 0 -86 66l-246 235q-70 67 -70 90z" />
<glyph unicode="&#xac;" horiz-adv-x="1101" d="M102 700v117h897v-479h-122v362h-775z" />
<glyph unicode="&#xad;" horiz-adv-x="745" d="M29 727l26 68q9 24 19 28t65 4h482q45 0 72.5 -11t27.5 -28q0 -35 -103 -47q-16 -2 -119.5 -11t-202 -19t-126.5 -15q-19 -3 -40 -8.5t-34 -8.5t-18 -3q-24 0 -40 16.5t-9 34.5z" />
<glyph unicode="&#xae;" horiz-adv-x="1847" d="M113 766q0 165 63.5 313.5t172 256.5t259 171.5t318.5 63.5q228 0 413.5 -104.5t290.5 -289t105 -411.5q0 -164 -63.5 -312t-171.5 -255.5t-258 -170.5t-316 -63q-172 0 -323.5 61t-258.5 167t-169 254.5t-62 318.5zM244 768q0 -143 53.5 -273.5t144.5 -225.5t218 -151.5 t266 -56.5q144 0 270.5 55t215.5 150t140.5 225.5t51.5 276.5q0 188 -89 350.5t-246 259.5t-343 97q-193 0 -349.5 -92.5t-244.5 -254.5t-88 -360zM471 1188q0 20 33 20l54 -1q53 -1 95 -1q35 0 88 4t78 4q82 0 152.5 -21.5t120 -73t49.5 -126.5q0 -150 -129 -239q2 -2 4 -6 l186 -213q1 -1 19.5 -21.5t29.5 -31.5t32 -31t36.5 -31.5t34 -21t32.5 -9.5h7.5h8.5t8 -0.5t8 -2t5.5 -3.5t5 -5.5t1.5 -8.5q0 -12 -20.5 -19.5t-39.5 -7.5h-82q-146 0 -219 90l-147 182q-9 10 -24.5 32.5t-23.5 31.5q-23 29 -49 29h-84q-2 2 -2 0v-160q0 -132 29 -150 l16 -8q4 -2 20 -3.5t27 -6t11 -14.5q0 -23 -37 -23q-3 0 -59 2t-78 2t-76 -2t-57 -2q-2 0 -11 -0.5t-14 -0.5t-11.5 1.5t-10 6t-3.5 11.5t7.5 13t15 9t20 6.5t15.5 4.5q28 12 28 84v619q0 17 -5.5 32.5t-10.5 18.5q-19 14 -49 18q-2 1 -9.5 3t-12 4t-9 6t-4.5 10zM739 778 q0 -2 15 -2h10h61q49 0 64 6q37 15 61.5 63t24.5 105q0 88 -42 137.5t-128 49.5h-39q-27 0 -27 -41v-318z" />
<glyph unicode="&#xaf;" horiz-adv-x="567" d="M0 1554q0 11 10 31q3 6 9.5 22t11.5 28t11.5 25t13 20.5t12.5 7.5q11 0 34.5 -6.5t38.5 -6.5h281q44 0 82 8.5t45 8.5q18 0 18 -17q0 -5 -9 -25t-23 -49.5t-21 -48.5q0 -1 -2 -4.5t-2.5 -4.5t-2.5 -3.5t-4 -3t-5 -0.5q-1 0 -13.5 5t-35 10t-48.5 5h-299q-27 0 -54.5 -7 t-29.5 -7q-18 0 -18 12z" />
<glyph unicode="&#xb0;" horiz-adv-x="694" d="M102 1200q0 102 71.5 173t176.5 71q109 0 175.5 -69.5t66.5 -168.5q-1 -105 -75 -174t-173 -69q-106 0 -174 69.5t-68 167.5zM178 1202q0 -71 50.5 -122.5t119.5 -51.5q70 0 119 52t49 126q0 69 -43.5 122.5t-126.5 53.5q-75 0 -121.5 -55t-46.5 -125z" />
<glyph unicode="&#xb1;" horiz-adv-x="1101" d="M102 74v116h897v-116h-897zM102 700v117h387v389h123v-389h387v-117h-387v-389h-123v389h-387z" />
<glyph unicode="&#xb2;" horiz-adv-x="835" d="M102 586q0 3 1.5 6t5.5 7.5t7.5 9t11 11.5t12.5 12t15.5 14.5t16.5 15.5l160 151q85 81 138.5 176t53.5 185q0 210 -170 210q-70 0 -110.5 -48.5t-40.5 -90.5q0 -11 -6 -18.5t-15 -7.5q-10 0 -18 14t-8 35q0 10 2 35t2 43q0 6 -3 20t-3 23q0 14 18 14q22 0 59 16 q72 35 154 35q143 0 229 -69t86 -183q0 -51 -20.5 -105.5t-46 -95t-74 -94t-78.5 -81.5t-84 -78q-90 -85 -96 -91q-4 -4 -4 -10q0 -4 6 -4h248q101 0 135 78q13 31 29 31q18 0 18 -17q0 -25 -20 -90q-8 -21 -8 -57q-3 -21 -23 -21q-42 0 -109.5 2t-109.5 2q-162 0 -248 -4 q-11 0 -31.5 -1t-33.5 -1q-48 0 -48 21z" />
<glyph unicode="&#xb3;" horiz-adv-x="749" d="M102 715q0 35 19 35q21 0 31 -39q11 -46 72.5 -70.5t109.5 -24.5q71 0 111 48t40 122q0 91 -45 148.5t-139 69.5q-16 2 -49 2q-9 0 -17 5.5t-8 16.5q0 16 18 24.5t34 8.5q101 4 131 20q39 21 53 53.5t14 96.5q0 72 -44 116t-107 44t-101 -30.5t-61 -88.5l-2 -9 q-3 -9 -7.5 -12.5t-13.5 -3.5q-5 0 -10.5 7t-5.5 18q0 12 3 36t3 48q0 1 -1 17t-1 30t12 14q1 0 3.5 -0.5t8 -1t11.5 -0.5q7 0 49 12q79 27 152 27q111 0 187.5 -60.5t76.5 -152.5q0 -40 -15.5 -74t-41 -57.5t-49 -38t-48.5 -24.5q63 -18 117.5 -79.5t54.5 -148.5 q0 -68 -27.5 -120.5t-76 -84t-110.5 -47.5t-134 -16q-58 0 -172 31q-18 5 -18 24q0 17 -3.5 52.5t-3.5 56.5z" />
<glyph unicode="&#xb4;" horiz-adv-x="475" d="M0 1579q0 16 25 37.5t69 42.5l189 88q61 27 73 27q19 0 60 -41q59 -62 59 -97q0 -13 -4.5 -15.5t-17.5 -2.5q-3 0 -28 2t-32 2q-139 0 -235 -23q-7 -2 -39 -11.5t-60.5 -17t-40.5 -7.5q-18 0 -18 16z" />
<glyph unicode="&#xb5;" horiz-adv-x="1984" d="M72 14q0 6 16 10t40 10.5t38 16.5q20 14 34 32.5t22 34t14 44.5t8 45t6 55l135 1172q6 41 25 41q23 0 43 -41l487 -963q26 -51 38.5 -70.5t22.5 -19.5q11 0 24 19.5t40 74.5l471 981q5 11 14.5 19t18.5 8q24 0 30 -49l150 -1160q1 -4 5.5 -46.5t8 -58t11.5 -46t22 -48 t33 -28.5q16 -9 38.5 -13t34 -7.5t11.5 -14.5q0 -18 -76 -18q-6 0 -79.5 3t-153.5 3q-37 0 -78.5 -3t-85.5 -3q-27 0 -39.5 0.5t-27 2t-20 5t-5.5 10.5q0 9 17.5 16.5t43.5 8.5q33 3 54.5 20t30 47.5t11 54.5t2.5 62q0 73 -10 152l-61 534q-2 17 -11 17q-7 0 -16 -21 l-410 -858q-26 -53 -43 -53t-43 53l-438 866q-6 15 -12 15q-9 0 -12 -31l-62 -543q-12 -114 -12 -174q0 -102 37 -123q21 -13 54 -20t54 -11.5t21 -11.5q0 -12 -9.5 -16t-33.5 -4q-7 0 -92 4t-111 4t-99.5 -4t-80.5 -4q-19 0 -25.5 0.5t-13 5.5t-6.5 16z" />
<glyph unicode="&#xb6;" horiz-adv-x="1458" d="M102 1032q0 171 128.5 289.5t318.5 118.5q17 0 144 -3t149 -3l166 6q166 6 217 6q37 0 37 -19q0 -8 -14.5 -12.5t-38.5 -11.5t-40 -21q-24 -19 -32.5 -73t-8.5 -154v-1022q0 -281 5 -381q0 -15 -15 -26q-16 -16 -84 -28.5t-98 -12.5q-10 0 -10 10q0 3 1.5 12.5t3.5 26 t3 33.5q10 108 10 366v1178q0 31 -16.5 43t-57.5 12q-21 0 -31 -1t-21.5 -5.5t-16 -15t-4.5 -29.5v-1174q0 -383 6 -463q0 -12 -12 -24q-17 -15 -86 -28t-99 -13q-16 0 -16 12q0 1 1.5 8t4.5 24.5t6 41.5q10 97 10 442v473h-37q-207 0 -340 114.5t-133 303.5zM438 1032 q0 -33 0.5 -55.5t4 -63.5t9.5 -70t19 -63.5t31 -56t46.5 -36.5t63.5 -15v616q0 41 -6 59.5t-24 18.5q-33 0 -58 -12t-40.5 -38t-25 -53.5t-13.5 -70.5t-5.5 -76.5t-1.5 -83.5z" />
<glyph unicode="&#xb7;" horiz-adv-x="421" d="M102 752q0 44 32.5 76t76.5 32t76 -32t32 -76t-32 -76.5t-76 -32.5t-76.5 32.5t-32.5 76.5z" />
<glyph unicode="&#xb8;" horiz-adv-x="378" d="M0 -469q0 29 27 37q227 73 227 176q0 90 -141 90q-11 0 -17 5.5t-6 10.5q0 4 22 32t55.5 69.5t49.5 62.5h100l-90 -118q30 0 62 -6t65 -19.5t54.5 -40.5t21.5 -63q0 -41 -18.5 -76t-44 -58.5t-64.5 -44t-69 -31.5t-68 -22q-15 -5 -71.5 -17t-67.5 -12q-27 0 -27 25z" />
<glyph unicode="&#xb9;" horiz-adv-x="671" d="M102 1333q0 17 21.5 27.5t64.5 21.5q58 15 99 29l65 25l66 24q14 0 14 -18q0 -47 -3 -148t-3 -159v-342q0 -140 20 -160q19 -19 80 -29q5 -1 14 -2t12.5 -1.5t8.5 -2.5t6.5 -5.5t1.5 -8.5q0 -9 -12.5 -18t-24.5 -9q-42 0 -94 6q-74 8 -94 8q-3 0 -102 -6q-49 -6 -109 -6 q-9 0 -16.5 5.5t-7.5 15.5q0 11 12 15.5t35 7.5q5 1 8 1q38 8 39 8q34 12 44.5 67t10.5 150v406q0 61 -4 78.5t-23 17.5q-4 0 -11.5 -1.5t-19 -4.5t-18.5 -4q-36 -8 -53 -8q-27 0 -27 20z" />
<glyph unicode="&#xba;" horiz-adv-x="839" d="M31 518q0 4 10 37l14 43q4 12 9.5 14t27.5 2h672q35 0 35 -6q0 -8 -6 -24l-17 -49q-4 -17 -10.5 -22t-20.5 -5h-677q-37 0 -37 10zM41 1092q0 171 105 277t272 106q106 0 193 -52t134.5 -135t47.5 -176q0 -80 -22 -149t-66 -124t-118.5 -86.5t-170.5 -31.5 q-153 0 -264 105.5t-111 265.5zM184 1130q0 -153 70.5 -253.5t185.5 -100.5q67 0 116.5 45t72 108.5t22.5 133.5q0 92 -27 171.5t-85.5 132t-137.5 52.5q-60 0 -104.5 -28.5t-67.5 -74.5t-34 -92.5t-11 -93.5z" />
<glyph unicode="&#xbb;" horiz-adv-x="972" d="M102 377q0 18 33 51l176 203q72 84 72 100q0 21 -45 70l-203 219q-33 33 -33 45q0 16 13 29l14 12q29 27 41 27q17 0 86 -66l246 -236q69 -66 69 -90q0 -11 -14 -27t-65 -63l-281 -256q-55 -49 -76 -49q-33 0 -33 31zM463 377q0 18 33 51l176 203q71 82 71 100 q0 21 -45 70l-202 219q-33 33 -33 45q0 17 12 29l14 12q29 27 41 27q17 0 86 -66l246 -236q70 -67 70 -90q0 -10 -14 -26t-66 -64l-281 -256q-55 -49 -75 -49q-33 0 -33 31z" />
<glyph unicode="&#xbc;" horiz-adv-x="1662" d="M102 1333q0 17 21.5 27.5t64.5 21.5q58 15 99 29l65 25l66 24q14 0 14 -18q0 -47 -3 -148t-3 -159v-342q0 -140 20 -160q19 -19 80 -29q5 -1 14 -2t12.5 -1.5t8.5 -2.5t6.5 -5.5t1.5 -8.5q0 -9 -12.5 -18t-24.5 -9q-42 0 -94 6q-74 8 -94 8q-3 0 -102 -6q-49 -6 -109 -6 q-9 0 -16.5 5.5t-7.5 15.5q0 11 12 15.5t35 7.5q5 1 8 1q38 8 39 8q34 12 44.5 67t10.5 150v406q0 61 -4 78.5t-23 17.5q-4 0 -11.5 -1.5t-19 -4.5t-18.5 -4q-36 -8 -53 -8q-27 0 -27 20zM451 -96q0 12 4 18l655 1655q6 18 16 18q5 0 13 -4l80 -28q8 -3 8 -15q0 -6 -2 -10 l-662 -1665q-6 -20 -16 -20q-6 0 -8 2l-78 32q-10 7 -10 17zM872 289q0 12 31 43l475 526q27 31 39 31q25 0 25 -27q0 -16 -2 -83t-2 -103v-322q0 -14 10 -14h80q18 0 21 -2t3 -10q0 -5 -4 -17l-4 -12l-10 -29q-3 -9 -9 -10.5t-30 -1.5h-47q-10 0 -10 -6v-119q0 -49 21 -70 t61 -26q41 -5 41 -21q0 -11 -12 -17.5t-21 -6.5q-24 0 -79 4t-85 4q-26 0 -84 -3t-94 -3q-11 0 -19 6.5t-8 15.5t15 15t28 6q70 7 70 78v133q0 10 -8 10h-371q-11 0 -16 10.5t-5 20.5zM995 344q0 -4 13 -4h254q10 0 10 10v252q0 29 -1 35t-5 6q-2 0 -4.5 -2.5t-8.5 -9.5 t-12 -13l-227 -247q-19 -22 -19 -27z" />
<glyph unicode="&#xbd;" horiz-adv-x="1765" d="M102 1333q0 17 21.5 27.5t64.5 21.5q58 15 99 29l65 25l66 24q14 0 14 -18q0 -47 -3 -148t-3 -159v-342q0 -140 20 -160q19 -19 80 -29q5 -1 14 -2t12.5 -1.5t8.5 -2.5t6.5 -5.5t1.5 -8.5q0 -9 -12.5 -18t-24.5 -9q-42 0 -94 6q-74 8 -94 8q-3 0 -102 -6q-49 -6 -109 -6 q-9 0 -16.5 5.5t-7.5 15.5q0 11 12 15.5t35 7.5q5 1 8 1q38 8 39 8q34 12 44.5 67t10.5 150v406q0 61 -4 78.5t-23 17.5q-4 0 -11.5 -1.5t-19 -4.5t-18.5 -4q-36 -8 -53 -8q-27 0 -27 20zM449 -96q0 12 4 18l655 1655q6 18 16 18q5 0 13 -4l80 -28q8 -3 8 -15q0 -6 -2 -10 l-662 -1665q-6 -20 -16 -20q-6 0 -8 2l-78 32q-10 7 -10 17zM1032 14q0 3 1.5 6t5.5 7.5t7.5 9t11 11.5t12.5 12t15.5 14.5t16.5 15.5l160 152q85 82 138.5 176t53.5 184q0 108 -45 159.5t-125 51.5q-70 0 -110.5 -48.5t-40.5 -90.5q0 -11 -6 -19t-15 -8q-10 0 -18.5 14 t-8.5 35q0 10 2.5 35t2.5 43q0 6 -3.5 20t-3.5 23q0 14 19 14q20 0 59 17q72 35 154 35q143 0 229 -69t86 -183q0 -51 -20.5 -105.5t-46.5 -95.5t-73.5 -94t-78 -82t-84.5 -78q-11 -11 -32 -29.5t-37 -33.5t-27 -27q-4 -4 -4 -10q0 -4 6 -4h248q101 0 135 78q13 30 29 30 q18 0 18 -16q0 -22 -21 -90q-8 -21 -8 -58q-3 -20 -22 -20q-42 0 -109.5 2t-109.5 2q-162 0 -248 -4q-11 0 -32 -1t-34 -1q-47 0 -47 20z" />
<glyph unicode="&#xbe;" horiz-adv-x="1679" d="M102 715q0 35 19 35q21 0 31 -39q11 -46 72.5 -70.5t109.5 -24.5q71 0 111 48t40 122q0 91 -45 148.5t-139 69.5q-16 2 -49 2q-9 0 -17 5.5t-8 16.5q0 16 18 24.5t34 8.5q101 4 131 20q39 21 53 53.5t14 96.5q0 72 -44 116t-107 44t-101 -30.5t-61 -88.5l-2 -9 q-3 -9 -7.5 -12.5t-13.5 -3.5q-5 0 -10.5 7t-5.5 18q0 12 3 36t3 48q0 1 -1 17t-1 30t12 14q1 0 3.5 -0.5t8 -1t11.5 -0.5q7 0 49 12q79 27 152 27q111 0 187.5 -60.5t76.5 -152.5q0 -40 -15.5 -74t-41 -57.5t-49 -38t-48.5 -24.5q63 -18 117.5 -79.5t54.5 -148.5 q0 -68 -27.5 -120.5t-76 -84t-110.5 -47.5t-134 -16q-58 0 -172 31q-18 5 -18 24q0 17 -3.5 52.5t-3.5 56.5zM457 -96q0 12 4 18l655 1655q6 18 17 18q4 0 12 -4l80 -28q8 -3 8 -15q0 -6 -2 -10l-662 -1665q-6 -20 -16 -20q-6 0 -8 2l-78 32q-10 7 -10 17zM889 289 q0 12 31 43l475 526q27 31 39 31q24 0 24 -27q0 -16 -2 -83t-2 -103v-322q0 -14 10 -14h80q18 0 21.5 -2t3.5 -10q0 -5 -4 -17l-4 -12l-11 -29q-3 -9 -9 -10.5t-30 -1.5h-47q-10 0 -10 -6v-119q0 -49 21 -70t61 -26q41 -5 41 -21q0 -11 -12 -17.5t-21 -6.5q-24 0 -79 4 t-85 4q-26 0 -84 -3t-94 -3q-11 0 -18.5 6.5t-7.5 15.5t15 15t28 6q69 7 69 78v133q0 10 -8 10h-371q-20 0 -20 31zM1012 344q0 -4 12 -4h254q10 0 10 10v252q0 29 -1 35t-5 6q-2 0 -4.5 -2.5t-8.5 -9.5t-12 -13l-227 -247q-18 -21 -18 -27z" />
<glyph unicode="&#xbf;" horiz-adv-x="694" d="M57 258q0 51 15 99.5t48 96.5t55.5 75t66.5 75q16 17 57.5 56.5t68.5 67t50.5 67.5t23.5 75q0 22 -35.5 50t-35.5 55q0 26 12.5 44.5t34.5 18.5q27 0 48.5 -19.5t33.5 -50.5t18 -64t6 -64q0 -52 -23 -111t-56 -113.5t-65.5 -110t-55.5 -117.5t-23 -118 q0 -108 43.5 -159.5t114.5 -51.5q30 0 49 17t25.5 37.5t18.5 37.5t30 17q41 0 41 -33q0 -62 -64.5 -115t-177.5 -53q-77 0 -149.5 32.5t-123.5 101t-51 157.5zM301 1335q0 44 32.5 76.5t76.5 32.5t76 -32.5t32 -76.5t-32 -76t-76 -32t-76.5 32t-32.5 76z" />
<glyph unicode="&#xc0;" horiz-adv-x="1384" d="M-61 16q0 6 4.5 10t12 5.5t14 2.5t14.5 2t10 1q55 10 84 40t53 89l533 1292q18 45 32 45q16 0 35 -51l520 -1270q31 -78 64 -116q11 -13 44.5 -19t60 -12.5t26.5 -22.5q0 -18 -45 -18q-29 0 -87 3t-87 3q-45 0 -153.5 -3t-153.5 -3q-35 0 -35 16q0 13 17.5 19.5t38.5 9 t38.5 16.5t17.5 41q0 41 -8 76t-33 98l-51 129q-28 71 -38.5 87t-32.5 16h-404q-25 0 -32 -5.5t-15 -27.5l-70 -174q-51 -130 -51 -197q0 -17 12.5 -28.5t23 -15t30.5 -7.5q4 -1 16 -2.5t22.5 -3.5t21.5 -5t17.5 -7.5t6.5 -10.5q0 -12 -6.5 -17.5t-12 -6t-18.5 -0.5 q-29 0 -90 3t-90 3q-33 0 -107.5 -3t-107.5 -3q-41 0 -41 22zM438 606q0 -8 29 -8h315q25 0 31 2t6 12q0 4 -18 58l-154 385q-9 24 -18 24q-8 0 -23 -41l-139 -356q-5 -13 -12.5 -32t-12 -30t-4.5 -14zM455 1636q0 35 59 97q41 41 59 41q21 0 74 -27l182 -92 q101 -51 101 -84q0 -15 -12 -15q-11 0 -27 4.5t-49.5 14.5t-73.5 18q-131 29 -231 29q-7 0 -32 -2t-28 -2q-13 0 -17.5 2.5t-4.5 15.5z" />
<glyph unicode="&#xc1;" horiz-adv-x="1384" d="M-61 16q0 6 4.5 10t12 5.5t14 2.5t14.5 2t10 1q55 10 84 40t53 89l533 1292q18 45 32 45q16 0 35 -51l520 -1270q31 -78 64 -116q11 -13 44.5 -19t60 -12.5t26.5 -22.5q0 -18 -45 -18q-29 0 -87 3t-87 3q-45 0 -153.5 -3t-153.5 -3q-35 0 -35 16q0 13 17.5 19.5t38.5 9 t38.5 16.5t17.5 41q0 41 -8 76t-33 98l-51 129q-28 71 -38.5 87t-32.5 16h-404q-25 0 -32 -5.5t-15 -27.5l-70 -174q-51 -130 -51 -197q0 -17 12.5 -28.5t23 -15t30.5 -7.5q4 -1 16 -2.5t22.5 -3.5t21.5 -5t17.5 -7.5t6.5 -10.5q0 -12 -6.5 -17.5t-12 -6t-18.5 -0.5 q-29 0 -90 3t-90 3q-33 0 -107.5 -3t-107.5 -3q-41 0 -41 22zM438 606q0 -8 29 -8h315q25 0 31 2t6 12q0 4 -18 58l-154 385q-9 24 -18 24q-8 0 -23 -41l-139 -356q-5 -13 -12.5 -32t-12 -30t-4.5 -14zM455 1579q0 16 25 37.5t69 42.5l188 88q61 27 74 27q18 0 59 -41 q60 -63 60 -97q0 -12 -4.5 -15t-18.5 -3q-3 0 -28 2t-31 2q-140 0 -236 -23q-8 -2 -39 -11.5t-59.5 -17t-40.5 -7.5q-18 0 -18 16z" />
<glyph unicode="&#xc2;" horiz-adv-x="1384" d="M-61 16q0 6 4.5 10t12 5.5t14 2.5t14.5 2t10 1q55 10 84 40t53 89l533 1292q18 45 32 45q16 0 35 -51l520 -1270q31 -78 64 -116q11 -13 44.5 -19t60 -12.5t26.5 -22.5q0 -18 -45 -18q-29 0 -87 3t-87 3q-45 0 -153.5 -3t-153.5 -3q-35 0 -35 16q0 13 17.5 19.5t38.5 9 t38.5 16.5t17.5 41q0 41 -8 76t-33 98l-51 129q-28 71 -38.5 87t-32.5 16h-404q-25 0 -32 -5.5t-15 -27.5l-70 -174q-51 -130 -51 -197q0 -17 12.5 -28.5t23 -15t30.5 -7.5q4 -1 16 -2.5t22.5 -3.5t21.5 -5t17.5 -7.5t6.5 -10.5q0 -12 -6.5 -17.5t-12 -6t-18.5 -0.5 q-29 0 -90 3t-90 3q-33 0 -107.5 -3t-107.5 -3q-41 0 -41 22zM391 1585q0 20 49 53q25 16 112.5 81t117.5 83q12 8 28 8q12 0 39 -20q44 -29 136 -80t108 -51q10 0 10 -8q0 -6 -43.5 -54.5t-54.5 -48.5q-7 0 -51 23l-125 80q-29 16 -41 16q-11 0 -66 -27l-94 -51 q-73 -33 -96 -33q-29 0 -29 29zM438 606q0 -8 29 -8h315q25 0 31 2t6 12q0 4 -18 58l-154 385q-9 24 -18 24q-8 0 -23 -41l-139 -356q-5 -13 -12.5 -32t-12 -30t-4.5 -14z" />
<glyph unicode="&#xc3;" horiz-adv-x="1384" d="M-61 16q0 6 4.5 10t12 5.5t14 2.5t14.5 2t10 1q55 10 84 40t53 89l533 1292q18 45 32 45q16 0 35 -51l520 -1270q31 -78 64 -116q11 -13 44.5 -19t60 -12.5t26.5 -22.5q0 -18 -45 -18q-29 0 -87 3t-87 3q-45 0 -153.5 -3t-153.5 -3q-35 0 -35 16q0 13 17.5 19.5t38.5 9 t38.5 16.5t17.5 41q0 41 -8 76t-33 98l-51 129q-28 71 -38.5 87t-32.5 16h-404q-25 0 -32 -5.5t-15 -27.5l-70 -174q-51 -130 -51 -197q0 -17 12.5 -28.5t23 -15t30.5 -7.5q4 -1 16 -2.5t22.5 -3.5t21.5 -5t17.5 -7.5t6.5 -10.5q0 -12 -6.5 -17.5t-12 -6t-18.5 -0.5 q-29 0 -90 3t-90 3q-33 0 -107.5 -3t-107.5 -3q-41 0 -41 22zM426 1579q0 41 54.5 98.5t105.5 57.5q64 0 159 -35t117 -35q26 0 46 10.5t28.5 22.5t19 22.5t21.5 10.5t17.5 -7.5t6.5 -17.5q0 -43 -54.5 -96.5t-110.5 -53.5q-65 0 -153 32t-122 32q-26 0 -45 -10t-26.5 -22 t-18 -22t-22.5 -10q-23 0 -23 23zM438 606q0 -8 29 -8h315q25 0 31 2t6 12q0 4 -18 58l-154 385q-9 24 -18 24q-8 0 -23 -41l-139 -356q-5 -13 -12.5 -32t-12 -30t-4.5 -14z" />
<glyph unicode="&#xc4;" horiz-adv-x="1384" d="M-61 16q0 6 4.5 10t12 5.5t14 2.5t14.5 2t10 1q55 10 84 40t53 89l533 1292q18 45 32 45q16 0 35 -51l520 -1270q31 -78 64 -116q11 -13 44.5 -19t60 -12.5t26.5 -22.5q0 -18 -45 -18q-29 0 -87 3t-87 3q-45 0 -153.5 -3t-153.5 -3q-35 0 -35 16q0 13 17.5 19.5t38.5 9 t38.5 16.5t17.5 41q0 41 -8 76t-33 98l-51 129q-28 71 -38.5 87t-32.5 16h-404q-25 0 -32 -5.5t-15 -27.5l-70 -174q-51 -130 -51 -197q0 -17 12.5 -28.5t23 -15t30.5 -7.5q4 -1 16 -2.5t22.5 -3.5t21.5 -5t17.5 -7.5t6.5 -10.5q0 -12 -6.5 -17.5t-12 -6t-18.5 -0.5 q-29 0 -90 3t-90 3q-33 0 -107.5 -3t-107.5 -3q-41 0 -41 22zM406 1667q0 46 33.5 78.5t80.5 32.5t81 -32.5t34 -78.5t-34 -78.5t-81 -32.5t-80.5 32.5t-33.5 78.5zM438 606q0 -8 29 -8h315q25 0 31 2t6 12q0 4 -18 58l-154 385q-9 24 -18 24q-8 0 -23 -41l-139 -356 q-5 -13 -12.5 -32t-12 -30t-4.5 -14zM762 1667q0 46 34 78.5t81 32.5t80.5 -32.5t33.5 -78.5t-33.5 -78.5t-80.5 -32.5t-81 32.5t-34 78.5z" />
<glyph unicode="&#xc5;" horiz-adv-x="1384" d="M-61 16q0 6 4.5 10t12 5.5t14 2.5t14.5 2t10 1q55 10 84 40t53 89l533 1292q18 45 32 45q16 0 35 -51l520 -1270q31 -78 64 -116q11 -13 44.5 -19t60 -12.5t26.5 -22.5q0 -18 -45 -18q-29 0 -87 3t-87 3q-45 0 -153.5 -3t-153.5 -3q-35 0 -35 16q0 13 17.5 19.5t38.5 9 t38.5 16.5t17.5 41q0 41 -8 76t-33 98l-51 129q-28 71 -38.5 87t-32.5 16h-404q-25 0 -32 -5.5t-15 -27.5l-70 -174q-51 -130 -51 -197q0 -17 12.5 -28.5t23 -15t30.5 -7.5q4 -1 16 -2.5t22.5 -3.5t21.5 -5t17.5 -7.5t6.5 -10.5q0 -12 -6.5 -17.5t-12 -6t-18.5 -0.5 q-29 0 -90 3t-90 3q-33 0 -107.5 -3t-107.5 -3q-41 0 -41 22zM438 606q0 -8 29 -8h315q25 0 31 2t6 12q0 4 -18 58l-154 385q-9 24 -18 24q-8 0 -23 -41l-139 -356q-5 -13 -12.5 -32t-12 -30t-4.5 -14zM489 1661q0 66 59 112t144 46t144 -46t59 -112t-59 -111t-144 -45 t-144 45t-59 111zM621 1663q0 -28 20 -47t49 -19t50.5 19t21.5 47t-21.5 47t-50.5 19t-49 -19t-20 -47z" />
<glyph unicode="&#xc6;" horiz-adv-x="1847" d="M-41 16q0 9 11.5 14.5t31.5 9t21 3.5q50 16 81 40.5t68 82.5l774 1206l-8 10q-11 14 -39.5 19.5t-51 9t-22.5 12.5q0 19 45 19q28 0 104 -4t103 -4q118 0 322 4q33 1 84 3.5t98 2.5q19 0 55 2t54 2q14 0 14 -23q0 -5 -1 -16t-1 -14q0 -25 3 -78t3 -78q0 -37 -12 -37 q-11 0 -16.5 10.5t-8.5 28t-4 21.5q-23 62 -82 79q-41 11 -129 11h-186q-64 0 -64 -49v-469q0 -22 5.5 -26.5t29.5 -4.5h217q72 0 98 20q16 12 24 42.5t14 53.5t16 23q16 0 16 -65q0 -19 -3 -55t-3 -54q0 -26 2 -71t2 -70q0 -37 -16 -37q-12 0 -16.5 16t-12.5 43.5t-27 46.5 q-17 17 -90 17h-235q-14 0 -17.5 -6t-3.5 -21v-477q0 -21 1 -31.5t6.5 -24t17.5 -24.5q39 -37 188 -37q136 0 197 23q38 15 61.5 48t34 58t19.5 25q14 0 14 -27q0 -21 -41 -123q-6 -14 -12 -34.5t-10 -33.5t-7 -16q-18 -18 -59 -18q-82 0 -265.5 3t-265.5 3q-34 0 -101 -4 t-101 -4q-17 0 -24 0.5t-20 2t-18.5 6.5t-5.5 13q0 13 27 17.5t60 14.5t44 36q27 68 27 420h-385q-38 0 -49.5 -8t-36.5 -52l-86 -147q-92 -158 -92 -197q0 -41 55 -53q4 -1 15.5 -2.5t21 -3t19.5 -4.5t16 -7t6 -10q0 -12 -7.5 -17.5t-14 -6t-19.5 -0.5q-28 0 -103 3t-104 3 q-33 0 -106.5 -3t-106.5 -3q-12 0 -17.5 0.5t-12.5 5.5t-7 16zM604 606q0 -8 27 -8h342v563q0 21 -4 21q-2 0 -11 -13l-311 -487q-39 -65 -43 -76z" />
<glyph unicode="&#xc7;" d="M82 731q0 153 56.5 289.5t153.5 234t231 154.5t284 57q126 0 225 -11t145.5 -24.5t83 -24.5t50.5 -11q11 0 22 5t19 5q10 0 10 -23q-1 -11 -6.5 -52t-5.5 -56q0 -14 3 -61t3 -72q0 -76 -25 -76q-18 0 -23 17t-8 47.5t-14 48.5q-119 208 -479 208q-108 0 -197 -47.5 t-147.5 -128.5t-90.5 -187t-32 -224q0 -147 32.5 -272t88.5 -212.5t131 -149t159.5 -91t174.5 -29.5q77 0 158.5 27t148.5 71q43 30 88 142q5 11 7 23.5t2 20.5t3.5 13.5t12.5 5.5q24 0 24 -55q0 -33 -27 -152q-7 -27 -14 -69q-3 -20 -17.5 -33.5t-31.5 -18.5 q-138 -39 -309 -49l-72 -96q30 0 62 -6t65 -19.5t54.5 -40.5t21.5 -63q0 -51 -25 -91t-70 -67.5t-82 -42.5t-87 -30q-15 -5 -72 -17t-68 -12q-26 0 -26 25q0 28 26 36q228 73 228 177q0 90 -142 90q-11 0 -16.5 5t-5.5 11q0 7 106 137h-14q-110 0 -215.5 24.5t-208 82 t-178.5 143t-123 218t-47 296.5z" />
<glyph unicode="&#xc8;" horiz-adv-x="1155" d="M102 14q0 13 32.5 17.5t70.5 14.5t49 36q27 66 27 430v766q0 44 -17.5 72t-42 39t-49 16t-42 9.5t-17.5 12.5q0 17 45 17q28 0 114 -5t113 -5q118 0 322 4q33 1 84 3.5t98 2.5q19 0 54 2t54 2q15 0 15 -23q0 -5 -1 -16t-1 -14q0 -25 3 -78t3 -78q0 -37 -12 -37 q-11 0 -16.5 10.5t-8.5 28t-4 21.5q-23 62 -82 79q-41 11 -129 11h-186q-64 0 -64 -49v-469q0 -22 5.5 -26.5t29.5 -4.5h217q72 0 98 20q16 12 24 45t14 58.5t16 25.5q16 0 16 -65q0 -19 -3 -60t-3 -59q0 -26 2 -81t2 -81q0 -37 -17 -37q-12 0 -16 21.5t-12 54t-27 51.5 q-17 17 -90 17h-235q-14 0 -17.5 -6t-3.5 -21v-477q0 -21 1 -31.5t6.5 -24t17.5 -24.5q39 -37 188 -37q136 0 197 23q30 12 51 35t29.5 43.5t17 36.5t16.5 16q15 0 15 -27q0 -21 -41 -123q-6 -14 -12 -34.5t-10 -33.5t-7 -16q-18 -18 -59 -18q-82 0 -265.5 3t-265.5 3 q-34 0 -111.5 -4t-111.5 -4q-17 0 -24 0.5t-20 2t-18.5 6.5t-5.5 13zM344 1636q0 35 59 97q41 41 60 41q21 0 74 -27l182 -92q100 -51 100 -84q0 -15 -12 -15q-11 0 -27 4.5t-49.5 14.5t-73.5 18q-131 29 -231 29q-7 0 -31.5 -2t-27.5 -2q-10 0 -13.5 0.5t-6.5 4.5t-3 13z " />
<glyph unicode="&#xc9;" horiz-adv-x="1155" d="M102 14q0 13 32.5 17.5t70.5 14.5t49 36q27 66 27 430v766q0 44 -17.5 72t-42 39t-49 16t-42 9.5t-17.5 12.5q0 17 45 17q28 0 114 -5t113 -5q118 0 322 4q33 1 84 3.5t98 2.5q19 0 54 2t54 2q15 0 15 -23q0 -5 -1 -16t-1 -14q0 -25 3 -78t3 -78q0 -37 -12 -37 q-11 0 -16.5 10.5t-8.5 28t-4 21.5q-23 62 -82 79q-41 11 -129 11h-186q-64 0 -64 -49v-469q0 -22 5.5 -26.5t29.5 -4.5h217q72 0 98 20q16 12 24 45t14 58.5t16 25.5q16 0 16 -65q0 -19 -3 -60t-3 -59q0 -26 2 -81t2 -81q0 -37 -17 -37q-12 0 -16 21.5t-12 54t-27 51.5 q-17 17 -90 17h-235q-14 0 -17.5 -6t-3.5 -21v-477q0 -21 1 -31.5t6.5 -24t17.5 -24.5q39 -37 188 -37q136 0 197 23q30 12 51 35t29.5 43.5t17 36.5t16.5 16q15 0 15 -27q0 -21 -41 -123q-6 -14 -12 -34.5t-10 -33.5t-7 -16q-18 -18 -59 -18q-82 0 -265.5 3t-265.5 3 q-34 0 -111.5 -4t-111.5 -4q-17 0 -24 0.5t-20 2t-18.5 6.5t-5.5 13zM446 1579q0 15 25 37t70 43l188 88q61 27 74 27q18 0 59 -41q60 -63 60 -97q0 -12 -4.5 -15t-18.5 -3q-3 0 -28 2t-31 2q-140 0 -236 -23q-8 -2 -39 -11.5t-59.5 -17t-40.5 -7.5q-19 0 -19 16z" />
<glyph unicode="&#xca;" horiz-adv-x="1155" d="M102 14q0 13 32.5 17.5t70.5 14.5t49 36q27 66 27 430v766q0 44 -17.5 72t-42 39t-49 16t-42 9.5t-17.5 12.5q0 17 45 17q28 0 114 -5t113 -5q118 0 322 4q33 1 84 3.5t98 2.5q19 0 54 2t54 2q15 0 15 -23q0 -5 -1 -16t-1 -14q0 -25 3 -78t3 -78q0 -37 -12 -37 q-11 0 -16.5 10.5t-8.5 28t-4 21.5q-23 62 -82 79q-41 11 -129 11h-186q-64 0 -64 -49v-469q0 -22 5.5 -26.5t29.5 -4.5h217q72 0 98 20q16 12 24 45t14 58.5t16 25.5q16 0 16 -65q0 -19 -3 -60t-3 -59q0 -26 2 -81t2 -81q0 -37 -17 -37q-12 0 -16 21.5t-12 54t-27 51.5 q-17 17 -90 17h-235q-14 0 -17.5 -6t-3.5 -21v-477q0 -21 1 -31.5t6.5 -24t17.5 -24.5q39 -37 188 -37q136 0 197 23q30 12 51 35t29.5 43.5t17 36.5t16.5 16q15 0 15 -27q0 -21 -41 -123q-6 -14 -12 -34.5t-10 -33.5t-7 -16q-18 -18 -59 -18q-82 0 -265.5 3t-265.5 3 q-34 0 -111.5 -4t-111.5 -4q-17 0 -24 0.5t-20 2t-18.5 6.5t-5.5 13zM328 1585q0 20 49 53q25 16 112 81t117 83q12 8 29 8q12 0 39 -20q44 -29 136 -80t108 -51q10 0 10 -8q0 -6 -44 -54.5t-55 -48.5q-7 0 -51 23l-125 80q-29 16 -41 16q-10 0 -65 -27l-94 -51 q-73 -33 -97 -33q-28 0 -28 29z" />
<glyph unicode="&#xcb;" horiz-adv-x="1155" d="M102 14q0 13 32.5 17.5t70.5 14.5t49 36q27 66 27 430v766q0 44 -17.5 72t-42 39t-49 16t-42 9.5t-17.5 12.5q0 17 45 17q28 0 114 -5t113 -5q118 0 322 4q33 1 84 3.5t98 2.5q19 0 54 2t54 2q15 0 15 -23q0 -5 -1 -16t-1 -14q0 -25 3 -78t3 -78q0 -37 -12 -37 q-11 0 -16.5 10.5t-8.5 28t-4 21.5q-23 62 -82 79q-41 11 -129 11h-186q-64 0 -64 -49v-469q0 -22 5.5 -26.5t29.5 -4.5h217q72 0 98 20q16 12 24 45t14 58.5t16 25.5q16 0 16 -65q0 -19 -3 -60t-3 -59q0 -26 2 -81t2 -81q0 -37 -17 -37q-12 0 -16 21.5t-12 54t-27 51.5 q-17 17 -90 17h-235q-14 0 -17.5 -6t-3.5 -21v-477q0 -21 1 -31.5t6.5 -24t17.5 -24.5q39 -37 188 -37q136 0 197 23q30 12 51 35t29.5 43.5t17 36.5t16.5 16q15 0 15 -27q0 -21 -41 -123q-6 -14 -12 -34.5t-10 -33.5t-7 -16q-18 -18 -59 -18q-82 0 -265.5 3t-265.5 3 q-34 0 -111.5 -4t-111.5 -4q-17 0 -24 0.5t-20 2t-18.5 6.5t-5.5 13zM309 1667q0 46 34 78.5t81 32.5t81 -32.5t34 -78.5t-34 -78.5t-81 -32.5t-81 32.5t-34 78.5zM666 1667q0 46 33.5 78.5t80.5 32.5t81 -32.5t34 -78.5t-34 -78.5t-81 -32.5t-80.5 32.5t-33.5 78.5z" />
<glyph unicode="&#xcc;" horiz-adv-x="765" d="M80 12q0 12 25.5 17t61.5 10.5t52 17.5q47 36 47 199v987q0 66 -9.5 97t-35.5 44q-20 11 -48.5 17.5t-44 10.5t-15.5 13q0 19 45 19q1 0 96 -5t127 -5q29 0 124.5 7t108.5 7q50 0 50 -23q0 -7 -21.5 -12.5t-52.5 -12t-45 -14.5q-45 -27 -45 -149v-930q0 -63 1.5 -100 t8 -70t15.5 -48.5t28.5 -29t43 -18.5t62.5 -10q12 -1 19.5 -7t7.5 -12q0 -20 -31 -20q-4 0 -53 2t-113 4t-106 2q-60 0 -122 -2.5t-101 -5t-43 -2.5q-37 0 -37 22zM84 1636q0 35 59 97q41 41 60 41q20 0 73 -27l183 -92q100 -51 100 -84q0 -15 -12 -15q-11 0 -27 4.5 t-49.5 14.5t-73.5 18q-131 29 -231 29q-6 0 -31 -2t-29 -2q-14 0 -18 2.5t-4 15.5z" />
<glyph unicode="&#xcd;" horiz-adv-x="765" d="M80 12q0 12 25.5 17t61.5 10.5t52 17.5q47 36 47 199v987q0 66 -9.5 97t-35.5 44q-20 11 -48.5 17.5t-44 10.5t-15.5 13q0 19 45 19q1 0 96 -5t127 -5q29 0 124.5 7t108.5 7q50 0 50 -23q0 -7 -21.5 -12.5t-52.5 -12t-45 -14.5q-45 -27 -45 -149v-930q0 -63 1.5 -100 t8 -70t15.5 -48.5t28.5 -29t43 -18.5t62.5 -10q12 -1 19.5 -7t7.5 -12q0 -20 -31 -20q-4 0 -53 2t-113 4t-106 2q-60 0 -122 -2.5t-101 -5t-43 -2.5q-37 0 -37 22zM207 1579q0 16 25 37.5t69 42.5l188 88q61 27 74 27q19 0 60 -41q59 -62 59 -97q0 -12 -4.5 -15t-18.5 -3 q-3 0 -28 2t-31 2q-139 0 -235 -23q-7 -2 -39 -11.5t-60.5 -17t-40.5 -7.5q-18 0 -18 16z" />
<glyph unicode="&#xce;" horiz-adv-x="765" d="M80 12q0 12 25.5 17t61.5 10.5t52 17.5q47 36 47 199v987q0 66 -9.5 97t-35.5 44q-20 11 -48.5 17.5t-44 10.5t-15.5 13q0 19 45 19q1 0 96 -5t127 -5q29 0 124.5 7t108.5 7q50 0 50 -23q0 -7 -21.5 -12.5t-52.5 -12t-45 -14.5q-45 -27 -45 -149v-930q0 -63 1.5 -100 t8 -70t15.5 -48.5t28.5 -29t43 -18.5t62.5 -10q12 -1 19.5 -7t7.5 -12q0 -20 -31 -20q-4 0 -53 2t-113 4t-106 2q-60 0 -122 -2.5t-101 -5t-43 -2.5q-37 0 -37 22zM82 1585q0 20 49 53q25 16 112 81t117 83q12 8 29 8q12 0 39 -20q44 -29 136 -80t108 -51q10 0 10 -8 q0 -6 -43.5 -54.5t-54.5 -48.5q-8 0 -52 23l-124 80q-29 16 -41 16q-11 0 -66 -27l-94 -51q-73 -33 -96 -33q-29 0 -29 29z" />
<glyph unicode="&#xcf;" horiz-adv-x="765" d="M80 12q0 12 25.5 17t61.5 10.5t52 17.5q47 36 47 199v987q0 66 -9.5 97t-35.5 44q-20 11 -48.5 17.5t-44 10.5t-15.5 13q0 19 45 19q1 0 96 -5t127 -5q29 0 124.5 7t108.5 7q50 0 50 -23q0 -7 -21.5 -12.5t-52.5 -12t-45 -14.5q-45 -27 -45 -149v-930q0 -63 1.5 -100 t8 -70t15.5 -48.5t28.5 -29t43 -18.5t62.5 -10q12 -1 19.5 -7t7.5 -12q0 -20 -31 -20q-4 0 -53 2t-113 4t-106 2q-60 0 -122 -2.5t-101 -5t-43 -2.5q-37 0 -37 22zM90 1667q0 46 34 78.5t81 32.5t80.5 -32.5t33.5 -78.5t-33.5 -78.5t-80.5 -32.5t-81 32.5t-34 78.5z M446 1667q0 46 34 78.5t81 32.5t81 -32.5t34 -78.5t-34 -78.5t-81 -32.5t-81 32.5t-34 78.5z" />
<glyph unicode="&#xd0;" horiz-adv-x="1628" d="M72 16q0 3 2.5 5.5t7.5 4.5t10.5 3.5t13.5 3t13.5 2.5t14 2t11.5 2q1 0 14 2t19 3t18 4.5t19 7t14.5 9.5t10.5 13q28 66 28 244v325q0 33 -5.5 39t-35.5 6h-106q-37 0 -37 10q0 4 10 37l15 43q5 12 10 14.5t26 2.5h82q30 0 35.5 5.5t5.5 33.5v413q0 91 -38 120.5 t-121 29.5q-27 0 -27 18q0 5 5.5 10t19 9t32.5 4q17 0 114 -4t126 -4q51 0 187 7t253 7q216 0 379 -80.5t255.5 -240t92.5 -379.5q0 -372 -202 -568t-560 -196q-83 0 -210 8t-187 8q-65 0 -164 -4t-110 -4q-41 0 -41 24zM502 360q0 -117 11.5 -179t45.5 -89q29 -23 79.5 -31 t143.5 -8q83 0 158 21t144 69.5t119 120.5t80 181.5t30 244.5q0 190 -78 347t-223 250t-328 93l-104 -6q-78 0 -78 -80v-460q0 -26 5.5 -30.5t35.5 -4.5h284q35 0 35 -8q0 -5 -6 -23l-16 -49q-4 -17 -10.5 -22t-20.5 -5h-266q-30 0 -35.5 -7.5t-5.5 -49.5v-275z" />
<glyph unicode="&#xd1;" horiz-adv-x="1812" d="M59 10q0 14 24.5 18.5t62 10.5t57.5 22q43 37 43 195v1102q0 88 7 101q7 9 17 9q28 0 95 -67l964 -969q26 -29 39 -29q10 0 10 41v750q0 88 -6 123t-26 55q-19 19 -50 26t-51 10t-20 15q0 21 43 21q6 0 67 -5t92 -5q30 0 96.5 5t75.5 5q58 0 58 -17q0 -12 -21 -17.5 t-53 -12t-49 -17.5q-20 -13 -27.5 -63.5t-7.5 -186.5v-1050q0 -64 -3.5 -88.5t-14.5 -24.5q-6 0 -13 4t-21 16.5t-24 22.5l-34 34l-9 9l-952 957q-32 32 -45 32q-9 0 -11.5 -15t-2.5 -66v-711q0 -147 55 -191q19 -15 52.5 -21t56 -10t22.5 -14q0 -14 -9.5 -18t-41.5 -4 q-16 0 -89 4t-102 4q-31 0 -119 -4t-94 -4q-41 0 -41 18zM588 1579q0 41 54.5 98.5t105.5 57.5q64 0 159 -35t117 -35q26 0 46 10.5t28.5 22.5t19 22.5t21.5 10.5t17.5 -7.5t6.5 -17.5q0 -43 -55 -96.5t-111 -53.5q-65 0 -152.5 32t-121.5 32q-26 0 -45 -10t-27 -22 t-18.5 -22t-22.5 -10q-22 0 -22 23z" />
<glyph unicode="&#xd2;" horiz-adv-x="1658" d="M82 705q0 168 55 310.5t153.5 241t237.5 154t303 55.5q128 0 244.5 -39t206.5 -108t157.5 -159.5t102.5 -197.5t35 -217q0 -126 -27 -239t-86 -212.5t-145.5 -171.5t-213 -113.5t-280.5 -41.5q-146 0 -281.5 54.5t-237.5 150t-163 235t-61 298.5zM338 782 q0 -207 66.5 -374.5t190 -265t282.5 -97.5q107 0 194.5 54t141 141.5t82 192t28.5 212.5q0 142 -34 273.5t-97.5 236.5t-165.5 168t-227 63q-101 0 -182.5 -40t-132 -103t-85 -145t-48 -160.5t-13.5 -155.5zM467 1636q0 35 59 97q41 41 60 41q20 0 73 -27l183 -92 q100 -51 100 -84q0 -15 -12 -15q-11 0 -27 4.5t-49.5 14.5t-73.5 18q-131 29 -231 29q-7 0 -32 -2t-28 -2q-13 0 -17.5 2.5t-4.5 15.5z" />
<glyph unicode="&#xd3;" horiz-adv-x="1658" d="M82 705q0 168 55 310.5t153.5 241t237.5 154t303 55.5q128 0 244.5 -39t206.5 -108t157.5 -159.5t102.5 -197.5t35 -217q0 -126 -27 -239t-86 -212.5t-145.5 -171.5t-213 -113.5t-280.5 -41.5q-146 0 -281.5 54.5t-237.5 150t-163 235t-61 298.5zM338 782 q0 -207 66.5 -374.5t190 -265t282.5 -97.5q107 0 194.5 54t141 141.5t82 192t28.5 212.5q0 142 -34 273.5t-97.5 236.5t-165.5 168t-227 63q-101 0 -182.5 -40t-132 -103t-85 -145t-48 -160.5t-13.5 -155.5zM631 1579q0 16 25 37.5t69 42.5l188 88q61 27 74 27q19 0 60 -41 q59 -62 59 -97q0 -12 -4.5 -15t-18.5 -3q-3 0 -28 2t-31 2q-140 0 -236 -23q-8 -2 -39 -11.5t-59.5 -17t-40.5 -7.5q-18 0 -18 16z" />
<glyph unicode="&#xd4;" horiz-adv-x="1658" d="M82 705q0 168 55 310.5t153.5 241t237.5 154t303 55.5q128 0 244.5 -39t206.5 -108t157.5 -159.5t102.5 -197.5t35 -217q0 -126 -27 -239t-86 -212.5t-145.5 -171.5t-213 -113.5t-280.5 -41.5q-146 0 -281.5 54.5t-237.5 150t-163 235t-61 298.5zM338 782 q0 -207 66.5 -374.5t190 -265t282.5 -97.5q107 0 194.5 54t141 141.5t82 192t28.5 212.5q0 142 -34 273.5t-97.5 236.5t-165.5 168t-227 63q-101 0 -182.5 -40t-132 -103t-85 -145t-48 -160.5t-13.5 -155.5zM516 1585q0 20 49 53q25 16 112.5 81t117.5 83q12 8 28 8 q12 0 39 -20q44 -29 136 -80t108 -51q10 0 10 -8q0 -6 -43.5 -54.5t-54.5 -48.5q-7 0 -51 23l-125 80q-29 16 -41 16q-11 0 -66 -27l-94 -51q-73 -33 -96 -33q-29 0 -29 29z" />
<glyph unicode="&#xd5;" horiz-adv-x="1658" d="M82 705q0 168 55 310.5t153.5 241t237.5 154t303 55.5q128 0 244.5 -39t206.5 -108t157.5 -159.5t102.5 -197.5t35 -217q0 -126 -27 -239t-86 -212.5t-145.5 -171.5t-213 -113.5t-280.5 -41.5q-146 0 -281.5 54.5t-237.5 150t-163 235t-61 298.5zM338 782 q0 -207 66.5 -374.5t190 -265t282.5 -97.5q107 0 194.5 54t141 141.5t82 192t28.5 212.5q0 142 -34 273.5t-97.5 236.5t-165.5 168t-227 63q-101 0 -182.5 -40t-132 -103t-85 -145t-48 -160.5t-13.5 -155.5zM539 1579q0 41 54 98.5t105 57.5q64 0 159 -35t118 -35 q26 0 46 10.5t28.5 22.5t19 22.5t21.5 10.5t17.5 -7.5t6.5 -17.5q0 -43 -55 -96.5t-111 -53.5q-65 0 -152.5 32t-121.5 32q-26 0 -45 -10t-27 -22t-18.5 -22t-22.5 -10q-22 0 -22 23z" />
<glyph unicode="&#xd6;" horiz-adv-x="1658" d="M82 705q0 168 55 310.5t153.5 241t237.5 154t303 55.5q128 0 244.5 -39t206.5 -108t157.5 -159.5t102.5 -197.5t35 -217q0 -126 -27 -239t-86 -212.5t-145.5 -171.5t-213 -113.5t-280.5 -41.5q-146 0 -281.5 54.5t-237.5 150t-163 235t-61 298.5zM338 782 q0 -207 66.5 -374.5t190 -265t282.5 -97.5q107 0 194.5 54t141 141.5t82 192t28.5 212.5q0 142 -34 273.5t-97.5 236.5t-165.5 168t-227 63q-101 0 -182.5 -40t-132 -103t-85 -145t-48 -160.5t-13.5 -155.5zM535 1667q0 46 33.5 78.5t80.5 32.5t81 -32.5t34 -78.5t-34 -78.5 t-81 -32.5t-80.5 32.5t-33.5 78.5zM891 1667q0 46 34 78.5t81 32.5t80.5 -32.5t33.5 -78.5t-33.5 -78.5t-80.5 -32.5t-81 32.5t-34 78.5z" />
<glyph unicode="&#xd7;" horiz-adv-x="1050" d="M102 406l344 352l-344 354l80 78l344 -354l344 354l78 -78l-344 -354l344 -352l-78 -80l-344 352l-344 -352z" />
<glyph unicode="&#xd8;" horiz-adv-x="1658" d="M82 705q0 168 55 310.5t153.5 241t237.5 154t303 55.5q241 0 435 -135l86 113q15 18 26 18h90q11 0 11 -8q0 -4 -17 -27l-121 -157q111 -104 173.5 -241.5t62.5 -283.5q0 -126 -27 -239t-86 -212.5t-145.5 -171.5t-213 -113.5t-280.5 -41.5q-213 0 -395 109l-113 -148 q-13 -18 -30 -18h-78q-12 0 -12 12q0 7 12 23l143 186q-126 101 -198 249t-72 325zM338 782q0 -294 129 -497l696 911q-145 190 -364 190q-101 0 -182.5 -40t-132 -103t-85 -145t-48 -160.5t-13.5 -155.5zM528 205q144 -160 349 -160q107 0 194.5 54t141 141.5t82 192 t28.5 212.5q0 265 -104 463z" />
<glyph unicode="&#xd9;" horiz-adv-x="1687" d="M82 1425q0 11 7 15t30 4q19 0 105 -5t136 -5q48 0 104.5 2.5t96 5t45.5 2.5q41 0 41 -21q0 -8 -22 -12.5t-52 -8t-41 -9.5q-2 -1 -7 -3q-26 -12 -36 -32q-26 -52 -24 -275l4 -534q1 -75 10 -140t33.5 -132t63.5 -114.5t104.5 -77.5t150.5 -30q78 0 149 17t135 55.5 t110.5 94.5t74 140t27.5 187v442q0 178 -10.5 265.5t-34.5 105.5q-26 20 -65 30.5t-63 16.5t-24 16q0 11 10.5 14t35.5 3q3 0 80.5 -4t123.5 -4q47 0 110 5l62 5q54 0 54 -19q0 -10 -13 -12t-42 -6t-54 -16q-42 -20 -51.5 -70t-9.5 -173v-32v-518q0 -299 -157.5 -465 t-447.5 -166q-275 0 -435 138t-160 391v620q0 224 -21 250q-15 17 -48.5 28t-59 17t-25.5 14zM586 1636q0 35 59 97q41 41 60 41q20 0 73 -27l183 -92q100 -51 100 -84q0 -15 -12 -15q-11 0 -27 4.5t-49.5 14.5t-73.5 18q-131 29 -231 29q-6 0 -31 -2t-29 -2q-14 0 -18 2.5 t-4 15.5z" />
<glyph unicode="&#xda;" horiz-adv-x="1687" d="M82 1425q0 11 7 15t30 4q19 0 105 -5t136 -5q48 0 104.5 2.5t96 5t45.5 2.5q41 0 41 -21q0 -8 -22 -12.5t-52 -8t-41 -9.5q-2 -1 -7 -3q-26 -12 -36 -32q-26 -52 -24 -275l4 -534q1 -75 10 -140t33.5 -132t63.5 -114.5t104.5 -77.5t150.5 -30q78 0 149 17t135 55.5 t110.5 94.5t74 140t27.5 187v442q0 178 -10.5 265.5t-34.5 105.5q-26 20 -65 30.5t-63 16.5t-24 16q0 11 10.5 14t35.5 3q3 0 80.5 -4t123.5 -4q47 0 110 5l62 5q54 0 54 -19q0 -10 -13 -12t-42 -6t-54 -16q-42 -20 -51.5 -70t-9.5 -173v-32v-518q0 -299 -157.5 -465 t-447.5 -166q-275 0 -435 138t-160 391v620q0 224 -21 250q-15 17 -48.5 28t-59 17t-25.5 14zM668 1579q0 16 25 37.5t69 42.5l188 88q61 27 74 27q18 0 59 -41q60 -63 60 -97q0 -12 -4.5 -15t-18.5 -3q-4 0 -28 2t-31 2q-140 0 -236 -23q-8 -2 -39 -11.5t-59.5 -17 t-40.5 -7.5q-18 0 -18 16z" />
<glyph unicode="&#xdb;" horiz-adv-x="1687" d="M82 1425q0 11 7 15t30 4q19 0 105 -5t136 -5q48 0 104.5 2.5t96 5t45.5 2.5q41 0 41 -21q0 -8 -22 -12.5t-52 -8t-41 -9.5q-2 -1 -7 -3q-26 -12 -36 -32q-26 -52 -24 -275l4 -534q1 -75 10 -140t33.5 -132t63.5 -114.5t104.5 -77.5t150.5 -30q78 0 149 17t135 55.5 t110.5 94.5t74 140t27.5 187v442q0 178 -10.5 265.5t-34.5 105.5q-26 20 -65 30.5t-63 16.5t-24 16q0 11 10.5 14t35.5 3q3 0 80.5 -4t123.5 -4q47 0 110 5l62 5q54 0 54 -19q0 -10 -13 -12t-42 -6t-54 -16q-42 -20 -51.5 -70t-9.5 -173v-32v-518q0 -299 -157.5 -465 t-447.5 -166q-275 0 -435 138t-160 391v620q0 224 -21 250q-15 17 -48.5 28t-59 17t-25.5 14zM571 1585q0 20 50 53q25 16 112 81t117 83q12 8 29 8q12 0 39 -20q45 -29 136.5 -80t106.5 -51q10 0 10 -8q0 -6 -43.5 -54.5t-54.5 -48.5q-7 0 -51 23l-125 80q-29 16 -41 16 q-10 0 -65 -27l-95 -51q-73 -33 -96 -33q-29 0 -29 29z" />
<glyph unicode="&#xdc;" horiz-adv-x="1687" d="M82 1425q0 11 7 15t30 4q19 0 105 -5t136 -5q48 0 104.5 2.5t96 5t45.5 2.5q41 0 41 -21q0 -8 -22 -12.5t-52 -8t-41 -9.5q-2 -1 -7 -3q-26 -12 -36 -32q-26 -52 -24 -275l4 -534q1 -75 10 -140t33.5 -132t63.5 -114.5t104.5 -77.5t150.5 -30q78 0 149 17t135 55.5 t110.5 94.5t74 140t27.5 187v442q0 178 -10.5 265.5t-34.5 105.5q-26 20 -65 30.5t-63 16.5t-24 16q0 11 10.5 14t35.5 3q3 0 80.5 -4t123.5 -4q47 0 110 5l62 5q54 0 54 -19q0 -10 -13 -12t-42 -6t-54 -16q-42 -20 -51.5 -70t-9.5 -173v-32v-518q0 -299 -157.5 -465 t-447.5 -166q-275 0 -435 138t-160 391v620q0 224 -21 250q-15 17 -48.5 28t-59 17t-25.5 14zM586 1667q0 46 33.5 78.5t80.5 32.5t81 -32.5t34 -78.5t-34 -78.5t-81 -32.5t-80.5 32.5t-33.5 78.5zM942 1667q0 46 34 78.5t81 32.5t80.5 -32.5t33.5 -78.5t-33.5 -78.5 t-80.5 -32.5t-81 32.5t-34 78.5z" />
<glyph unicode="&#xdd;" horiz-adv-x="1392" d="M-92 1427q0 25 72 25q28 0 120 -9t119 -9q34 0 87 4t87 4q64 0 64 -25q0 -7 -37 -16t-37 -19q0 -37 47 -110l283 -447q24 -37 39 -37q8 0 28 23l224 358q81 131 81 199q0 20 -17.5 29t-35.5 11.5t-18 8.5q0 23 51 23q19 0 73 -3t72 -3q33 0 87 5t87 5q50 0 50 -21 q0 -7 -21 -10.5t-52.5 -8t-47.5 -11.5q-23 -10 -53.5 -42t-55.5 -71l-362 -590q-21 -32 -27 -55t-6 -60v-313q0 -153 25 -182q13 -17 50 -33t60 -16q49 0 49 -19q0 -22 -67 -22q-32 0 -111 5t-110 5q-33 0 -134.5 -5t-134.5 -5q-47 0 -47 20q0 13 31.5 22t71.5 17.5t53 20.5 q30 28 30 153v361q0 45 -24 84l-397 612q-57 87 -97 102q-6 3 -44.5 11t-71.5 17.5t-33 16.5zM520 1579q0 16 25 37.5t69 42.5l189 88q61 27 74 27q18 0 59 -41q59 -62 59 -97q0 -13 -4.5 -15.5t-17.5 -2.5q-3 0 -28 2t-32 2q-139 0 -235 -23q-8 -2 -39 -11.5t-59.5 -17 t-40.5 -7.5q-19 0 -19 16z" />
<glyph unicode="&#xde;" horiz-adv-x="1249" d="M106 16q0 18 37 21q3 0 15 1.5t17 2.5t15.5 3.5t17 6t14.5 9.5t14 14q14 20 21 72t8 89.5t1 118.5v891q0 101 -37 131q-28 22 -56.5 30t-41 9.5t-12.5 11.5q0 17 43 17q24 0 98.5 -5t120.5 -5q49 0 136.5 6t92.5 6q43 0 43 -19q0 -7 -12 -9.5t-41.5 -10.5t-58.5 -25 q-22 -13 -31.5 -55t-9.5 -82q0 -73 7 -89.5t42 -16.5q11 0 46 1t62 1q74 0 143 -11.5t137 -40.5t118 -72t81 -112t31 -155q0 -148 -68 -257t-192 -167q-80 -39 -168 -39q-51 0 -94 12q-33 9 -33 29q0 22 29 22q5 0 24 -6t44 -6q215 0 215 326q0 202 -90.5 295.5t-278.5 93.5 q-21 0 -32 -6.5t-16 -29.5t-6 -44.5t-1 -73.5v-559q0 -233 32 -268q37 -43 105 -43q11 0 22 -4.5t11 -12.5q0 -20 -56 -20q-13 0 -98.5 4t-120.5 4q-37 0 -140 -4t-110 -4q-39 0 -39 24z" />
<glyph unicode="&#xdf;" horiz-adv-x="1839" d="M102 178q0 29 9.5 67t27.5 38q16 0 21 -15t7.5 -43t8.5 -43q52 -137 246 -137q102 0 161.5 54.5t59.5 160.5q0 31 -9.5 58t-19.5 44t-39.5 42.5t-44 36t-57.5 40.5l-192 133q-92 64 -134.5 139.5t-42.5 190.5q0 125 97 214t262 89q55 0 136 -13t93 -13q22 0 41 6t25 6 q10 0 10 -10q0 -5 -4 -27t-4 -43q0 -2 1 -19t1 -38q0 -146 -35 -146q-19 0 -24 27.5t-17 71.5t-47 73q-68 56 -176 56q-72 0 -131.5 -48t-59.5 -139q0 -38 8.5 -66t33 -54t47.5 -43t73 -50l144 -96q54 -36 90.5 -66t74 -72t56 -92.5t18.5 -109.5q0 -79 -37.5 -156.5 t-117.5 -136.5q-107 -78 -265 -78q-76 0 -129 10.5t-129 38.5q-18 7 -26.5 16t-8.5 30v51q0 14 -1 36t-1 25zM1022 178q0 29 9.5 67t27.5 38q16 0 21 -15t7.5 -43t8.5 -43q52 -137 245 -137q102 0 162 54.5t60 160.5q0 31 -9.5 58t-19.5 44t-39.5 42.5t-44 36t-57.5 40.5 l-193 133q-92 63 -134 139t-42 191q0 125 96.5 214t261.5 89q55 0 136.5 -13t93.5 -13q22 0 40.5 6t24.5 6q11 0 11 -10q0 -5 -4.5 -27t-4.5 -43q0 -2 1 -19t1 -38v-30t-1 -30.5t-3 -33t-5.5 -25.5t-10 -20.5t-14.5 -6.5q-19 0 -24 27.5t-17 71.5t-47 73q-68 56 -177 56 q-72 0 -131 -48t-59 -139q0 -38 8.5 -66t33 -54t47.5 -43t73 -50l143 -96q54 -36 90.5 -66t74 -72t56.5 -92.5t19 -109.5q0 -78 -38 -156t-118 -137q-107 -78 -264 -78q-76 0 -129 10.5t-129 38.5q-18 7 -26.5 16t-8.5 30v51q0 14 -1 36t-1 25z" />
<glyph unicode="&#xe0;" horiz-adv-x="1331" d="M0 14q0 8 7 12t26.5 7t23.5 4q43 13 66.5 38.5t44.5 71.5l465 1090q17 41 35 41t37 -45l454 -1073q20 -51 53 -99q11 -14 41.5 -19t54 -9t23.5 -19q0 -20 -47 -20q-10 0 -88 3t-129 3q-40 0 -109 -3t-96 -3q-37 0 -37 18q0 11 16 17t35.5 8t35.5 13t16 32q0 32 -8 61 t-31 86l-51 125q-20 50 -27.5 60t-22.5 10h-352q-18 0 -23 -4.5t-12 -20.5l-63 -151q-43 -104 -43 -160q0 -20 20.5 -32t45 -15t45 -9.5t20.5 -17.5q0 -20 -39 -20q-13 0 -82 3t-108 3q-31 0 -92.5 -3t-63.5 -3q-41 0 -41 20zM451 1421q0 14 18 39q54 82 92 82q23 0 68 -22 l157 -78q93 -49 93 -74q0 -16 -17 -16q-11 0 -50.5 10t-59.5 14q-174 31 -224 31q-5 0 -26 -2t-25 -2q-26 0 -26 18zM453 518q0 -6 16 -6h274q27 0 27 6q0 9 -16 49l-123 312q-4 11 -7.5 16t-5 5.5t-4.5 0.5q-4 0 -14 -24l-135 -324q-12 -32 -12 -35z" />
<glyph unicode="&#xe1;" horiz-adv-x="1331" d="M0 14q0 8 7 12t26.5 7t23.5 4q43 13 66.5 38.5t44.5 71.5l465 1090q17 41 35 41t37 -45l454 -1073q20 -51 53 -99q11 -14 41.5 -19t54 -9t23.5 -19q0 -20 -47 -20q-10 0 -88 3t-129 3q-40 0 -109 -3t-96 -3q-37 0 -37 18q0 11 16 17t35.5 8t35.5 13t16 32q0 32 -8 61 t-31 86l-51 125q-20 50 -27.5 60t-22.5 10h-352q-18 0 -23 -4.5t-12 -20.5l-63 -151q-43 -104 -43 -160q0 -20 20.5 -32t45 -15t45 -9.5t20.5 -17.5q0 -20 -39 -20q-13 0 -82 3t-108 3q-31 0 -92.5 -3t-63.5 -3q-41 0 -41 20zM451 1368q0 29 86 70l165 75q54 23 66 23 q27 0 70 -51q41 -52 41 -70q0 -10 -6 -14t-21 -4q-4 0 -25.5 2t-31.5 2q-70 0 -156 -12q-27 -4 -87.5 -20.5t-78.5 -16.5q-22 0 -22 16zM453 518q0 -6 16 -6h274q27 0 27 6q0 9 -16 49l-123 312q-4 11 -7.5 16t-5 5.5t-4.5 0.5q-4 0 -14 -24l-135 -324q-12 -32 -12 -35z" />
<glyph unicode="&#xe2;" horiz-adv-x="1331" d="M0 14q0 8 7 12t26.5 7t23.5 4q43 13 66.5 38.5t44.5 71.5l465 1090q17 41 35 41t37 -45l454 -1073q20 -51 53 -99q11 -14 41.5 -19t54 -9t23.5 -19q0 -20 -47 -20q-10 0 -88 3t-129 3q-40 0 -109 -3t-96 -3q-37 0 -37 18q0 11 16 17t35.5 8t35.5 13t16 32q0 32 -8 61 t-31 86l-51 125q-20 50 -27.5 60t-22.5 10h-352q-18 0 -23 -4.5t-12 -20.5l-63 -151q-43 -104 -43 -160q0 -20 20.5 -32t45 -15t45 -9.5t20.5 -17.5q0 -20 -39 -20q-13 0 -82 3t-108 3q-31 0 -92.5 -3t-63.5 -3q-41 0 -41 20zM416 1407q0 19 45 49l178 127q28 21 41 21 q14 0 49 -21q41 -25 118 -65t93 -43q14 -3 14 -11t-41 -49q-5 -5 -12.5 -13t-11.5 -12.5t-9.5 -9t-9.5 -6.5t-8 -2q-15 0 -47 19l-113 69q-23 13 -32 13t-54 -23l-81 -43q-56 -29 -89 -29q-30 0 -30 29zM453 518q0 -6 16 -6h274q27 0 27 6q0 9 -16 49l-123 312 q-4 11 -7.5 16t-5 5.5t-4.5 0.5q-4 0 -14 -24l-135 -324q-12 -32 -12 -35z" />
<glyph unicode="&#xe3;" horiz-adv-x="1331" d="M0 14q0 8 7 12t26.5 7t23.5 4q43 13 66.5 38.5t44.5 71.5l465 1090q17 41 35 41t37 -45l454 -1073q20 -51 53 -99q11 -14 41.5 -19t54 -9t23.5 -19q0 -20 -47 -20q-10 0 -88 3t-129 3q-40 0 -109 -3t-96 -3q-37 0 -37 18q0 11 16 17t35.5 8t35.5 13t16 32q0 32 -8 61 t-31 86l-51 125q-20 50 -27.5 60t-22.5 10h-352q-18 0 -23 -4.5t-12 -20.5l-63 -151q-43 -104 -43 -160q0 -20 20.5 -32t45 -15t45 -9.5t20.5 -17.5q0 -20 -39 -20q-13 0 -82 3t-108 3q-31 0 -92.5 -3t-63.5 -3q-41 0 -41 20zM426 1393q0 28 50 82.5t102 54.5 q42 0 129.5 -26.5t115.5 -26.5q26 0 43.5 8.5t23.5 18t14 18t18 8.5q22 0 22 -19q0 -34 -49.5 -86.5t-101.5 -52.5q-47 0 -126.5 26.5t-113.5 26.5q-29 0 -48 -8.5t-25.5 -18t-15 -18t-18.5 -8.5q-20 0 -20 21zM453 518q0 -6 16 -6h274q27 0 27 6q0 9 -16 49l-123 312 q-4 11 -7.5 16t-5 5.5t-4.5 0.5q-4 0 -14 -24l-135 -324q-12 -32 -12 -35z" />
<glyph unicode="&#xe4;" horiz-adv-x="1331" d="M0 14q0 8 7 12t26.5 7t23.5 4q43 13 66.5 38.5t44.5 71.5l465 1090q17 41 35 41t37 -45l454 -1073q20 -51 53 -99q11 -14 41.5 -19t54 -9t23.5 -19q0 -20 -47 -20q-10 0 -88 3t-129 3q-40 0 -109 -3t-96 -3q-37 0 -37 18q0 11 16 17t35.5 8t35.5 13t16 32q0 32 -8 61 t-31 86l-51 125q-20 50 -27.5 60t-22.5 10h-352q-18 0 -23 -4.5t-12 -20.5l-63 -151q-43 -104 -43 -160q0 -20 20.5 -32t45 -15t45 -9.5t20.5 -17.5q0 -20 -39 -20q-13 0 -82 3t-108 3q-31 0 -92.5 -3t-63.5 -3q-41 0 -41 20zM406 1475q0 45 29.5 74.5t72.5 29.5t73.5 -29.5 t30.5 -74.5t-30 -74t-74 -29q-43 0 -72.5 29t-29.5 74zM453 518q0 -6 16 -6h274q27 0 27 6q0 9 -16 49l-123 312q-4 11 -7.5 16t-5 5.5t-4.5 0.5q-4 0 -14 -24l-135 -324q-12 -32 -12 -35zM725 1475q0 45 29.5 74.5t72.5 29.5q44 0 74.5 -29.5t30.5 -74.5t-30.5 -74 t-74.5 -29q-43 0 -72.5 29t-29.5 74z" />
<glyph unicode="&#xe5;" horiz-adv-x="1331" d="M0 14q0 8 7 12t26.5 7t23.5 4q43 13 66.5 38.5t44.5 71.5l465 1090q17 41 35 41t37 -45l454 -1073q20 -51 53 -99q11 -14 41.5 -19t54 -9t23.5 -19q0 -20 -47 -20q-10 0 -88 3t-129 3q-40 0 -109 -3t-96 -3q-37 0 -37 18q0 11 16 17t35.5 8t35.5 13t16 32q0 32 -8 61 t-31 86l-51 125q-20 50 -27.5 60t-22.5 10h-352q-18 0 -23 -4.5t-12 -20.5l-63 -151q-43 -104 -43 -160q0 -20 20.5 -32t45 -15t45 -9.5t20.5 -17.5q0 -20 -39 -20q-13 0 -82 3t-108 3q-31 0 -92.5 -3t-63.5 -3q-41 0 -41 20zM453 518q0 -6 16 -6h274q27 0 27 6q0 9 -16 49 l-123 312q-4 11 -7.5 16t-5 5.5t-4.5 0.5q-4 0 -14 -24l-135 -324q-12 -32 -12 -35zM481 1499q0 64 54 106t131 42t130.5 -42t53.5 -106t-53.5 -105.5t-130.5 -41.5q-78 0 -131.5 41.5t-53.5 105.5zM592 1499q0 -26 21.5 -42.5t52.5 -16.5t52 16.5t21 42.5t-21 43t-52 17 t-52.5 -17t-21.5 -43z" />
<glyph unicode="&#xe6;" horiz-adv-x="1703" d="M0 14q0 7 11 11.5t27.5 7.5t18.5 4q43 13 71 34t60 70l652 977q16 24 16 35q0 31 -74 41q-4 1 -9.5 1.5t-8.5 1t-7 1.5t-6 2t-4 2.5t-3 3t-1 4.5q0 17 48 17q30 0 95.5 -4t102.5 -4q129 0 256 3t202.5 6t80.5 3q18 0 18 -21q0 -6 -1 -19t-1 -20q0 -23 2 -67t2 -53 q0 -33 -18 -33q-6 0 -9.5 2.5t-6.5 7.5t-4.5 10.5t-4 15.5t-4.5 17q-14 44 -51 59t-109 15h-194q-22 0 -29.5 -8t-7.5 -31v-397q0 -18 4.5 -21.5t20.5 -3.5h188q56 0 82 18q14 9 25.5 58t25.5 49q21 0 21 -41q0 -7 -2 -49t-2 -66q0 -39 1 -84.5t1 -52.5q0 -35 -21 -35 q-14 0 -19.5 19.5t-12 48t-19.5 41.5q-14 14 -76 14h-192q-18 0 -21.5 -5.5t-3.5 -25.5v-393q0 -49 18 -65q33 -33 160 -33q120 0 172 20q52 23 78 82q12 29 25 29q18 0 18 -25q0 -18 -23.5 -76.5t-27.5 -74.5q-8 -27 -20.5 -35t-47.5 -8q-28 0 -178 3t-287 3 q-23 0 -85.5 -3t-110.5 -3q-66 0 -66 20q0 13 28.5 17.5t62.5 12t42 26.5q25 55 25 321q0 23 -6 28t-37 5h-295q-34 0 -44.5 -6t-31.5 -41l-76 -127q-81 -132 -81 -166q0 -37 49 -45q4 -1 13.5 -2.5t18 -3t17 -3.5t13.5 -5.5t5 -8.5q0 -11 -6.5 -16t-11.5 -5.5t-17 -0.5 q-26 0 -92 3t-90 3q-29 0 -94.5 -3t-93.5 -3q-33 0 -33 20zM569 520q0 -8 23 -8h258q30 0 36.5 6t6.5 31v430q0 16 -6 16q-5 0 -10 -8l-271 -407z" />
<glyph unicode="&#xe7;" horiz-adv-x="1341" d="M82 621q0 173 85 317t233 226.5t325 82.5q243 0 393 -49q36 -12 47 -12q6 0 18 4t19 4q15 0 15 -20q0 -8 -5.5 -45t-5.5 -50q0 -17 3 -53.5t3 -58.5q0 -66 -28 -66q-20 0 -27 16t-9.5 42t-8.5 38q-95 177 -414 177q-123 0 -216 -69.5t-140 -181t-47 -245.5 q0 -155 38.5 -277.5t107.5 -200t160.5 -117.5t200.5 -40q148 0 267 82q35 24 52 68t24.5 74t23.5 30q29 0 29 -45q0 -34 -21 -113q-16 -62 -16 -84q-4 -26 -47 -39q-155 -41 -326 -45l-61 -82q39 -1 74.5 -9.5t67.5 -35t32 -67.5q0 -133 -236 -201q-16 -5 -65.5 -15 t-59.5 -10q-32 0 -32 25q0 27 30 37q35 11 51.5 17t49.5 21t50 28t31.5 34.5t14.5 44.5q0 70 -119 70q-25 0 -25 18q0 10 33 48l68 79q-94 5 -181.5 29t-171.5 74.5t-146 122.5t-100 180.5t-38 241.5z" />
<glyph unicode="&#xe8;" horiz-adv-x="1052" d="M84 14q0 13 28.5 17.5t62.5 12t42 26.5q25 55 25 364v649q0 26 -8 45.5t-18 30t-28 18.5t-28.5 11t-28.5 6q-39 7 -39 16q0 17 47 17q30 0 96 -4t103 -4q129 0 256 3t202.5 6t80.5 3q18 0 18 -21q0 -6 -1 -19t-1 -20q0 -23 2 -67t2 -53q0 -33 -18 -33q-6 0 -9.5 2.5 t-6.5 7.5t-4.5 10.5t-4 15.5t-4.5 17q-14 44 -51 59t-109 15h-194q-22 0 -29.5 -8t-7.5 -31v-397q0 -18 4 -21.5t20 -3.5h189q56 0 82 18q14 9 25.5 58t25.5 49q20 0 20 -41q0 -7 -2 -49t-2 -66q0 -39 1 -84.5t1 -52.5q0 -35 -20 -35q-14 0 -19.5 19.5t-12 48t-19.5 41.5 q-14 14 -76 14h-193q-18 0 -21 -5t-3 -26v-393q0 -49 18 -65q33 -33 160 -33q120 0 172 20q52 23 78 82q1 1 3 6.5t3 7.5t3 5.5t4 5t5 3t6 1.5q19 0 19 -25q0 -18 -23.5 -76.5t-27.5 -74.5q-8 -27 -20.5 -35t-47.5 -8q-28 0 -178 3t-287 3q-23 0 -85.5 -3t-110.5 -3 q-66 0 -66 20zM291 1421q0 14 18 39q54 82 92 82q23 0 68 -22l158 -78q92 -49 92 -74q0 -16 -17 -16q-11 0 -50.5 10t-59.5 14q-174 31 -223 31q-5 0 -26.5 -2t-25.5 -2q-26 0 -26 18z" />
<glyph unicode="&#xe9;" horiz-adv-x="1052" d="M84 14q0 13 28.5 17.5t62.5 12t42 26.5q25 55 25 364v649q0 26 -8 45.5t-18 30t-28 18.5t-28.5 11t-28.5 6q-39 7 -39 16q0 17 47 17q30 0 96 -4t103 -4q129 0 256 3t202.5 6t80.5 3q18 0 18 -21q0 -6 -1 -19t-1 -20q0 -23 2 -67t2 -53q0 -33 -18 -33q-6 0 -9.5 2.5 t-6.5 7.5t-4.5 10.5t-4 15.5t-4.5 17q-14 44 -51 59t-109 15h-194q-22 0 -29.5 -8t-7.5 -31v-397q0 -18 4 -21.5t20 -3.5h189q56 0 82 18q14 9 25.5 58t25.5 49q20 0 20 -41q0 -7 -2 -49t-2 -66q0 -39 1 -84.5t1 -52.5q0 -35 -20 -35q-14 0 -19.5 19.5t-12 48t-19.5 41.5 q-14 14 -76 14h-193q-18 0 -21 -5t-3 -26v-393q0 -49 18 -65q33 -33 160 -33q120 0 172 20q52 23 78 82q1 1 3 6.5t3 7.5t3 5.5t4 5t5 3t6 1.5q19 0 19 -25q0 -18 -23.5 -76.5t-27.5 -74.5q-8 -27 -20.5 -35t-47.5 -8q-28 0 -178 3t-287 3q-23 0 -85.5 -3t-110.5 -3 q-66 0 -66 20zM352 1368q0 29 86 70l166 75q54 23 66 23q26 0 69 -51q41 -52 41 -70q0 -10 -5.5 -14t-20.5 -4q-4 0 -26 2t-32 2q-69 0 -155 -12q-27 -4 -87.5 -20.5t-78.5 -16.5q-23 0 -23 16z" />
<glyph unicode="&#xea;" horiz-adv-x="1052" d="M84 14q0 13 28.5 17.5t62.5 12t42 26.5q25 55 25 364v649q0 26 -8 45.5t-18 30t-28 18.5t-28.5 11t-28.5 6q-39 7 -39 16q0 17 47 17q30 0 96 -4t103 -4q129 0 256 3t202.5 6t80.5 3q18 0 18 -21q0 -6 -1 -19t-1 -20q0 -23 2 -67t2 -53q0 -33 -18 -33q-6 0 -9.5 2.5 t-6.5 7.5t-4.5 10.5t-4 15.5t-4.5 17q-14 44 -51 59t-109 15h-194q-22 0 -29.5 -8t-7.5 -31v-397q0 -18 4 -21.5t20 -3.5h189q56 0 82 18q14 9 25.5 58t25.5 49q20 0 20 -41q0 -7 -2 -49t-2 -66q0 -39 1 -84.5t1 -52.5q0 -35 -20 -35q-14 0 -19.5 19.5t-12 48t-19.5 41.5 q-14 14 -76 14h-193q-18 0 -21 -5t-3 -26v-393q0 -49 18 -65q33 -33 160 -33q120 0 172 20q52 23 78 82q1 1 3 6.5t3 7.5t3 5.5t4 5t5 3t6 1.5q19 0 19 -25q0 -18 -23.5 -76.5t-27.5 -74.5q-8 -27 -20.5 -35t-47.5 -8q-28 0 -178 3t-287 3q-23 0 -85.5 -3t-110.5 -3 q-66 0 -66 20zM289 1386q0 20 45 50l178 127q27 20 41 20q16 0 49 -20q42 -25 118.5 -65.5t92.5 -43.5q14 -4 14 -10q0 -8 -41 -49q-5 -5 -12.5 -13t-11.5 -12.5t-9.5 -9t-9.5 -6.5t-8 -2q-17 0 -47 18l-113 70q-21 12 -32 12t-54 -22l-81 -44q-54 -28 -89 -28q-30 0 -30 28 z" />
<glyph unicode="&#xeb;" horiz-adv-x="1052" d="M84 14q0 13 28.5 17.5t62.5 12t42 26.5q25 55 25 364v649q0 26 -8 45.5t-18 30t-28 18.5t-28.5 11t-28.5 6q-39 7 -39 16q0 17 47 17q30 0 96 -4t103 -4q129 0 256 3t202.5 6t80.5 3q18 0 18 -21q0 -6 -1 -19t-1 -20q0 -23 2 -67t2 -53q0 -33 -18 -33q-6 0 -9.5 2.5 t-6.5 7.5t-4.5 10.5t-4 15.5t-4.5 17q-14 44 -51 59t-109 15h-194q-22 0 -29.5 -8t-7.5 -31v-397q0 -18 4 -21.5t20 -3.5h189q56 0 82 18q14 9 25.5 58t25.5 49q20 0 20 -41q0 -7 -2 -49t-2 -66q0 -39 1 -84.5t1 -52.5q0 -35 -20 -35q-14 0 -19.5 19.5t-12 48t-19.5 41.5 q-14 14 -76 14h-193q-18 0 -21 -5t-3 -26v-393q0 -49 18 -65q33 -33 160 -33q120 0 172 20q52 23 78 82q1 1 3 6.5t3 7.5t3 5.5t4 5t5 3t6 1.5q19 0 19 -25q0 -18 -23.5 -76.5t-27.5 -74.5q-8 -27 -20.5 -35t-47.5 -8q-28 0 -178 3t-287 3q-23 0 -85.5 -3t-110.5 -3 q-66 0 -66 20zM272 1454q0 45 30 75t73 30t73.5 -30t30.5 -75t-30 -73.5t-74 -28.5t-73.5 28.5t-29.5 73.5zM592 1454q0 45 29.5 75t72.5 30t74 -30t31 -75t-30.5 -73.5t-74.5 -28.5q-43 0 -72.5 28.5t-29.5 73.5z" />
<glyph unicode="&#xec;" horiz-adv-x="704" d="M78 12q0 11 26.5 17t58.5 11t40 13q39 36 39 166v836q0 57 -7.5 83.5t-27.5 35.5q-13 6 -40 12t-44 11t-17 13q0 17 48 17q17 0 86.5 -4t109.5 -4q39 0 112.5 6t90.5 6q49 0 49 -17q0 -12 -18.5 -16.5t-46 -9t-41.5 -14.5q-23 -17 -30 -47.5t-7 -77.5v-789 q0 -64 2.5 -98.5t9 -62t23 -39.5t38 -18.5t60.5 -10.5q31 -3 31 -19q0 -18 -33 -18q-6 0 -82 3t-160 3q-102 0 -166 -4t-65 -4q-39 0 -39 20zM127 1421q0 14 18 39q54 82 93 82q22 0 67 -22l158 -78q92 -49 92 -74q0 -16 -16 -16q-11 0 -51 10t-60 14q-174 31 -223 31 q-5 0 -26 -2t-25 -2q-27 0 -27 18z" />
<glyph unicode="&#xed;" horiz-adv-x="704" d="M78 12q0 11 26.5 17t58.5 11t40 13q39 36 39 166v836q0 57 -7.5 83.5t-27.5 35.5q-13 6 -40 12t-44 11t-17 13q0 17 48 17q17 0 86.5 -4t109.5 -4q39 0 112.5 6t90.5 6q49 0 49 -17q0 -12 -18.5 -16.5t-46 -9t-41.5 -14.5q-23 -17 -30 -47.5t-7 -77.5v-789 q0 -64 2.5 -98.5t9 -62t23 -39.5t38 -18.5t60.5 -10.5q31 -3 31 -19q0 -18 -33 -18q-6 0 -82 3t-160 3q-102 0 -166 -4t-65 -4q-39 0 -39 20zM158 1368q0 29 86 70l166 75q54 23 65 23q27 0 70 -51q41 -52 41 -70q0 -10 -6 -14t-21 -4q-4 0 -25.5 2t-31.5 2q-70 0 -156 -12 q-27 -4 -87.5 -20.5t-78.5 -16.5q-22 0 -22 16z" />
<glyph unicode="&#xee;" horiz-adv-x="704" d="M78 12q0 11 26.5 17t58.5 11t40 13q39 36 39 166v836q0 57 -7.5 83.5t-27.5 35.5q-13 6 -40 12t-44 11t-17 13q0 17 48 17q17 0 86.5 -4t109.5 -4q39 0 112.5 6t90.5 6q49 0 49 -17q0 -12 -18.5 -16.5t-46 -9t-41.5 -14.5q-23 -17 -30 -47.5t-7 -77.5v-789 q0 -64 2.5 -98.5t9 -62t23 -39.5t38 -18.5t60.5 -10.5q31 -3 31 -19q0 -18 -33 -18q-6 0 -82 3t-160 3q-102 0 -166 -4t-65 -4q-39 0 -39 20zM82 1386q0 20 45 50l178 127q27 20 41 20q16 0 49 -20q42 -25 118.5 -65.5t92.5 -43.5q15 -4 15 -10q0 -8 -41 -49 q-5 -5 -12.5 -13t-12 -12.5t-9.5 -9t-9.5 -6.5t-8.5 -2q-17 0 -47 18l-112 70q-21 12 -33 12q-10 0 -53 -22l-82 -44q-54 -28 -88 -28q-31 0 -31 28z" />
<glyph unicode="&#xef;" horiz-adv-x="704" d="M78 12q0 11 26.5 17t58.5 11t40 13q39 36 39 166v836q0 57 -7.5 83.5t-27.5 35.5q-13 6 -40 12t-44 11t-17 13q0 17 48 17q17 0 86.5 -4t109.5 -4q39 0 112.5 6t90.5 6q49 0 49 -17q0 -12 -18.5 -16.5t-46 -9t-41.5 -14.5q-23 -17 -30 -47.5t-7 -77.5v-789 q0 -64 2.5 -98.5t9 -62t23 -39.5t38 -18.5t60.5 -10.5q31 -3 31 -19q0 -18 -33 -18q-6 0 -82 3t-160 3q-102 0 -166 -4t-65 -4q-39 0 -39 20zM88 1454q0 45 29.5 75t72.5 30t74 -30t31 -75t-30.5 -73.5t-74.5 -28.5q-43 0 -72.5 28.5t-29.5 73.5zM408 1454q0 45 29.5 75 t72.5 30t73.5 -30t30.5 -75t-30 -73.5t-74 -28.5q-43 0 -72.5 28.5t-29.5 73.5z" />
<glyph unicode="&#xf0;" horiz-adv-x="1456" d="M68 14q0 13 31.5 18.5t69.5 13.5t48 24q16 27 20.5 65t4.5 137v277q0 27 -5 32t-30 5h-94q-35 0 -35 8q0 4 6 22l18 52q3 9 7.5 10.5t23.5 1.5h74q26 0 30.5 5t4.5 30v346q0 77 -31.5 101t-101.5 24q-29 0 -29 18q0 21 55 21q33 0 102 -3t109 -3q58 0 184.5 6t200.5 6 q292 0 467.5 -157.5t175.5 -438.5q0 -316 -178.5 -482.5t-495.5 -166.5q-53 0 -167 7t-181 7q-36 0 -115.5 -3t-127.5 -3q-24 0 -32.5 4t-8.5 16zM459 307q0 -96 10 -149.5t39 -75.5q26 -20 68.5 -26.5t121.5 -6.5q71 0 136 18t124.5 59t103 101.5t69.5 152.5t26 206 q0 161 -67.5 293.5t-192.5 211t-283 78.5q-40 0 -59 -0.5t-42 -4t-32 -11t-15.5 -21t-6.5 -34.5v-387q0 -23 5 -27t30 -4h251q29 0 29 -8q0 -1 -4 -17l-14 -47q-4 -13 -9.5 -17.5t-17.5 -4.5h-235q-26 0 -30.5 -6.5t-4.5 -42.5v-230z" />
<glyph unicode="&#xf1;" horiz-adv-x="1558" d="M59 10q0 12 22.5 17t55 10.5t47.5 17.5q37 27 37 164v934q0 58 4 76t23 18q31 0 88 -57l844 -821q21 -21 26 -21q4 0 5 5.5t1 31.5v629q0 74 -4.5 102t-21.5 45q-16 16 -43 22.5t-45.5 10.5t-18.5 14q0 19 45 19q17 0 69.5 -4t78.5 -4q33 0 80.5 4t60.5 4q57 0 57 -17 q0 -11 -21.5 -16.5t-50 -11t-38.5 -13.5q-29 -23 -29 -211v-888q0 -62 -3.5 -80.5t-16.5 -18.5q-11 0 -25 10.5t-47 41.5l-856 831q-25 25 -35 25q-8 0 -8 -64v-600q0 -122 47 -160q15 -13 45 -18t51 -9t21 -14q0 -13 -10 -16.5t-41 -3.5q-12 0 -72 3t-98 3q-39 0 -107 -3 t-76 -3q-12 0 -17.5 0.5t-12 1.5t-9 4.5t-2.5 9.5zM520 1372q0 28 50 82.5t102 54.5q42 0 130 -26.5t116 -26.5q26 0 43.5 8.5t23.5 18t13.5 18t17.5 8.5q22 0 22 -18q0 -34 -49.5 -86.5t-101.5 -52.5q-47 0 -126.5 26.5t-113.5 26.5q-29 0 -47.5 -8.5t-25.5 -18t-15 -18 t-18 -8.5q-21 0 -21 20z" />
<glyph unicode="&#xf2;" d="M82 598q0 191 83.5 339t233.5 229t344 81q142 0 267 -51.5t210.5 -137t135 -196.5t49.5 -229q0 -107 -24 -203.5t-76.5 -181t-129 -145.5t-188.5 -96.5t-248 -35.5q-130 0 -249.5 46.5t-209.5 127.5t-144 199t-54 254zM317 666q0 -175 58 -317t165 -224t244 -82 q92 0 167 45t121 118.5t70.5 162t24.5 180.5q0 119 -29 229t-83.5 199.5t-142.5 143t-197 53.5q-87 0 -157.5 -34t-114 -87t-73 -122t-41.5 -135t-12 -130zM528 1421q0 12 19 39q54 82 92 82q23 0 68 -22l157 -78q92 -49 92 -74q0 -16 -16 -16q-11 0 -51 10t-60 14 q-174 31 -223 31q-5 0 -26 -2t-25 -2q-27 0 -27 18z" />
<glyph unicode="&#xf3;" d="M82 598q0 191 83.5 339t233.5 229t344 81q142 0 267 -51.5t210.5 -137t135 -196.5t49.5 -229q0 -107 -24 -203.5t-76.5 -181t-129 -145.5t-188.5 -96.5t-248 -35.5q-130 0 -249.5 46.5t-209.5 127.5t-144 199t-54 254zM317 666q0 -175 58 -317t165 -224t244 -82 q92 0 167 45t121 118.5t70.5 162t24.5 180.5q0 119 -29 229t-83.5 199.5t-142.5 143t-197 53.5q-87 0 -157.5 -34t-114 -87t-73 -122t-41.5 -135t-12 -130zM528 1368q0 29 86 70l166 75q54 23 66 23q26 0 69 -51q41 -52 41 -70q0 -10 -5.5 -14t-20.5 -4q-4 0 -26 2t-32 2 q-69 0 -155 -12q-27 -4 -87.5 -20.5t-78.5 -16.5q-23 0 -23 16z" />
<glyph unicode="&#xf4;" d="M82 598q0 191 83.5 339t233.5 229t344 81q142 0 267 -51.5t210.5 -137t135 -196.5t49.5 -229q0 -107 -24 -203.5t-76.5 -181t-129 -145.5t-188.5 -96.5t-248 -35.5q-130 0 -249.5 46.5t-209.5 127.5t-144 199t-54 254zM317 666q0 -175 58 -317t165 -224t244 -82 q92 0 167 45t121 118.5t70.5 162t24.5 180.5q0 119 -29 229t-83.5 199.5t-142.5 143t-197 53.5q-87 0 -157.5 -34t-114 -87t-73 -122t-41.5 -135t-12 -130zM473 1386q0 20 45 50l178 127q27 20 41 20q16 0 49 -20q42 -25 118.5 -65.5t92.5 -43.5q15 -4 15 -10q0 -8 -41 -49 q-5 -5 -12.5 -13t-11.5 -12.5t-9.5 -9t-9.5 -6.5t-8 -2q-18 0 -48 18l-112 70q-21 12 -33 12q-10 0 -53 -22l-82 -44q-54 -28 -88 -28q-31 0 -31 28z" />
<glyph unicode="&#xf5;" d="M82 598q0 191 83.5 339t233.5 229t344 81q142 0 267 -51.5t210.5 -137t135 -196.5t49.5 -229q0 -107 -24 -203.5t-76.5 -181t-129 -145.5t-188.5 -96.5t-248 -35.5q-130 0 -249.5 46.5t-209.5 127.5t-144 199t-54 254zM317 666q0 -175 58 -317t165 -224t244 -82 q92 0 167 45t121 118.5t70.5 162t24.5 180.5q0 119 -29 229t-83.5 199.5t-142.5 143t-197 53.5q-87 0 -157.5 -34t-114 -87t-73 -122t-41.5 -135t-12 -130zM483 1372q0 28 50 82.5t102 54.5q42 0 130 -26.5t116 -26.5q26 0 43.5 8.5t23.5 18t13.5 18t17.5 8.5q22 0 22 -18 q0 -34 -49.5 -86.5t-101.5 -52.5q-47 0 -126.5 26.5t-113.5 26.5q-29 0 -47.5 -8.5t-25.5 -18t-15 -18t-18 -8.5q-21 0 -21 20z" />
<glyph unicode="&#xf6;" d="M82 598q0 191 83.5 339t233.5 229t344 81q142 0 267 -51.5t210.5 -137t135 -196.5t49.5 -229q0 -107 -24 -203.5t-76.5 -181t-129 -145.5t-188.5 -96.5t-248 -35.5q-130 0 -249.5 46.5t-209.5 127.5t-144 199t-54 254zM317 666q0 -175 58 -317t165 -224t244 -82 q92 0 167 45t121 118.5t70.5 162t24.5 180.5q0 119 -29 229t-83.5 199.5t-142.5 143t-197 53.5q-87 0 -157.5 -34t-114 -87t-73 -122t-41.5 -135t-12 -130zM479 1454q0 45 30 75t73 30t73.5 -30t30.5 -75t-30 -73.5t-74 -28.5t-73.5 28.5t-29.5 73.5zM799 1454q0 45 29.5 75 t72.5 30t74 -30t31 -75t-30.5 -73.5t-74.5 -28.5q-43 0 -72.5 28.5t-29.5 73.5z" />
<glyph unicode="&#xf7;" horiz-adv-x="1101" d="M102 692v117h897v-117h-897zM444 432q0 47 29.5 77t75.5 30q45 0 72.5 -29.5t27.5 -77.5q0 -47 -28 -76.5t-76 -29.5q-43 0 -72 30t-29 76zM444 1069q0 47 29.5 77t75.5 30q45 0 72.5 -29.5t27.5 -77.5q0 -47 -27 -76.5t-77 -29.5q-43 0 -72 30t-29 76z" />
<glyph unicode="&#xf8;" d="M82 -18q0 8 18 26l156 160q-174 174 -174 430q0 191 83.5 339t233.5 229t344 81q238 0 420 -141l115 119q22 22 33 22h80q14 0 14 -8q0 -10 -19 -29l-157 -161q84 -85 130 -193t46 -223q0 -107 -24 -203.5t-76.5 -181t-129 -145.5t-188.5 -96.5t-248 -35.5 q-237 0 -422 142l-104 -109q-3 -4 -8.5 -9.5t-7.5 -8t-5.5 -6t-5.5 -4.5l-5 -2.5t-6 -2t-7 -0.5h-68q-18 0 -18 11zM317 666q0 -203 76 -355l654 676q-128 187 -332 187q-87 0 -157.5 -34t-114 -87t-73 -122t-41.5 -135t-12 -130zM436 233q63 -91 152 -140.5t196 -49.5 q92 0 167 45t121 118.5t70.5 162t24.5 180.5q0 202 -75 358z" />
<glyph unicode="&#xf9;" horiz-adv-x="1511" d="M82 1210q0 10 8 13.5t31 3.5q17 0 86 -4t115 -4q55 0 127.5 4t80.5 4q24 0 33.5 -3.5t9.5 -15.5q0 -9 -17.5 -14t-43 -9.5t-35.5 -8.5q-18 -8 -26 -20.5t-13.5 -59.5t-5.5 -144v-485q0 -63 8 -118.5t29.5 -111.5t55 -96t89.5 -65t129 -25q85 0 159.5 24t136 72t97 130.5 t35.5 189.5v373q0 154 -7 223.5t-27 89.5q-15 16 -50 24.5t-60.5 14.5t-25.5 18q0 10 10.5 12.5t35.5 2.5q9 0 70.5 -3t107.5 -3q41 0 91 4t60 4q54 0 54 -17q0 -10 -15.5 -13.5t-42.5 -7t-43 -11.5q-34 -17 -41.5 -58.5t-7.5 -146.5v-465q0 -255 -139.5 -396t-397.5 -141 q-243 0 -385.5 118t-142.5 333v524q0 193 -16 211q-12 14 -42 23t-52.5 15.5t-22.5 14.5zM500 1421q0 14 18 39q54 82 92 82q23 0 68 -22l158 -78q92 -49 92 -74q0 -16 -17 -16q-11 0 -50.5 10t-59.5 14q-174 31 -223 31q-5 0 -26.5 -2t-25.5 -2q-26 0 -26 18z" />
<glyph unicode="&#xfa;" horiz-adv-x="1511" d="M82 1210q0 10 8 13.5t31 3.5q17 0 86 -4t115 -4q55 0 127.5 4t80.5 4q24 0 33.5 -3.5t9.5 -15.5q0 -9 -17.5 -14t-43 -9.5t-35.5 -8.5q-18 -8 -26 -20.5t-13.5 -59.5t-5.5 -144v-485q0 -63 8 -118.5t29.5 -111.5t55 -96t89.5 -65t129 -25q85 0 159.5 24t136 72t97 130.5 t35.5 189.5v373q0 154 -7 223.5t-27 89.5q-15 16 -50 24.5t-60.5 14.5t-25.5 18q0 10 10.5 12.5t35.5 2.5q9 0 70.5 -3t107.5 -3q41 0 91 4t60 4q54 0 54 -17q0 -10 -15.5 -13.5t-42.5 -7t-43 -11.5q-34 -17 -41.5 -58.5t-7.5 -146.5v-465q0 -255 -139.5 -396t-397.5 -141 q-243 0 -385.5 118t-142.5 333v524q0 193 -16 211q-12 14 -42 23t-52.5 15.5t-22.5 14.5zM582 1368q0 29 86 70l166 75q54 23 65 23q27 0 70 -51q41 -52 41 -70q0 -10 -6 -14t-21 -4q-4 0 -25.5 2t-31.5 2q-70 0 -156 -12q-27 -4 -87.5 -20.5t-78.5 -16.5q-22 0 -22 16z" />
<glyph unicode="&#xfb;" horiz-adv-x="1511" d="M82 1210q0 10 8 13.5t31 3.5q17 0 86 -4t115 -4q55 0 127.5 4t80.5 4q24 0 33.5 -3.5t9.5 -15.5q0 -9 -17.5 -14t-43 -9.5t-35.5 -8.5q-18 -8 -26 -20.5t-13.5 -59.5t-5.5 -144v-485q0 -63 8 -118.5t29.5 -111.5t55 -96t89.5 -65t129 -25q85 0 159.5 24t136 72t97 130.5 t35.5 189.5v373q0 154 -7 223.5t-27 89.5q-15 16 -50 24.5t-60.5 14.5t-25.5 18q0 10 10.5 12.5t35.5 2.5q9 0 70.5 -3t107.5 -3q41 0 91 4t60 4q54 0 54 -17q0 -10 -15.5 -13.5t-42.5 -7t-43 -11.5q-34 -17 -41.5 -58.5t-7.5 -146.5v-465q0 -255 -139.5 -396t-397.5 -141 q-243 0 -385.5 118t-142.5 333v524q0 193 -16 211q-12 14 -42 23t-52.5 15.5t-22.5 14.5zM496 1386q0 20 45 50l178 127q27 20 41 20q16 0 49 -20q42 -25 118.5 -65.5t92.5 -43.5q14 -4 14 -10q0 -8 -41 -49q-5 -5 -12.5 -13t-11.5 -12.5t-9.5 -9t-9.5 -6.5t-8 -2 q-17 0 -47 18l-113 70q-21 12 -32 12t-54 -22l-82 -44q-54 -28 -88 -28q-30 0 -30 28z" />
<glyph unicode="&#xfc;" horiz-adv-x="1511" d="M82 1210q0 10 8 13.5t31 3.5q17 0 86 -4t115 -4q55 0 127.5 4t80.5 4q24 0 33.5 -3.5t9.5 -15.5q0 -9 -17.5 -14t-43 -9.5t-35.5 -8.5q-18 -8 -26 -20.5t-13.5 -59.5t-5.5 -144v-485q0 -63 8 -118.5t29.5 -111.5t55 -96t89.5 -65t129 -25q85 0 159.5 24t136 72t97 130.5 t35.5 189.5v373q0 154 -7 223.5t-27 89.5q-15 16 -50 24.5t-60.5 14.5t-25.5 18q0 10 10.5 12.5t35.5 2.5q9 0 70.5 -3t107.5 -3q41 0 91 4t60 4q54 0 54 -17q0 -10 -15.5 -13.5t-42.5 -7t-43 -11.5q-34 -17 -41.5 -58.5t-7.5 -146.5v-465q0 -255 -139.5 -396t-397.5 -141 q-243 0 -385.5 118t-142.5 333v524q0 193 -16 211q-12 14 -42 23t-52.5 15.5t-22.5 14.5zM502 1454q0 45 29.5 75t72.5 30t74 -30t31 -75t-30.5 -73.5t-74.5 -28.5q-43 0 -72.5 28.5t-29.5 73.5zM821 1454q0 45 30 75t73 30t73.5 -30t30.5 -75t-30 -73.5t-74 -28.5 t-73.5 28.5t-29.5 73.5z" />
<glyph unicode="&#xfd;" horiz-adv-x="1308" d="M-20 1210q0 25 69 25q33 0 102 -8t107 -8q22 0 72.5 3t81.5 3q61 0 61 -21q0 -8 -31.5 -15t-31.5 -22q0 -25 39 -86l247 -376q20 -33 27 -33t20 20l197 301q72 113 72 168q0 14 -9.5 21t-21.5 7.5t-21.5 4.5t-9.5 12q0 19 51 19q15 0 58 -3t67 -3t79 4t75 4q49 0 49 -15 t-49 -18q-90 -8 -156 -111l-315 -499q-18 -29 -22.5 -44t-4.5 -51v-264q0 -130 21 -153q22 -24 58.5 -32.5t60.5 -11.5t24 -16q0 -18 -49 -18q-15 0 -83 3t-136 3q-78 0 -149 -4t-80 -4q-48 0 -48 18q0 11 25.5 17t60 12.5t48.5 17.5q30 22 30 136v303q0 41 -18 69l-350 518 q-28 42 -49.5 63.5t-49.5 29.5q-25 7 -58.5 12t-46.5 9t-13 13zM563 1368q0 29 86 70l166 75q54 23 66 23q26 0 69 -51q41 -52 41 -70q0 -10 -5.5 -14t-20.5 -4q-4 0 -26 2t-32 2q-69 0 -155 -12q-27 -4 -87.5 -20.5t-78.5 -16.5q-23 0 -23 16z" />
<glyph unicode="&#xfe;" horiz-adv-x="1249" d="M78 12q0 13 27 16.5t62 11t50 28.5q16 23 20.5 72.5t4.5 142.5v782q0 28 -1 41t-4.5 31t-13.5 28.5t-26 16.5q-12 5 -33.5 6t-34 4.5t-12.5 13.5q0 21 30 21q10 0 79 -4t120 -4q39 0 119.5 5t83.5 5q43 0 43 -19q0 -10 -13 -12.5t-38 -6.5t-43 -15q-39 -23 -39 -119 q0 -60 5 -74t32 -14h92q66 0 128 -10t122.5 -34t105.5 -61t72.5 -95.5t27.5 -131.5q0 -124 -61.5 -217.5t-171.5 -145.5q-68 -30 -149 -30q-117 0 -117 35q0 20 28 20q8 0 28 -5t32 -5q184 0 184 274q0 169 -78 248.5t-239 79.5q-29 0 -35 -24.5t-6 -102.5v-387 q0 -275 28 -311q18 -20 54 -26.5t61 -10t25 -19.5q0 -18 -56 -18q-12 0 -93.5 4t-125.5 4q-40 0 -122 -4t-97 -4q-55 0 -55 20z" />
<glyph unicode="&#xff;" horiz-adv-x="1308" d="M-20 1210q0 25 69 25q33 0 102 -8t107 -8q22 0 72.5 3t81.5 3q61 0 61 -21q0 -8 -31.5 -15t-31.5 -22q0 -25 39 -86l247 -376q20 -33 27 -33t20 20l197 301q72 113 72 168q0 14 -9.5 21t-21.5 7.5t-21.5 4.5t-9.5 12q0 19 51 19q15 0 58 -3t67 -3t79 4t75 4q49 0 49 -15 t-49 -18q-90 -8 -156 -111l-315 -499q-18 -29 -22.5 -44t-4.5 -51v-264q0 -130 21 -153q22 -24 58.5 -32.5t60.5 -11.5t24 -16q0 -18 -49 -18q-15 0 -83 3t-136 3q-78 0 -149 -4t-80 -4q-48 0 -48 18q0 11 25.5 17t60 12.5t48.5 17.5q30 22 30 136v303q0 41 -18 69l-350 518 q-28 42 -49.5 63.5t-49.5 29.5q-25 7 -58.5 12t-46.5 9t-13 13zM459 1454q0 45 29.5 75t72.5 30t74 -30t31 -75t-30.5 -73.5t-74.5 -28.5q-43 0 -72.5 28.5t-29.5 73.5zM778 1454q0 45 30 75t73 30t73.5 -30t30.5 -75t-30 -73.5t-74 -28.5t-73.5 28.5t-29.5 73.5z" />
<glyph unicode="&#x152;" horiz-adv-x="2054" d="M82 705q0 168 55 310.5t153.5 241t237.5 154t303 55.5q71 0 223 -16t230 -16q118 0 322 4q33 1 84 3.5t98 2.5q18 0 54 2t54 2q15 0 15 -23q0 -5 -1 -16t-1 -14q0 -25 3 -78t3 -78q0 -37 -12 -37q-11 0 -16.5 10.5t-8.5 28t-4 21.5q-23 62 -82 79q-41 11 -129 11h-186 q-64 0 -64 -49v-469q0 -22 5.5 -26.5t29.5 -4.5h217q72 0 98 20q16 12 24 42.5t14 53.5t16 23q16 0 16 -65q0 -19 -3 -55t-3 -54q0 -26 2 -71t2 -70q0 -37 -16 -37q-12 0 -16.5 16t-12.5 43.5t-27 46.5q-17 17 -90 17h-235q-14 0 -17.5 -6t-3.5 -21v-477q0 -21 1 -31.5 t6.5 -24t17.5 -24.5q39 -37 188 -37q136 0 197 23q30 12 51 35t29.5 43.5t17 36.5t16.5 16q15 0 15 -27q0 -21 -41 -123q-6 -14 -12 -34.5t-10 -33.5t-7 -16q-18 -18 -59 -18q-82 0 -265.5 3t-265.5 3q-102 0 -244.5 -16.5t-222.5 -16.5q-146 0 -281.5 54.5t-237.5 150 t-163 235t-61 298.5zM338 782q0 -207 66.5 -374.5t190 -265t282.5 -97.5q99 0 176 18q32 8 49.5 14.5t35.5 19t26.5 32t9.5 49.5q6 133 6 334v778q0 36 -23 45q-77 32 -153.5 41.5t-204.5 9.5q-101 0 -182.5 -40t-132 -103t-85 -145t-48 -160.5t-13.5 -155.5z" />
<glyph unicode="&#x153;" horiz-adv-x="1843" d="M82 598q0 191 83.5 339t233.5 229t344 81q61 0 188 -14t197 -14q129 0 256 3t202.5 6t80.5 3q19 0 19 -21q0 -6 -1.5 -19t-1.5 -20q0 -23 2.5 -67t2.5 -53q0 -33 -19 -33q-6 0 -9.5 2.5t-6.5 7.5t-4.5 10.5t-4 15.5t-4.5 17q-14 44 -50.5 59t-108.5 15h-195 q-22 0 -29.5 -8t-7.5 -31v-397q0 -18 4.5 -21.5t20.5 -3.5h188q56 0 82 18q14 9 25.5 58t25.5 49q21 0 21 -41q0 -7 -2 -49t-2 -66q0 -39 1 -84.5t1 -52.5q0 -35 -21 -35q-14 0 -19.5 19.5t-12 48t-19.5 41.5q-14 14 -76 14h-192q-18 0 -21.5 -5.5t-3.5 -25.5v-393 q0 -48 19 -65q33 -33 159 -33q120 0 172 20q52 23 78 82q12 29 25 29q18 0 18 -25q0 -18 -23.5 -76.5t-27.5 -74.5q-8 -27 -20 -35t-47 -8q-28 0 -178 3t-287 3q-55 0 -194 -14.5t-204 -14.5q-130 0 -249.5 46.5t-209.5 127.5t-144 199t-54 254zM317 666q0 -175 58 -317 t165 -224t244 -82q68 0 113 8t72 20.5t41 38t18 52t4 69.5v854q0 16 -19 31.5t-55.5 28.5t-99.5 21t-143 8q-87 0 -157.5 -34t-114 -87t-73 -122t-41.5 -135t-12 -130z" />
<glyph unicode="&#x178;" horiz-adv-x="1443" d="M-41 1427q0 25 72 25q27 0 119 -9t120 -9q34 0 87 4t87 4q64 0 64 -25q0 -7 -37 -16t-37 -19q0 -37 47 -110l283 -447q24 -37 39 -37q8 0 28 23l224 358q82 132 82 199q0 16 -11.5 25t-24.5 11t-24.5 5t-11.5 8q0 23 51 23q18 0 73 -3t73 -3q33 0 87 5t87 5q49 0 49 -21 q0 -7 -21 -10.5t-52.5 -8t-47.5 -11.5q-23 -10 -53.5 -42t-55.5 -71l-362 -590q-21 -32 -27 -55t-6 -60v-313q0 -153 25 -182q13 -17 50 -33t60 -16q49 0 49 -19q0 -22 -67 -22q-31 0 -110 5t-111 5q-33 0 -134.5 -5t-134.5 -5q-47 0 -47 20q0 13 31.5 22t71.5 17.5t53 20.5 q31 29 31 153v361q0 44 -25 84l-397 612q-31 47 -52.5 70t-43.5 32q-6 3 -45 11t-72 17.5t-33 16.5zM504 1667q0 46 33.5 78.5t80.5 32.5t81 -32.5t34 -78.5t-34 -78.5t-81 -32.5t-80.5 32.5t-33.5 78.5zM860 1667q0 46 34 78.5t81 32.5t81 -32.5t34 -78.5t-34 -78.5 t-81 -32.5t-81 32.5t-34 78.5z" />
<glyph unicode="&#x2c6;" horiz-adv-x="600" d="M0 1585q0 20 49 53q25 16 112.5 81t117.5 83q12 8 28 8q12 0 39 -20q44 -29 136 -80t108 -51q10 0 10 -8q0 -6 -43.5 -54.5t-54.5 -48.5q-7 0 -51 23l-125 80q-29 16 -41 16q-11 0 -66 -27l-94 -51q-73 -33 -96 -33q-29 0 -29 29z" />
<glyph unicode="&#x2dc;" horiz-adv-x="618" d="M23 1579q0 41 54 98.5t105 57.5q64 0 159.5 -35t117.5 -35q34 0 55 16.5t33.5 33t25.5 16.5q11 0 18 -7.5t7 -17.5q0 -43 -55 -96.5t-111 -53.5q-65 0 -152.5 32t-121.5 32q-26 0 -45 -10t-27 -22t-18.5 -22t-22.5 -10q-22 0 -22 23z" />
<glyph unicode="&#x2000;" horiz-adv-x="909" />
<glyph unicode="&#x2001;" horiz-adv-x="1819" />
<glyph unicode="&#x2002;" horiz-adv-x="909" />
<glyph unicode="&#x2003;" horiz-adv-x="1819" />
<glyph unicode="&#x2004;" horiz-adv-x="606" />
<glyph unicode="&#x2005;" horiz-adv-x="454" />
<glyph unicode="&#x2006;" horiz-adv-x="303" />
<glyph unicode="&#x2007;" horiz-adv-x="303" />
<glyph unicode="&#x2008;" horiz-adv-x="227" />
<glyph unicode="&#x2009;" horiz-adv-x="363" />
<glyph unicode="&#x200a;" horiz-adv-x="101" />
<glyph unicode="&#x2010;" horiz-adv-x="948" d="M123 659q0 4 10 37l33 86q5 12 10 14.5t27 2.5h573q28 0 38.5 -4.5t10.5 -20.5q0 -50 -34 -53l-439 -49q-3 0 -89.5 -16.5t-115.5 -16.5q-24 0 -24 20z" />
<glyph unicode="&#x2011;" horiz-adv-x="948" d="M123 659q0 4 10 37l33 86q5 12 10 14.5t27 2.5h573q28 0 38.5 -4.5t10.5 -20.5q0 -50 -34 -53l-439 -49q-3 0 -89.5 -16.5t-115.5 -16.5q-24 0 -24 20z" />
<glyph unicode="&#x2012;" horiz-adv-x="948" d="M123 659q0 4 10 37l33 86q5 12 10 14.5t27 2.5h573q28 0 38.5 -4.5t10.5 -20.5q0 -50 -34 -53l-439 -49q-3 0 -89.5 -16.5t-115.5 -16.5q-24 0 -24 20z" />
<glyph unicode="&#x2013;" horiz-adv-x="921" d="M41 702q0 4 10 37l15 43q5 12 10 14.5t26 2.5h744q35 0 35 -6q-1 -9 -7 -25l-16 -49q-4 -17 -10.5 -22t-20.5 -5h-749q-37 0 -37 10z" />
<glyph unicode="&#x2014;" horiz-adv-x="1843" d="M41 702q0 4 10 37l15 43q5 12 10 14.5t26 2.5h1665q35 0 35 -6q0 -9 -6 -25l-16 -49q-4 -17 -10.5 -22t-20.5 -5h-1671q-37 0 -37 10z" />
<glyph unicode="&#x2018;" horiz-adv-x="372" d="M82 1124q0 67 35.5 149.5t79.5 136.5t71 54q8 0 15.5 -6t7.5 -14q0 -18 -18.5 -47t-37 -72t-18.5 -94q0 -26 16.5 -51t33 -44t16.5 -30q0 -30 -41.5 -74.5t-71.5 -44.5q-24 0 -56 43t-32 94z" />
<glyph unicode="&#x2019;" horiz-adv-x="372" d="M82 1008q0 18 18.5 47t37 72t18.5 94q0 26 -16.5 51t-33 44t-16.5 30q0 30 41.5 74t71.5 44q24 0 56 -43t32 -94q0 -67 -36 -149.5t-80 -136.5t-71 -54q-8 0 -15 6t-7 15z" />
<glyph unicode="&#x201a;" horiz-adv-x="348" d="M82 -197q0 18 18.5 47t37 72t18.5 94q0 34 -33 74t-33 51q0 30 41.5 74.5t71.5 44.5q24 0 56 -43t32 -94q0 -67 -36 -149.5t-80 -136.5t-71 -54q-8 0 -15 5.5t-7 14.5z" />
<glyph unicode="&#x201c;" horiz-adv-x="620" d="M66 1124q0 67 35.5 149.5t79.5 136.5t71 54q8 0 15 -5.5t7 -14.5q0 -18 -18 -47t-36.5 -72t-18.5 -94q0 -26 16.5 -51t32.5 -44t16 -30q0 -30 -41 -74.5t-71 -44.5q-24 0 -56 43t-32 94zM354 1124q0 67 36 149.5t80 136.5t71 54q8 0 15 -5.5t7 -14.5q0 -18 -18.5 -47 t-37 -72t-18.5 -94q0 -26 16.5 -51t33 -44t16.5 -30q0 -30 -41.5 -74.5t-71.5 -44.5q-24 0 -56 43t-32 94z" />
<glyph unicode="&#x201d;" horiz-adv-x="622" d="M66 1008q0 18 18 47t36.5 72t18.5 94q0 26 -16.5 51t-32.5 44t-16 30q0 30 41 74t71 44q24 0 56 -43t32 -94q0 -67 -35.5 -149.5t-79.5 -136.5t-71 -54q-8 0 -15 6t-7 15zM354 1008q0 18 18.5 47t37 72t18.5 94q0 26 -16.5 51t-33 44t-16.5 30q0 30 41.5 74t71.5 44 q24 0 56 -43t32 -94q0 -67 -35.5 -149.5t-79.5 -136.5t-71 -54q-8 0 -15.5 6t-7.5 15z" />
<glyph unicode="&#x201e;" horiz-adv-x="620" d="M66 -197q0 18 18 47t36.5 72t18.5 94q0 34 -32.5 74t-32.5 51q0 30 41 74.5t71 44.5q24 0 56 -43t32 -94q0 -67 -35.5 -149.5t-79.5 -136.5t-71 -54q-8 0 -15 5.5t-7 14.5zM354 -197q0 18 18.5 47t37 72t18.5 94q0 34 -33 74t-33 51q0 30 41.5 74.5t71.5 44.5 q24 0 56 -43t32 -94q0 -67 -35.5 -149.5t-79.5 -136.5t-71 -54q-8 0 -15.5 6t-7.5 14z" />
<glyph unicode="&#x2022;" horiz-adv-x="679" d="M156 737q0 11 24 35l131 133q17 17 29 17q7 0 27 -17l139 -139q18 -21 18 -29q0 -13 -18 -28l-131 -131q-4 -4 -8.5 -9t-7 -7.5t-6 -5.5t-6 -4t-5.5 -1q-15 0 -39 27l-123 122q-24 21 -24 37z" />
<glyph unicode="&#x2026;" horiz-adv-x="1265" d="M102 86q0 44 32.5 76.5t76.5 32.5t76 -32.5t32 -76.5t-32 -76.5t-76 -32.5t-76.5 32.5t-32.5 76.5zM524 86q0 39 28.5 74t80.5 35q45 0 76.5 -29t31.5 -74q0 -49 -30 -82t-80 -33q-51 0 -79 33.5t-28 75.5zM946 86q0 44 32.5 76.5t76.5 32.5t76 -32.5t32 -76.5t-32 -76.5 t-76 -32.5t-76.5 32.5t-32.5 76.5z" />
<glyph unicode="&#x202f;" horiz-adv-x="363" />
<glyph unicode="&#x2039;" horiz-adv-x="612" d="M41 737q0 10 14 26t66 64l280 256q56 50 76 50q33 0 33 -31q0 -18 -33 -51l-176 -203q-72 -84 -72 -100q0 -21 45 -70l203 -219q33 -33 33 -45q0 -17 -12 -29l-15 -12q-29 -27 -41 -27q-17 0 -86 66l-245 235q-70 67 -70 90z" />
<glyph unicode="&#x203a;" horiz-adv-x="612" d="M102 377q0 18 33 51l176 203q72 84 72 100q0 21 -45 70l-203 219q-33 33 -33 45q0 16 13 29l14 12q29 27 41 27q17 0 86 -66l246 -236q69 -66 69 -90q0 -11 -14 -27t-65 -63l-281 -256q-55 -49 -76 -49q-33 0 -33 31z" />
<glyph unicode="&#x205f;" horiz-adv-x="454" />
<glyph unicode="&#x20ac;" horiz-adv-x="1261" d="M-4 586q0 6 10 39l14 43q4 12 9.5 14t27.5 2h86q0 46 7 107h-117q-37 0 -37 8q0 6 10 39l14 43q4 12 9.5 14t27.5 2h107q22 120 71.5 222t121.5 180t172 122.5t216 44.5q73 0 137 -14.5t99 -31.5t66 -31.5t47 -14.5q10 0 22 5t19 5q10 0 10 -22q-1 -11 -6.5 -52.5 t-5.5 -56.5q0 -13 3 -60t3 -73q0 -76 -25 -76q-11 0 -17.5 19.5t-16.5 58t-25 68.5q-40 83 -123.5 139.5t-218.5 56.5q-76 0 -132.5 -28t-89 -71.5t-53 -110.5t-28 -131t-9.5 -148h633q28 0 32 -4.5t-3 -26.5l-16 -49q-4 -17 -10.5 -21.5t-20.5 -4.5h-615q0 -72 2 -107h558 q29 0 32.5 -4.5t-4.5 -26.5l-16 -49q-4 -17 -10.5 -21.5t-20.5 -4.5h-532q11 -122 38.5 -217t73.5 -167t115.5 -110.5t159.5 -38.5q98 0 196 81.5t137 178.5q5 11 7 24t2 21t3.5 13.5t12.5 5.5q25 0 25 -56q0 -32 -27 -151q-6 -25 -14 -70q-5 -38 -49 -51q-8 -2 -65 -20 t-90 -26.5t-93.5 -18t-116.5 -9.5q-119 0 -222 48t-176 131.5t-120 194.5t-60 237h-114q-37 0 -37 8z" />
<glyph unicode="&#x2122;" horiz-adv-x="1785" d="M61 1331q0 5 23 99q3 20 18 20q4 0 18.5 -4t50 -8t89.5 -4h272q16 0 75 2t81 2q23 0 23 -19q0 -13 -6 -37t-7 -36q0 -4 -0.5 -10.5t-1 -10t-1 -8.5t-2 -8t-3.5 -6t-5 -4t-7 -1q-19 0 -19 29q-2 33 -75 33h-109q-10 0 -10 -10q-2 -20 -2 -179v-223q0 -195 12 -209 q16 -19 49 -24q31 -4 31 -15q0 -9 -6.5 -14t-13 -5.5t-19.5 -0.5q-14 0 -51 2t-64 2q-21 0 -64.5 -2t-66.5 -2q-32 0 -32 18q0 17 28 17q37 0 43 18q10 27 10 170v328q0 94 -4.5 111.5t-27.5 17.5h-148q-32 0 -43 -41q-4 -21 -18 -21q-17 0 -17 33zM733 696q0 4 6.5 9.5 t12.5 7.5q21 5 26 10q30 20 41 104l74 598q3 29 22 29q17 0 31 -24l262 -482q20 -39 27 -39q5 0 12 13l262 505q7 14 16.5 22.5t16.5 8.5q9 0 16.5 -9t8.5 -24l80 -591q0 -3 2 -20t4 -27.5t6 -25.5t11.5 -25t17.5 -15q6 -4 20 -4q6 0 11 -5t5 -12q0 -20 -47 -20q-7 0 -42 2 t-74 2q-9 0 -37.5 -2t-53.5 -2q-29 0 -37 2.5t-8 15.5q0 17 31 19q45 2 45 88q0 29 -6 78l-29 217q-3 30 -10 30q-4 0 -18 -28l-197 -381q-15 -31 -31 -31q-14 0 -30 31l-199 371q-26 51 -37 51q-6 0 -12 -64l-21 -209q-6 -81 -6 -88q0 -31 12 -48t41 -21q25 -4 25 -15 q0 -10 -7 -14t-26 -4q-10 0 -41 2t-57 2q-13 0 -41 -2t-43 -2q-13 0 -18.5 0.5t-11 4t-5.5 11.5z" />
<glyph unicode="&#xe000;" horiz-adv-x="1228" d="M0 0v1229h1229v-1229h-1229z" />
</font>
</defs>
</svg>
